<svg xmlns="http://www.w3.org/2000/svg" xmlns:xlink="http://www.w3.org/1999/xlink" width="250" zoomAndPan="magnify" viewBox="0 0 187.5 49.499998" height="66" preserveAspectRatio="xMidYMid meet" version="1.0"><defs><clipPath id="3d99a42697"><path d="M 0.691406 5.101562 L 94.242188 5.101562 L 94.242188 39.257812 L 0.691406 39.257812 Z M 0.691406 5.101562 " clip-rule="nonzero"/></clipPath><clipPath id="628fe6c6e4"><path d="M 63 16 L 94.242188 16 L 94.242188 18 L 63 18 Z M 63 16 " clip-rule="nonzero"/></clipPath><clipPath id="0ace7c8537"><path d="M 0.691406 16 L 32 16 L 32 18 L 0.691406 18 Z M 0.691406 16 " clip-rule="nonzero"/></clipPath><clipPath id="3b48351519"><path d="M 30 0.101562 L 66 0.101562 L 66 34.058594 L 30 34.058594 Z M 30 0.101562 " clip-rule="nonzero"/></clipPath><clipPath id="81e92ce053"><rect x="0" width="95" y="0" height="35"/></clipPath><clipPath id="0979689cc8"><path d="M 93.5 5.101562 L 186.316406 5.101562 L 186.316406 39.257812 L 93.5 39.257812 Z M 93.5 5.101562 " clip-rule="nonzero"/></clipPath><clipPath id="64f453db5c"><path d="M 63 16 L 93.316406 16 L 93.316406 18 L 63 18 Z M 63 16 " clip-rule="nonzero"/></clipPath><clipPath id="5eb6cfb093"><path d="M 0.5 16 L 32 16 L 32 18 L 0.5 18 Z M 0.5 16 " clip-rule="nonzero"/></clipPath><clipPath id="fa7855b7a5"><path d="M 30 0.101562 L 65 0.101562 L 65 34.058594 L 30 34.058594 Z M 30 0.101562 " clip-rule="nonzero"/></clipPath><clipPath id="cf802f6c00"><rect x="0" width="94" y="0" height="35"/></clipPath></defs><g clip-path="url(#3d99a42697)"><g transform="matrix(1, 0, 0, 1, 0.000000000000000111, 5)"><g clip-path="url(#81e92ce053)"><g clip-path="url(#628fe6c6e4)"><path fill="#c74187" d="M 94.234375 16.417969 L 94.234375 17.507812 L 63.222656 17.507812 L 63.222656 16.417969 Z M 94.234375 16.417969 " fill-opacity="1" fill-rule="nonzero"/></g><path fill="#e96ea9" d="M 66.660156 19.910156 C 66.351562 19.910156 66.042969 19.890625 65.738281 19.851562 C 65.433594 19.816406 65.140625 19.757812 64.855469 19.683594 C 64.566406 19.609375 64.296875 19.519531 64.039062 19.414062 C 63.78125 19.304688 63.542969 19.183594 63.324219 19.046875 C 63.105469 18.910156 62.910156 18.761719 62.734375 18.601562 C 62.5625 18.4375 62.417969 18.269531 62.300781 18.089844 C 62.179688 17.910156 62.09375 17.726562 62.03125 17.539062 C 61.972656 17.347656 61.941406 17.15625 61.941406 16.960938 C 61.941406 16.769531 61.972656 16.578125 62.03125 16.386719 C 62.09375 16.199219 62.179688 16.015625 62.300781 15.835938 C 62.417969 15.65625 62.5625 15.488281 62.734375 15.324219 C 62.910156 15.164062 63.105469 15.015625 63.324219 14.878906 C 63.542969 14.742188 63.78125 14.621094 64.039062 14.511719 C 64.296875 14.40625 64.566406 14.316406 64.855469 14.242188 C 65.140625 14.167969 65.433594 14.109375 65.738281 14.074219 C 66.042969 14.035156 66.351562 14.015625 66.660156 14.015625 C 66.96875 14.015625 67.277344 14.035156 67.582031 14.074219 C 67.882812 14.109375 68.179688 14.167969 68.464844 14.242188 C 68.75 14.316406 69.023438 14.40625 69.28125 14.511719 C 69.539062 14.621094 69.777344 14.742188 69.996094 14.878906 C 70.214844 15.015625 70.410156 15.164062 70.582031 15.324219 C 70.753906 15.488281 70.902344 15.65625 71.019531 15.835938 C 71.136719 16.015625 71.226562 16.199219 71.289062 16.386719 C 71.347656 16.578125 71.378906 16.769531 71.378906 16.960938 C 71.378906 17.15625 71.347656 17.347656 71.289062 17.539062 C 71.226562 17.726562 71.136719 17.910156 71.019531 18.089844 C 70.902344 18.269531 70.753906 18.4375 70.582031 18.601562 C 70.410156 18.761719 70.214844 18.910156 69.996094 19.046875 C 69.777344 19.183594 69.539062 19.304688 69.28125 19.414062 C 69.023438 19.519531 68.75 19.609375 68.464844 19.683594 C 68.179688 19.757812 67.882812 19.816406 67.582031 19.851562 C 67.277344 19.890625 66.96875 19.910156 66.660156 19.910156 Z M 66.660156 19.910156 " fill-opacity="1" fill-rule="nonzero"/><path fill="#e96ea9" d="M 75.890625 18.59375 C 75.671875 18.59375 75.460938 18.554688 75.261719 18.472656 C 75.058594 18.386719 74.882812 18.269531 74.726562 18.117188 C 74.574219 17.964844 74.457031 17.789062 74.371094 17.585938 C 74.289062 17.386719 74.246094 17.179688 74.246094 16.960938 C 74.246094 16.746094 74.289062 16.539062 74.371094 16.339844 C 74.457031 16.136719 74.574219 15.960938 74.726562 15.808594 C 74.882812 15.65625 75.058594 15.539062 75.261719 15.453125 C 75.460938 15.371094 75.671875 15.332031 75.890625 15.332031 C 76.105469 15.332031 76.316406 15.371094 76.519531 15.453125 C 76.71875 15.539062 76.898438 15.65625 77.050781 15.808594 C 77.203125 15.960938 77.324219 16.136719 77.40625 16.339844 C 77.488281 16.539062 77.53125 16.746094 77.53125 16.960938 C 77.53125 17.179688 77.488281 17.386719 77.40625 17.585938 C 77.324219 17.789062 77.203125 17.964844 77.050781 18.117188 C 76.898438 18.269531 76.71875 18.386719 76.519531 18.472656 C 76.316406 18.554688 76.105469 18.59375 75.890625 18.59375 Z M 75.890625 18.59375 " fill-opacity="1" fill-rule="nonzero"/><path fill="#c74187" d="M 72.8125 18.59375 C 72.59375 18.59375 72.386719 18.554688 72.183594 18.472656 C 71.984375 18.386719 71.804688 18.269531 71.652344 18.117188 C 71.496094 17.964844 71.378906 17.789062 71.296875 17.585938 C 71.210938 17.386719 71.171875 17.179688 71.171875 16.960938 C 71.171875 16.746094 71.210938 16.539062 71.296875 16.339844 C 71.378906 16.136719 71.496094 15.960938 71.652344 15.808594 C 71.804688 15.65625 71.984375 15.539062 72.183594 15.453125 C 72.386719 15.371094 72.59375 15.332031 72.8125 15.332031 C 73.03125 15.332031 73.238281 15.371094 73.441406 15.453125 C 73.640625 15.539062 73.820312 15.65625 73.972656 15.808594 C 74.128906 15.960938 74.246094 16.136719 74.328125 16.339844 C 74.414062 16.539062 74.453125 16.746094 74.453125 16.960938 C 74.453125 17.179688 74.414062 17.386719 74.328125 17.585938 C 74.246094 17.789062 74.128906 17.964844 73.972656 18.117188 C 73.820312 18.269531 73.640625 18.386719 73.441406 18.472656 C 73.238281 18.554688 73.03125 18.59375 72.8125 18.59375 Z M 72.8125 18.59375 " fill-opacity="1" fill-rule="nonzero"/><g clip-path="url(#0ace7c8537)"><path fill="#c74187" d="M 31.703125 16.417969 L 31.703125 17.507812 L 0.691406 17.507812 L 0.691406 16.417969 Z M 31.703125 16.417969 " fill-opacity="1" fill-rule="nonzero"/></g><path fill="#e96ea9" d="M 29.683594 19.910156 C 29.375 19.910156 29.066406 19.890625 28.761719 19.851562 C 28.460938 19.816406 28.164062 19.757812 27.878906 19.683594 C 27.589844 19.609375 27.320312 19.519531 27.0625 19.414062 C 26.804688 19.304688 26.566406 19.183594 26.347656 19.046875 C 26.128906 18.910156 25.933594 18.761719 25.761719 18.601562 C 25.589844 18.4375 25.441406 18.269531 25.324219 18.089844 C 25.207031 17.910156 25.117188 17.726562 25.054688 17.539062 C 24.996094 17.347656 24.964844 17.15625 24.964844 16.960938 C 24.964844 16.769531 24.996094 16.578125 25.054688 16.386719 C 25.117188 16.199219 25.207031 16.015625 25.324219 15.835938 C 25.441406 15.65625 25.589844 15.488281 25.761719 15.324219 C 25.933594 15.164062 26.128906 15.015625 26.347656 14.878906 C 26.566406 14.742188 26.804688 14.621094 27.0625 14.511719 C 27.320312 14.40625 27.589844 14.316406 27.878906 14.242188 C 28.164062 14.167969 28.460938 14.109375 28.761719 14.074219 C 29.066406 14.035156 29.375 14.015625 29.683594 14.015625 C 29.992188 14.015625 30.300781 14.035156 30.605469 14.074219 C 30.910156 14.109375 31.203125 14.167969 31.488281 14.242188 C 31.777344 14.316406 32.046875 14.40625 32.304688 14.511719 C 32.5625 14.621094 32.800781 14.742188 33.019531 14.878906 C 33.238281 15.015625 33.433594 15.164062 33.605469 15.324219 C 33.78125 15.488281 33.925781 15.65625 34.042969 15.835938 C 34.160156 16.015625 34.25 16.199219 34.3125 16.386719 C 34.371094 16.578125 34.402344 16.769531 34.402344 16.960938 C 34.402344 17.15625 34.371094 17.347656 34.3125 17.539062 C 34.25 17.726562 34.160156 17.910156 34.042969 18.089844 C 33.925781 18.269531 33.78125 18.4375 33.605469 18.601562 C 33.433594 18.761719 33.238281 18.910156 33.019531 19.046875 C 32.800781 19.183594 32.5625 19.304688 32.304688 19.414062 C 32.046875 19.519531 31.777344 19.609375 31.488281 19.683594 C 31.203125 19.757812 30.910156 19.816406 30.605469 19.851562 C 30.300781 19.890625 29.992188 19.910156 29.683594 19.910156 Z M 29.683594 19.910156 " fill-opacity="1" fill-rule="nonzero"/><g clip-path="url(#3b48351519)"><path fill="#ffb3d7" d="M 47.046875 34.058594 L 45.5 32.011719 L 43.367188 33.476562 L 42.3125 31.148438 L 39.914062 32.125 L 39.367188 29.613281 L 36.835938 30.0625 L 36.835938 27.492188 L 34.269531 27.378906 L 34.835938 24.882812 L 32.328125 24.226562 L 33.421875 21.898438 L 31.136719 20.714844 L 32.703125 18.671875 L 30.722656 17.039062 L 32.683594 15.386719 L 31.097656 13.359375 L 33.402344 12.175781 L 32.289062 9.851562 L 34.78125 9.175781 L 34.195312 6.679688 L 36.761719 6.546875 L 36.742188 3.976562 L 39.292969 4.40625 L 39.800781 1.894531 L 42.199219 2.851562 L 43.253906 0.523438 L 45.386719 1.96875 L 46.933594 -0.0976562 L 48.691406 1.78125 L 50.652344 0.0898438 L 51.976562 2.304688 L 54.238281 1.066406 L 55.050781 3.507812 L 57.523438 2.792969 L 57.789062 5.347656 L 60.375 5.175781 L 60.074219 7.730469 L 62.640625 8.105469 L 61.789062 10.542969 L 64.207031 11.464844 L 62.867188 13.660156 L 65.015625 15.066406 L 63.222656 16.925781 L 65.035156 18.765625 L 62.882812 20.210938 L 64.242188 22.386719 L 61.847656 23.324219 L 62.695312 25.746094 L 60.148438 26.160156 L 60.449219 28.691406 L 57.882812 28.542969 L 57.617188 31.113281 L 55.144531 30.398438 L 54.351562 32.839844 L 52.070312 31.636719 L 50.765625 33.851562 L 48.804688 32.183594 Z M 47.046875 34.058594 " fill-opacity="1" fill-rule="nonzero"/></g><path fill="#c74187" d="M 47.898438 31.300781 C 46.949219 31.300781 46.011719 31.207031 45.082031 31.023438 C 44.152344 30.839844 43.25 30.566406 42.371094 30.207031 C 41.496094 29.847656 40.664062 29.40625 39.875 28.882812 C 39.085938 28.355469 38.359375 27.761719 37.6875 27.09375 C 37.015625 26.429688 36.417969 25.703125 35.890625 24.921875 C 35.367188 24.136719 34.921875 23.308594 34.558594 22.4375 C 34.195312 21.566406 33.921875 20.667969 33.734375 19.746094 C 33.550781 18.820312 33.457031 17.886719 33.457031 16.945312 C 33.457031 16 33.550781 15.066406 33.734375 14.144531 C 33.921875 13.21875 34.195312 12.320312 34.558594 11.449219 C 34.921875 10.578125 35.367188 9.75 35.890625 8.96875 C 36.417969 8.183594 37.015625 7.460938 37.6875 6.792969 C 38.359375 6.125 39.085938 5.53125 39.875 5.007812 C 40.664062 4.484375 41.496094 4.042969 42.371094 3.679688 C 43.25 3.320312 44.152344 3.046875 45.082031 2.863281 C 46.011719 2.679688 46.949219 2.585938 47.898438 2.585938 C 48.847656 2.585938 49.785156 2.679688 50.714844 2.863281 C 51.644531 3.046875 52.546875 3.320312 53.421875 3.679688 C 54.300781 4.042969 55.132812 4.484375 55.921875 5.007812 C 56.707031 5.53125 57.4375 6.125 58.109375 6.792969 C 58.777344 7.460938 59.378906 8.183594 59.902344 8.96875 C 60.429688 9.75 60.875 10.578125 61.238281 11.449219 C 61.601562 12.320312 61.875 13.21875 62.058594 14.144531 C 62.246094 15.066406 62.335938 16 62.335938 16.945312 C 62.335938 17.886719 62.246094 18.820312 62.058594 19.746094 C 61.875 20.667969 61.601562 21.566406 61.238281 22.4375 C 60.875 23.308594 60.429688 24.136719 59.902344 24.921875 C 59.378906 25.703125 58.777344 26.429688 58.109375 27.09375 C 57.4375 27.761719 56.707031 28.355469 55.921875 28.882812 C 55.132812 29.40625 54.300781 29.847656 53.421875 30.207031 C 52.546875 30.566406 51.644531 30.839844 50.714844 31.023438 C 49.785156 31.207031 48.847656 31.300781 47.898438 31.300781 Z M 47.898438 31.300781 " fill-opacity="1" fill-rule="nonzero"/><path fill="#c74187" d="M 47.898438 31.300781 C 46.949219 31.300781 46.011719 31.207031 45.082031 31.023438 C 44.152344 30.839844 43.25 30.566406 42.371094 30.207031 C 41.496094 29.847656 40.664062 29.40625 39.875 28.882812 C 39.085938 28.355469 38.359375 27.761719 37.6875 27.09375 C 37.015625 26.429688 36.417969 25.703125 35.890625 24.921875 C 35.367188 24.136719 34.921875 23.308594 34.558594 22.4375 C 34.195312 21.566406 33.921875 20.667969 33.734375 19.746094 C 33.550781 18.820312 33.457031 17.886719 33.457031 16.945312 C 33.457031 16 33.550781 15.066406 33.734375 14.144531 C 33.921875 13.21875 34.195312 12.320312 34.558594 11.449219 C 34.921875 10.578125 35.367188 9.75 35.890625 8.96875 C 36.417969 8.183594 37.015625 7.460938 37.6875 6.792969 C 38.359375 6.125 39.085938 5.53125 39.875 5.007812 C 40.664062 4.484375 41.496094 4.042969 42.371094 3.679688 C 43.25 3.320312 44.152344 3.046875 45.082031 2.863281 C 46.011719 2.679688 46.949219 2.585938 47.898438 2.585938 C 48.847656 2.585938 49.785156 2.679688 50.714844 2.863281 C 51.644531 3.046875 52.546875 3.320312 53.421875 3.679688 C 54.300781 4.042969 55.132812 4.484375 55.921875 5.007812 C 56.707031 5.53125 57.4375 6.125 58.109375 6.792969 C 58.777344 7.460938 59.378906 8.183594 59.902344 8.96875 C 60.429688 9.75 60.875 10.578125 61.238281 11.449219 C 61.601562 12.320312 61.875 13.21875 62.058594 14.144531 C 62.246094 15.066406 62.335938 16 62.335938 16.945312 C 62.335938 17.886719 62.246094 18.820312 62.058594 19.746094 C 61.875 20.667969 61.601562 21.566406 61.238281 22.4375 C 60.875 23.308594 60.429688 24.136719 59.902344 24.921875 C 59.378906 25.703125 58.777344 26.429688 58.109375 27.09375 C 57.4375 27.761719 56.707031 28.355469 55.921875 28.882812 C 55.132812 29.40625 54.300781 29.847656 53.421875 30.207031 C 52.546875 30.566406 51.644531 30.839844 50.714844 31.023438 C 49.785156 31.207031 48.847656 31.300781 47.898438 31.300781 Z M 47.898438 31.300781 " fill-opacity="1" fill-rule="nonzero"/><path fill="#ffb3d7" d="M 47.21875 30.832031 L 45.953125 29.179688 L 44.234375 30.363281 L 43.367188 28.464844 L 41.425781 29.253906 L 40.988281 27.226562 L 38.914062 27.585938 L 38.933594 25.5 L 36.835938 25.40625 L 37.289062 23.382812 L 35.269531 22.835938 L 36.15625 20.960938 L 34.289062 20.003906 L 35.574219 18.351562 L 33.949219 17.019531 L 35.554688 15.6875 L 34.269531 14.035156 L 36.121094 13.058594 L 35.234375 11.183594 L 37.253906 10.636719 L 36.78125 8.613281 L 38.875 8.5 L 38.839844 6.417969 L 40.914062 6.773438 L 41.328125 4.726562 L 43.273438 5.515625 L 44.140625 3.601562 L 45.859375 4.785156 L 47.125 3.113281 L 48.558594 4.632812 L 50.125 3.261719 L 51.199219 5.046875 L 53.050781 4.050781 L 53.710938 6.039062 L 55.710938 5.457031 L 55.9375 7.523438 L 58.035156 7.390625 L 57.789062 9.457031 L 59.863281 9.773438 L 59.183594 11.746094 L 61.148438 12.496094 L 60.054688 14.277344 L 61.808594 15.425781 L 60.355469 16.925781 L 61.808594 18.425781 L 60.074219 19.589844 L 61.167969 21.355469 L 59.222656 22.125 L 59.921875 24.09375 L 57.84375 24.414062 L 58.089844 26.476562 L 55.996094 26.363281 L 55.804688 28.429688 L 53.785156 27.867188 L 53.144531 29.855469 L 51.296875 28.859375 L 50.238281 30.664062 L 48.632812 29.3125 Z M 47.21875 30.832031 " fill-opacity="1" fill-rule="nonzero"/><path fill="#e96ea9" d="M 47.898438 29.648438 C 47.058594 29.648438 46.226562 29.566406 45.40625 29.40625 C 44.582031 29.242188 43.78125 29 43.007812 28.683594 C 42.234375 28.363281 41.496094 27.972656 40.796875 27.507812 C 40.101562 27.042969 39.457031 26.519531 38.863281 25.929688 C 38.269531 25.339844 37.738281 24.695312 37.273438 24.003906 C 36.808594 23.308594 36.414062 22.578125 36.09375 21.804688 C 35.769531 21.035156 35.527344 20.242188 35.367188 19.421875 C 35.203125 18.605469 35.121094 17.777344 35.121094 16.945312 C 35.121094 16.109375 35.203125 15.285156 35.367188 14.464844 C 35.527344 13.648438 35.769531 12.851562 36.09375 12.082031 C 36.414062 11.3125 36.808594 10.578125 37.273438 9.886719 C 37.738281 9.191406 38.269531 8.550781 38.863281 7.960938 C 39.457031 7.371094 40.101562 6.84375 40.796875 6.378906 C 41.496094 5.917969 42.234375 5.527344 43.007812 5.207031 C 43.78125 4.886719 44.582031 4.644531 45.40625 4.484375 C 46.226562 4.320312 47.058594 4.238281 47.898438 4.238281 C 48.738281 4.238281 49.566406 4.320312 50.390625 4.484375 C 51.214844 4.644531 52.011719 4.886719 52.789062 5.207031 C 53.5625 5.527344 54.300781 5.917969 54.996094 6.378906 C 55.695312 6.84375 56.339844 7.371094 56.933594 7.960938 C 57.527344 8.550781 58.054688 9.191406 58.523438 9.886719 C 58.988281 10.578125 59.382812 11.3125 59.703125 12.082031 C 60.023438 12.851562 60.265625 13.648438 60.429688 14.464844 C 60.59375 15.285156 60.675781 16.109375 60.675781 16.945312 C 60.675781 17.777344 60.59375 18.605469 60.429688 19.421875 C 60.265625 20.242188 60.023438 21.035156 59.703125 21.804688 C 59.382812 22.578125 58.988281 23.308594 58.523438 24.003906 C 58.054688 24.695312 57.527344 25.339844 56.933594 25.929688 C 56.339844 26.519531 55.695312 27.042969 54.996094 27.507812 C 54.300781 27.972656 53.5625 28.363281 52.789062 28.683594 C 52.011719 29 51.214844 29.242188 50.390625 29.40625 C 49.566406 29.566406 48.738281 29.648438 47.898438 29.648438 Z M 47.898438 29.648438 " fill-opacity="1" fill-rule="nonzero"/><path fill="#ffd96d" d="M 47.351562 28.371094 L 46.3125 27.003906 L 44.898438 27.980469 L 44.179688 26.421875 L 42.574219 27.078125 L 42.214844 25.40625 L 40.519531 25.6875 L 40.519531 23.980469 L 38.800781 23.90625 L 39.179688 22.234375 L 37.515625 21.804688 L 38.234375 20.246094 L 36.707031 19.457031 L 37.761719 18.109375 L 36.421875 17 L 37.742188 15.894531 L 36.6875 14.542969 L 38.214844 13.753906 L 37.480469 12.195312 L 39.140625 11.746094 L 38.742188 10.074219 L 40.480469 10 L 40.460938 8.273438 L 42.160156 8.574219 L 42.5 6.886719 L 44.105469 7.523438 L 44.800781 5.964844 L 46.238281 6.941406 L 47.257812 5.554688 L 48.445312 6.808594 L 49.746094 5.683594 L 50.636719 7.148438 L 52.144531 6.339844 L 52.691406 7.953125 L 54.335938 7.484375 L 54.523438 9.195312 L 56.242188 9.082031 L 56.050781 10.789062 L 57.75 11.03125 L 57.183594 12.664062 L 58.808594 13.285156 L 57.902344 14.75 L 59.335938 15.6875 L 58.148438 16.925781 L 59.355469 18.164062 L 57.921875 19.121094 L 58.828125 20.566406 L 57.222656 21.203125 L 57.789062 22.816406 L 56.089844 23.097656 L 56.296875 24.789062 L 54.578125 24.695312 L 54.410156 26.402344 L 52.75 25.933594 L 52.21875 27.566406 L 50.691406 26.757812 L 49.824219 28.242188 L 48.519531 27.117188 Z M 47.351562 28.371094 " fill-opacity="1" fill-rule="nonzero"/><path fill="#c74187" d="M 47.898438 27.058594 C 47.230469 27.058594 46.570312 26.996094 45.914062 26.863281 C 45.257812 26.734375 44.621094 26.542969 44.003906 26.289062 C 43.386719 26.035156 42.800781 25.722656 42.246094 25.355469 C 41.691406 24.984375 41.175781 24.566406 40.703125 24.097656 C 40.230469 23.625 39.808594 23.117188 39.4375 22.5625 C 39.066406 22.011719 38.753906 21.429688 38.5 20.816406 C 38.242188 20.203125 38.050781 19.570312 37.921875 18.917969 C 37.789062 18.265625 37.722656 17.609375 37.722656 16.945312 C 37.722656 16.28125 37.789062 15.621094 37.921875 14.96875 C 38.050781 14.320312 38.242188 13.6875 38.5 13.074219 C 38.753906 12.460938 39.066406 11.875 39.4375 11.324219 C 39.808594 10.773438 40.230469 10.261719 40.703125 9.792969 C 41.175781 9.320312 41.691406 8.902344 42.246094 8.535156 C 42.800781 8.164062 43.386719 7.851562 44.003906 7.597656 C 44.621094 7.34375 45.257812 7.152344 45.914062 7.023438 C 46.570312 6.894531 47.230469 6.828125 47.898438 6.828125 C 48.566406 6.828125 49.226562 6.894531 49.882812 7.023438 C 50.539062 7.152344 51.175781 7.34375 51.792969 7.597656 C 52.410156 7.851562 52.996094 8.164062 53.550781 8.535156 C 54.105469 8.902344 54.621094 9.320312 55.09375 9.792969 C 55.5625 10.261719 55.984375 10.773438 56.355469 11.324219 C 56.726562 11.875 57.042969 12.460938 57.296875 13.074219 C 57.554688 13.6875 57.746094 14.320312 57.875 14.96875 C 58.007812 15.621094 58.070312 16.28125 58.070312 16.945312 C 58.070312 17.609375 58.007812 18.265625 57.875 18.917969 C 57.746094 19.570312 57.554688 20.203125 57.296875 20.816406 C 57.042969 21.429688 56.726562 22.011719 56.355469 22.5625 C 55.984375 23.117188 55.5625 23.625 55.09375 24.097656 C 54.621094 24.566406 54.105469 24.984375 53.550781 25.355469 C 52.996094 25.722656 52.410156 26.035156 51.792969 26.289062 C 51.175781 26.542969 50.539062 26.734375 49.882812 26.863281 C 49.226562 26.996094 48.566406 27.058594 47.898438 27.058594 Z M 47.898438 27.058594 " fill-opacity="1" fill-rule="nonzero"/><path fill="#ffd96d" d="M 51.957031 21.183594 C 48.445312 19.328125 48.292969 16.960938 48.292969 16.960938 C 50.410156 16.082031 53.238281 17.300781 53.863281 17.621094 C 55.804688 18.652344 56.976562 20.285156 56.449219 21.261719 C 55.917969 22.273438 53.917969 22.21875 51.957031 21.183594 Z M 51.957031 21.183594 " fill-opacity="1" fill-rule="nonzero"/><path fill="#ffd96d" d="M 44.480469 12.664062 C 47.992188 14.523438 48.144531 16.886719 48.144531 16.886719 C 46.03125 17.769531 43.199219 16.550781 42.574219 16.230469 C 40.632812 15.199219 39.460938 13.566406 39.988281 12.589844 C 40.519531 11.59375 42.519531 11.632812 44.480469 12.664062 Z M 44.480469 12.664062 " fill-opacity="1" fill-rule="nonzero"/><path fill="#ffd96d" d="M 53.691406 15.707031 C 50.3125 17.808594 48.179688 16.757812 48.179688 16.757812 C 48.464844 14.503906 50.9375 12.664062 51.539062 12.289062 C 53.410156 11.125 55.410156 10.9375 56.015625 11.894531 C 56.597656 12.835938 55.5625 14.542969 53.691406 15.707031 Z M 53.691406 15.707031 " fill-opacity="1" fill-rule="nonzero"/><path fill="#ffd96d" d="M 42.5 17.824219 C 45.878906 15.722656 48.011719 16.773438 48.011719 16.773438 C 47.726562 19.027344 45.253906 20.867188 44.652344 21.242188 C 42.78125 22.40625 40.78125 22.59375 40.179688 21.636719 C 39.59375 20.699219 40.632812 18.988281 42.5 17.824219 Z M 42.5 17.824219 " fill-opacity="1" fill-rule="nonzero"/><path fill="#ffd96d" d="M 49.632812 11.59375 C 49.765625 15.535156 47.785156 16.851562 47.785156 16.851562 C 45.972656 15.480469 45.59375 12.421875 45.578125 11.726562 C 45.5 9.53125 46.351562 7.710938 47.464844 7.671875 C 48.578125 7.65625 49.558594 9.398438 49.632812 11.59375 Z M 49.632812 11.59375 " fill-opacity="1" fill-rule="nonzero"/><path fill="#ffd96d" d="M 46.105469 22.347656 C 45.972656 18.40625 47.953125 17.09375 47.953125 17.09375 C 49.765625 18.464844 50.144531 21.523438 50.164062 22.21875 C 50.238281 24.414062 49.390625 26.234375 48.277344 26.269531 C 47.144531 26.289062 46.179688 24.542969 46.105469 22.347656 Z M 46.105469 22.347656 " fill-opacity="1" fill-rule="nonzero"/><path fill="#c74187" d="M 51.652344 19.703125 C 51.25 19.492188 50.878906 19.269531 50.527344 19.035156 C 50.179688 18.804688 49.882812 18.578125 49.636719 18.359375 C 49.390625 18.136719 49.214844 17.941406 49.113281 17.769531 C 49.007812 17.597656 48.980469 17.460938 49.035156 17.363281 C 49.085938 17.265625 49.214844 17.210938 49.417969 17.199219 C 49.617188 17.1875 49.878906 17.222656 50.199219 17.304688 C 50.519531 17.382812 50.875 17.5 51.265625 17.660156 C 51.65625 17.816406 52.050781 18 52.449219 18.210938 C 52.847656 18.425781 53.222656 18.648438 53.574219 18.878906 C 53.921875 19.113281 54.21875 19.339844 54.464844 19.558594 C 54.710938 19.777344 54.886719 19.972656 54.988281 20.144531 C 55.09375 20.320312 55.121094 20.453125 55.066406 20.554688 C 55.015625 20.652344 54.886719 20.707031 54.683594 20.71875 C 54.484375 20.726562 54.222656 20.691406 53.902344 20.613281 C 53.582031 20.535156 53.226562 20.414062 52.835938 20.257812 C 52.445312 20.101562 52.050781 19.914062 51.652344 19.703125 Z M 51.652344 19.703125 " fill-opacity="1" fill-rule="nonzero"/><path fill="#c74187" d="M 43.625 15.472656 C 43.226562 15.261719 42.851562 15.039062 42.5 14.804688 C 42.152344 14.574219 41.855469 14.347656 41.609375 14.128906 C 41.363281 13.90625 41.1875 13.710938 41.085938 13.539062 C 40.980469 13.367188 40.953125 13.230469 41.007812 13.132812 C 41.058594 13.035156 41.1875 12.980469 41.390625 12.96875 C 41.589844 12.957031 41.851562 12.992188 42.171875 13.074219 C 42.492188 13.152344 42.847656 13.269531 43.238281 13.429688 C 43.628906 13.585938 44.023438 13.769531 44.421875 13.984375 C 44.824219 14.195312 45.199219 14.417969 45.546875 14.648438 C 45.894531 14.882812 46.191406 15.109375 46.4375 15.328125 C 46.683594 15.546875 46.859375 15.742188 46.964844 15.917969 C 47.066406 16.089844 47.09375 16.222656 47.039062 16.324219 C 46.988281 16.421875 46.859375 16.476562 46.65625 16.488281 C 46.457031 16.496094 46.195312 16.460938 45.875 16.382812 C 45.554688 16.304688 45.199219 16.183594 44.808594 16.027344 C 44.421875 15.871094 44.023438 15.683594 43.625 15.472656 Z M 43.625 15.472656 " fill-opacity="1" fill-rule="nonzero"/><path fill="#c74187" d="M 47.144531 21.484375 C 47.121094 21.035156 47.117188 20.601562 47.136719 20.183594 C 47.15625 19.765625 47.195312 19.394531 47.257812 19.070312 C 47.320312 18.75 47.398438 18.5 47.492188 18.320312 C 47.585938 18.144531 47.6875 18.050781 47.800781 18.042969 C 47.914062 18.039062 48.027344 18.117188 48.140625 18.285156 C 48.253906 18.449219 48.359375 18.691406 48.457031 19.003906 C 48.554688 19.316406 48.636719 19.679688 48.703125 20.09375 C 48.769531 20.507812 48.816406 20.9375 48.839844 21.386719 C 48.867188 21.839844 48.871094 22.273438 48.851562 22.691406 C 48.832031 23.109375 48.789062 23.476562 48.726562 23.800781 C 48.667969 24.121094 48.589844 24.371094 48.496094 24.550781 C 48.402344 24.730469 48.296875 24.820312 48.183594 24.828125 C 48.074219 24.832031 47.960938 24.753906 47.84375 24.585938 C 47.730469 24.421875 47.625 24.179688 47.527344 23.867188 C 47.429688 23.554688 47.347656 23.191406 47.28125 22.777344 C 47.214844 22.363281 47.171875 21.933594 47.144531 21.484375 Z M 47.144531 21.484375 " fill-opacity="1" fill-rule="nonzero"/><path fill="#c74187" d="M 46.953125 12.46875 C 46.925781 12.019531 46.925781 11.585938 46.945312 11.167969 C 46.964844 10.75 47.003906 10.378906 47.066406 10.058594 C 47.128906 9.734375 47.207031 9.484375 47.300781 9.304688 C 47.394531 9.128906 47.496094 9.035156 47.609375 9.03125 C 47.722656 9.023438 47.835938 9.105469 47.949219 9.269531 C 48.0625 9.4375 48.167969 9.675781 48.265625 9.988281 C 48.363281 10.304688 48.445312 10.667969 48.511719 11.078125 C 48.578125 11.492188 48.625 11.925781 48.648438 12.375 C 48.675781 12.824219 48.675781 13.257812 48.65625 13.675781 C 48.636719 14.09375 48.597656 14.464844 48.535156 14.785156 C 48.476562 15.109375 48.398438 15.359375 48.304688 15.535156 C 48.207031 15.714844 48.105469 15.804688 47.992188 15.8125 C 47.878906 15.820312 47.765625 15.738281 47.652344 15.574219 C 47.539062 15.40625 47.433594 15.167969 47.335938 14.851562 C 47.238281 14.539062 47.15625 14.175781 47.089844 13.761719 C 47.023438 13.351562 46.980469 12.917969 46.953125 12.46875 Z M 46.953125 12.46875 " fill-opacity="1" fill-rule="nonzero"/><path fill="#c74187" d="M 43.695312 18.519531 C 44.082031 18.28125 44.464844 18.074219 44.84375 17.890625 C 45.222656 17.710938 45.570312 17.570312 45.882812 17.46875 C 46.199219 17.371094 46.457031 17.320312 46.660156 17.316406 C 46.863281 17.3125 46.992188 17.359375 47.050781 17.457031 C 47.109375 17.550781 47.09375 17.6875 47 17.867188 C 46.90625 18.042969 46.746094 18.25 46.515625 18.484375 C 46.285156 18.71875 46 18.964844 45.667969 19.21875 C 45.332031 19.472656 44.972656 19.71875 44.589844 19.957031 C 44.203125 20.191406 43.820312 20.402344 43.441406 20.582031 C 43.0625 20.765625 42.714844 20.90625 42.402344 21.007812 C 42.085938 21.105469 41.828125 21.15625 41.625 21.160156 C 41.425781 21.160156 41.292969 21.113281 41.234375 21.019531 C 41.175781 20.925781 41.191406 20.789062 41.285156 20.609375 C 41.378906 20.429688 41.539062 20.222656 41.769531 19.988281 C 42.003906 19.753906 42.285156 19.511719 42.617188 19.253906 C 42.953125 19 43.3125 18.753906 43.695312 18.519531 Z M 43.695312 18.519531 " fill-opacity="1" fill-rule="nonzero"/><path fill="#c74187" d="M 51.625 13.605469 C 52.011719 13.371094 52.394531 13.160156 52.773438 12.976562 C 53.152344 12.796875 53.496094 12.65625 53.8125 12.554688 C 54.128906 12.457031 54.386719 12.40625 54.585938 12.402344 C 54.789062 12.402344 54.921875 12.445312 54.980469 12.542969 C 55.039062 12.636719 55.023438 12.773438 54.929688 12.953125 C 54.835938 13.132812 54.671875 13.339844 54.441406 13.574219 C 54.210938 13.808594 53.929688 14.050781 53.59375 14.308594 C 53.261719 14.5625 52.902344 14.808594 52.515625 15.042969 C 52.132812 15.28125 51.75 15.488281 51.371094 15.671875 C 50.992188 15.851562 50.644531 15.992188 50.328125 16.09375 C 50.015625 16.191406 49.757812 16.242188 49.554688 16.246094 C 49.351562 16.25 49.222656 16.203125 49.164062 16.105469 C 49.101562 16.011719 49.121094 15.875 49.214844 15.695312 C 49.304688 15.515625 49.46875 15.3125 49.699219 15.078125 C 49.929688 14.839844 50.210938 14.597656 50.546875 14.34375 C 50.878906 14.085938 51.238281 13.84375 51.625 13.605469 Z M 51.625 13.605469 " fill-opacity="1" fill-rule="nonzero"/><path fill="#e96ea9" d="M 53.542969 18.78125 C 49.578125 18.914062 48.257812 16.945312 48.257812 16.945312 C 49.652344 15.140625 52.710938 14.785156 53.410156 14.765625 C 55.617188 14.691406 57.449219 15.535156 57.488281 16.644531 C 57.523438 17.75 55.75 18.707031 53.542969 18.78125 Z M 53.542969 18.78125 " fill-opacity="1" fill-rule="nonzero"/><path fill="#e96ea9" d="M 42.78125 15.105469 C 46.746094 14.972656 48.066406 16.945312 48.066406 16.945312 C 46.671875 18.746094 43.613281 19.101562 42.914062 19.121094 C 40.707031 19.195312 38.875 18.351562 38.839844 17.246094 C 38.820312 16.136719 40.574219 15.160156 42.78125 15.105469 Z M 42.78125 15.105469 " fill-opacity="1" fill-rule="nonzero"/><path fill="#e96ea9" d="M 52.296875 13.171875 C 50.425781 16.664062 48.050781 16.792969 48.050781 16.792969 C 47.179688 14.691406 48.390625 11.878906 48.730469 11.257812 C 49.765625 9.324219 51.410156 8.179688 52.410156 8.707031 C 53.390625 9.230469 53.335938 11.21875 52.296875 13.171875 Z M 52.296875 13.171875 " fill-opacity="1" fill-rule="nonzero"/><path fill="#e96ea9" d="M 43.671875 20.546875 C 45.539062 17.058594 47.917969 16.925781 47.917969 16.925781 C 48.785156 19.027344 47.578125 21.84375 47.238281 22.460938 C 46.199219 24.394531 44.558594 25.539062 43.558594 25.011719 C 42.574219 24.46875 42.613281 22.480469 43.671875 20.546875 Z M 43.671875 20.546875 " fill-opacity="1" fill-rule="nonzero"/><path fill="#e96ea9" d="M 46.726562 11.613281 C 48.824219 14.972656 47.765625 17.09375 47.765625 17.09375 C 45.5 16.792969 43.652344 14.335938 43.292969 13.753906 C 42.121094 11.894531 41.953125 9.886719 42.894531 9.304688 C 43.839844 8.707031 45.558594 9.738281 46.726562 11.613281 Z M 46.726562 11.613281 " fill-opacity="1" fill-rule="nonzero"/><path fill="#e96ea9" d="M 49.050781 22.6875 C 46.953125 19.328125 48.011719 17.207031 48.011719 17.207031 C 50.277344 17.507812 52.125 19.964844 52.484375 20.546875 C 53.65625 22.40625 53.824219 24.414062 52.882812 24.996094 C 51.9375 25.578125 50.21875 24.542969 49.050781 22.6875 Z M 49.050781 22.6875 " fill-opacity="1" fill-rule="nonzero"/><path fill="#ffb3d7" d="M 52.53125 17.636719 C 52.078125 17.652344 51.640625 17.644531 51.222656 17.617188 C 50.800781 17.585938 50.429688 17.539062 50.105469 17.46875 C 49.785156 17.402344 49.535156 17.316406 49.359375 17.21875 C 49.179688 17.121094 49.089844 17.015625 49.085938 16.90625 C 49.082031 16.792969 49.167969 16.683594 49.335938 16.574219 C 49.507812 16.464844 49.75 16.367188 50.066406 16.277344 C 50.386719 16.1875 50.753906 16.113281 51.167969 16.058594 C 51.585938 16 52.019531 15.964844 52.472656 15.949219 C 52.925781 15.9375 53.363281 15.941406 53.78125 15.972656 C 54.203125 16 54.574219 16.050781 54.898438 16.121094 C 55.21875 16.1875 55.46875 16.269531 55.644531 16.367188 C 55.824219 16.464844 55.914062 16.570312 55.917969 16.683594 C 55.921875 16.796875 55.835938 16.90625 55.667969 17.015625 C 55.496094 17.125 55.253906 17.222656 54.9375 17.3125 C 54.617188 17.402344 54.25 17.476562 53.835938 17.53125 C 53.417969 17.589844 52.984375 17.625 52.53125 17.636719 Z M 52.53125 17.636719 " fill-opacity="1" fill-rule="nonzero"/><path fill="#ffb3d7" d="M 43.449219 17.941406 C 43 17.953125 42.5625 17.945312 42.140625 17.917969 C 41.722656 17.886719 41.351562 17.839844 41.027344 17.769531 C 40.707031 17.703125 40.457031 17.617188 40.277344 17.519531 C 40.101562 17.421875 40.011719 17.320312 40.007812 17.207031 C 40.003906 17.09375 40.085938 16.984375 40.257812 16.875 C 40.425781 16.765625 40.671875 16.667969 40.988281 16.578125 C 41.304688 16.488281 41.671875 16.414062 42.089844 16.359375 C 42.507812 16.300781 42.941406 16.265625 43.394531 16.25 C 43.847656 16.238281 44.285156 16.242188 44.703125 16.273438 C 45.125 16.300781 45.496094 16.351562 45.816406 16.421875 C 46.140625 16.488281 46.390625 16.570312 46.566406 16.667969 C 46.742188 16.765625 46.835938 16.871094 46.835938 16.984375 C 46.839844 17.097656 46.757812 17.207031 46.589844 17.316406 C 46.417969 17.425781 46.175781 17.523438 45.855469 17.613281 C 45.539062 17.703125 45.171875 17.777344 44.753906 17.832031 C 44.339844 17.890625 43.902344 17.925781 43.449219 17.941406 Z M 43.449219 17.941406 " fill-opacity="1" fill-rule="nonzero"/><path fill="#ffb3d7" d="M 49.523438 21.421875 C 49.273438 21.042969 49.054688 20.667969 48.863281 20.296875 C 48.671875 19.925781 48.519531 19.582031 48.410156 19.273438 C 48.304688 18.964844 48.246094 18.707031 48.238281 18.507812 C 48.230469 18.304688 48.273438 18.175781 48.367188 18.113281 C 48.460938 18.050781 48.601562 18.066406 48.78125 18.152344 C 48.964844 18.242188 49.175781 18.398438 49.417969 18.621094 C 49.660156 18.84375 49.914062 19.117188 50.175781 19.445312 C 50.441406 19.769531 50.699219 20.121094 50.945312 20.496094 C 51.191406 20.875 51.414062 21.25 51.605469 21.621094 C 51.796875 21.992188 51.949219 22.335938 52.054688 22.644531 C 52.164062 22.957031 52.222656 23.210938 52.230469 23.410156 C 52.238281 23.613281 52.195312 23.742188 52.097656 23.804688 C 52.003906 23.867188 51.867188 23.851562 51.683594 23.765625 C 51.503906 23.675781 51.292969 23.519531 51.050781 23.296875 C 50.808594 23.074219 50.554688 22.800781 50.289062 22.472656 C 50.027344 22.148438 49.769531 21.796875 49.523438 21.421875 Z M 49.523438 21.421875 " fill-opacity="1" fill-rule="nonzero"/><path fill="#ffb3d7" d="M 44.824219 13.703125 C 44.578125 13.328125 44.359375 12.953125 44.167969 12.578125 C 43.972656 12.207031 43.824219 11.867188 43.714844 11.558594 C 43.605469 11.246094 43.550781 10.992188 43.542969 10.789062 C 43.535156 10.589844 43.578125 10.457031 43.671875 10.398438 C 43.765625 10.335938 43.90625 10.347656 44.085938 10.4375 C 44.269531 10.523438 44.480469 10.679688 44.722656 10.90625 C 44.964844 11.128906 45.214844 11.402344 45.480469 11.726562 C 45.746094 12.054688 46 12.402344 46.25 12.78125 C 46.496094 13.160156 46.714844 13.535156 46.910156 13.90625 C 47.101562 14.277344 47.25 14.617188 47.359375 14.929688 C 47.46875 15.238281 47.527344 15.496094 47.535156 15.695312 C 47.539062 15.894531 47.496094 16.027344 47.402344 16.089844 C 47.308594 16.148438 47.171875 16.136719 46.988281 16.046875 C 46.808594 15.960938 46.59375 15.804688 46.355469 15.582031 C 46.113281 15.355469 45.859375 15.082031 45.59375 14.757812 C 45.328125 14.433594 45.074219 14.082031 44.824219 13.703125 Z M 44.824219 13.703125 " fill-opacity="1" fill-rule="nonzero"/><path fill="#ffb3d7" d="M 45.046875 20.550781 C 45.265625 20.15625 45.492188 19.785156 45.730469 19.4375 C 45.964844 19.09375 46.195312 18.800781 46.417969 18.558594 C 46.640625 18.316406 46.839844 18.144531 47.015625 18.039062 C 47.1875 17.9375 47.324219 17.914062 47.425781 17.96875 C 47.523438 18.019531 47.578125 18.148438 47.585938 18.347656 C 47.59375 18.550781 47.558594 18.808594 47.476562 19.125 C 47.390625 19.445312 47.269531 19.796875 47.109375 20.183594 C 46.945312 20.570312 46.757812 20.960938 46.542969 21.355469 C 46.324219 21.75 46.097656 22.121094 45.863281 22.46875 C 45.625 22.8125 45.394531 23.105469 45.171875 23.347656 C 44.949219 23.589844 44.75 23.765625 44.574219 23.867188 C 44.402344 23.96875 44.265625 23.992188 44.167969 23.9375 C 44.066406 23.886719 44.011719 23.757812 44.003906 23.558594 C 43.996094 23.355469 44.03125 23.097656 44.117188 22.78125 C 44.199219 22.460938 44.320312 22.109375 44.480469 21.722656 C 44.644531 21.335938 44.832031 20.945312 45.046875 20.550781 Z M 45.046875 20.550781 " fill-opacity="1" fill-rule="nonzero"/><path fill="#ffb3d7" d="M 49.464844 12.371094 C 49.683594 11.972656 49.910156 11.601562 50.148438 11.257812 C 50.382812 10.914062 50.613281 10.617188 50.835938 10.375 C 51.058594 10.132812 51.257812 9.960938 51.433594 9.859375 C 51.605469 9.757812 51.742188 9.734375 51.84375 9.785156 C 51.941406 9.839844 51.996094 9.96875 52.003906 10.167969 C 52.011719 10.367188 51.976562 10.628906 51.894531 10.945312 C 51.808594 11.265625 51.6875 11.617188 51.527344 12.003906 C 51.363281 12.386719 51.175781 12.78125 50.960938 13.175781 C 50.742188 13.570312 50.515625 13.941406 50.28125 14.289062 C 50.042969 14.632812 49.8125 14.925781 49.589844 15.167969 C 49.367188 15.410156 49.167969 15.582031 48.992188 15.683594 C 48.820312 15.789062 48.683594 15.8125 48.585938 15.757812 C 48.484375 15.703125 48.429688 15.578125 48.421875 15.378906 C 48.414062 15.175781 48.449219 14.917969 48.535156 14.597656 C 48.617188 14.28125 48.738281 13.929688 48.898438 13.542969 C 49.0625 13.15625 49.25 12.765625 49.464844 12.371094 Z M 49.464844 12.371094 " fill-opacity="1" fill-rule="nonzero"/><path fill="#c74187" d="M 47.898438 19.476562 C 47.558594 19.476562 47.234375 19.414062 46.921875 19.285156 C 46.609375 19.15625 46.335938 18.972656 46.097656 18.734375 C 45.855469 18.496094 45.671875 18.222656 45.542969 17.914062 C 45.414062 17.601562 45.351562 17.28125 45.351562 16.945312 C 45.351562 16.609375 45.414062 16.285156 45.542969 15.972656 C 45.671875 15.664062 45.855469 15.390625 46.097656 15.152344 C 46.335938 14.914062 46.609375 14.730469 46.921875 14.601562 C 47.234375 14.476562 47.558594 14.410156 47.898438 14.410156 C 48.234375 14.410156 48.5625 14.476562 48.875 14.601562 C 49.183594 14.730469 49.460938 14.914062 49.699219 15.152344 C 49.9375 15.390625 50.121094 15.664062 50.253906 15.972656 C 50.382812 16.285156 50.445312 16.609375 50.445312 16.945312 C 50.445312 17.28125 50.382812 17.601562 50.253906 17.914062 C 50.121094 18.222656 49.9375 18.496094 49.699219 18.734375 C 49.460938 18.972656 49.183594 19.15625 48.875 19.285156 C 48.5625 19.414062 48.234375 19.476562 47.898438 19.476562 Z M 47.898438 19.476562 " fill-opacity="1" fill-rule="nonzero"/><path fill="#ffd96d" d="M 47.898438 18.183594 C 47.734375 18.183594 47.574219 18.152344 47.421875 18.089844 C 47.269531 18.027344 47.132812 17.9375 47.015625 17.820312 C 46.898438 17.703125 46.808594 17.570312 46.746094 17.417969 C 46.683594 17.265625 46.652344 17.109375 46.652344 16.945312 C 46.652344 16.78125 46.683594 16.621094 46.746094 16.46875 C 46.808594 16.316406 46.898438 16.183594 47.015625 16.066406 C 47.132812 15.953125 47.269531 15.863281 47.421875 15.800781 C 47.574219 15.738281 47.734375 15.707031 47.898438 15.707031 C 48.0625 15.707031 48.222656 15.738281 48.375 15.800781 C 48.527344 15.863281 48.660156 15.953125 48.777344 16.066406 C 48.894531 16.183594 48.984375 16.316406 49.050781 16.46875 C 49.113281 16.621094 49.144531 16.78125 49.144531 16.945312 C 49.144531 17.109375 49.113281 17.265625 49.050781 17.417969 C 48.984375 17.570312 48.894531 17.703125 48.777344 17.820312 C 48.660156 17.9375 48.527344 18.027344 48.375 18.089844 C 48.222656 18.152344 48.0625 18.183594 47.898438 18.183594 Z M 47.898438 18.183594 " fill-opacity="1" fill-rule="nonzero"/><path fill="#e96ea9" d="M 20.433594 18.59375 C 20.21875 18.59375 20.007812 18.554688 19.808594 18.472656 C 19.605469 18.386719 19.429688 18.269531 19.273438 18.117188 C 19.121094 17.964844 19 17.789062 18.917969 17.585938 C 18.835938 17.386719 18.792969 17.179688 18.792969 16.960938 C 18.792969 16.746094 18.835938 16.539062 18.917969 16.339844 C 19 16.136719 19.121094 15.960938 19.273438 15.808594 C 19.429688 15.65625 19.605469 15.539062 19.808594 15.453125 C 20.007812 15.371094 20.21875 15.332031 20.433594 15.332031 C 20.652344 15.332031 20.863281 15.371094 21.0625 15.453125 C 21.265625 15.539062 21.441406 15.65625 21.597656 15.808594 C 21.75 15.960938 21.867188 16.136719 21.953125 16.339844 C 22.035156 16.539062 22.078125 16.746094 22.078125 16.960938 C 22.078125 17.179688 22.035156 17.386719 21.953125 17.585938 C 21.867188 17.789062 21.75 17.964844 21.597656 18.117188 C 21.441406 18.269531 21.265625 18.386719 21.0625 18.472656 C 20.863281 18.554688 20.652344 18.59375 20.433594 18.59375 Z M 20.433594 18.59375 " fill-opacity="1" fill-rule="nonzero"/><path fill="#c74187" d="M 23.53125 18.59375 C 23.3125 18.59375 23.101562 18.554688 22.902344 18.472656 C 22.699219 18.386719 22.523438 18.269531 22.371094 18.117188 C 22.214844 17.964844 22.097656 17.789062 22.011719 17.585938 C 21.929688 17.386719 21.886719 17.179688 21.886719 16.960938 C 21.886719 16.746094 21.929688 16.539062 22.011719 16.339844 C 22.097656 16.136719 22.214844 15.960938 22.371094 15.808594 C 22.523438 15.65625 22.699219 15.539062 22.902344 15.453125 C 23.101562 15.371094 23.3125 15.332031 23.53125 15.332031 C 23.75 15.332031 23.957031 15.371094 24.160156 15.453125 C 24.359375 15.539062 24.539062 15.65625 24.691406 15.808594 C 24.847656 15.960938 24.964844 16.136719 25.046875 16.339844 C 25.132812 16.539062 25.171875 16.746094 25.171875 16.960938 C 25.171875 17.179688 25.132812 17.386719 25.046875 17.585938 C 24.964844 17.789062 24.847656 17.964844 24.691406 18.117188 C 24.539062 18.269531 24.359375 18.386719 24.160156 18.472656 C 23.957031 18.554688 23.75 18.59375 23.53125 18.59375 Z M 23.53125 18.59375 " fill-opacity="1" fill-rule="nonzero"/></g></g></g><g clip-path="url(#0979689cc8)"><g transform="matrix(1, 0, 0, 1, 93, 5)"><g clip-path="url(#cf802f6c00)"><g clip-path="url(#64f453db5c)"><path fill="#c74187" d="M 94.046875 16.417969 L 94.046875 17.507812 L 63.035156 17.507812 L 63.035156 16.417969 Z M 94.046875 16.417969 " fill-opacity="1" fill-rule="nonzero"/></g><path fill="#e96ea9" d="M 66.472656 19.910156 C 66.164062 19.910156 65.855469 19.890625 65.550781 19.851562 C 65.246094 19.816406 64.953125 19.757812 64.667969 19.683594 C 64.378906 19.609375 64.109375 19.519531 63.851562 19.414062 C 63.59375 19.304688 63.355469 19.183594 63.136719 19.046875 C 62.917969 18.910156 62.722656 18.761719 62.546875 18.601562 C 62.375 18.4375 62.230469 18.269531 62.113281 18.089844 C 61.992188 17.910156 61.90625 17.726562 61.84375 17.539062 C 61.785156 17.347656 61.753906 17.15625 61.753906 16.960938 C 61.753906 16.769531 61.785156 16.578125 61.84375 16.386719 C 61.90625 16.199219 61.992188 16.015625 62.113281 15.835938 C 62.230469 15.65625 62.375 15.488281 62.546875 15.324219 C 62.722656 15.164062 62.917969 15.015625 63.136719 14.878906 C 63.355469 14.742188 63.59375 14.621094 63.851562 14.511719 C 64.109375 14.40625 64.378906 14.316406 64.667969 14.242188 C 64.953125 14.167969 65.246094 14.109375 65.550781 14.074219 C 65.855469 14.035156 66.164062 14.015625 66.472656 14.015625 C 66.78125 14.015625 67.089844 14.035156 67.394531 14.074219 C 67.695312 14.109375 67.992188 14.167969 68.277344 14.242188 C 68.5625 14.316406 68.835938 14.40625 69.09375 14.511719 C 69.351562 14.621094 69.589844 14.742188 69.808594 14.878906 C 70.027344 15.015625 70.222656 15.164062 70.394531 15.324219 C 70.566406 15.488281 70.714844 15.65625 70.832031 15.835938 C 70.949219 16.015625 71.039062 16.199219 71.101562 16.386719 C 71.160156 16.578125 71.191406 16.769531 71.191406 16.960938 C 71.191406 17.15625 71.160156 17.347656 71.101562 17.539062 C 71.039062 17.726562 70.949219 17.910156 70.832031 18.089844 C 70.714844 18.269531 70.566406 18.4375 70.394531 18.601562 C 70.222656 18.761719 70.027344 18.910156 69.808594 19.046875 C 69.589844 19.183594 69.351562 19.304688 69.09375 19.414062 C 68.835938 19.519531 68.5625 19.609375 68.277344 19.683594 C 67.992188 19.757812 67.695312 19.816406 67.394531 19.851562 C 67.089844 19.890625 66.78125 19.910156 66.472656 19.910156 Z M 66.472656 19.910156 " fill-opacity="1" fill-rule="nonzero"/><path fill="#e96ea9" d="M 75.703125 18.59375 C 75.484375 18.59375 75.273438 18.554688 75.074219 18.472656 C 74.871094 18.386719 74.695312 18.269531 74.539062 18.117188 C 74.386719 17.964844 74.269531 17.789062 74.183594 17.585938 C 74.101562 17.386719 74.058594 17.179688 74.058594 16.960938 C 74.058594 16.746094 74.101562 16.539062 74.183594 16.339844 C 74.269531 16.136719 74.386719 15.960938 74.539062 15.808594 C 74.695312 15.65625 74.871094 15.539062 75.074219 15.453125 C 75.273438 15.371094 75.484375 15.332031 75.703125 15.332031 C 75.917969 15.332031 76.128906 15.371094 76.332031 15.453125 C 76.53125 15.539062 76.710938 15.65625 76.863281 15.808594 C 77.015625 15.960938 77.136719 16.136719 77.21875 16.339844 C 77.300781 16.539062 77.34375 16.746094 77.34375 16.960938 C 77.34375 17.179688 77.300781 17.386719 77.21875 17.585938 C 77.136719 17.789062 77.015625 17.964844 76.863281 18.117188 C 76.710938 18.269531 76.53125 18.386719 76.332031 18.472656 C 76.128906 18.554688 75.917969 18.59375 75.703125 18.59375 Z M 75.703125 18.59375 " fill-opacity="1" fill-rule="nonzero"/><path fill="#c74187" d="M 72.625 18.59375 C 72.40625 18.59375 72.199219 18.554688 71.996094 18.472656 C 71.796875 18.386719 71.617188 18.269531 71.464844 18.117188 C 71.308594 17.964844 71.191406 17.789062 71.109375 17.585938 C 71.023438 17.386719 70.984375 17.179688 70.984375 16.960938 C 70.984375 16.746094 71.023438 16.539062 71.109375 16.339844 C 71.191406 16.136719 71.308594 15.960938 71.464844 15.808594 C 71.617188 15.65625 71.796875 15.539062 71.996094 15.453125 C 72.199219 15.371094 72.40625 15.332031 72.625 15.332031 C 72.84375 15.332031 73.050781 15.371094 73.253906 15.453125 C 73.453125 15.539062 73.632812 15.65625 73.785156 15.808594 C 73.941406 15.960938 74.058594 16.136719 74.140625 16.339844 C 74.226562 16.539062 74.265625 16.746094 74.265625 16.960938 C 74.265625 17.179688 74.226562 17.386719 74.140625 17.585938 C 74.058594 17.789062 73.941406 17.964844 73.785156 18.117188 C 73.632812 18.269531 73.453125 18.386719 73.253906 18.472656 C 73.050781 18.554688 72.84375 18.59375 72.625 18.59375 Z M 72.625 18.59375 " fill-opacity="1" fill-rule="nonzero"/><g clip-path="url(#5eb6cfb093)"><path fill="#c74187" d="M 31.515625 16.417969 L 31.515625 17.507812 L 0.503906 17.507812 L 0.503906 16.417969 Z M 31.515625 16.417969 " fill-opacity="1" fill-rule="nonzero"/></g><path fill="#e96ea9" d="M 29.496094 19.910156 C 29.1875 19.910156 28.878906 19.890625 28.574219 19.851562 C 28.273438 19.816406 27.976562 19.757812 27.691406 19.683594 C 27.402344 19.609375 27.132812 19.519531 26.875 19.414062 C 26.617188 19.304688 26.378906 19.183594 26.160156 19.046875 C 25.941406 18.910156 25.746094 18.761719 25.574219 18.601562 C 25.402344 18.4375 25.253906 18.269531 25.136719 18.089844 C 25.019531 17.910156 24.929688 17.726562 24.867188 17.539062 C 24.808594 17.347656 24.777344 17.15625 24.777344 16.960938 C 24.777344 16.769531 24.808594 16.578125 24.867188 16.386719 C 24.929688 16.199219 25.019531 16.015625 25.136719 15.835938 C 25.253906 15.65625 25.402344 15.488281 25.574219 15.324219 C 25.746094 15.164062 25.941406 15.015625 26.160156 14.878906 C 26.378906 14.742188 26.617188 14.621094 26.875 14.511719 C 27.132812 14.40625 27.402344 14.316406 27.691406 14.242188 C 27.976562 14.167969 28.273438 14.109375 28.574219 14.074219 C 28.878906 14.035156 29.1875 14.015625 29.496094 14.015625 C 29.804688 14.015625 30.113281 14.035156 30.417969 14.074219 C 30.722656 14.109375 31.015625 14.167969 31.300781 14.242188 C 31.589844 14.316406 31.859375 14.40625 32.117188 14.511719 C 32.375 14.621094 32.613281 14.742188 32.832031 14.878906 C 33.050781 15.015625 33.246094 15.164062 33.417969 15.324219 C 33.59375 15.488281 33.738281 15.65625 33.855469 15.835938 C 33.972656 16.015625 34.0625 16.199219 34.125 16.386719 C 34.183594 16.578125 34.214844 16.769531 34.214844 16.960938 C 34.214844 17.15625 34.183594 17.347656 34.125 17.539062 C 34.0625 17.726562 33.972656 17.910156 33.855469 18.089844 C 33.738281 18.269531 33.59375 18.4375 33.417969 18.601562 C 33.246094 18.761719 33.050781 18.910156 32.832031 19.046875 C 32.613281 19.183594 32.375 19.304688 32.117188 19.414062 C 31.859375 19.519531 31.589844 19.609375 31.300781 19.683594 C 31.015625 19.757812 30.722656 19.816406 30.417969 19.851562 C 30.113281 19.890625 29.804688 19.910156 29.496094 19.910156 Z M 29.496094 19.910156 " fill-opacity="1" fill-rule="nonzero"/><g clip-path="url(#fa7855b7a5)"><path fill="#ffb3d7" d="M 46.859375 34.058594 L 45.3125 32.011719 L 43.179688 33.476562 L 42.125 31.148438 L 39.726562 32.125 L 39.179688 29.613281 L 36.648438 30.0625 L 36.648438 27.492188 L 34.082031 27.378906 L 34.648438 24.882812 L 32.140625 24.226562 L 33.234375 21.898438 L 30.949219 20.714844 L 32.515625 18.671875 L 30.535156 17.039062 L 32.496094 15.386719 L 30.910156 13.359375 L 33.214844 12.175781 L 32.101562 9.851562 L 34.59375 9.175781 L 34.007812 6.679688 L 36.574219 6.546875 L 36.554688 3.976562 L 39.105469 4.40625 L 39.613281 1.894531 L 42.011719 2.851562 L 43.066406 0.523438 L 45.199219 1.96875 L 46.746094 -0.0976562 L 48.503906 1.78125 L 50.464844 0.0898438 L 51.789062 2.304688 L 54.050781 1.066406 L 54.863281 3.507812 L 57.335938 2.792969 L 57.601562 5.347656 L 60.1875 5.175781 L 59.886719 7.730469 L 62.453125 8.105469 L 61.601562 10.542969 L 64.019531 11.464844 L 62.679688 13.660156 L 64.828125 15.066406 L 63.035156 16.925781 L 64.847656 18.765625 L 62.695312 20.210938 L 64.054688 22.386719 L 61.660156 23.324219 L 62.507812 25.746094 L 59.960938 26.160156 L 60.261719 28.691406 L 57.695312 28.542969 L 57.429688 31.113281 L 54.957031 30.398438 L 54.164062 32.839844 L 51.882812 31.636719 L 50.578125 33.851562 L 48.617188 32.183594 Z M 46.859375 34.058594 " fill-opacity="1" fill-rule="nonzero"/></g><path fill="#c74187" d="M 47.710938 31.300781 C 46.761719 31.300781 45.824219 31.207031 44.894531 31.023438 C 43.964844 30.839844 43.0625 30.566406 42.183594 30.207031 C 41.308594 29.847656 40.476562 29.40625 39.6875 28.882812 C 38.898438 28.355469 38.171875 27.761719 37.5 27.09375 C 36.828125 26.429688 36.230469 25.703125 35.703125 24.921875 C 35.179688 24.136719 34.734375 23.308594 34.371094 22.4375 C 34.007812 21.566406 33.734375 20.667969 33.546875 19.746094 C 33.363281 18.820312 33.269531 17.886719 33.269531 16.945312 C 33.269531 16 33.363281 15.066406 33.546875 14.144531 C 33.734375 13.21875 34.007812 12.320312 34.371094 11.449219 C 34.734375 10.578125 35.179688 9.75 35.703125 8.96875 C 36.230469 8.183594 36.828125 7.460938 37.5 6.792969 C 38.171875 6.125 38.898438 5.53125 39.6875 5.007812 C 40.476562 4.484375 41.308594 4.042969 42.183594 3.679688 C 43.0625 3.320312 43.964844 3.046875 44.894531 2.863281 C 45.824219 2.679688 46.761719 2.585938 47.710938 2.585938 C 48.660156 2.585938 49.597656 2.679688 50.527344 2.863281 C 51.457031 3.046875 52.359375 3.320312 53.234375 3.679688 C 54.113281 4.042969 54.945312 4.484375 55.734375 5.007812 C 56.519531 5.53125 57.25 6.125 57.921875 6.792969 C 58.589844 7.460938 59.191406 8.183594 59.714844 8.96875 C 60.242188 9.75 60.6875 10.578125 61.050781 11.449219 C 61.414062 12.320312 61.6875 13.21875 61.871094 14.144531 C 62.058594 15.066406 62.148438 16 62.148438 16.945312 C 62.148438 17.886719 62.058594 18.820312 61.871094 19.746094 C 61.6875 20.667969 61.414062 21.566406 61.050781 22.4375 C 60.6875 23.308594 60.242188 24.136719 59.714844 24.921875 C 59.191406 25.703125 58.589844 26.429688 57.921875 27.09375 C 57.25 27.761719 56.519531 28.355469 55.734375 28.882812 C 54.945312 29.40625 54.113281 29.847656 53.234375 30.207031 C 52.359375 30.566406 51.457031 30.839844 50.527344 31.023438 C 49.597656 31.207031 48.660156 31.300781 47.710938 31.300781 Z M 47.710938 31.300781 " fill-opacity="1" fill-rule="nonzero"/><path fill="#c74187" d="M 47.710938 31.300781 C 46.761719 31.300781 45.824219 31.207031 44.894531 31.023438 C 43.964844 30.839844 43.0625 30.566406 42.183594 30.207031 C 41.308594 29.847656 40.476562 29.40625 39.6875 28.882812 C 38.898438 28.355469 38.171875 27.761719 37.5 27.09375 C 36.828125 26.429688 36.230469 25.703125 35.703125 24.921875 C 35.179688 24.136719 34.734375 23.308594 34.371094 22.4375 C 34.007812 21.566406 33.734375 20.667969 33.546875 19.746094 C 33.363281 18.820312 33.269531 17.886719 33.269531 16.945312 C 33.269531 16 33.363281 15.066406 33.546875 14.144531 C 33.734375 13.21875 34.007812 12.320312 34.371094 11.449219 C 34.734375 10.578125 35.179688 9.75 35.703125 8.96875 C 36.230469 8.183594 36.828125 7.460938 37.5 6.792969 C 38.171875 6.125 38.898438 5.53125 39.6875 5.007812 C 40.476562 4.484375 41.308594 4.042969 42.183594 3.679688 C 43.0625 3.320312 43.964844 3.046875 44.894531 2.863281 C 45.824219 2.679688 46.761719 2.585938 47.710938 2.585938 C 48.660156 2.585938 49.597656 2.679688 50.527344 2.863281 C 51.457031 3.046875 52.359375 3.320312 53.234375 3.679688 C 54.113281 4.042969 54.945312 4.484375 55.734375 5.007812 C 56.519531 5.53125 57.25 6.125 57.921875 6.792969 C 58.589844 7.460938 59.191406 8.183594 59.714844 8.96875 C 60.242188 9.75 60.6875 10.578125 61.050781 11.449219 C 61.414062 12.320312 61.6875 13.21875 61.871094 14.144531 C 62.058594 15.066406 62.148438 16 62.148438 16.945312 C 62.148438 17.886719 62.058594 18.820312 61.871094 19.746094 C 61.6875 20.667969 61.414062 21.566406 61.050781 22.4375 C 60.6875 23.308594 60.242188 24.136719 59.714844 24.921875 C 59.191406 25.703125 58.589844 26.429688 57.921875 27.09375 C 57.25 27.761719 56.519531 28.355469 55.734375 28.882812 C 54.945312 29.40625 54.113281 29.847656 53.234375 30.207031 C 52.359375 30.566406 51.457031 30.839844 50.527344 31.023438 C 49.597656 31.207031 48.660156 31.300781 47.710938 31.300781 Z M 47.710938 31.300781 " fill-opacity="1" fill-rule="nonzero"/><path fill="#ffb3d7" d="M 47.03125 30.832031 L 45.765625 29.179688 L 44.046875 30.363281 L 43.179688 28.464844 L 41.238281 29.253906 L 40.800781 27.226562 L 38.726562 27.585938 L 38.746094 25.5 L 36.648438 25.40625 L 37.101562 23.382812 L 35.082031 22.835938 L 35.96875 20.960938 L 34.101562 20.003906 L 35.386719 18.351562 L 33.761719 17.019531 L 35.367188 15.6875 L 34.082031 14.035156 L 35.933594 13.058594 L 35.046875 11.183594 L 37.066406 10.636719 L 36.59375 8.613281 L 38.6875 8.5 L 38.652344 6.417969 L 40.726562 6.773438 L 41.140625 4.726562 L 43.085938 5.515625 L 43.953125 3.601562 L 45.671875 4.785156 L 46.9375 3.113281 L 48.371094 4.632812 L 49.9375 3.261719 L 51.011719 5.046875 L 52.863281 4.050781 L 53.523438 6.039062 L 55.523438 5.457031 L 55.75 7.523438 L 57.847656 7.390625 L 57.601562 9.457031 L 59.675781 9.773438 L 58.996094 11.746094 L 60.960938 12.496094 L 59.867188 14.277344 L 61.621094 15.425781 L 60.167969 16.925781 L 61.621094 18.425781 L 59.886719 19.589844 L 60.980469 21.355469 L 59.035156 22.125 L 59.734375 24.09375 L 57.65625 24.414062 L 57.902344 26.476562 L 55.808594 26.363281 L 55.617188 28.429688 L 53.597656 27.867188 L 52.957031 29.855469 L 51.109375 28.859375 L 50.050781 30.664062 L 48.445312 29.3125 Z M 47.03125 30.832031 " fill-opacity="1" fill-rule="nonzero"/><path fill="#e96ea9" d="M 47.710938 29.648438 C 46.871094 29.648438 46.039062 29.566406 45.21875 29.40625 C 44.394531 29.242188 43.59375 29 42.820312 28.683594 C 42.046875 28.363281 41.308594 27.972656 40.609375 27.507812 C 39.914062 27.042969 39.269531 26.519531 38.675781 25.929688 C 38.082031 25.339844 37.550781 24.695312 37.085938 24.003906 C 36.621094 23.308594 36.226562 22.578125 35.90625 21.804688 C 35.582031 21.035156 35.339844 20.242188 35.179688 19.421875 C 35.015625 18.605469 34.933594 17.777344 34.933594 16.945312 C 34.933594 16.109375 35.015625 15.285156 35.179688 14.464844 C 35.339844 13.648438 35.582031 12.851562 35.90625 12.082031 C 36.226562 11.3125 36.621094 10.578125 37.085938 9.886719 C 37.550781 9.191406 38.082031 8.550781 38.675781 7.960938 C 39.269531 7.371094 39.914062 6.84375 40.609375 6.378906 C 41.308594 5.917969 42.046875 5.527344 42.820312 5.207031 C 43.59375 4.886719 44.394531 4.644531 45.21875 4.484375 C 46.039062 4.320312 46.871094 4.238281 47.710938 4.238281 C 48.550781 4.238281 49.378906 4.320312 50.203125 4.484375 C 51.027344 4.644531 51.824219 4.886719 52.601562 5.207031 C 53.375 5.527344 54.113281 5.917969 54.808594 6.378906 C 55.507812 6.84375 56.152344 7.371094 56.746094 7.960938 C 57.339844 8.550781 57.867188 9.191406 58.335938 9.886719 C 58.800781 10.578125 59.195312 11.3125 59.515625 12.082031 C 59.835938 12.851562 60.078125 13.648438 60.242188 14.464844 C 60.40625 15.285156 60.488281 16.109375 60.488281 16.945312 C 60.488281 17.777344 60.40625 18.605469 60.242188 19.421875 C 60.078125 20.242188 59.835938 21.035156 59.515625 21.804688 C 59.195312 22.578125 58.800781 23.308594 58.335938 24.003906 C 57.867188 24.695312 57.339844 25.339844 56.746094 25.929688 C 56.152344 26.519531 55.507812 27.042969 54.808594 27.507812 C 54.113281 27.972656 53.375 28.363281 52.601562 28.683594 C 51.824219 29 51.027344 29.242188 50.203125 29.40625 C 49.378906 29.566406 48.550781 29.648438 47.710938 29.648438 Z M 47.710938 29.648438 " fill-opacity="1" fill-rule="nonzero"/><path fill="#ffd96d" d="M 47.164062 28.371094 L 46.125 27.003906 L 44.710938 27.980469 L 43.992188 26.421875 L 42.386719 27.078125 L 42.027344 25.40625 L 40.332031 25.6875 L 40.332031 23.980469 L 38.613281 23.90625 L 38.992188 22.234375 L 37.328125 21.804688 L 38.046875 20.246094 L 36.519531 19.457031 L 37.574219 18.109375 L 36.234375 17 L 37.554688 15.894531 L 36.5 14.542969 L 38.027344 13.753906 L 37.292969 12.195312 L 38.953125 11.746094 L 38.554688 10.074219 L 40.292969 10 L 40.273438 8.273438 L 41.972656 8.574219 L 42.3125 6.886719 L 43.917969 7.523438 L 44.613281 5.964844 L 46.050781 6.941406 L 47.070312 5.554688 L 48.257812 6.808594 L 49.558594 5.683594 L 50.449219 7.148438 L 51.957031 6.339844 L 52.503906 7.953125 L 54.148438 7.484375 L 54.335938 9.195312 L 56.054688 9.082031 L 55.863281 10.789062 L 57.5625 11.03125 L 56.996094 12.664062 L 58.621094 13.285156 L 57.714844 14.75 L 59.148438 15.6875 L 57.960938 16.925781 L 59.167969 18.164062 L 57.734375 19.121094 L 58.640625 20.566406 L 57.035156 21.203125 L 57.601562 22.816406 L 55.902344 23.097656 L 56.109375 24.789062 L 54.390625 24.695312 L 54.222656 26.402344 L 52.5625 25.933594 L 52.03125 27.566406 L 50.503906 26.757812 L 49.636719 28.242188 L 48.332031 27.117188 Z M 47.164062 28.371094 " fill-opacity="1" fill-rule="nonzero"/><path fill="#c74187" d="M 47.710938 27.058594 C 47.042969 27.058594 46.382812 26.996094 45.726562 26.863281 C 45.070312 26.734375 44.433594 26.542969 43.816406 26.289062 C 43.199219 26.035156 42.613281 25.722656 42.058594 25.355469 C 41.503906 24.984375 40.988281 24.566406 40.515625 24.097656 C 40.042969 23.625 39.621094 23.117188 39.25 22.5625 C 38.878906 22.011719 38.566406 21.429688 38.3125 20.816406 C 38.054688 20.203125 37.863281 19.570312 37.734375 18.917969 C 37.601562 18.265625 37.535156 17.609375 37.535156 16.945312 C 37.535156 16.28125 37.601562 15.621094 37.734375 14.96875 C 37.863281 14.320312 38.054688 13.6875 38.3125 13.074219 C 38.566406 12.460938 38.878906 11.875 39.25 11.324219 C 39.621094 10.773438 40.042969 10.261719 40.515625 9.792969 C 40.988281 9.320312 41.503906 8.902344 42.058594 8.535156 C 42.613281 8.164062 43.199219 7.851562 43.816406 7.597656 C 44.433594 7.34375 45.070312 7.152344 45.726562 7.023438 C 46.382812 6.894531 47.042969 6.828125 47.710938 6.828125 C 48.378906 6.828125 49.039062 6.894531 49.695312 7.023438 C 50.351562 7.152344 50.988281 7.34375 51.605469 7.597656 C 52.222656 7.851562 52.808594 8.164062 53.363281 8.535156 C 53.917969 8.902344 54.433594 9.320312 54.90625 9.792969 C 55.375 10.261719 55.796875 10.773438 56.167969 11.324219 C 56.539062 11.875 56.855469 12.460938 57.109375 13.074219 C 57.367188 13.6875 57.558594 14.320312 57.6875 14.96875 C 57.820312 15.621094 57.882812 16.28125 57.882812 16.945312 C 57.882812 17.609375 57.820312 18.265625 57.6875 18.917969 C 57.558594 19.570312 57.367188 20.203125 57.109375 20.816406 C 56.855469 21.429688 56.539062 22.011719 56.167969 22.5625 C 55.796875 23.117188 55.375 23.625 54.90625 24.097656 C 54.433594 24.566406 53.917969 24.984375 53.363281 25.355469 C 52.808594 25.722656 52.222656 26.035156 51.605469 26.289062 C 50.988281 26.542969 50.351562 26.734375 49.695312 26.863281 C 49.039062 26.996094 48.378906 27.058594 47.710938 27.058594 Z M 47.710938 27.058594 " fill-opacity="1" fill-rule="nonzero"/><path fill="#ffd96d" d="M 51.769531 21.183594 C 48.257812 19.328125 48.105469 16.960938 48.105469 16.960938 C 50.222656 16.082031 53.050781 17.300781 53.675781 17.621094 C 55.617188 18.652344 56.789062 20.285156 56.261719 21.261719 C 55.730469 22.273438 53.730469 22.21875 51.769531 21.183594 Z M 51.769531 21.183594 " fill-opacity="1" fill-rule="nonzero"/><path fill="#ffd96d" d="M 44.292969 12.664062 C 47.804688 14.523438 47.957031 16.886719 47.957031 16.886719 C 45.84375 17.769531 43.011719 16.550781 42.386719 16.230469 C 40.445312 15.199219 39.273438 13.566406 39.800781 12.589844 C 40.332031 11.59375 42.332031 11.632812 44.292969 12.664062 Z M 44.292969 12.664062 " fill-opacity="1" fill-rule="nonzero"/><path fill="#ffd96d" d="M 53.503906 15.707031 C 50.125 17.808594 47.992188 16.757812 47.992188 16.757812 C 48.277344 14.503906 50.75 12.664062 51.351562 12.289062 C 53.222656 11.125 55.222656 10.9375 55.828125 11.894531 C 56.410156 12.835938 55.375 14.542969 53.503906 15.707031 Z M 53.503906 15.707031 " fill-opacity="1" fill-rule="nonzero"/><path fill="#ffd96d" d="M 42.3125 17.824219 C 45.691406 15.722656 47.824219 16.773438 47.824219 16.773438 C 47.539062 19.027344 45.066406 20.867188 44.464844 21.242188 C 42.59375 22.40625 40.59375 22.59375 39.992188 21.636719 C 39.40625 20.699219 40.445312 18.988281 42.3125 17.824219 Z M 42.3125 17.824219 " fill-opacity="1" fill-rule="nonzero"/><path fill="#ffd96d" d="M 49.445312 11.59375 C 49.578125 15.535156 47.597656 16.851562 47.597656 16.851562 C 45.785156 15.480469 45.40625 12.421875 45.390625 11.726562 C 45.3125 9.53125 46.164062 7.710938 47.277344 7.671875 C 48.390625 7.65625 49.371094 9.398438 49.445312 11.59375 Z M 49.445312 11.59375 " fill-opacity="1" fill-rule="nonzero"/><path fill="#ffd96d" d="M 45.917969 22.347656 C 45.785156 18.40625 47.765625 17.09375 47.765625 17.09375 C 49.578125 18.464844 49.957031 21.523438 49.976562 22.21875 C 50.050781 24.414062 49.203125 26.234375 48.089844 26.269531 C 46.957031 26.289062 45.992188 24.542969 45.917969 22.347656 Z M 45.917969 22.347656 " fill-opacity="1" fill-rule="nonzero"/><path fill="#c74187" d="M 51.464844 19.703125 C 51.0625 19.492188 50.691406 19.269531 50.339844 19.035156 C 49.992188 18.804688 49.695312 18.578125 49.449219 18.359375 C 49.203125 18.136719 49.027344 17.941406 48.925781 17.769531 C 48.820312 17.597656 48.792969 17.460938 48.847656 17.363281 C 48.898438 17.265625 49.027344 17.210938 49.230469 17.199219 C 49.429688 17.1875 49.691406 17.222656 50.011719 17.304688 C 50.332031 17.382812 50.6875 17.5 51.078125 17.660156 C 51.46875 17.816406 51.863281 18 52.261719 18.210938 C 52.660156 18.425781 53.035156 18.648438 53.386719 18.878906 C 53.734375 19.113281 54.03125 19.339844 54.277344 19.558594 C 54.523438 19.777344 54.699219 19.972656 54.800781 20.144531 C 54.90625 20.320312 54.933594 20.453125 54.878906 20.554688 C 54.828125 20.652344 54.699219 20.707031 54.496094 20.71875 C 54.296875 20.726562 54.035156 20.691406 53.714844 20.613281 C 53.394531 20.535156 53.039062 20.414062 52.648438 20.257812 C 52.257812 20.101562 51.863281 19.914062 51.464844 19.703125 Z M 51.464844 19.703125 " fill-opacity="1" fill-rule="nonzero"/><path fill="#c74187" d="M 43.4375 15.472656 C 43.039062 15.261719 42.664062 15.039062 42.3125 14.804688 C 41.964844 14.574219 41.667969 14.347656 41.421875 14.128906 C 41.175781 13.90625 41 13.710938 40.898438 13.539062 C 40.792969 13.367188 40.765625 13.230469 40.820312 13.132812 C 40.871094 13.035156 41 12.980469 41.203125 12.96875 C 41.402344 12.957031 41.664062 12.992188 41.984375 13.074219 C 42.304688 13.152344 42.660156 13.269531 43.050781 13.429688 C 43.441406 13.585938 43.835938 13.769531 44.234375 13.984375 C 44.636719 14.195312 45.011719 14.417969 45.359375 14.648438 C 45.707031 14.882812 46.003906 15.109375 46.25 15.328125 C 46.496094 15.546875 46.671875 15.742188 46.777344 15.917969 C 46.878906 16.089844 46.90625 16.222656 46.851562 16.324219 C 46.800781 16.421875 46.671875 16.476562 46.46875 16.488281 C 46.269531 16.496094 46.007812 16.460938 45.6875 16.382812 C 45.367188 16.304688 45.011719 16.183594 44.621094 16.027344 C 44.234375 15.871094 43.835938 15.683594 43.4375 15.472656 Z M 43.4375 15.472656 " fill-opacity="1" fill-rule="nonzero"/><path fill="#c74187" d="M 46.957031 21.484375 C 46.933594 21.035156 46.929688 20.601562 46.949219 20.183594 C 46.96875 19.765625 47.007812 19.394531 47.070312 19.070312 C 47.132812 18.75 47.210938 18.5 47.304688 18.320312 C 47.398438 18.144531 47.5 18.050781 47.613281 18.042969 C 47.726562 18.039062 47.839844 18.117188 47.953125 18.285156 C 48.066406 18.449219 48.171875 18.691406 48.269531 19.003906 C 48.367188 19.316406 48.449219 19.679688 48.515625 20.09375 C 48.582031 20.507812 48.628906 20.9375 48.652344 21.386719 C 48.679688 21.839844 48.683594 22.273438 48.664062 22.691406 C 48.644531 23.109375 48.601562 23.476562 48.539062 23.800781 C 48.480469 24.121094 48.402344 24.371094 48.308594 24.550781 C 48.214844 24.730469 48.109375 24.820312 47.996094 24.828125 C 47.886719 24.832031 47.773438 24.753906 47.65625 24.585938 C 47.542969 24.421875 47.4375 24.179688 47.339844 23.867188 C 47.242188 23.554688 47.160156 23.191406 47.09375 22.777344 C 47.027344 22.363281 46.984375 21.933594 46.957031 21.484375 Z M 46.957031 21.484375 " fill-opacity="1" fill-rule="nonzero"/><path fill="#c74187" d="M 46.765625 12.46875 C 46.738281 12.019531 46.738281 11.585938 46.757812 11.167969 C 46.777344 10.75 46.816406 10.378906 46.878906 10.058594 C 46.941406 9.734375 47.019531 9.484375 47.113281 9.304688 C 47.207031 9.128906 47.308594 9.035156 47.421875 9.03125 C 47.535156 9.023438 47.648438 9.105469 47.761719 9.269531 C 47.875 9.4375 47.980469 9.675781 48.078125 9.988281 C 48.175781 10.304688 48.257812 10.667969 48.324219 11.078125 C 48.390625 11.492188 48.4375 11.925781 48.460938 12.375 C 48.488281 12.824219 48.488281 13.257812 48.46875 13.675781 C 48.449219 14.09375 48.410156 14.464844 48.347656 14.785156 C 48.289062 15.109375 48.210938 15.359375 48.117188 15.535156 C 48.019531 15.714844 47.917969 15.804688 47.804688 15.8125 C 47.691406 15.820312 47.578125 15.738281 47.464844 15.574219 C 47.351562 15.40625 47.246094 15.167969 47.148438 14.851562 C 47.050781 14.539062 46.96875 14.175781 46.902344 13.761719 C 46.835938 13.351562 46.792969 12.917969 46.765625 12.46875 Z M 46.765625 12.46875 " fill-opacity="1" fill-rule="nonzero"/><path fill="#c74187" d="M 43.507812 18.519531 C 43.894531 18.28125 44.277344 18.074219 44.65625 17.890625 C 45.035156 17.710938 45.382812 17.570312 45.695312 17.46875 C 46.011719 17.371094 46.269531 17.320312 46.472656 17.316406 C 46.675781 17.3125 46.804688 17.359375 46.863281 17.457031 C 46.921875 17.550781 46.90625 17.6875 46.8125 17.867188 C 46.71875 18.042969 46.558594 18.25 46.328125 18.484375 C 46.097656 18.71875 45.8125 18.964844 45.480469 19.21875 C 45.144531 19.472656 44.785156 19.71875 44.402344 19.957031 C 44.015625 20.191406 43.632812 20.402344 43.253906 20.582031 C 42.875 20.765625 42.527344 20.90625 42.214844 21.007812 C 41.898438 21.105469 41.640625 21.15625 41.4375 21.160156 C 41.238281 21.160156 41.105469 21.113281 41.046875 21.019531 C 40.988281 20.925781 41.003906 20.789062 41.097656 20.609375 C 41.191406 20.429688 41.351562 20.222656 41.582031 19.988281 C 41.816406 19.753906 42.097656 19.511719 42.429688 19.253906 C 42.765625 19 43.125 18.753906 43.507812 18.519531 Z M 43.507812 18.519531 " fill-opacity="1" fill-rule="nonzero"/><path fill="#c74187" d="M 51.4375 13.605469 C 51.824219 13.371094 52.207031 13.160156 52.585938 12.976562 C 52.964844 12.796875 53.308594 12.65625 53.625 12.554688 C 53.941406 12.457031 54.199219 12.40625 54.398438 12.402344 C 54.601562 12.402344 54.734375 12.445312 54.792969 12.542969 C 54.851562 12.636719 54.835938 12.773438 54.742188 12.953125 C 54.648438 13.132812 54.484375 13.339844 54.253906 13.574219 C 54.023438 13.808594 53.742188 14.050781 53.40625 14.308594 C 53.074219 14.5625 52.714844 14.808594 52.328125 15.042969 C 51.945312 15.28125 51.5625 15.488281 51.183594 15.671875 C 50.804688 15.851562 50.457031 15.992188 50.140625 16.09375 C 49.828125 16.191406 49.570312 16.242188 49.367188 16.246094 C 49.164062 16.25 49.035156 16.203125 48.976562 16.105469 C 48.914062 16.011719 48.933594 15.875 49.027344 15.695312 C 49.117188 15.515625 49.28125 15.3125 49.511719 15.078125 C 49.742188 14.839844 50.023438 14.597656 50.359375 14.34375 C 50.691406 14.085938 51.050781 13.84375 51.4375 13.605469 Z M 51.4375 13.605469 " fill-opacity="1" fill-rule="nonzero"/><path fill="#e96ea9" d="M 53.355469 18.78125 C 49.390625 18.914062 48.070312 16.945312 48.070312 16.945312 C 49.464844 15.140625 52.523438 14.785156 53.222656 14.765625 C 55.429688 14.691406 57.261719 15.535156 57.300781 16.644531 C 57.335938 17.75 55.5625 18.707031 53.355469 18.78125 Z M 53.355469 18.78125 " fill-opacity="1" fill-rule="nonzero"/><path fill="#e96ea9" d="M 42.59375 15.105469 C 46.558594 14.972656 47.878906 16.945312 47.878906 16.945312 C 46.484375 18.746094 43.425781 19.101562 42.726562 19.121094 C 40.519531 19.195312 38.6875 18.351562 38.652344 17.246094 C 38.632812 16.136719 40.386719 15.160156 42.59375 15.105469 Z M 42.59375 15.105469 " fill-opacity="1" fill-rule="nonzero"/><path fill="#e96ea9" d="M 52.109375 13.171875 C 50.238281 16.664062 47.863281 16.792969 47.863281 16.792969 C 46.992188 14.691406 48.203125 11.878906 48.539062 11.257812 C 49.578125 9.324219 51.222656 8.179688 52.222656 8.707031 C 53.203125 9.230469 53.144531 11.21875 52.109375 13.171875 Z M 52.109375 13.171875 " fill-opacity="1" fill-rule="nonzero"/><path fill="#e96ea9" d="M 43.484375 20.546875 C 45.351562 17.058594 47.730469 16.925781 47.730469 16.925781 C 48.597656 19.027344 47.390625 21.84375 47.050781 22.460938 C 46.011719 24.394531 44.371094 25.539062 43.371094 25.011719 C 42.386719 24.46875 42.425781 22.480469 43.484375 20.546875 Z M 43.484375 20.546875 " fill-opacity="1" fill-rule="nonzero"/><path fill="#e96ea9" d="M 46.539062 11.613281 C 48.636719 14.972656 47.578125 17.09375 47.578125 17.09375 C 45.3125 16.792969 43.464844 14.335938 43.105469 13.753906 C 41.933594 11.894531 41.765625 9.886719 42.707031 9.304688 C 43.652344 8.707031 45.371094 9.738281 46.539062 11.613281 Z M 46.539062 11.613281 " fill-opacity="1" fill-rule="nonzero"/><path fill="#e96ea9" d="M 48.863281 22.6875 C 46.765625 19.328125 47.824219 17.207031 47.824219 17.207031 C 50.089844 17.507812 51.9375 19.964844 52.296875 20.546875 C 53.46875 22.40625 53.636719 24.414062 52.695312 24.996094 C 51.75 25.578125 50.03125 24.542969 48.863281 22.6875 Z M 48.863281 22.6875 " fill-opacity="1" fill-rule="nonzero"/><path fill="#ffb3d7" d="M 52.34375 17.636719 C 51.890625 17.652344 51.453125 17.644531 51.035156 17.617188 C 50.613281 17.585938 50.242188 17.539062 49.917969 17.46875 C 49.597656 17.402344 49.347656 17.316406 49.171875 17.21875 C 48.992188 17.121094 48.902344 17.015625 48.898438 16.90625 C 48.894531 16.792969 48.980469 16.683594 49.148438 16.574219 C 49.320312 16.464844 49.5625 16.367188 49.878906 16.277344 C 50.199219 16.1875 50.566406 16.113281 50.980469 16.058594 C 51.398438 16 51.832031 15.964844 52.285156 15.949219 C 52.738281 15.9375 53.175781 15.941406 53.59375 15.972656 C 54.015625 16 54.386719 16.050781 54.710938 16.121094 C 55.03125 16.1875 55.28125 16.269531 55.457031 16.367188 C 55.636719 16.464844 55.726562 16.570312 55.730469 16.683594 C 55.734375 16.796875 55.648438 16.90625 55.480469 17.015625 C 55.308594 17.125 55.066406 17.222656 54.75 17.3125 C 54.429688 17.402344 54.0625 17.476562 53.648438 17.53125 C 53.230469 17.589844 52.796875 17.625 52.34375 17.636719 Z M 52.34375 17.636719 " fill-opacity="1" fill-rule="nonzero"/><path fill="#ffb3d7" d="M 43.261719 17.941406 C 42.8125 17.953125 42.375 17.945312 41.953125 17.917969 C 41.535156 17.886719 41.164062 17.839844 40.839844 17.769531 C 40.519531 17.703125 40.269531 17.617188 40.089844 17.519531 C 39.914062 17.421875 39.824219 17.320312 39.820312 17.207031 C 39.816406 17.09375 39.898438 16.984375 40.070312 16.875 C 40.238281 16.765625 40.484375 16.667969 40.800781 16.578125 C 41.117188 16.488281 41.484375 16.414062 41.902344 16.359375 C 42.320312 16.300781 42.753906 16.265625 43.207031 16.25 C 43.660156 16.238281 44.097656 16.242188 44.515625 16.273438 C 44.9375 16.300781 45.308594 16.351562 45.628906 16.421875 C 45.953125 16.488281 46.203125 16.570312 46.378906 16.667969 C 46.554688 16.765625 46.648438 16.871094 46.648438 16.984375 C 46.652344 17.097656 46.570312 17.207031 46.402344 17.316406 C 46.230469 17.425781 45.988281 17.523438 45.667969 17.613281 C 45.351562 17.703125 44.984375 17.777344 44.566406 17.832031 C 44.152344 17.890625 43.714844 17.925781 43.261719 17.941406 Z M 43.261719 17.941406 " fill-opacity="1" fill-rule="nonzero"/><path fill="#ffb3d7" d="M 49.335938 21.421875 C 49.085938 21.042969 48.867188 20.667969 48.675781 20.296875 C 48.484375 19.925781 48.332031 19.582031 48.222656 19.273438 C 48.117188 18.964844 48.058594 18.707031 48.050781 18.507812 C 48.042969 18.304688 48.085938 18.175781 48.179688 18.113281 C 48.273438 18.050781 48.414062 18.066406 48.59375 18.152344 C 48.777344 18.242188 48.988281 18.398438 49.230469 18.621094 C 49.472656 18.84375 49.726562 19.117188 49.988281 19.445312 C 50.253906 19.769531 50.511719 20.121094 50.757812 20.496094 C 51.003906 20.875 51.226562 21.25 51.417969 21.621094 C 51.609375 21.992188 51.761719 22.335938 51.867188 22.644531 C 51.976562 22.957031 52.035156 23.210938 52.042969 23.410156 C 52.050781 23.613281 52.007812 23.742188 51.910156 23.804688 C 51.816406 23.867188 51.679688 23.851562 51.496094 23.765625 C 51.316406 23.675781 51.105469 23.519531 50.863281 23.296875 C 50.621094 23.074219 50.367188 22.800781 50.101562 22.472656 C 49.839844 22.148438 49.582031 21.796875 49.335938 21.421875 Z M 49.335938 21.421875 " fill-opacity="1" fill-rule="nonzero"/><path fill="#ffb3d7" d="M 44.636719 13.703125 C 44.390625 13.328125 44.171875 12.953125 43.980469 12.578125 C 43.785156 12.207031 43.636719 11.867188 43.527344 11.558594 C 43.417969 11.246094 43.363281 10.992188 43.355469 10.789062 C 43.347656 10.589844 43.390625 10.457031 43.484375 10.398438 C 43.578125 10.335938 43.714844 10.347656 43.898438 10.4375 C 44.082031 10.523438 44.292969 10.679688 44.535156 10.90625 C 44.777344 11.128906 45.027344 11.402344 45.292969 11.726562 C 45.558594 12.054688 45.8125 12.402344 46.0625 12.78125 C 46.308594 13.160156 46.527344 13.535156 46.722656 13.90625 C 46.914062 14.277344 47.0625 14.617188 47.171875 14.929688 C 47.28125 15.238281 47.339844 15.496094 47.347656 15.695312 C 47.351562 15.894531 47.308594 16.027344 47.214844 16.089844 C 47.121094 16.148438 46.984375 16.136719 46.800781 16.046875 C 46.621094 15.960938 46.40625 15.804688 46.167969 15.582031 C 45.925781 15.355469 45.671875 15.082031 45.40625 14.757812 C 45.140625 14.433594 44.886719 14.082031 44.636719 13.703125 Z M 44.636719 13.703125 " fill-opacity="1" fill-rule="nonzero"/><path fill="#ffb3d7" d="M 44.859375 20.550781 C 45.078125 20.15625 45.304688 19.785156 45.542969 19.4375 C 45.777344 19.09375 46.007812 18.800781 46.230469 18.558594 C 46.453125 18.316406 46.652344 18.144531 46.828125 18.039062 C 47 17.9375 47.136719 17.914062 47.238281 17.96875 C 47.335938 18.019531 47.390625 18.148438 47.398438 18.347656 C 47.40625 18.550781 47.371094 18.808594 47.289062 19.125 C 47.203125 19.445312 47.082031 19.796875 46.921875 20.183594 C 46.757812 20.570312 46.570312 20.960938 46.355469 21.355469 C 46.136719 21.75 45.910156 22.121094 45.675781 22.46875 C 45.4375 22.8125 45.207031 23.105469 44.984375 23.347656 C 44.761719 23.589844 44.5625 23.765625 44.386719 23.867188 C 44.214844 23.96875 44.078125 23.992188 43.980469 23.9375 C 43.878906 23.886719 43.824219 23.757812 43.816406 23.558594 C 43.808594 23.355469 43.84375 23.097656 43.929688 22.78125 C 44.011719 22.460938 44.132812 22.109375 44.292969 21.722656 C 44.457031 21.335938 44.644531 20.945312 44.859375 20.550781 Z M 44.859375 20.550781 " fill-opacity="1" fill-rule="nonzero"/><path fill="#ffb3d7" d="M 49.277344 12.371094 C 49.496094 11.972656 49.722656 11.601562 49.960938 11.257812 C 50.195312 10.914062 50.425781 10.617188 50.648438 10.375 C 50.871094 10.132812 51.070312 9.960938 51.246094 9.859375 C 51.417969 9.757812 51.554688 9.734375 51.65625 9.785156 C 51.753906 9.839844 51.808594 9.96875 51.816406 10.167969 C 51.824219 10.367188 51.789062 10.628906 51.707031 10.945312 C 51.621094 11.265625 51.5 11.617188 51.339844 12.003906 C 51.175781 12.386719 50.988281 12.78125 50.773438 13.175781 C 50.554688 13.570312 50.328125 13.941406 50.09375 14.289062 C 49.855469 14.632812 49.625 14.925781 49.402344 15.167969 C 49.179688 15.410156 48.980469 15.582031 48.804688 15.683594 C 48.632812 15.789062 48.496094 15.8125 48.398438 15.757812 C 48.296875 15.703125 48.242188 15.578125 48.234375 15.378906 C 48.226562 15.175781 48.261719 14.917969 48.347656 14.597656 C 48.429688 14.28125 48.550781 13.929688 48.710938 13.542969 C 48.875 13.15625 49.0625 12.765625 49.277344 12.371094 Z M 49.277344 12.371094 " fill-opacity="1" fill-rule="nonzero"/><path fill="#c74187" d="M 47.710938 19.476562 C 47.371094 19.476562 47.046875 19.414062 46.734375 19.285156 C 46.421875 19.15625 46.148438 18.972656 45.910156 18.734375 C 45.667969 18.496094 45.484375 18.222656 45.355469 17.914062 C 45.226562 17.601562 45.164062 17.28125 45.164062 16.945312 C 45.164062 16.609375 45.226562 16.285156 45.355469 15.972656 C 45.484375 15.664062 45.667969 15.390625 45.910156 15.152344 C 46.148438 14.914062 46.421875 14.730469 46.734375 14.601562 C 47.046875 14.476562 47.371094 14.410156 47.710938 14.410156 C 48.046875 14.410156 48.375 14.476562 48.6875 14.601562 C 48.996094 14.730469 49.273438 14.914062 49.511719 15.152344 C 49.75 15.390625 49.933594 15.664062 50.066406 15.972656 C 50.195312 16.285156 50.257812 16.609375 50.257812 16.945312 C 50.257812 17.28125 50.195312 17.601562 50.066406 17.914062 C 49.933594 18.222656 49.75 18.496094 49.511719 18.734375 C 49.273438 18.972656 48.996094 19.15625 48.6875 19.285156 C 48.375 19.414062 48.046875 19.476562 47.710938 19.476562 Z M 47.710938 19.476562 " fill-opacity="1" fill-rule="nonzero"/><path fill="#ffd96d" d="M 47.710938 18.183594 C 47.546875 18.183594 47.386719 18.152344 47.234375 18.089844 C 47.082031 18.027344 46.945312 17.9375 46.828125 17.820312 C 46.710938 17.703125 46.621094 17.570312 46.558594 17.417969 C 46.496094 17.265625 46.464844 17.109375 46.464844 16.945312 C 46.464844 16.78125 46.496094 16.621094 46.558594 16.46875 C 46.621094 16.316406 46.710938 16.183594 46.828125 16.066406 C 46.945312 15.953125 47.082031 15.863281 47.234375 15.800781 C 47.386719 15.738281 47.546875 15.707031 47.710938 15.707031 C 47.875 15.707031 48.035156 15.738281 48.1875 15.800781 C 48.339844 15.863281 48.472656 15.953125 48.589844 16.066406 C 48.707031 16.183594 48.796875 16.316406 48.863281 16.46875 C 48.925781 16.621094 48.957031 16.78125 48.957031 16.945312 C 48.957031 17.109375 48.925781 17.265625 48.863281 17.417969 C 48.796875 17.570312 48.707031 17.703125 48.589844 17.820312 C 48.472656 17.9375 48.339844 18.027344 48.1875 18.089844 C 48.035156 18.152344 47.875 18.183594 47.710938 18.183594 Z M 47.710938 18.183594 " fill-opacity="1" fill-rule="nonzero"/><path fill="#e96ea9" d="M 20.246094 18.59375 C 20.03125 18.59375 19.820312 18.554688 19.621094 18.472656 C 19.417969 18.386719 19.242188 18.269531 19.085938 18.117188 C 18.933594 17.964844 18.8125 17.789062 18.730469 17.585938 C 18.648438 17.386719 18.605469 17.179688 18.605469 16.960938 C 18.605469 16.746094 18.648438 16.539062 18.730469 16.339844 C 18.8125 16.136719 18.933594 15.960938 19.085938 15.808594 C 19.242188 15.65625 19.417969 15.539062 19.621094 15.453125 C 19.820312 15.371094 20.03125 15.332031 20.246094 15.332031 C 20.464844 15.332031 20.675781 15.371094 20.875 15.453125 C 21.078125 15.539062 21.253906 15.65625 21.410156 15.808594 C 21.5625 15.960938 21.679688 16.136719 21.765625 16.339844 C 21.847656 16.539062 21.890625 16.746094 21.890625 16.960938 C 21.890625 17.179688 21.847656 17.386719 21.765625 17.585938 C 21.679688 17.789062 21.5625 17.964844 21.410156 18.117188 C 21.253906 18.269531 21.078125 18.386719 20.875 18.472656 C 20.675781 18.554688 20.464844 18.59375 20.246094 18.59375 Z M 20.246094 18.59375 " fill-opacity="1" fill-rule="nonzero"/><path fill="#c74187" d="M 23.34375 18.59375 C 23.125 18.59375 22.914062 18.554688 22.714844 18.472656 C 22.511719 18.386719 22.335938 18.269531 22.183594 18.117188 C 22.027344 17.964844 21.910156 17.789062 21.824219 17.585938 C 21.742188 17.386719 21.699219 17.179688 21.699219 16.960938 C 21.699219 16.746094 21.742188 16.539062 21.824219 16.339844 C 21.910156 16.136719 22.027344 15.960938 22.183594 15.808594 C 22.335938 15.65625 22.511719 15.539062 22.714844 15.453125 C 22.914062 15.371094 23.125 15.332031 23.34375 15.332031 C 23.5625 15.332031 23.769531 15.371094 23.972656 15.453125 C 24.171875 15.539062 24.351562 15.65625 24.503906 15.808594 C 24.660156 15.960938 24.777344 16.136719 24.859375 16.339844 C 24.945312 16.539062 24.984375 16.746094 24.984375 16.960938 C 24.984375 17.179688 24.945312 17.386719 24.859375 17.585938 C 24.777344 17.789062 24.660156 17.964844 24.503906 18.117188 C 24.351562 18.269531 24.171875 18.386719 23.972656 18.472656 C 23.769531 18.554688 23.5625 18.59375 23.34375 18.59375 Z M 23.34375 18.59375 " fill-opacity="1" fill-rule="nonzero"/></g></g></g></svg>