<svg xmlns="http://www.w3.org/2000/svg" xmlns:xlink="http://www.w3.org/1999/xlink" width="250" zoomAndPan="magnify" viewBox="0 0 187.5 749.999982" height="1000" preserveAspectRatio="xMidYMid meet" version="1.0"><defs><clipPath id="9d6c38bb32"><path d="M 35.273438 497 L 66 497 L 66 523 L 35.273438 523 Z M 35.273438 497 " clip-rule="nonzero"/></clipPath><clipPath id="0249367ebf"><path d="M 121.070312 662.546875 L 151.738281 662.546875 L 151.738281 692.289062 L 121.070312 692.289062 Z M 121.070312 662.546875 " clip-rule="nonzero"/></clipPath><clipPath id="d291895dbd"><path d="M 59.296875 714.023438 L 84 714.023438 L 84 742.988281 L 59.296875 742.988281 Z M 59.296875 714.023438 " clip-rule="nonzero"/></clipPath></defs><path fill="#e58f9e" d="M 85.40625 153.933594 C 85.648438 155.386719 86.898438 155.636719 87.945312 156.078125 C 89.621094 156.789062 91.289062 157.644531 93.71875 156.84375 C 90.902344 155.707031 88.535156 154.746094 86.152344 153.8125 C 85.972656 153.746094 85.710938 153.882812 85.40625 153.933594 Z M 99.007812 151.308594 C 99.285156 151.074219 99.460938 150.996094 99.453125 150.925781 C 99.246094 147.761719 99.023438 144.601562 98.777344 141.441406 C 98.757812 141.238281 98.539062 141.046875 98.390625 140.871094 C 98.335938 140.804688 98.210938 140.800781 97.898438 140.683594 C 97.710938 143.921875 97.96875 147.058594 98.410156 150.179688 C 98.464844 150.5625 98.789062 150.90625 99.007812 151.308594 Z M 97.953125 164.445312 C 95.785156 166.925781 94.160156 168.773438 92.550781 170.636719 C 92.167969 171.085938 91.796875 171.550781 91.484375 172.050781 C 91.394531 172.191406 91.535156 172.480469 91.585938 172.808594 C 92.925781 173.042969 93.769531 172.230469 94.597656 171.375 C 96.859375 169.046875 97.703125 167.5 97.953125 164.445312 Z M 106.332031 162.347656 C 106.15625 162.804688 105.941406 163.109375 106.015625 163.207031 C 107.9375 165.820312 109.539062 168.703125 112.007812 170.816406 C 112.886719 170.308594 112.859375 169.695312 112.539062 169.175781 C 111.664062 167.769531 110.675781 166.433594 109.789062 165.03125 C 109.003906 163.777344 107.972656 162.875 106.332031 162.347656 Z M 105.28125 154.492188 C 105.582031 154.621094 105.703125 154.730469 105.792969 154.703125 C 108.734375 153.933594 111.683594 153.171875 114.613281 152.34375 C 114.964844 152.242188 115.214844 151.761719 115.800781 151.160156 C 114.742188 150.964844 114.039062 150.636719 113.433594 150.757812 C 111.242188 151.199219 109.074219 151.761719 106.921875 152.363281 C 106.382812 152.507812 105.824219 152.871094 105.457031 153.296875 C 105.21875 153.5625 105.320312 154.121094 105.28125 154.492188 Z M 99.65625 160.644531 C 101.4375 161.230469 102.355469 161.007812 103.125 160.085938 C 103.753906 159.328125 104.203125 158.484375 103.773438 157.472656 C 103.300781 156.398438 102.453125 155.789062 101.253906 155.8125 C 100.546875 155.824219 99.820312 155.882812 99.132812 156.042969 C 97.921875 156.320312 97.195312 157.769531 97.875 158.851562 C 98.40625 159.699219 99.3125 160.3125 99.65625 160.644531 Z M 75.386719 151.746094 C 77.992188 150.644531 80.585938 149.601562 83.136719 148.460938 C 85.132812 147.566406 87.183594 147.085938 89.371094 147.160156 C 89.828125 147.171875 90.292969 147.089844 90.722656 147.054688 C 91.675781 141.058594 91.113281 141.96875 95.210938 137.65625 C 95.617188 137.226562 95.964844 136.730469 96.394531 136.320312 C 97.300781 135.453125 97.839844 134.476562 97.734375 133.15625 C 97.703125 132.753906 98.0625 132.316406 98.210938 131.96875 C 99.328125 131.804688 99.597656 132.589844 99.808594 133.199219 C 100.25 134.492188 100.921875 135.621094 102.015625 136.382812 C 104.742188 138.261719 106.039062 141.019531 106.949219 144.050781 C 107.082031 144.492188 107.292969 144.914062 107.453125 145.300781 C 107.796875 145.382812 108.050781 145.527344 108.246094 145.472656 C 111.316406 144.546875 114.148438 145.351562 116.925781 146.601562 C 118.367188 147.253906 119.835938 147.636719 121.445312 147.390625 C 122.492188 147.234375 123.539062 147.25 124.496094 148.335938 C 123.871094 148.929688 123.289062 149.484375 122.703125 150.039062 C 121.140625 151.511719 119.738281 153.082031 118.65625 154.988281 C 117.566406 156.917969 116.273438 158.769531 114.117188 159.914062 C 114.707031 160.761719 115.207031 161.417969 115.632812 162.121094 C 116.707031 163.902344 117.339844 165.792969 116.800781 167.902344 C 116.054688 170.820312 116.4375 173.566406 117.953125 176.164062 C 118.042969 176.316406 117.914062 176.597656 117.851562 177.085938 C 117.316406 176.992188 116.789062 176.894531 116.261719 176.800781 C 114.984375 176.574219 113.699219 176.15625 112.421875 176.152344 C 108.390625 176.132812 105.015625 174.640625 102.082031 171.980469 C 101.90625 171.816406 101.746094 171.644531 101.558594 171.496094 C 101.488281 171.4375 101.363281 171.441406 101.371094 171.445312 C 99.871094 173.019531 98.449219 174.613281 96.921875 176.089844 C 95.65625 177.304688 94.007812 177.722656 92.300781 177.726562 C 90.992188 177.726562 89.683594 177.460938 88.371094 177.480469 C 87.089844 177.492188 85.808594 177.707031 84.230469 177.863281 C 84.304688 177.117188 84.261719 176.554688 84.421875 176.058594 C 85.203125 173.667969 85.816406 171.253906 85.949219 168.722656 C 86 167.796875 86.320312 166.863281 86.648438 165.976562 C 87.015625 165 87.523438 164.074219 88.042969 162.984375 C 87.457031 162.628906 86.984375 162.285156 86.460938 162.050781 C 84.660156 161.226562 83.292969 160.007812 82.367188 158.214844 C 81.355469 156.25 79.671875 154.902344 77.800781 153.78125 C 76.902344 153.242188 75.847656 152.871094 75.386719 151.746094 " fill-opacity="1" fill-rule="nonzero"/><path fill="#e58f9e" d="M 94.109375 32.445312 C 94.125 32.179688 94.136719 31.910156 94.152344 31.648438 C 91.402344 31.445312 88.65625 31.246094 85.910156 31.042969 C 88.484375 32.875 91.253906 33.035156 94.109375 32.445312 Z M 99 39.121094 C 97.671875 40.796875 96.039062 46.277344 96.070312 48.980469 C 97.988281 45.523438 98.738281 42.417969 99 39.121094 Z M 99.039062 33.382812 C 99.675781 34.066406 100.359375 34.292969 101.605469 34.226562 C 102.8125 34.164062 103.445312 33.097656 102.929688 32 C 102.277344 30.601562 100.644531 30.105469 99.398438 30.933594 C 98.535156 31.5 98.363281 32.652344 99.039062 33.382812 Z M 117.917969 27.082031 C 117.546875 26.785156 117.425781 26.632812 117.375 26.65625 C 114.429688 27.753906 111.867188 29.789062 108.636719 30.195312 C 108.503906 30.207031 108.414062 30.566406 108.308594 30.761719 C 108.449219 30.925781 108.617188 31.257812 108.722656 31.242188 C 109.988281 31.03125 111.296875 30.921875 112.476562 30.480469 C 114.441406 29.738281 116.425781 28.945312 117.917969 27.082031 Z M 112.546875 43.621094 C 111.796875 41.253906 110.363281 39.296875 108.269531 37.898438 C 107.542969 37.417969 106.734375 36.832031 105.503906 37.488281 C 107.945312 39.609375 110.246094 41.617188 112.546875 43.621094 Z M 100.253906 26.625 C 101.242188 26.386719 101.351562 25.855469 101.234375 25.214844 C 100.761719 22.65625 100.296875 20.101562 99.785156 17.546875 C 99.742188 17.320312 99.433594 17.140625 99.027344 16.707031 C 98.328125 20.324219 98.035156 23.53125 100.253906 26.625 Z M 101.601562 5.90625 C 101.84375 7.105469 102.144531 8 102.191406 8.910156 C 102.261719 10.425781 102.820312 11.703125 103.792969 12.796875 C 105.058594 14.21875 106.554688 15.457031 107.195312 17.347656 C 107.796875 19.125 108.421875 20.898438 109 22.566406 C 111.640625 22.636719 114.242188 22.777344 116.84375 22.75 C 117.890625 22.742188 118.957031 22.433594 119.988281 22.15625 C 121.125 21.851562 122.230469 21.4375 123.230469 21.105469 C 124.238281 21.558594 124.15625 22.296875 124.054688 22.992188 C 123.949219 23.699219 123.714844 24.386719 123.5625 25.082031 C 122.503906 30.066406 119.929688 33.851562 114.785156 35.898438 C 115.203125 36.429688 115.457031 36.914062 115.851562 37.238281 C 117.402344 38.5 118.292969 40.171875 118.742188 42.0625 C 119.453125 45.09375 120.011719 48.132812 118.769531 51.203125 C 118.417969 52.070312 118.425781 53.074219 118.167969 53.988281 C 118.09375 54.265625 117.699219 54.453125 117.359375 54.761719 C 117.09375 54.441406 116.820312 54.214844 116.667969 53.917969 C 115.679688 52.011719 114.097656 50.875 112.078125 50.222656 C 110.605469 49.746094 109.125 49.246094 107.730469 48.574219 C 106.476562 47.976562 105.332031 47.136719 104.042969 46.34375 C 100.585938 50.175781 97.078125 53.753906 91.953125 54.980469 C 91.453125 55.097656 90.878906 54.914062 90.40625 54.878906 C 90.335938 54.535156 90.25 54.378906 90.296875 54.308594 C 91.949219 51.703125 91.839844 48.980469 91.207031 46.066406 C 90.707031 43.757812 90.480469 41.332031 91.394531 38.777344 C 90.503906 38.507812 89.773438 38.195312 89.003906 38.0625 C 84.613281 37.332031 80.84375 35.539062 78.011719 31.972656 C 77.429688 31.246094 76.597656 30.714844 75.695312 29.925781 C 76.066406 29.503906 76.355469 28.835938 76.75 28.769531 C 79.042969 28.375 80.984375 27.351562 82.921875 26.097656 C 85.757812 24.257812 88.878906 23.058594 92.570312 23.335938 C 92.460938 22.003906 92.375 20.863281 92.277344 19.730469 C 92 16.511719 93.136719 14.035156 95.710938 11.964844 C 97.726562 10.34375 99.355469 8.253906 101.601562 5.90625 " fill-opacity="1" fill-rule="nonzero"/><path fill="#e58f9e" d="M 102.027344 602.527344 C 104.007812 601.53125 104.738281 599.792969 104.621094 596.808594 C 102.910156 598.417969 102.890625 600.636719 102.027344 602.527344 Z M 109.609375 585.640625 C 112.144531 583.910156 113.535156 582.574219 114.484375 580.976562 C 114.609375 580.761719 114.46875 580.386719 114.453125 580.015625 C 111.976562 581.546875 111.421875 582.167969 109.609375 585.640625 Z M 111.179688 592.378906 C 113.78125 594.257812 116.046875 595.769531 119.035156 595.703125 C 116.785156 594.167969 114.410156 592.894531 111.179688 592.378906 Z M 96.777344 577.871094 C 96.484375 578.324219 96.214844 578.589844 96.265625 578.691406 C 97.324219 580.792969 98.667969 582.691406 100.503906 584.179688 C 100.832031 584.441406 101.429688 584.527344 101.582031 583.777344 C 100.042969 581.882812 98.5 579.980469 96.777344 577.871094 Z M 99.316406 591.929688 C 99.539062 591.347656 99.148438 590.976562 98.660156 591.125 C 96.277344 591.84375 93.921875 592.648438 91.578125 593.472656 C 91.421875 593.527344 91.429688 594.03125 91.277344 594.671875 C 94.160156 593.6875 96.71875 592.8125 99.316406 591.929688 Z M 103.484375 589.050781 C 103.167969 590.082031 103.816406 591.355469 104.777344 591.59375 C 106.039062 591.902344 107.296875 591.03125 107.632812 589.613281 C 107.800781 588.890625 107.40625 588.125 106.746094 587.917969 C 105.1875 587.421875 103.839844 587.894531 103.484375 589.050781 Z M 99.355469 615.394531 C 99.335938 615.101562 99.222656 614.4375 99.246094 613.769531 C 99.308594 612.179688 99.136719 610.652344 98.171875 609.332031 C 96.199219 606.617188 95.988281 603.625 96.6875 600.472656 C 96.761719 600.140625 96.769531 599.796875 96.835938 599.242188 C 94.878906 599.546875 93.054688 600.03125 91.226562 600.0625 C 89.339844 600.09375 87.445312 599.617188 85.542969 599.492188 C 83.671875 599.367188 81.75 599.570312 79.949219 598.117188 C 80.378906 597.671875 80.625 597.273438 80.980469 597.070312 C 82.523438 596.207031 83.640625 594.898438 84.128906 593.296875 C 85.1875 589.769531 88.054688 588.027344 90.757812 586.085938 C 91.234375 585.746094 91.792969 585.523438 92.4375 585.179688 C 91.929688 583.769531 91.464844 582.4375 90.976562 581.113281 C 90.078125 578.6875 89.941406 576.285156 90.714844 573.753906 C 91.441406 571.363281 91.886719 568.886719 92.421875 566.570312 C 93.414062 566.15625 93.582031 566.878906 93.941406 567.277344 C 95.304688 568.796875 96.71875 570.222656 98.753906 570.863281 C 101.644531 571.769531 103.664062 573.722656 105.09375 576.335938 C 105.316406 576.753906 105.5625 577.15625 105.878906 577.703125 C 107.554688 576.769531 109.097656 575.585938 110.835938 575.023438 C 112.613281 574.445312 114.589844 574.3125 116.484375 574.285156 C 118.289062 574.265625 120.207031 573.0625 121.921875 574.460938 C 121.925781 574.835938 122.035156 575.15625 121.921875 575.277344 C 120.25 577.125 119.535156 579.316406 119.179688 581.753906 C 118.859375 583.976562 118.195312 586.15625 117.65625 588.496094 C 119.949219 589.898438 121.6875 591.835938 122.988281 594.140625 C 123.996094 595.925781 125.402344 597.050781 127.527344 597.160156 C 127.851562 597.179688 128.164062 597.414062 128.492188 597.554688 C 127.601562 599.394531 123.921875 601.925781 120.871094 602.828125 C 117.539062 603.808594 117.539062 603.808594 111.207031 602.519531 C 110.976562 603.09375 110.613281 603.6875 110.488281 604.328125 C 109.742188 608.21875 107.640625 611.105469 104.152344 612.964844 C 102.582031 613.800781 100.980469 614.570312 99.355469 615.394531 " fill-opacity="1" fill-rule="nonzero"/><path fill="#e58f9e" d="M 109.871094 311.710938 C 112.285156 312.511719 114.832031 312.757812 117.386719 312.9375 C 117.539062 312.945312 117.714844 312.675781 118.09375 312.359375 C 115.339844 311.386719 112.683594 311.191406 109.871094 311.710938 Z M 88.277344 318.699219 C 89.976562 317.914062 91.117188 317.324219 92.304688 316.851562 C 93.460938 316.390625 94.664062 316.046875 96.234375 315.519531 C 93.636719 314.90625 93.050781 314.953125 90.675781 315.960938 C 89.734375 316.363281 88.632812 316.640625 88.277344 318.699219 Z M 96.863281 308.351562 C 96.851562 308.03125 96.925781 307.695312 96.824219 307.628906 C 94.835938 306.34375 93.097656 304.792969 91.542969 303.011719 C 91.378906 302.824219 90.835938 302.773438 90.621094 302.902344 C 90.445312 303.015625 90.339844 303.617188 90.46875 303.785156 C 92.167969 305.878906 93.886719 307.960938 96.863281 308.351562 Z M 104.429688 306.140625 C 104.972656 305.742188 105.128906 305.6875 105.152344 305.597656 C 105.964844 302.734375 107.164062 300.03125 108.46875 297.363281 C 108.554688 297.191406 108.285156 296.847656 107.925781 295.917969 C 106.746094 299.640625 103.625 301.921875 104.429688 306.140625 Z M 106.007812 328.277344 C 106.597656 325.800781 106.644531 323.90625 106.164062 322.078125 C 105.871094 320.976562 105.203125 319.957031 104.589844 318.96875 C 104.417969 318.695312 103.851562 318.664062 102.953125 318.335938 C 103.644531 320.253906 104.199219 321.648438 104.644531 323.074219 C 105.113281 324.589844 104.507812 326.355469 106.007812 328.277344 Z M 102.246094 313.742188 C 103.480469 314.027344 104.847656 313.265625 105.027344 312.203125 C 105.207031 311.121094 104.285156 309.863281 103.128906 309.605469 C 102.050781 309.371094 100.683594 310.320312 100.519531 311.421875 C 100.367188 312.410156 101.179688 313.488281 102.246094 313.742188 Z M 98.957031 300.007812 C 99.617188 299.054688 100.050781 298.210938 100.679688 297.554688 C 101.664062 296.53125 102.636719 295.339844 103.867188 294.746094 C 106.820312 293.324219 109.507812 291.679688 111.335938 288.371094 C 111.796875 289.171875 112.34375 289.675781 112.289062 290.105469 C 112.082031 291.742188 112.632812 293.144531 113.277344 294.5625 C 113.523438 295.105469 113.699219 295.683594 113.894531 296.246094 C 114.859375 299.070312 115.152344 301.855469 113.152344 304.710938 C 114.210938 304.992188 115.082031 305.277344 115.972656 305.457031 C 118.054688 305.871094 119.890625 306.851562 121.101562 308.511719 C 122.773438 310.800781 124.90625 312.039062 127.628906 312.453125 C 127.832031 312.480469 128 312.703125 128.203125 312.847656 C 128.238281 313.625 127.601562 313.796875 127.070312 313.984375 C 124.574219 314.882812 122.292969 316.195312 120.292969 317.90625 C 117.917969 319.929688 115.1875 320.316406 112.25 320.0625 C 111.78125 320.023438 111.316406 319.960938 110.894531 319.914062 C 110.210938 320.621094 110.585938 321.316406 110.746094 321.949219 C 111.585938 325.3125 110.789062 328.355469 108.878906 331.128906 C 107.796875 332.699219 106.546875 334.152344 105.316406 335.613281 C 105.046875 335.9375 104.558594 336.074219 103.996094 336.402344 C 103.722656 335.820312 103.371094 335.414062 103.382812 335.015625 C 103.4375 333.039062 102.386719 331.644531 101.105469 330.335938 C 99.277344 328.464844 97.453125 326.578125 95.566406 324.628906 C 94.617188 324.832031 93.582031 325.023438 92.570312 325.269531 C 91.339844 325.570312 90.121094 325.433594 89.101562 324.785156 C 86.71875 323.261719 84.234375 323.011719 81.566406 323.777344 C 81.289062 323.855469 80.933594 323.652344 80.625 323.582031 C 81.015625 321.890625 81.496094 320.296875 81.746094 318.664062 C 82.265625 315.289062 83.691406 312.546875 86.734375 310.796875 C 87.042969 310.617188 87.3125 310.375 87.589844 310.152344 C 87.679688 310.082031 87.738281 309.964844 87.902344 309.742188 C 87.511719 308.75 86.984375 307.695312 86.6875 306.582031 C 86.382812 305.433594 86.46875 304.171875 86.09375 303.058594 C 85.601562 301.613281 84.890625 300.21875 84.140625 298.878906 C 83.621094 297.957031 82.855469 297.171875 83.109375 295.910156 C 86.691406 296.246094 90.230469 296.472656 93.742188 296.933594 C 95.78125 297.203125 97.566406 298.214844 98.957031 300.007812 " fill-opacity="1" fill-rule="nonzero"/><path fill="#e58f9e" d="M 100.394531 435.335938 C 101.949219 434.128906 103.320312 433.0625 104.832031 431.890625 C 104.34375 431.671875 103.902344 431.335938 103.757812 431.433594 C 102.515625 432.300781 101.308594 433.226562 100.132812 434.191406 C 100.03125 434.277344 100.253906 434.757812 100.394531 435.335938 Z M 89.34375 425.992188 C 89.125 426.117188 88.898438 426.246094 88.679688 426.371094 C 89.589844 428.394531 89.246094 430.894531 91.308594 432.867188 C 91.511719 432.164062 91.839844 431.65625 91.710938 431.339844 C 90.984375 429.535156 90.140625 427.769531 89.34375 425.992188 Z M 85.820312 438.90625 C 84.910156 438.234375 83.988281 438.597656 83.089844 438.621094 C 82.144531 438.636719 81.191406 438.695312 80.257812 438.828125 C 79.425781 438.945312 78.375 438.316406 77.527344 439.863281 C 80.554688 440.328125 83.199219 439.910156 85.820312 438.90625 Z M 92.105469 440.21875 C 93.167969 440.472656 94.199219 439.933594 94.316406 439.066406 C 94.503906 437.691406 93.613281 436.375 92.359375 436.167969 C 91.578125 436.035156 90.664062 436.867188 90.46875 437.890625 C 90.265625 438.9375 90.984375 439.957031 92.105469 440.21875 Z M 104.015625 452.339844 C 104.121094 451.246094 104.285156 450.851562 104.15625 450.632812 C 102.722656 448.179688 100.917969 446.011719 98.851562 444.070312 C 98.695312 443.921875 98.28125 444.042969 97.542969 444.039062 C 99.691406 446.792969 101.605469 449.246094 104.015625 452.339844 Z M 90.597656 444.882812 C 88.9375 444.984375 88.9375 444.984375 88.488281 445.46875 C 85.640625 448.570312 84.34375 450.953125 84.429688 452.878906 C 86.457031 451.574219 87.285156 450.511719 90.597656 444.882812 Z M 97.324219 428.128906 C 97.550781 428.054688 97.816406 428.039062 98 427.910156 C 100.847656 425.882812 103.804688 425.5 107.136719 426.824219 C 109.453125 427.738281 111.960938 428.167969 114.375 428.851562 C 114.792969 428.96875 115.148438 429.269531 115.730469 429.597656 C 112.875 431.605469 110.558594 433.777344 109.148438 436.761719 C 108.125 438.929688 106.054688 440 103.964844 441.273438 C 107.320312 443.683594 108.820312 446.945312 109.351562 450.734375 C 109.4375 451.324219 109.578125 451.921875 109.539062 452.507812 C 109.464844 453.699219 109.210938 454.886719 109.175781 456.074219 C 109.144531 457.105469 109.3125 458.148438 109.398438 459.171875 C 109.011719 459.21875 108.710938 459.355469 108.59375 459.253906 C 106.617188 457.628906 104.398438 456.609375 101.894531 456.027344 C 98.90625 455.335938 96.492188 453.574219 94.496094 451.394531 C 93.398438 451.390625 93.429688 452.316406 93.058594 452.828125 C 91.585938 454.863281 90.085938 456.8125 87.9375 458.273438 C 86.28125 459.398438 84.914062 460.953125 83.28125 462.4375 C 80.03125 459.648438 79.164062 455.964844 79.695312 451.886719 C 79.972656 449.78125 80.625 447.726562 81.113281 445.648438 C 74.347656 443.726562 70.480469 441.328125 67.507812 437.152344 C 70.632812 436.238281 73.472656 434.789062 76.226562 433.125 C 77.226562 432.515625 78.398438 432.164062 79.523438 431.796875 C 80.757812 431.398438 82.03125 431.113281 83.507812 430.71875 C 82.398438 428.128906 82.855469 425.699219 83.398438 423.238281 C 83.773438 421.53125 83.890625 419.765625 84.117188 418.027344 C 88.414062 418.730469 92.386719 421.769531 97.324219 428.128906 " fill-opacity="1" fill-rule="nonzero"/><path fill="#e58f9e" d="M 60.445312 516.917969 C 63 517.382812 64.496094 518.851562 65.507812 520.824219 C 65.886719 521.566406 66.183594 522.355469 66.4375 523.152344 C 68.710938 530.28125 72.476562 536.660156 76.421875 542.929688 C 78.355469 545.996094 80.886719 548.523438 84.234375 550.117188 C 85.90625 550.910156 87.355469 552.265625 89.738281 552.34375 C 89.425781 551.742188 89.300781 551.339844 89.046875 551.050781 C 88.195312 550.054688 87.269531 549.117188 86.414062 548.121094 C 83.375 544.570312 80.667969 540.796875 78.902344 536.421875 C 78.769531 536.089844 78.652344 535.746094 78.476562 535.4375 C 75.832031 530.988281 75.144531 525.992188 74.585938 521.007812 C 74.019531 515.957031 74.886719 511.007812 76.226562 506.140625 C 76.667969 504.53125 77.164062 502.910156 77.878906 501.40625 C 79.828125 497.316406 80.027344 493.164062 78.664062 488.886719 C 78.339844 487.886719 78.066406 486.871094 77.6875 485.570312 C 80.960938 486.339844 80.570312 489.355469 81.941406 491.222656 C 82.210938 491.117188 82.628906 491.089844 82.785156 490.871094 C 85.746094 486.808594 88.558594 482.652344 90.792969 478.136719 C 91.058594 477.597656 91.421875 477.089844 91.566406 476.523438 C 92.972656 471.105469 95.121094 465.847656 95.152344 460.125 C 95.15625 459.058594 95.253906 457.988281 95.332031 456.914062 C 95.335938 456.84375 95.492188 456.78125 95.726562 456.59375 C 97.113281 458.503906 97.371094 460.679688 97.386719 462.914062 C 97.386719 463.390625 97.292969 463.867188 97.183594 464.332031 C 95.90625 469.902344 94.929688 475.574219 91.640625 480.464844 C 89.96875 482.945312 88.542969 485.59375 86.777344 487.996094 C 82.898438 493.285156 80.503906 499.289062 78.617188 505.433594 C 77.003906 510.679688 76.511719 516.167969 77.152344 521.730469 C 78.167969 530.578125 82.058594 538.121094 87.265625 545.125 C 87.546875 545.503906 87.925781 545.816406 88.285156 546.128906 C 88.539062 546.347656 88.835938 546.523438 89.3125 546.851562 C 89.515625 546.347656 89.792969 545.957031 89.828125 545.539062 C 90.105469 542.1875 91.050781 538.980469 91.8125 535.726562 C 92.914062 531.070312 93.742188 526.386719 92.871094 521.539062 C 91.878906 515.984375 93.398438 510.886719 96.167969 506.09375 C 96.265625 505.917969 96.511719 505.824219 96.902344 505.53125 C 97.273438 506.703125 96.683594 507.683594 96.589844 508.671875 C 96.492188 509.746094 96.359375 510.8125 96.234375 511.882812 C 96.113281 512.949219 95.894531 514.015625 95.871094 515.082031 C 95.84375 516.140625 95.992188 517.207031 96.09375 518.273438 C 96.199219 519.34375 96.332031 520.414062 96.46875 521.476562 C 96.605469 522.496094 96.761719 523.515625 96.976562 524.984375 C 99.960938 521.390625 103.136719 519.179688 107.722656 520.527344 C 107.21875 520.691406 106.722656 520.890625 106.207031 521.003906 C 101.867188 521.921875 99.253906 524.921875 97.09375 528.503906 C 95.964844 530.378906 95.460938 532.472656 94.859375 534.535156 C 93.894531 537.855469 93.019531 541.199219 92.113281 544.539062 C 92.019531 544.886719 91.929688 545.234375 91.886719 545.589844 C 91.488281 548.613281 92.164062 551.21875 94.589844 553.308594 C 96.761719 555.179688 98.800781 557.199219 100.871094 559.183594 C 103.246094 561.449219 104.722656 564.328125 106.242188 567.171875 C 106.398438 567.460938 106.351562 567.859375 106.398438 568.226562 C 105.144531 568.359375 104.71875 567.386719 104.238281 566.632812 C 102.089844 563.257812 99.195312 560.585938 96.230469 557.992188 C 95.445312 557.3125 94.445312 556.839844 93.480469 556.429688 C 90.40625 555.109375 87.300781 553.875 84.210938 552.585938 C 80.679688 551.121094 78.003906 548.605469 75.761719 545.585938 C 74.84375 544.347656 73.957031 543.078125 73.074219 541.847656 C 71.09375 542.535156 70.109375 544.007812 70.351562 546.207031 C 70.5625 548.09375 71.007812 549.964844 71.347656 551.839844 C 71.515625 552.765625 71.695312 553.6875 71.945312 555.03125 C 71.21875 554.757812 70.707031 554.726562 70.53125 554.472656 C 68.917969 552.144531 68.25 549.476562 68.019531 546.714844 C 67.847656 544.699219 68.574219 542.953125 70.179688 541.644531 C 70.722656 541.199219 71.289062 540.789062 71.941406 540.289062 C 71.640625 539.625 71.480469 539.050781 71.164062 538.585938 C 68.511719 534.703125 66.699219 530.414062 65.101562 526.03125 C 64.109375 523.316406 62.753906 520.800781 61.207031 518.378906 C 60.914062 517.914062 60.695312 517.40625 60.445312 516.917969 " fill-opacity="1" fill-rule="nonzero"/><path fill="#e58f9e" d="M 74.390625 480.003906 C 74.644531 481.757812 74.898438 483.511719 75.128906 485.078125 C 72.871094 487.972656 70.015625 488.828125 66.757812 488.847656 C 64.558594 488.855469 62.988281 488.046875 61.691406 486.167969 C 59.308594 482.730469 58.976562 479.171875 60.261719 475.296875 C 60.9375 473.265625 61.445312 471.183594 62.054688 469.125 C 62.40625 467.945312 62.367188 466.820312 61.976562 465.632812 C 61.28125 463.492188 60.714844 461.316406 60.105469 459.148438 C 60.078125 459.054688 60.15625 458.929688 60.195312 458.804688 C 60.894531 458.160156 61.542969 458.695312 62.132812 458.992188 C 63.941406 459.898438 65.679688 460.953125 67.511719 461.800781 C 69.34375 462.65625 71.285156 463.269531 73.128906 464.089844 C 75.632812 465.207031 78.183594 466.257812 80.546875 467.628906 C 83.457031 469.324219 85.214844 472.011719 85.914062 475.316406 C 86.4375 477.777344 85.515625 479.886719 83.382812 481.097656 C 81.496094 482.171875 79.519531 483.019531 77.085938 482.261719 C 76.398438 481.410156 75.945312 479.972656 74.339844 480.03125 C 75.316406 479.019531 75.289062 477.941406 74.636719 476.789062 C 73.894531 475.464844 72.859375 474.609375 71.28125 474.542969 C 71.9375 473.507812 71.824219 472.558594 71.089844 471.574219 C 69.742188 469.785156 68.46875 467.945312 67.09375 466.027344 C 66.859375 466.277344 66.425781 466.59375 66.476562 466.71875 C 66.816406 467.59375 67.164062 468.484375 67.679688 469.261719 C 68.855469 471.046875 70.128906 472.777344 71.378906 474.519531 C 72.398438 476.347656 73.394531 478.175781 74.390625 480.003906 " fill-opacity="1" fill-rule="nonzero"/><path fill="#e58f9e" d="M 70.691406 557.609375 C 70.625 558.933594 70.519531 559.761719 70.550781 560.585938 C 70.574219 561.160156 70.652344 561.804688 70.921875 562.296875 C 71.847656 563.964844 72.695312 565.722656 73.914062 567.167969 C 75.164062 568.660156 76.320312 570.089844 76.675781 572.070312 C 76.757812 572.566406 77.25 572.984375 77.839844 573.875 C 77.9375 573.039062 78.058594 572.726562 77.996094 572.453125 C 77.464844 570.210938 76.351562 568.253906 74.992188 566.402344 C 74.148438 565.25 73.3125 564.074219 72.648438 562.820312 C 71.402344 560.484375 71.628906 558.148438 73.265625 556.097656 C 74.816406 554.15625 76.738281 552.792969 79.457031 553.335938 C 80.160156 553.476562 80.875 553.550781 81.566406 553.722656 C 85.558594 554.671875 87.316406 556.78125 87.417969 561.125 C 87.453125 562.679688 87.210938 564.222656 86.457031 565.640625 C 85.894531 566.6875 85.382812 567.773438 84.839844 568.839844 C 83.296875 571.820312 81.953125 574.859375 81.4375 578.226562 C 81.191406 579.835938 80.628906 581.390625 80.207031 582.980469 C 79.050781 582.902344 78.777344 582.035156 78.519531 581.304688 C 77.761719 579.152344 76.191406 577.746094 74.382812 576.519531 C 72.398438 575.179688 70.382812 573.941406 68.117188 573.074219 C 65.542969 572.09375 63.125 570.78125 61.242188 568.664062 C 58.957031 566.09375 58.609375 562.546875 60.273438 559.703125 C 61.832031 557.039062 64.359375 556.566406 67.070312 556.675781 C 68.214844 556.722656 69.34375 557.246094 70.691406 557.609375 " fill-opacity="1" fill-rule="nonzero"/><path fill="#e58f9e" d="M 109.351562 476.535156 C 109.394531 477.027344 109.472656 477.464844 109.460938 477.898438 C 109.363281 480.929688 110.007812 483.800781 110.980469 486.660156 C 111.941406 489.484375 112.707031 492.375 113.492188 495.253906 C 114.601562 499.378906 112.488281 503.453125 108.597656 505.246094 C 106.03125 506.425781 101.25 504.910156 99.621094 502.453125 C 99.253906 501.902344 99.132812 501.097656 99.136719 500.414062 C 99.160156 497.210938 100.441406 494.390625 102.007812 491.6875 C 102.664062 490.550781 103.457031 489.496094 104.097656 488.351562 C 104.34375 487.914062 104.34375 487.332031 104.433594 486.898438 C 103.601562 486.398438 103.289062 486.867188 103.066406 487.230469 C 101.8125 489.257812 100.578125 491.304688 99.378906 493.367188 C 97.867188 495.972656 96.683594 498.695312 96.953125 501.75 C 93.667969 503.28125 91.640625 502.828125 89.722656 500.214844 C 85.527344 494.503906 88.277344 489.453125 92.042969 486.777344 C 94.460938 485.058594 97.089844 483.574219 99.789062 482.335938 C 102.105469 481.28125 104.140625 479.914062 106.113281 478.359375 C 107.015625 477.648438 107.816406 476.710938 109.351562 476.535156 " fill-opacity="1" fill-rule="nonzero"/><g clip-path="url(#9d6c38bb32)"><path fill="#e58f9e" d="M 35.273438 500.074219 C 37.199219 498.46875 38.605469 498.179688 39.996094 498.023438 C 43.785156 497.585938 47.574219 497.183594 51.414062 497.433594 C 54.792969 497.660156 57.972656 498.65625 61.132812 499.738281 C 62.117188 500.070312 63.0625 500.707031 63.855469 501.402344 C 66.183594 503.449219 66.59375 506.445312 65.042969 509.148438 C 63.558594 511.730469 63.058594 512.085938 59.871094 512.683594 C 59.378906 512.023438 58.820312 511.289062 58.269531 510.542969 C 55.339844 506.570312 51.691406 503.734375 45.867188 502.957031 C 47.480469 503.796875 48.414062 504.378906 49.421875 504.789062 C 52.761719 506.15625 55.140625 508.636719 57.078125 511.539062 C 58.515625 513.6875 59.355469 516.035156 57.683594 518.527344 C 55.972656 521.078125 53.769531 522.652344 50.511719 522.242188 C 49.0625 522.0625 47.699219 521.820312 46.679688 520.601562 C 46.230469 520.058594 45.589844 519.675781 45.03125 519.230469 C 43.375 517.898438 42.363281 516.222656 42.171875 514.0625 C 42.046875 512.640625 41.703125 511.222656 41.710938 509.804688 C 41.726562 507.574219 41 505.589844 40.089844 503.632812 C 39.265625 501.867188 38.34375 500.203125 35.273438 500.074219 " fill-opacity="1" fill-rule="nonzero"/></g><path fill="#e58f9e" d="M 110.097656 522.082031 C 111.179688 522.625 112.21875 523.207031 113.304688 523.660156 C 114.171875 524.027344 115.085938 524.429688 116.003906 524.496094 C 119.296875 524.734375 122.597656 524.832031 125.804688 524.980469 C 126.210938 524.1875 125.769531 523.804688 125.355469 523.738281 C 123.957031 523.507812 122.53125 523.238281 121.132812 523.300781 C 118.441406 523.425781 115.921875 522.738281 113.402344 522.003906 C 111.023438 521.3125 109.984375 519.472656 109.808594 517.1875 C 109.414062 511.929688 113.316406 508.265625 118.539062 508.847656 C 121.292969 509.152344 123.402344 510.417969 125.171875 512.601562 C 127.15625 515.046875 128.5625 517.816406 130.003906 520.542969 C 131.378906 523.160156 133.1875 525.265625 135.472656 527.042969 C 135.933594 527.402344 136.539062 527.644531 136.402344 528.808594 C 136.242188 528.808594 135.894531 528.824219 135.558594 528.804688 C 130.613281 528.496094 126.191406 530.335938 121.753906 532.121094 C 120.089844 532.789062 118.476562 533.636719 116.765625 534.109375 C 115.296875 534.511719 113.699219 534.730469 112.1875 534.632812 C 108.226562 534.371094 106.078125 530.910156 106.539062 527.34375 C 106.824219 525.109375 108.042969 523.398438 110.097656 522.082031 " fill-opacity="1" fill-rule="nonzero"/><path fill="#e58f9e" d="M 81.617188 122.8125 C 85.339844 119.25 85.339844 119.257812 90.519531 117.808594 C 93.042969 117.105469 95.59375 116.523438 97.746094 114.828125 C 98.640625 114.128906 99.835938 113.796875 101.042969 113.226562 C 100.222656 116.09375 98.910156 117.695312 96.605469 118.378906 C 94.199219 119.09375 91.722656 119.5625 89.308594 120.242188 C 88.175781 120.554688 86.929688 120.878906 86.054688 121.59375 C 83.765625 123.46875 82.609375 125.871094 83.695312 128.898438 C 84.097656 130.019531 84.539062 131.132812 85.015625 132.222656 C 85.933594 134.300781 86.875 136.363281 87.828125 138.425781 C 88.386719 139.636719 88.601562 140.886719 88.601562 142.511719 C 87.957031 142.339844 87.324219 142.339844 87.21875 142.109375 C 84.925781 136.859375 81.605469 132.097656 79.820312 126.605469 C 78.996094 124.085938 78.546875 121.507812 78.457031 118.859375 C 78.414062 117.667969 78.417969 116.46875 78.332031 115.277344 C 78.207031 113.5 77.566406 112.742188 75.8125 112.289062 C 75.117188 112.109375 74.390625 112.082031 73.695312 111.925781 C 73.152344 111.804688 72.632812 111.597656 71.960938 111.378906 C 74.113281 109.816406 74.152344 109.8125 78.601562 110.585938 C 78.855469 109.851562 79.167969 109.105469 79.378906 108.324219 C 80.878906 102.792969 83.453125 97.871094 87.644531 93.894531 C 89.136719 92.484375 89.757812 90.714844 89.972656 88.792969 C 90.683594 82.371094 88.101562 76.632812 81.796875 73.410156 C 80.945312 72.972656 80.011719 72.707031 79.148438 72.300781 C 77.980469 71.757812 76.835938 71.148438 75.511719 70.480469 C 78.367188 69.488281 79.734375 69.566406 82.753906 70.78125 C 85.140625 71.738281 87.121094 73.3125 88.792969 75.1875 C 90.480469 77.082031 91.527344 79.4375 91.804688 81.953125 C 92.074219 84.421875 91.933594 86.929688 91.980469 89.671875 C 92.457031 89.464844 93.027344 89.375 93.382812 89.050781 C 99.375 83.558594 104.21875 77.253906 106.722656 69.410156 C 107.832031 65.933594 107.894531 62.363281 106.941406 58.796875 C 106.449219 56.953125 106.015625 55.09375 106.34375 52.804688 C 106.847656 53.253906 107.234375 53.476562 107.449219 53.8125 C 110.140625 58.019531 110.960938 62.644531 110.3125 67.539062 C 110.144531 68.824219 109.757812 70.109375 109.285156 71.320312 C 108.585938 73.09375 107.695312 74.796875 106.917969 76.539062 C 106.636719 77.167969 106.449219 77.839844 106.125 78.753906 C 112.257812 78.738281 116.769531 74.988281 122.027344 73.007812 C 121.988281 73.425781 122.042969 73.667969 121.945312 73.769531 C 118.527344 77.320312 114.5 79.644531 109.503906 80.238281 C 103.527344 80.949219 104.757812 80.785156 101.210938 84.394531 C 98.359375 87.292969 95.410156 90.046875 92.242188 92.609375 C 90.121094 94.320312 88.132812 96.296875 86.464844 98.457031 C 83.792969 101.90625 82.363281 106.019531 81.574219 110.265625 C 80.835938 114.28125 80.996094 118.347656 81.617188 122.8125 " fill-opacity="1" fill-rule="nonzero"/><path fill="#e58f9e" d="M 138.046875 58.25 C 137.011719 59.0625 136.792969 60.371094 136.183594 61.425781 C 135.519531 62.550781 134.878906 63.71875 134.03125 64.703125 C 133.109375 65.777344 132.007812 66.722656 130.902344 67.621094 C 129.886719 68.445312 128.816406 69.242188 127.667969 69.859375 C 126.53125 70.476562 125.261719 70.84375 124.175781 71.277344 C 121.394531 70.519531 119.671875 68.808594 118.488281 66.472656 C 117.917969 65.359375 117.867188 64.238281 118.28125 63.019531 C 119.144531 60.515625 120.777344 58.660156 123.03125 57.417969 C 125.332031 56.148438 127.769531 55.144531 130.488281 55.1875 C 134.734375 55.253906 137.917969 52.941406 140.996094 50.4375 C 141.433594 50.085938 141.644531 49.464844 141.984375 48.929688 C 142.71875 50.207031 143.113281 51.929688 143.121094 53.542969 C 143.15625 58.5625 142.65625 63.554688 142.066406 68.523438 C 141.632812 72.183594 140.691406 75.769531 138.296875 78.804688 C 136.257812 81.386719 133.355469 82.003906 130.410156 82.410156 C 128.964844 82.613281 127.667969 81.726562 126.464844 80.925781 C 125.386719 80.214844 125.050781 79.128906 124.679688 77.960938 C 124.238281 76.570312 123.65625 75.289062 124.492188 73.855469 C 125.113281 72.796875 125.863281 72.136719 127.128906 71.699219 C 133.34375 69.53125 137.222656 65.207031 138.480469 58.664062 C 138.488281 58.601562 138.316406 58.507812 138.046875 58.25 " fill-opacity="1" fill-rule="nonzero"/><path fill="#e58f9e" d="M 117.007812 103.082031 C 115.117188 102.964844 113.839844 104.378906 112.210938 104.964844 C 110.433594 105.601562 108.742188 106.554688 107.128906 107.550781 C 105.625 108.480469 104.273438 109.652344 102.789062 110.757812 C 100.054688 109.191406 98.511719 106.996094 98.324219 103.859375 C 98.109375 100.246094 100.191406 97.234375 103.730469 96.542969 C 106.308594 96.042969 108.957031 95.816406 111.519531 96.742188 C 115.480469 98.171875 119.226562 97.761719 122.808594 95.574219 C 123.09375 95.40625 123.464844 95.375 124.042969 95.203125 C 124.179688 95.808594 124.429688 96.335938 124.390625 96.839844 C 124.324219 97.667969 124.105469 98.484375 123.890625 99.292969 C 123.125 102.171875 122.464844 105.089844 121.515625 107.902344 C 120.570312 110.71875 119.457031 113.5 118.164062 116.171875 C 116.832031 118.921875 114.597656 120.886719 111.890625 122.339844 C 109.042969 123.878906 106.789062 122.515625 104.660156 120.925781 C 102.730469 119.476562 102.449219 117.371094 103.011719 115.105469 C 103.902344 111.546875 105.75 108.792969 109.335938 107.457031 C 110.5625 106.996094 111.753906 106.421875 113 106.03125 C 114.648438 105.515625 115.863281 104.445312 117.007812 103.082031 " fill-opacity="1" fill-rule="nonzero"/><path fill="#e58f9e" d="M 44.183594 125.128906 C 44.324219 124.339844 44.269531 123.8125 44.496094 123.5 C 47.117188 119.910156 48.871094 115.835938 50.992188 111.96875 C 52.671875 108.914062 54.667969 106.097656 57.066406 103.570312 C 59.515625 100.984375 62.5625 99.84375 66.078125 99.890625 C 69.460938 99.941406 72.058594 103.152344 71.445312 106.476562 C 71.140625 108.097656 70.367188 108.75 68.511719 108.953125 C 62.742188 109.59375 62.742188 109.589844 58.101562 112.960938 C 57.042969 113.738281 55.988281 114.53125 54.984375 115.375 C 54.574219 115.71875 54.289062 116.230469 53.679688 117.007812 C 54.441406 116.886719 54.8125 116.929688 55.042969 116.769531 C 56.902344 115.46875 58.6875 114.066406 60.582031 112.824219 C 62.613281 111.496094 64.855469 110.75 67.332031 110.710938 C 68.671875 110.691406 69.660156 111.222656 70.359375 112.277344 C 72.589844 115.640625 72.820312 119.210938 71.183594 122.84375 C 70.101562 125.242188 67.859375 125.871094 65.484375 125.746094 C 63.964844 125.667969 62.335938 125.382812 60.992188 124.71875 C 56.261719 122.355469 51.5625 122.570312 46.769531 124.382812 C 46.039062 124.664062 45.253906 124.824219 44.183594 125.128906 " fill-opacity="1" fill-rule="nonzero"/><path fill="#e58f9e" d="M 57.6875 64.867188 C 57.296875 65.832031 57.988281 66.117188 58.492188 66.183594 C 60.503906 66.457031 62.527344 66.617188 64.546875 66.804688 C 65.734375 66.914062 66.964844 66.828125 68.109375 67.105469 C 71.625 67.957031 73.5 70.523438 72.25 74.019531 C 71.734375 75.464844 71.160156 76.972656 70.257812 78.183594 C 67.832031 81.433594 63.179688 82.027344 60.046875 79.460938 C 57.070312 77.027344 54.453125 74.285156 53.441406 70.339844 C 52.515625 66.734375 50.964844 63.371094 48.871094 60.273438 C 48.617188 59.898438 48.480469 59.4375 48.164062 58.726562 C 49.074219 58.757812 49.792969 58.621094 50.390625 58.824219 C 54.730469 60.304688 58.878906 59.367188 63.027344 58.003906 C 64.273438 57.589844 65.535156 57.210938 66.816406 56.925781 C 69.246094 56.386719 71.585938 56.890625 73.800781 57.867188 C 75.8125 58.757812 76.652344 60.285156 76.375 62.492188 C 76.167969 64.148438 75.875 65.804688 74.609375 67.085938 C 73.667969 68.046875 72.921875 68.273438 71.773438 67.558594 C 69.566406 66.179688 67.175781 65.75 64.613281 65.652344 C 62.371094 65.5625 60.136719 65.15625 57.6875 64.867188 " fill-opacity="1" fill-rule="nonzero"/><path fill="#e58f9e" d="M 73.0625 340.597656 C 70.917969 340.601562 68.65625 340.578125 66.402344 340.625 C 62.976562 340.6875 59.886719 341.621094 57.058594 344.421875 C 62.894531 343.5 68.28125 342.652344 73.625 341.8125 C 75.613281 342.976562 76.171875 344.679688 76.007812 346.738281 C 75.996094 346.855469 75.992188 346.976562 75.980469 347.09375 C 75.691406 352.492188 71.347656 354.707031 66.9375 352.21875 C 66.003906 351.691406 65.011719 351.257812 64.113281 350.675781 C 60.199219 348.148438 56.089844 347.839844 51.785156 349.492188 C 51.460938 349.617188 51.132812 349.734375 50.625 349.917969 C 50.167969 348.425781 50.492188 347.023438 50.972656 345.769531 C 52.113281 342.769531 53.15625 339.652344 54.800781 336.921875 C 57.238281 332.875 60.835938 329.886719 65.089844 327.75 C 68.050781 326.261719 72.640625 327.566406 74.589844 330.613281 C 75.03125 331.292969 75.371094 332.132812 75.441406 332.929688 C 75.683594 335.722656 75.507812 338.441406 73.0625 340.597656 " fill-opacity="1" fill-rule="nonzero"/><path fill="#e58f9e" d="M 65.78125 372.558594 C 65.824219 373.242188 65.738281 373.625 65.878906 373.882812 C 66.550781 375.132812 67.238281 376.390625 68.015625 377.582031 C 69.898438 380.488281 72.007812 383.191406 75.175781 384.832031 C 75.613281 385.058594 76.183594 385.210938 76.367188 384.644531 C 76.476562 384.316406 76.265625 383.625 75.992188 383.464844 C 73.867188 382.230469 72.453125 380.367188 71.070312 378.40625 C 69.847656 376.664062 68.425781 375.050781 67.054688 373.410156 C 66.796875 373.109375 66.378906 372.949219 65.78125 372.558594 Z M 59.628906 365.976562 C 61.082031 366.433594 62.015625 366.585938 62.808594 367 C 65.53125 368.425781 68.480469 368.695312 71.460938 368.972656 C 73.339844 369.152344 75.238281 369.4375 77.066406 369.914062 C 80.601562 370.835938 82.429688 373.382812 82.824219 376.878906 C 83.179688 380.023438 81.726562 382.414062 79.019531 383.964844 C 77.660156 384.742188 76.949219 385.867188 76.617188 387.320312 C 76.511719 387.785156 76.46875 388.273438 76.308594 388.714844 C 75.394531 391.234375 73.828125 392.871094 71.011719 393.429688 C 66.476562 394.332031 60.980469 392.261719 59.953125 385.542969 C 59.671875 383.699219 59.996094 381.746094 60.199219 379.867188 C 60.371094 378.21875 60.824219 376.601562 61.050781 374.949219 C 61.570312 371.234375 61.382812 370.039062 59.628906 365.976562 " fill-opacity="1" fill-rule="nonzero"/><path fill="#e58f9e" d="M 116.976562 372.335938 C 112.511719 374.792969 109.335938 378.21875 107.765625 383.214844 C 106.738281 383.257812 105.699219 383.335938 104.65625 383.34375 C 103.25 383.355469 102.117188 382.683594 101.15625 381.738281 C 98.941406 379.566406 98.382812 375.855469 99.9375 373.15625 C 100.835938 371.59375 101.917969 370.167969 103.660156 369.390625 C 106.175781 368.269531 108.699219 367.21875 111.542969 367.394531 C 112.019531 367.421875 112.503906 367.40625 112.976562 367.464844 C 116.890625 367.964844 120.578125 367.308594 124.371094 364.949219 C 124.058594 365.910156 124.015625 366.515625 123.707031 366.90625 C 122.667969 368.21875 122.441406 369.722656 122.464844 371.300781 C 122.511719 374.882812 122.464844 378.480469 122.691406 382.054688 C 122.972656 386.570312 119.144531 390.21875 116.53125 391.390625 C 114.867188 392.132812 113.210938 391.738281 111.691406 390.953125 C 110.171875 390.167969 109.007812 388.9375 108.289062 387.371094 C 107.78125 386.257812 107.574219 385.167969 108.410156 383.996094 C 109.238281 382.84375 110 381.582031 110.484375 380.261719 C 111.011719 378.8125 112.109375 378 113.105469 376.984375 C 114.515625 375.550781 115.699219 373.898438 116.976562 372.335938 " fill-opacity="1" fill-rule="nonzero"/><path fill="#e58f9e" d="M 126.503906 336.003906 C 123.164062 338.929688 120.476562 341.390625 118.222656 344.269531 C 117.664062 344.984375 117.554688 346.039062 117.140625 346.894531 C 116.597656 348.015625 115.6875 348.414062 114.484375 348.152344 C 112.8125 347.789062 111.332031 347.074219 110.175781 345.769531 C 108.714844 344.132812 108.480469 342.011719 109.660156 340.167969 C 110.648438 338.621094 112.007812 337.433594 113.71875 336.785156 C 115.160156 336.238281 116.691406 335.925781 118.167969 335.480469 C 119.765625 334.992188 121.382812 334.570312 122.917969 333.941406 C 125.523438 332.878906 127.707031 331.28125 128.890625 328.582031 C 129.0625 328.1875 129.453125 327.886719 129.996094 327.246094 C 130.425781 328.558594 130.800781 329.515625 131.050781 330.503906 C 131.824219 333.507812 132.511719 336.535156 133.300781 339.539062 C 134.140625 342.726562 133.960938 345.902344 133.511719 349.132812 C 133.03125 352.546875 129.023438 356.71875 124.367188 356.925781 C 122.40625 357.007812 120.882812 356.039062 119.671875 354.703125 C 118.8125 353.761719 118.222656 352.535156 117.6875 351.363281 C 117.074219 350.023438 117.945312 348.902344 118.371094 347.671875 C 119.410156 344.664062 120.964844 342.128906 123.59375 340.253906 C 124.457031 339.640625 125.152344 338.777344 125.847656 337.960938 C 126.105469 337.65625 126.132812 337.160156 126.503906 336.003906 " fill-opacity="1" fill-rule="nonzero"/><path fill="#e58f9e" d="M 115.425781 351.351562 C 114.570312 353.902344 113.035156 355.679688 110.515625 356.648438 C 107.734375 357.71875 105.039062 359.007812 102.332031 360.257812 C 100.316406 361.1875 98.847656 362.65625 97.882812 364.71875 C 97.074219 366.4375 95.925781 367.988281 95.050781 369.683594 C 94.183594 371.367188 93.414062 373.113281 92.695312 374.875 C 91.707031 377.304688 90.792969 379.769531 89.871094 382.226562 C 89.238281 383.898438 88.421875 385.542969 88.074219 387.269531 C 87.367188 390.828125 87.875 394.148438 90.605469 396.882812 C 91.683594 397.957031 92.570312 399.222656 93.792969 400.710938 C 94.648438 398.4375 95.183594 396.375 96.171875 394.546875 C 97.179688 392.679688 98.570312 390.992188 99.914062 389.320312 C 101.269531 387.636719 102.894531 386.246094 105.019531 385.695312 C 105.6875 386.082031 105.472656 386.519531 105.171875 386.878906 C 104.707031 387.421875 104.25 388.023438 103.667969 388.40625 C 101.578125 389.792969 100.308594 391.820312 99.371094 394.027344 C 97.542969 398.335938 96.152344 402.75 96.347656 407.554688 C 96.492188 411.011719 96.324219 414.480469 96.285156 417.945312 C 96.277344 418.789062 96.078125 419.554688 95.15625 420.382812 C 94.917969 419.785156 94.664062 419.417969 94.632812 419.035156 C 94.320312 415.457031 93.921875 411.882812 93.800781 408.304688 C 93.703125 405.367188 92.644531 402.941406 90.59375 400.960938 C 88.796875 399.222656 86.941406 397.507812 84.933594 396.035156 C 82.003906 393.894531 80.15625 391.152344 79.261719 387.78125 C 79.855469 387.179688 80.285156 387.421875 80.601562 387.777344 C 81.636719 388.929688 82.621094 390.140625 83.664062 391.289062 C 84.199219 391.878906 84.753906 392.496094 85.824219 392.808594 C 85.898438 392.144531 86.023438 391.707031 85.972656 391.289062 C 85.632812 388.347656 86.382812 385.636719 87.445312 382.914062 C 88.65625 379.804688 89.78125 376.640625 90.632812 373.417969 C 91.863281 368.78125 91.257812 364.136719 89.875 359.625 C 89.140625 357.238281 88.089844 354.949219 87.121094 352.644531 C 85.496094 348.78125 82.859375 345.769531 79.300781 343.554688 C 78.839844 343.269531 78.457031 342.851562 77.875 342.367188 C 78.457031 342.121094 78.859375 341.792969 79.058594 341.886719 C 80.558594 342.609375 82.160156 343.214844 83.449219 344.21875 C 87.117188 347.09375 89.496094 350.898438 91.078125 355.28125 C 92.414062 358.988281 93.566406 362.71875 93.8125 366.550781 C 94.652344 366.953125 94.808594 366.472656 95.007812 366.058594 C 96.75 362.445312 97.601562 358.621094 97.644531 354.628906 C 97.652344 353.800781 97.582031 352.929688 97.328125 352.152344 C 96.066406 348.300781 95.160156 344.320312 93.210938 340.710938 C 92.703125 339.769531 92.21875 338.800781 91.828125 337.804688 C 90.78125 335.140625 91.25 332.722656 93.3125 330.207031 C 93.539062 330.871094 93.851562 331.296875 93.765625 331.609375 C 92.894531 334.8125 93.59375 337.714844 95.195312 340.539062 C 97.21875 344.101562 98.078125 348.121094 99.433594 351.941406 C 99.855469 353.132812 99.761719 354.535156 99.75 355.839844 C 99.742188 356.898438 99.503906 357.953125 99.328125 359.3125 C 101.90625 359.066406 103.4375 357.648438 105.222656 356.898438 C 106.984375 356.160156 108.734375 355.398438 110.457031 354.570312 C 112.234375 353.714844 113.253906 351.726562 115.425781 351.351562 " fill-opacity="1" fill-rule="nonzero"/><path fill="#e58f9e" d="M 86.351562 241.597656 C 86.460938 239.390625 86.40625 237.160156 86.722656 234.984375 C 87.050781 232.746094 87.589844 230.515625 88.304688 228.371094 C 88.980469 226.347656 89.867188 224.355469 90.914062 222.496094 C 92.027344 220.53125 93.320312 218.628906 94.761719 216.886719 C 96.1875 215.167969 97.613281 213.378906 99.847656 211.953125 C 99.710938 213.65625 98.824219 214.601562 98.148438 215.628906 C 96.582031 218.027344 94.796875 220.316406 93.476562 222.839844 C 88.925781 231.5 87.664062 240.691406 89.609375 250.285156 C 90.136719 252.890625 91.683594 255.046875 93.226562 257.589844 C 93.582031 256.957031 93.832031 256.609375 93.996094 256.226562 C 94.3125 255.457031 94.53125 254.644531 94.875 253.886719 C 96.679688 249.941406 98.75 248.761719 103.679688 248.992188 C 103.324219 249.40625 103.089844 249.707031 102.828125 249.976562 C 102.757812 250.050781 102.605469 250.054688 102.484375 250.0625 C 98.816406 250.300781 97.070312 252.675781 96.054688 255.859375 C 95.152344 258.699219 95.085938 261.378906 96.984375 263.992188 C 100.074219 268.25 102.382812 272.988281 104.820312 277.632812 C 106.320312 280.484375 106.726562 283.523438 106.789062 286.644531 C 106.800781 287.375 106.742188 288.414062 105.511719 288.359375 C 105.390625 288.273438 105.207031 288.21875 105.195312 288.144531 C 104.636719 282.875 101.777344 278.519531 99.523438 273.933594 C 99.070312 273.011719 98.296875 272.152344 97.460938 271.542969 C 95.820312 270.359375 94.015625 269.402344 92.3125 268.292969 C 90.660156 267.222656 88.957031 267.203125 87.171875 267.867188 C 84.902344 268.707031 82.886719 269.957031 81.089844 271.578125 C 80.472656 272.132812 79.828125 272.667969 79.164062 273.164062 C 78.890625 273.367188 78.515625 273.433594 78.160156 273.570312 C 78.636719 269.84375 80.1875 268.519531 88.140625 265.03125 C 87.964844 263.542969 86.789062 262.628906 86.019531 261.488281 C 85.21875 260.300781 84.457031 259.082031 83.660156 257.890625 C 82.929688 256.796875 82.1875 255.714844 81.425781 254.644531 C 80.597656 253.476562 79.738281 252.328125 78.890625 251.171875 C 78.085938 250.078125 76.6875 249.441406 76.011719 247.765625 C 77.464844 247.742188 78.359375 248.25 79.214844 248.808594 C 81.25 250.152344 82.746094 251.988281 84.042969 254.03125 C 85.839844 256.855469 87.679688 259.644531 89.542969 262.421875 C 90.738281 264.207031 92.417969 265.421875 94.722656 266.847656 C 94.40625 265.832031 94.351562 265.371094 94.132812 265.007812 C 92.917969 262.953125 91.722656 260.886719 90.402344 258.90625 C 87.664062 254.804688 85.832031 250.277344 83.949219 245.753906 C 82.0625 241.214844 80.464844 236.613281 79.449219 231.800781 C 79.160156 230.414062 78.683594 228.996094 77.964844 227.792969 C 74.367188 221.730469 72.4375 215.121094 71.304688 208.238281 C 71.273438 208.039062 71.445312 207.8125 71.53125 207.574219 C 72.597656 207.445312 72.960938 208.335938 73.269531 209 C 73.875 210.292969 74.304688 211.667969 74.765625 213.027344 C 75.539062 215.289062 76.253906 217.566406 77.035156 219.824219 C 77.214844 220.335938 77.558594 220.789062 78.074219 221.71875 C 78.300781 220.75 78.449219 220.324219 78.492188 219.890625 C 79.195312 213.007812 81.910156 207 86.421875 201.8125 C 89.394531 198.386719 92.550781 195.121094 95.578125 191.738281 C 97.824219 189.226562 99.445312 186.324219 100.683594 183.199219 C 101.117188 182.109375 101.617188 181.050781 102.113281 179.914062 C 103.167969 180.5625 103.007812 181.449219 102.925781 182.199219 C 102.660156 184.632812 101.589844 186.804688 100.246094 188.78125 C 99.042969 190.546875 97.695312 192.269531 96.148438 193.734375 C 93.011719 196.710938 90.375 200.117188 87.703125 203.46875 C 83.976562 208.152344 81.863281 213.636719 81.378906 219.597656 C 81.058594 223.523438 81.671875 227.46875 82.347656 231.355469 C 82.84375 234.191406 83.589844 236.957031 84.796875 239.578125 C 85.128906 240.300781 85.527344 240.992188 85.894531 241.703125 C 86.042969 241.667969 86.199219 241.628906 86.351562 241.597656 " fill-opacity="1" fill-rule="nonzero"/><path fill="#e58f9e" d="M 130.519531 252.703125 C 129.375 253.558594 128.429688 253.144531 127.582031 252.9375 C 124.40625 252.152344 121.722656 252.910156 119.3125 255.097656 C 117.457031 256.777344 115.480469 258.324219 113.507812 259.867188 C 112.667969 260.523438 111.726562 261.046875 110.804688 261.59375 C 107.839844 263.347656 103.765625 261.484375 102.851562 257.46875 C 102.242188 254.800781 103.128906 252.238281 104.363281 249.875 C 104.660156 249.296875 105.390625 248.882812 106 248.542969 C 108.96875 246.890625 112.136719 246.734375 115.386719 247.433594 C 116.320312 247.636719 117.207031 248.023438 118.144531 248.234375 C 118.417969 248.296875 118.769531 248.035156 119.082031 247.921875 C 118.976562 246.761719 118.058594 246.539062 117.300781 246.355469 C 114.140625 245.566406 110.957031 245.101562 107.800781 246.46875 C 106.925781 246.851562 106.015625 247.152344 105.097656 247.417969 C 104.046875 247.726562 103.175781 247.328125 102.738281 246.339844 C 99.484375 239.015625 104.59375 233.886719 110.683594 234.003906 C 112.21875 234.03125 113.75 234.457031 115.261719 234.792969 C 116.84375 235.148438 118.109375 236.0625 119.039062 237.367188 C 120.632812 239.609375 122.265625 241.828125 123.671875 244.1875 C 126.605469 249.105469 126.546875 249.140625 130.519531 252.703125 " fill-opacity="1" fill-rule="nonzero"/><path fill="#e58f9e" d="M 65.238281 189.289062 C 66.121094 192.199219 66.128906 195.191406 66.5625 198.117188 C 67.066406 201.535156 67.222656 201.773438 69.816406 205.300781 C 68.9375 207.464844 67.523438 209.1875 64.988281 209.347656 C 62.179688 209.523438 59.738281 208.445312 58.351562 205.902344 C 56.65625 202.785156 56.53125 199.539062 58.261719 196.296875 C 59.15625 194.621094 60.085938 192.914062 60.617188 191.109375 C 61.613281 187.734375 61.503906 184.460938 58.476562 181.886719 C 59.316406 181.21875 60.070312 181.527344 60.84375 181.738281 C 62.679688 182.234375 64.515625 182.78125 66.378906 183.128906 C 69.109375 183.640625 71.726562 184.511719 74.152344 185.78125 C 79.5625 188.609375 81.851562 193.539062 82.171875 199.3125 C 82.425781 203.988281 77.539062 206.90625 73.808594 205.742188 C 71.535156 205.039062 69.523438 203.460938 68.738281 201.054688 C 68 198.800781 67.589844 196.421875 67.175781 194.074219 C 66.867188 192.34375 66.625 190.621094 65.238281 189.289062 " fill-opacity="1" fill-rule="nonzero"/><path fill="#e58f9e" d="M 117.929688 189.675781 C 117.820312 193.191406 117.699219 195.894531 117.660156 198.601562 C 117.617188 201.585938 117.636719 204.574219 117.636719 207.558594 C 117.636719 209.867188 117.082031 212.03125 116.097656 214.117188 C 115.550781 215.261719 114.761719 216.003906 113.636719 216.578125 C 111.214844 217.816406 108.734375 217.714844 106.34375 216.804688 C 102.667969 215.394531 101.15625 211.234375 102.816406 207.601562 C 103.109375 206.953125 103.4375 206.316406 103.742188 205.695312 C 106.863281 203.859375 109.84375 201.886719 112.203125 199.132812 C 112.703125 198.550781 113.015625 197.800781 113.453125 197.074219 C 113.007812 196.972656 112.734375 196.824219 112.652344 196.894531 C 110.296875 198.902344 108.066406 201.070312 105.59375 202.914062 C 103.457031 204.503906 101.464844 206.125 100.640625 208.808594 C 97.507812 208.460938 95.417969 207.316406 94.515625 204.390625 C 93.226562 200.199219 94.132812 197.882812 98.015625 195.855469 C 100.828125 194.394531 103.699219 193.621094 106.972656 194.128906 C 110.183594 194.632812 113.039062 193.230469 115.695312 191.523438 C 116.277344 191.148438 116.78125 190.628906 117.929688 189.675781 " fill-opacity="1" fill-rule="nonzero"/><path fill="#e58f9e" d="M 59.054688 246.734375 C 59.992188 246.667969 60.925781 246.59375 61.863281 246.527344 C 63.917969 246.390625 65.914062 246.671875 67.871094 247.300781 C 69.34375 247.78125 70.828125 248.246094 72.332031 248.621094 C 73.777344 248.984375 74.554688 249.9375 74.9375 251.292969 C 75.53125 253.421875 75.578125 255.519531 74.570312 257.574219 C 73.433594 259.886719 71.535156 260.902344 68.996094 260.328125 C 68.089844 260.121094 67.121094 259.78125 66.40625 259.214844 C 64.453125 257.660156 62.351562 256.171875 60.796875 254.257812 C 57.828125 250.597656 54.363281 247.914062 49.742188 246.820312 C 49.5625 246.777344 49.445312 246.5 49.300781 246.335938 C 49.378906 246.128906 49.398438 245.816406 49.546875 245.738281 C 52.929688 243.914062 55.757812 241.324219 58.84375 239.089844 C 60.96875 237.546875 63.152344 236.078125 65.410156 234.75 C 68.332031 233.03125 71.375 233.117188 74.261719 234.859375 C 78.644531 237.511719 78.824219 243.636719 74.679688 246.632812 C 73.820312 247.253906 72.921875 247.234375 71.957031 246.929688 C 70.363281 246.429688 68.765625 245.941406 67.160156 245.46875 C 64.3125 244.632812 61.578125 245.058594 59.054688 246.734375 " fill-opacity="1" fill-rule="nonzero"/><path fill="#e58f9e" d="M 70.117188 288.683594 C 70.628906 288.082031 71.136719 287.730469 71.289062 287.253906 C 71.714844 285.898438 72.070312 284.503906 72.320312 283.097656 C 72.648438 281.257812 73.625 279.785156 74.78125 278.410156 C 76.835938 275.972656 79.917969 275.226562 82.453125 276.699219 C 85.199219 278.289062 87.144531 281.230469 86.253906 284.484375 C 85.617188 286.824219 84.074219 288.703125 81.8125 289.816406 C 80.964844 290.230469 80.042969 290.507812 79.148438 290.84375 C 75.105469 292.355469 71.140625 293.984375 68.527344 297.710938 C 68.40625 297.886719 68.125 297.945312 67.695312 298.179688 C 67.40625 297.78125 66.855469 297.375 66.820312 296.925781 C 66.53125 293.546875 65.074219 290.511719 64.167969 287.320312 C 63.453125 284.8125 62.929688 282.222656 62.601562 279.632812 C 62.253906 276.839844 63.039062 274.203125 64.488281 271.777344 C 65.574219 269.957031 67.042969 268.988281 69.238281 269.425781 C 69.820312 269.542969 70.417969 269.582031 71.003906 269.683594 C 73.371094 270.082031 74.90625 271.351562 75.300781 273.808594 C 75.378906 274.273438 75.472656 274.734375 75.519531 274.992188 C 74.425781 276.640625 73.316406 278.050781 72.5 279.605469 C 71.222656 282.039062 70.441406 284.675781 69.859375 287.363281 C 69.792969 287.671875 69.984375 288.03125 70.117188 288.683594 " fill-opacity="1" fill-rule="nonzero"/><path fill="#e58f9e" d="M 102.015625 726.277344 C 101.515625 723.734375 101.269531 721.828125 102.378906 719.898438 C 103.078125 718.671875 103.394531 717.222656 104.058594 715.957031 C 104.769531 714.589844 104.550781 713.496094 103.613281 712.347656 C 101.921875 710.25 99.710938 708.839844 97.429688 707.527344 C 96.859375 707.195312 96.050781 707.128906 95.363281 707.15625 C 91.003906 707.351562 86.894531 708.214844 83.136719 710.707031 C 80.921875 712.179688 78.816406 713.664062 77.109375 715.703125 C 76.917969 715.925781 76.585938 716.03125 76.246094 716.230469 C 77.363281 710.449219 83.300781 706.511719 92.910156 705.078125 C 93.40625 704.410156 92.882812 704.007812 92.515625 703.570312 C 90.78125 701.515625 89.960938 699.003906 89.054688 696.539062 C 88.898438 696.121094 88.976562 695.621094 88.917969 694.773438 C 89.546875 695.203125 90.007812 695.355469 90.210938 695.671875 C 91.03125 696.988281 91.808594 698.335938 92.53125 699.707031 C 93.445312 701.429688 94.671875 702.890625 96.210938 704.054688 C 99.234375 706.347656 102.316406 708.5625 105.589844 710.972656 C 106.265625 709.039062 106.703125 707.132812 106.933594 705.152344 C 107.578125 699.640625 107.113281 694.15625 106.359375 688.703125 C 106.070312 686.601562 105.195312 684.574219 104.625 682.507812 C 102.84375 676.042969 100.4375 669.808594 97.941406 663.601562 C 97.578125 662.707031 97.246094 661.886719 96.378906 661.285156 C 92.652344 658.703125 90.035156 655.183594 88.082031 651.128906 C 87.480469 649.875 86.65625 648.722656 86.558594 647.097656 C 87.171875 647.542969 87.925781 647.882812 88.363281 648.460938 C 89.378906 649.789062 90.191406 651.257812 91.164062 652.617188 C 92.273438 654.164062 93.4375 655.675781 94.652344 657.144531 C 94.992188 657.554688 95.59375 657.746094 96.5 658.296875 C 94.929688 652.042969 95.726562 646.222656 96.238281 640.421875 C 96.453125 637.960938 97.171875 635.496094 97.953125 633.128906 C 99.496094 628.472656 101.078125 623.84375 101.066406 618.625 C 102.949219 619.597656 103.09375 621.183594 103.019531 622.664062 C 102.953125 624.074219 102.539062 625.484375 102.164062 626.863281 C 101.757812 628.359375 101.21875 629.820312 100.734375 631.296875 C 98.527344 637.953125 97.742188 644.78125 98.199219 651.777344 C 98.417969 655.148438 99.183594 658.417969 100.382812 661.53125 C 103.089844 668.5625 105.269531 675.761719 107.316406 682.996094 C 108.441406 686.996094 109.121094 691.125 110.015625 695.253906 C 110.738281 695.410156 110.894531 694.722656 111.046875 694.242188 C 111.335938 693.332031 111.546875 692.390625 111.679688 691.449219 C 111.921875 689.800781 112.015625 688.125 112.285156 686.472656 C 113.03125 681.941406 112.808594 677.394531 112.109375 672.917969 C 111.449219 668.660156 112.195312 664.585938 112.878906 660.46875 C 113.097656 659.175781 113.484375 657.910156 113.871094 656.65625 C 113.996094 656.257812 114.371094 655.941406 115.027344 655.039062 C 115.035156 656.753906 115.09375 657.8125 115.027344 658.863281 C 114.933594 660.410156 114.808594 661.960938 114.589844 663.496094 C 113.722656 669.488281 114.871094 675.367188 115.386719 681.554688 C 117.578125 680.410156 118.835938 678.316406 121.542969 677.554688 C 120.679688 679.09375 119.796875 679.972656 118.972656 680.910156 C 117.949219 682.078125 117 683.304688 116.019531 684.503906 C 115.078125 685.652344 114.5625 687.007812 114.445312 688.449219 C 114.144531 692.214844 112.816406 695.652344 111.207031 699.003906 C 110.113281 701.277344 109.410156 703.625 108.902344 706.113281 C 108.28125 709.140625 107.242188 712.105469 106.082031 714.976562 C 104.816406 718.085938 103.527344 721.152344 103.125 724.523438 C 103.070312 724.992188 102.582031 725.410156 102.015625 726.277344 " fill-opacity="1" fill-rule="nonzero"/><g clip-path="url(#0249367ebf)"><path fill="#e58f9e" d="M 141.457031 674.355469 C 140.234375 673.351562 140.222656 673.472656 135.691406 672.917969 C 133.488281 672.652344 131.386719 673.015625 129.328125 673.429688 C 127.371094 673.824219 125.527344 674.777344 123.625 675.492188 C 121.113281 673.351562 120.550781 671.128906 121.839844 668.34375 C 123.371094 665.035156 127.46875 662.515625 131.167969 662.789062 C 134.0625 663.011719 136.816406 663.730469 139.023438 665.847656 C 139.972656 666.753906 141.011719 667.566406 142.070312 668.34375 C 145.03125 670.515625 147.832031 672.980469 151.738281 673.492188 C 151.488281 673.875 151.40625 674.175781 151.226562 674.25 C 148.746094 675.25 146.871094 677.136719 144.710938 678.609375 C 143.398438 679.511719 142.378906 680.644531 141.503906 681.9375 C 140.230469 683.8125 138.957031 685.683594 137.691406 687.566406 C 136.664062 689.09375 135.253906 690.160156 133.671875 691.054688 C 129.402344 693.464844 126.210938 691.257812 124.378906 688.574219 C 124.113281 688.179688 123.898438 687.75 123.675781 687.328125 C 121.265625 682.785156 122.484375 678.769531 126.921875 676.0625 C 130.066406 674.148438 133.390625 673.789062 136.914062 674.328125 C 137.972656 674.496094 139.039062 674.652344 140.105469 674.71875 C 140.503906 674.746094 140.917969 674.511719 141.457031 674.355469 " fill-opacity="1" fill-rule="nonzero"/></g><path fill="#e58f9e" d="M 88.882812 692.460938 C 88.792969 691.820312 88.625 691.121094 88.605469 690.421875 C 88.539062 687.75 87.851562 685.253906 86.726562 682.832031 C 85.640625 680.476562 84.691406 678.066406 83.648438 675.605469 C 83.09375 675.59375 83.046875 676.15625 83.144531 676.578125 C 83.722656 679.007812 84.285156 681.425781 85.679688 683.601562 C 86.496094 684.882812 87.035156 686.398438 87.4375 687.882812 C 88.585938 692.128906 85.433594 696.644531 81.308594 697.25 C 78.589844 697.652344 75.8125 697.332031 73.703125 695.046875 C 71.957031 693.144531 71.40625 690.828125 71.558594 688.425781 C 71.6875 686.429688 72.277344 684.445312 72.808594 682.496094 C 73.023438 681.722656 73.574219 681.019531 74.0625 680.351562 C 74.984375 679.105469 75.964844 677.898438 76.941406 676.691406 C 79.277344 673.808594 81.441406 670.839844 81.628906 667.046875 C 82.492188 666.675781 82.621094 667.25 82.792969 667.640625 C 84.476562 671.414062 87.425781 673.886719 90.945312 675.882812 C 92.585938 676.8125 94.089844 678.042969 95.492188 679.316406 C 97.910156 681.503906 98.40625 684.464844 98.15625 687.523438 C 97.980469 689.699219 96.519531 691.183594 94.777344 692.347656 C 93.148438 693.425781 91.769531 693.433594 88.882812 692.460938 " fill-opacity="1" fill-rule="nonzero"/><path fill="#e58f9e" d="M 119.871094 624.53125 C 120.296875 626.355469 120.640625 627.496094 120.820312 628.664062 C 121.128906 630.714844 121.90625 632.554688 123.011719 634.289062 C 124.625 636.800781 126.296875 639.277344 127.789062 641.863281 C 129.011719 643.976562 129.550781 646.265625 128.703125 648.726562 C 127.449219 652.355469 123.183594 654.675781 119.503906 653.5625 C 118.519531 653.269531 117.410156 653.003906 116.671875 651.707031 C 116.972656 650.886719 117.261719 649.871094 117.695312 648.921875 C 118.828125 646.445312 119.128906 643.835938 118.726562 641.207031 C 118.382812 638.945312 118.183594 636.714844 118.445312 634.441406 C 118.46875 634.257812 118.25 634.042969 118.136719 633.835938 C 117.03125 633.929688 116.820312 634.714844 116.859375 635.59375 C 116.960938 637.746094 117.074219 639.898438 117.261719 642.039062 C 117.503906 644.738281 116.972656 647.25 115.75 649.664062 C 114.410156 652.304688 112.257812 653.476562 109.382812 653.019531 C 105.132812 652.339844 102.171875 648.832031 102.144531 644.519531 C 102.132812 641.332031 103.230469 638.628906 105.710938 636.644531 C 107.476562 635.230469 109.3125 633.808594 111.324219 632.824219 C 114.460938 631.292969 116.789062 629.046875 118.585938 626.140625 C 118.816406 625.757812 119.144531 625.433594 119.871094 624.53125 " fill-opacity="1" fill-rule="nonzero"/><path fill="#e58f9e" d="M 66.621094 624.5625 C 68.328125 624.132812 69.558594 625.238281 70.816406 626.011719 C 73.601562 627.726562 76.601562 628.761719 79.785156 629.410156 C 82.117188 629.890625 84.421875 630.515625 86.746094 631.050781 C 88.292969 631.402344 89.625 632.152344 90.867188 633.121094 C 92.703125 634.546875 93.183594 636.417969 92.546875 638.539062 C 91.597656 641.691406 89.953125 644.175781 86.269531 644.386719 C 86.066406 644.175781 85.8125 644.035156 85.757812 643.839844 C 84.988281 641.058594 83.109375 639.09375 80.984375 637.324219 C 78.617188 635.355469 76.199219 633.449219 73.808594 631.523438 C 72.964844 631.984375 73.273438 632.570312 73.671875 632.96875 C 74.675781 633.980469 75.746094 634.941406 76.832031 635.867188 C 78.375 637.1875 79.96875 638.445312 81.527344 639.742188 C 81.988281 640.121094 82.417969 640.53125 82.851562 640.941406 C 86.300781 644.160156 84.351562 649.4375 80.785156 651.078125 C 77.972656 652.375 74.761719 651.816406 72.492188 649.710938 C 70.175781 647.570312 69.089844 644.859375 68.738281 641.8125 C 68.597656 640.632812 68.511719 639.410156 68.648438 638.234375 C 69.082031 634.472656 68.367188 630.871094 67.339844 627.289062 C 67.078125 626.371094 66.914062 625.429688 66.703125 624.496094 L 66.621094 624.5625 " fill-opacity="1" fill-rule="nonzero"/><g clip-path="url(#d291895dbd)"><path fill="#e58f9e" d="M 72.097656 742.988281 C 71.171875 742.398438 70.480469 742.121094 70.019531 741.628906 C 67.902344 739.363281 65.703125 737.148438 63.800781 734.703125 C 61.148438 731.292969 60.164062 727.191406 59.933594 722.972656 C 59.808594 720.699219 60.445312 718.480469 62.121094 716.703125 C 65.195312 713.441406 69.609375 713.722656 72.214844 717.402344 C 72.488281 717.78125 72.6875 718.21875 73.035156 718.824219 C 70.613281 721.089844 69.429688 724.023438 69.140625 727.316406 C 68.898438 730.09375 68.53125 732.894531 69.746094 735.628906 C 70.777344 735.050781 70.382812 734.25 70.300781 733.632812 C 69.910156 730.484375 70.515625 727.398438 71.167969 724.402344 C 71.734375 721.789062 73.71875 719.851562 76.347656 718.984375 C 78.300781 718.339844 81.207031 719.886719 82.453125 721.878906 C 84.222656 724.703125 84.199219 727.503906 82.417969 730.308594 C 81.503906 731.738281 80.390625 732.964844 78.894531 733.804688 C 78.480469 734.039062 78.03125 734.222656 77.621094 734.460938 C 73.375 736.953125 72.769531 737.851562 72.097656 742.988281 " fill-opacity="1" fill-rule="nonzero"/></g><path fill="#e58f9e" d="M 66.703125 624.496094 C 66.605469 624.328125 66.5 624.164062 66.410156 623.988281 C 66.402344 623.972656 66.515625 623.890625 66.574219 623.84375 C 66.59375 624.078125 66.617188 624.316406 66.628906 624.558594 C 66.621094 624.5625 66.703125 624.496094 66.703125 624.496094 " fill-opacity="1" fill-rule="nonzero"/></svg>