<svg xmlns="http://www.w3.org/2000/svg" xmlns:xlink="http://www.w3.org/1999/xlink" width="1150" zoomAndPan="magnify" viewBox="0 0 862.5 262.499992" height="350" preserveAspectRatio="xMidYMid meet" version="1.0"><path fill="#e58f9e" d="M 632.132812 0.00390625 C 632.132812 5.773438 631.019531 11.28125 628.996094 16.332031 C 630.800781 25.484375 639.441406 30.25 645.824219 35.914062 C 652.207031 30.25 660.847656 25.484375 662.652344 16.332031 C 660.628906 11.28125 659.515625 5.773438 659.515625 0.00390625 L 661.609375 0.00390625 C 661.613281 23.117188 680.355469 41.859375 703.46875 41.859375 C 726.582031 41.859375 745.324219 23.117188 745.324219 0.00390625 L 747.417969 0.00390625 C 747.417969 24.273438 727.742188 43.953125 703.46875 43.953125 C 696.769531 43.953125 690.425781 42.453125 684.742188 39.773438 C 684 42.769531 682.371094 45.277344 679.984375 47.242188 C 677.351562 49.417969 673.996094 50.597656 670.578125 50.097656 C 670.507812 56.597656 662.1875 63.226562 654.867188 69.058594 C 651.085938 72.070312 647.585938 74.855469 645.824219 77.097656 C 644.0625 74.855469 640.5625 72.070312 636.78125 69.058594 C 629.460938 63.226562 621.140625 56.597656 621.070312 50.097656 C 617.652344 50.597656 614.296875 49.417969 611.664062 47.242188 C 609.277344 45.277344 607.644531 42.769531 606.90625 39.773438 C 601.222656 42.453125 594.875 43.953125 588.179688 43.953125 C 563.90625 43.953125 544.230469 24.273438 544.230469 0.00390625 L 546.324219 0.00390625 C 546.324219 23.117188 565.0625 41.859375 588.179688 41.859375 C 611.292969 41.859375 630.035156 23.117188 630.039062 0.00390625 Z M 645.824219 38.796875 C 639.683594 32.105469 631.242188 29.378906 627.660156 19.332031 C 626.175781 22.363281 624.347656 25.199219 622.234375 27.789062 C 624.355469 37.074219 639.148438 45.109375 645.824219 52.277344 C 652.5 45.113281 667.292969 37.074219 669.414062 27.789062 C 667.300781 25.199219 665.472656 22.363281 663.988281 19.332031 C 660.40625 29.378906 651.964844 32.105469 645.824219 38.796875 Z M 645.824219 55.53125 C 639.710938 46.765625 624.546875 40.953125 620.609375 29.667969 C 617.246094 33.347656 613.25 36.449219 608.851562 38.796875 C 609.222656 41.421875 610.980469 43.976562 612.988281 45.632812 C 616.566406 48.585938 619.460938 48.480469 623.589844 47.3125 C 621.835938 56.253906 632.019531 62.59375 638.082031 67.421875 C 641.015625 69.761719 643.792969 71.96875 645.824219 74.019531 C 647.855469 71.96875 650.632812 69.761719 653.566406 67.421875 C 659.628906 62.59375 669.8125 56.253906 668.058594 47.3125 C 672.1875 48.480469 675.085938 48.585938 678.660156 45.632812 C 680.667969 43.976562 682.425781 41.421875 682.796875 38.796875 C 678.398438 36.449219 674.402344 33.347656 671.039062 29.667969 C 667.101562 40.953125 651.9375 46.765625 645.824219 55.53125 Z M 645.824219 69.175781 C 643.808594 69.175781 641.792969 65.402344 645.824219 57.851562 C 649.855469 65.402344 647.839844 69.175781 645.824219 69.175781 Z M 645.824219 95.671875 C 644.769531 95.671875 643.828125 94.917969 643.636719 93.847656 C 643.394531 92.472656 644.453125 91.230469 645.824219 91.230469 C 647.195312 91.230469 648.253906 92.472656 648.011719 93.847656 C 647.820312 94.917969 646.878906 95.671875 645.824219 95.671875 Z M 645.824219 102.941406 C 637.113281 87.144531 600.734375 83.882812 596.679688 58.074219 C 593.863281 58.484375 591.027344 58.691406 588.179688 58.691406 C 567.195312 58.691406 548.789062 47.675781 538.410156 31.117188 C 528.035156 47.675781 509.628906 58.691406 488.644531 58.691406 C 485.796875 58.691406 482.960938 58.484375 480.144531 58.074219 C 476.089844 83.882812 439.710938 87.144531 431 102.941406 C 422.289062 87.144531 385.910156 83.882812 381.855469 58.074219 C 379.039062 58.484375 376.203125 58.691406 373.355469 58.691406 C 352.371094 58.691406 333.964844 47.675781 323.585938 31.117188 C 313.210938 47.675781 294.804688 58.691406 273.820312 58.691406 C 270.972656 58.691406 268.136719 58.484375 265.320312 58.074219 C 261.265625 83.882812 224.886719 87.144531 216.175781 102.941406 C 207.464844 87.144531 171.085938 83.882812 167.03125 58.074219 C 164.214844 58.484375 161.378906 58.691406 158.53125 58.691406 C 137.546875 58.691406 119.140625 47.675781 108.765625 31.117188 C 98.386719 47.675781 79.980469 58.691406 58.996094 58.691406 C 56.148438 58.691406 53.3125 58.484375 50.496094 58.074219 C 46.441406 83.882812 10.0625 87.144531 1.351562 102.941406 L 1.351562 99.25 C 14.15625 83.589844 45.644531 81.601562 48.699219 55.671875 C 52.175781 56.246094 55.457031 56.597656 58.996094 56.597656 C 80.484375 56.597656 99.179688 44.617188 108.765625 26.972656 C 118.347656 44.617188 137.042969 56.597656 158.53125 56.597656 C 162.070312 56.597656 165.351562 56.246094 168.828125 55.671875 C 171.882812 81.601562 203.371094 83.589844 216.175781 99.25 C 228.980469 83.589844 260.46875 81.601562 263.523438 55.671875 C 267 56.246094 270.28125 56.597656 273.820312 56.597656 C 295.308594 56.597656 314.003906 44.617188 323.585938 26.972656 C 333.171875 44.617188 351.867188 56.597656 373.355469 56.597656 C 376.894531 56.597656 380.175781 56.246094 383.652344 55.671875 C 386.707031 81.601562 418.195312 83.589844 431 99.25 C 443.804688 83.589844 475.292969 81.601562 478.347656 55.671875 C 481.824219 56.246094 485.105469 56.597656 488.644531 56.597656 C 510.132812 56.597656 528.828125 44.617188 538.410156 26.972656 C 547.996094 44.617188 566.691406 56.597656 588.179688 56.597656 C 591.71875 56.597656 595 56.246094 598.476562 55.671875 C 601.53125 81.601562 633.019531 83.589844 645.824219 99.25 C 658.628906 83.589844 690.117188 81.601562 693.171875 55.671875 C 696.648438 56.246094 699.929688 56.597656 703.46875 56.597656 C 724.957031 56.597656 743.652344 44.617188 753.238281 26.972656 C 762.820312 44.617188 781.515625 56.597656 803.003906 56.597656 C 806.542969 56.597656 809.824219 56.246094 813.300781 55.671875 C 816.355469 81.601562 847.84375 83.589844 860.648438 99.25 L 860.648438 102.941406 C 851.9375 87.144531 815.558594 83.882812 811.503906 58.074219 C 808.6875 58.484375 805.851562 58.691406 803.003906 58.691406 C 782.019531 58.691406 763.613281 47.675781 753.238281 31.117188 C 742.859375 47.675781 724.453125 58.691406 703.46875 58.691406 C 700.621094 58.691406 697.785156 58.484375 694.96875 58.074219 C 690.914062 83.882812 654.535156 87.144531 645.824219 102.941406 Z M 431 91.230469 C 432.371094 91.230469 433.429688 92.472656 433.1875 93.847656 C 432.996094 94.917969 432.054688 95.671875 431 95.671875 C 429.945312 95.671875 429.003906 94.917969 428.8125 93.847656 C 428.570312 92.472656 429.628906 91.230469 431 91.230469 Z M 431 74.019531 C 433.03125 71.96875 435.808594 69.761719 438.742188 67.421875 C 444.804688 62.59375 454.988281 56.253906 453.234375 47.3125 C 457.363281 48.480469 460.261719 48.585938 463.835938 45.632812 C 465.84375 43.976562 467.601562 41.417969 467.972656 38.796875 C 463.574219 36.449219 459.578125 33.347656 456.214844 29.667969 C 452.28125 40.949219 437.113281 46.765625 431 55.53125 C 424.886719 46.765625 409.722656 40.949219 405.785156 29.667969 C 402.421875 33.347656 398.425781 36.449219 394.027344 38.796875 C 394.398438 41.417969 396.15625 43.976562 398.164062 45.632812 C 401.742188 48.585938 404.636719 48.480469 408.765625 47.3125 C 407.011719 56.253906 417.195312 62.59375 423.257812 67.421875 C 426.191406 69.761719 428.96875 71.96875 431 74.019531 Z M 431 52.277344 C 437.675781 45.113281 452.46875 37.074219 454.589844 27.789062 C 452.476562 25.199219 450.648438 22.363281 449.164062 19.332031 C 445.582031 29.378906 437.140625 32.105469 431 38.796875 C 424.859375 32.105469 416.417969 29.378906 412.835938 19.332031 C 411.351562 22.363281 409.523438 25.199219 407.410156 27.789062 C 409.53125 37.074219 424.324219 45.109375 431 52.277344 Z M 431 35.914062 C 437.382812 30.25 446.023438 25.484375 447.828125 16.332031 C 445.804688 11.28125 444.695312 5.773438 444.691406 0.00390625 L 446.785156 0.00390625 C 446.789062 23.117188 465.53125 41.859375 488.644531 41.859375 C 511.757812 41.859375 530.5 23.117188 530.5 0.00390625 L 532.59375 0.00390625 C 532.59375 24.273438 512.917969 43.953125 488.644531 43.953125 C 481.945312 43.953125 475.601562 42.453125 469.917969 39.773438 C 469.179688 42.769531 467.546875 45.277344 465.160156 47.242188 C 462.527344 49.417969 459.171875 50.597656 455.753906 50.097656 C 455.683594 56.597656 447.363281 63.226562 440.042969 69.058594 C 436.261719 72.070312 432.761719 74.855469 431 77.097656 C 429.238281 74.855469 425.738281 72.070312 421.957031 69.058594 C 414.636719 63.226562 406.316406 56.597656 406.246094 50.097656 C 402.828125 50.597656 399.472656 49.417969 396.839844 47.242188 C 394.453125 45.277344 392.820312 42.769531 392.082031 39.773438 C 386.398438 42.453125 380.050781 43.953125 373.355469 43.953125 C 349.082031 43.953125 329.40625 24.273438 329.40625 0.00390625 L 331.5 0.00390625 C 331.5 23.117188 350.238281 41.859375 373.355469 41.859375 C 396.46875 41.859375 415.210938 23.117188 415.214844 0.00390625 L 417.308594 0.00390625 C 417.308594 5.773438 416.191406 11.28125 414.171875 16.332031 C 415.976562 25.484375 424.617188 30.25 431 35.914062 Z M 431 57.851562 C 435.03125 65.402344 433.015625 69.175781 431 69.175781 C 428.984375 69.175781 426.972656 65.402344 431 57.851562 Z M 537.300781 19.277344 C 538.363281 19.886719 539.722656 19.523438 540.335938 18.460938 C 540.949219 17.398438 540.585938 16.039062 539.523438 15.425781 C 538.460938 14.8125 537.101562 15.175781 536.488281 16.238281 C 535.875 17.304688 536.238281 18.660156 537.300781 19.277344 Z M 610.207031 0.00390625 C 610.207031 3.855469 604.589844 4.125 601.746094 3.636719 C 604.332031 4.601562 609.195312 7.644531 607.253906 11.011719 C 605.304688 14.390625 600.226562 11.6875 598.097656 9.921875 C 599.863281 12.050781 602.566406 17.128906 599.191406 19.074219 C 595.816406 21.023438 592.765625 16.132812 591.804688 13.539062 C 592.269531 16.265625 592.078125 22.027344 588.179688 22.027344 C 584.285156 22.027344 584.089844 16.273438 584.550781 13.550781 C 583.589844 16.144531 580.542969 21.019531 577.171875 19.074219 C 573.792969 17.125 576.5 12.046875 578.265625 9.917969 C 576.136719 11.683594 571.058594 14.390625 569.109375 11.011719 C 567.167969 7.648438 572.023438 4.605469 574.609375 3.640625 C 571.855469 4.105469 566.15625 3.898438 566.15625 0 L 567.0625 0 C 567.0625 5.191406 577.226562 2.15625 580.570312 0.765625 C 580.546875 0.511719 580.53125 0.257812 580.53125 0 L 581.4375 0 C 581.4375 1.867188 582.191406 3.554688 583.410156 4.773438 C 584.628906 5.992188 586.316406 6.746094 588.183594 6.746094 C 590.046875 6.746094 591.734375 5.992188 592.953125 4.773438 C 594.171875 3.554688 594.925781 1.867188 594.925781 0 L 595.832031 0 C 595.832031 0.257812 595.816406 0.511719 595.792969 0.761719 C 599.039062 2.097656 609.300781 5.183594 609.300781 0 L 610.207031 0 Z M 590.890625 0.00390625 C 590.890625 1.496094 589.675781 2.710938 588.183594 2.710938 C 586.6875 2.710938 585.472656 1.496094 585.472656 0.00390625 Z M 622.332031 0.00390625 C 622.328125 18.859375 607.035156 34.152344 588.179688 34.152344 C 569.324219 34.152344 554.03125 18.855469 554.03125 0.00390625 L 551.9375 0.00390625 C 551.9375 20.015625 568.164062 36.246094 588.179688 36.246094 C 608.195312 36.246094 624.421875 20.015625 624.425781 0.00390625 Z M 607.453125 64.75 C 608.394531 63.960938 608.511719 62.554688 607.71875 61.621094 C 606.929688 60.683594 605.519531 60.566406 604.585938 61.359375 C 603.648438 62.144531 603.535156 63.550781 604.320312 64.488281 C 605.113281 65.417969 606.519531 65.542969 607.453125 64.75 Z M 614.792969 73.511719 C 615.734375 72.71875 615.847656 71.3125 615.058594 70.378906 C 614.265625 69.445312 612.859375 69.328125 611.925781 70.117188 C 610.988281 70.90625 610.875 72.3125 611.660156 73.25 C 612.453125 74.183594 613.859375 74.304688 614.792969 73.511719 Z M 623.128906 79.515625 C 624.070312 78.726562 624.1875 77.320312 623.394531 76.386719 C 622.605469 75.449219 621.199219 75.332031 620.261719 76.125 C 619.324219 76.910156 619.210938 78.316406 620 79.253906 C 620.789062 80.1875 622.195312 80.308594 623.128906 79.515625 Z M 631.867188 84.566406 C 632.808594 83.773438 632.929688 82.367188 632.136719 81.433594 C 631.34375 80.496094 629.9375 80.382812 629.003906 81.171875 C 628.0625 81.960938 627.949219 83.363281 628.738281 84.304688 C 629.527344 85.234375 630.933594 85.355469 631.867188 84.566406 Z M 640.074219 89.6875 C 641.011719 88.898438 641.128906 87.488281 640.339844 86.554688 C 639.546875 85.621094 638.140625 85.503906 637.207031 86.296875 C 636.269531 87.082031 636.152344 88.488281 636.941406 89.429688 C 637.730469 90.359375 639.140625 90.480469 640.074219 89.6875 Z M 635.75 49.574219 C 636.78125 65.371094 623.171875 59.191406 635.75 49.574219 Z M 619.46875 52.023438 C 605.164062 57.191406 615.847656 66.796875 619.46875 52.023438 Z M 544.265625 27.921875 C 545.328125 27.308594 545.695312 25.949219 545.078125 24.882812 C 544.464844 23.820312 543.105469 23.460938 542.046875 24.070312 C 540.980469 24.683594 540.617188 26.042969 541.230469 27.109375 C 541.847656 28.167969 543.203125 28.53125 544.265625 27.921875 Z M 552.988281 38.335938 C 553.855469 37.46875 553.855469 36.058594 552.988281 35.191406 C 552.121094 34.324219 550.714844 34.324219 549.847656 35.191406 C 548.980469 36.058594 548.980469 37.464844 549.847656 38.335938 C 550.714844 39.203125 552.121094 39.203125 552.988281 38.335938 Z M 564.109375 46.136719 C 564.722656 45.074219 564.359375 43.714844 563.296875 43.101562 C 562.234375 42.488281 560.875 42.851562 560.261719 43.914062 C 559.648438 44.976562 560.011719 46.335938 561.074219 46.949219 C 562.136719 47.5625 563.496094 47.199219 564.109375 46.136719 Z M 576.871094 50.796875 C 577.1875 49.609375 576.484375 48.390625 575.300781 48.074219 C 574.113281 47.757812 572.898438 48.460938 572.578125 49.644531 C 572.261719 50.832031 572.964844 52.046875 574.148438 52.367188 C 575.335938 52.683594 576.550781 51.980469 576.871094 50.796875 Z M 590.402344 51.992188 C 590.402344 50.765625 589.40625 49.769531 588.179688 49.769531 C 586.953125 49.769531 585.960938 50.765625 585.960938 51.988281 C 585.957031 53.21875 586.953125 54.210938 588.179688 54.214844 C 589.410156 54.214844 590.402344 53.21875 590.402344 51.992188 Z M 603.785156 49.644531 C 603.464844 48.460938 602.246094 47.757812 601.0625 48.074219 C 599.875 48.390625 599.175781 49.609375 599.492188 50.792969 C 599.808594 51.980469 601.027344 52.679688 602.210938 52.367188 C 603.398438 52.050781 604.097656 50.832031 603.785156 49.644531 Z M 622.425781 36.164062 C 619.132812 51.675781 607.6875 42.023438 622.425781 36.164062 Z M 595.492188 2.265625 C 595.550781 2.078125 595.597656 1.890625 595.644531 1.699219 C 596.433594 2.050781 597.1875 2.351562 597.914062 2.609375 C 597.15625 2.472656 596.347656 2.355469 595.492188 2.265625 Z M 594.394531 4.464844 L 594.566406 4.210938 L 599.472656 7.046875 L 599.925781 6.265625 L 595.019531 3.429688 L 595.152344 3.152344 C 598.589844 3.621094 609.035156 6.121094 606.472656 10.566406 C 603.910156 15.007812 596.515625 7.203125 594.394531 4.464844 Z M 593.375 5.617188 L 593.589844 5.410156 L 593.792969 5.199219 C 594.300781 5.902344 594.808594 6.542969 595.308594 7.128906 C 594.71875 6.628906 594.078125 6.125 593.375 5.617188 Z M 591.332031 6.972656 L 591.605469 6.84375 L 594.441406 11.75 L 595.222656 11.296875 L 592.386719 6.390625 L 592.640625 6.214844 C 595.378906 8.339844 603.183594 15.734375 598.742188 18.296875 C 594.296875 20.859375 591.796875 10.410156 591.332031 6.972656 Z M 589.875 7.460938 C 590.066406 7.417969 590.257812 7.367188 590.441406 7.3125 C 590.535156 8.171875 590.652344 8.984375 590.789062 9.746094 C 590.53125 9.015625 590.226562 8.253906 589.875 7.460938 Z M 587.421875 7.613281 L 587.730469 7.636719 L 587.730469 13.308594 L 588.632812 13.308594 L 588.632812 7.636719 L 588.9375 7.613281 C 590.25 10.828125 593.3125 21.125 588.179688 21.125 C 583.046875 21.125 586.109375 10.824219 587.421875 7.613281 Z M 585.921875 7.3125 C 586.105469 7.367188 586.296875 7.417969 586.488281 7.460938 C 586.136719 8.253906 585.832031 9.011719 585.574219 9.734375 C 585.714844 8.976562 585.828125 8.171875 585.917969 7.3125 Z M 583.722656 6.214844 L 583.972656 6.390625 L 581.140625 11.296875 L 581.921875 11.75 L 584.753906 6.84375 L 585.03125 6.972656 C 584.5625 10.410156 582.066406 20.859375 577.621094 18.292969 C 573.175781 15.734375 580.980469 8.335938 583.722656 6.214844 Z M 582.570312 5.199219 L 582.773438 5.410156 L 582.988281 5.613281 C 582.285156 6.125 581.640625 6.628906 581.054688 7.132812 C 581.554688 6.542969 582.058594 5.898438 582.570312 5.199219 Z M 581.210938 3.152344 L 581.34375 3.429688 L 576.433594 6.265625 L 576.886719 7.046875 L 581.796875 4.210938 L 581.96875 4.464844 C 579.847656 7.203125 572.449219 15.007812 569.890625 10.566406 C 567.324219 6.117188 577.777344 3.621094 581.210938 3.152344 Z M 580.722656 1.699219 C 580.765625 1.890625 580.816406 2.082031 580.875 2.265625 C 580.019531 2.355469 579.214844 2.472656 578.460938 2.609375 C 579.183594 2.351562 579.9375 2.050781 580.722656 1.699219 Z M 466.617188 0 C 466.617188 3.855469 472.234375 4.125 475.078125 3.636719 C 472.492188 4.601562 467.628906 7.644531 469.570312 11.011719 C 471.519531 14.390625 476.597656 11.683594 478.726562 9.921875 C 476.960938 12.050781 474.257812 17.128906 477.632812 19.074219 C 481.011719 21.023438 484.058594 16.132812 485.019531 13.539062 C 484.554688 16.265625 484.746094 22.027344 488.644531 22.027344 C 492.539062 22.027344 492.734375 16.273438 492.273438 13.550781 C 493.234375 16.144531 496.28125 21.019531 499.652344 19.074219 C 503.03125 17.125 500.324219 12.046875 498.558594 9.917969 C 500.6875 11.683594 505.765625 14.390625 507.714844 11.011719 C 509.660156 7.648438 504.800781 4.605469 502.214844 3.640625 C 504.96875 4.105469 510.667969 3.898438 510.667969 0 L 509.761719 0 C 509.761719 5.191406 499.597656 2.15625 496.253906 0.765625 C 496.277344 0.511719 496.292969 0.257812 496.292969 0 L 495.386719 0 C 495.386719 1.863281 494.632812 3.554688 493.414062 4.773438 C 492.195312 5.992188 490.507812 6.746094 488.644531 6.746094 C 486.78125 6.746094 485.089844 5.992188 483.871094 4.773438 C 482.652344 3.554688 481.898438 1.867188 481.898438 0 L 480.992188 0 C 480.992188 0.257812 481.007812 0.511719 481.03125 0.761719 C 477.785156 2.097656 467.523438 5.183594 467.523438 0 Z M 485.933594 0 C 485.933594 1.496094 487.148438 2.710938 488.640625 2.710938 C 490.136719 2.710938 491.351562 1.496094 491.351562 0 Z M 454.492188 0 C 454.496094 18.859375 469.789062 34.152344 488.644531 34.152344 C 507.5 34.152344 522.792969 18.855469 522.792969 0 L 524.886719 0 C 524.886719 20.015625 508.660156 36.246094 488.644531 36.246094 C 468.628906 36.246094 452.402344 20.015625 452.402344 0 L 454.496094 0 Z M 469.371094 64.75 C 468.429688 63.960938 468.3125 62.554688 469.105469 61.617188 C 469.894531 60.683594 471.304688 60.566406 472.238281 61.359375 C 473.175781 62.144531 473.289062 63.550781 472.503906 64.488281 C 471.710938 65.417969 470.304688 65.542969 469.371094 64.75 Z M 462.03125 73.511719 C 461.089844 72.71875 460.976562 71.3125 461.765625 70.378906 C 462.558594 69.445312 463.964844 69.328125 464.898438 70.117188 C 465.835938 70.90625 465.949219 72.3125 465.164062 73.25 C 464.371094 74.183594 462.964844 74.304688 462.03125 73.511719 Z M 453.695312 79.515625 C 452.753906 78.726562 452.636719 77.320312 453.429688 76.386719 C 454.21875 75.449219 455.625 75.332031 456.5625 76.125 C 457.5 76.910156 457.613281 78.316406 456.824219 79.253906 C 456.035156 80.1875 454.628906 80.308594 453.695312 79.515625 Z M 444.957031 84.566406 C 444.015625 83.773438 443.898438 82.367188 444.691406 81.433594 C 445.480469 80.496094 446.886719 80.382812 447.820312 81.171875 C 448.761719 81.960938 448.875 83.363281 448.085938 84.304688 C 447.296875 85.234375 445.890625 85.355469 444.957031 84.566406 Z M 436.753906 89.6875 C 435.8125 88.894531 435.695312 87.488281 436.484375 86.554688 C 437.277344 85.621094 438.683594 85.503906 439.621094 86.296875 C 440.558594 87.082031 440.671875 88.488281 439.882812 89.429688 C 439.09375 90.355469 437.6875 90.480469 436.753906 89.6875 Z M 441.074219 49.574219 C 440.042969 65.371094 453.652344 59.191406 441.074219 49.574219 Z M 457.355469 52.023438 C 471.660156 57.191406 460.976562 66.796875 457.355469 52.023438 Z M 532.558594 27.921875 C 531.496094 27.304688 531.132812 25.949219 531.746094 24.882812 C 532.359375 23.820312 533.71875 23.460938 534.777344 24.070312 C 535.84375 24.683594 536.207031 26.042969 535.59375 27.105469 C 534.980469 28.167969 533.621094 28.53125 532.558594 27.921875 Z M 523.835938 38.335938 C 522.96875 37.46875 522.96875 36.058594 523.835938 35.191406 C 524.703125 34.324219 526.109375 34.324219 526.976562 35.191406 C 527.847656 36.058594 527.84375 37.464844 526.976562 38.335938 C 526.109375 39.203125 524.703125 39.203125 523.835938 38.335938 Z M 512.714844 46.136719 C 512.101562 45.074219 512.464844 43.714844 513.527344 43.101562 C 514.589844 42.488281 515.949219 42.851562 516.5625 43.914062 C 517.175781 44.976562 516.8125 46.335938 515.75 46.949219 C 514.6875 47.5625 513.328125 47.199219 512.714844 46.136719 Z M 499.953125 50.796875 C 499.636719 49.609375 500.339844 48.390625 501.523438 48.074219 C 502.710938 47.757812 503.925781 48.460938 504.246094 49.644531 C 504.5625 50.832031 503.859375 52.046875 502.675781 52.367188 C 501.488281 52.683594 500.273438 51.980469 499.953125 50.796875 Z M 486.421875 51.992188 C 486.421875 50.765625 487.417969 49.769531 488.644531 49.769531 C 489.871094 49.769531 490.863281 50.765625 490.863281 51.988281 C 490.867188 53.21875 489.871094 54.210938 488.644531 54.210938 C 487.414062 54.214844 486.421875 53.21875 486.421875 51.992188 Z M 473.039062 49.644531 C 473.359375 48.457031 474.578125 47.757812 475.761719 48.074219 C 476.949219 48.390625 477.648438 49.609375 477.332031 50.792969 C 477.015625 51.980469 475.796875 52.679688 474.613281 52.367188 C 473.425781 52.050781 472.726562 50.832031 473.039062 49.644531 Z M 454.398438 36.164062 C 457.691406 51.675781 469.136719 42.023438 454.398438 36.164062 Z M 481.332031 2.265625 C 481.277344 2.078125 481.226562 1.890625 481.183594 1.699219 C 480.390625 2.050781 479.636719 2.351562 478.910156 2.609375 C 479.667969 2.472656 480.476562 2.355469 481.332031 2.265625 Z M 482.429688 4.464844 L 482.257812 4.210938 L 477.351562 7.046875 L 476.898438 6.265625 L 481.804688 3.429688 L 481.671875 3.152344 C 478.234375 3.621094 467.789062 6.121094 470.351562 10.566406 C 472.914062 15.007812 480.308594 7.203125 482.429688 4.464844 Z M 483.449219 5.617188 L 483.234375 5.410156 L 483.03125 5.199219 C 482.523438 5.902344 482.015625 6.542969 481.515625 7.128906 C 482.105469 6.628906 482.746094 6.125 483.449219 5.617188 Z M 485.492188 6.972656 L 485.21875 6.839844 L 482.382812 11.75 L 481.601562 11.296875 L 484.4375 6.390625 L 484.183594 6.214844 C 481.445312 8.339844 473.640625 15.734375 478.082031 18.292969 C 482.527344 20.859375 485.027344 10.410156 485.492188 6.972656 Z M 486.949219 7.460938 C 486.757812 7.417969 486.566406 7.367188 486.382812 7.308594 C 486.289062 8.171875 486.171875 8.984375 486.035156 9.746094 C 486.292969 9.015625 486.597656 8.253906 486.949219 7.460938 Z M 489.402344 7.613281 L 489.097656 7.636719 L 489.097656 13.308594 L 488.191406 13.308594 L 488.191406 7.636719 L 487.886719 7.613281 C 486.574219 10.824219 483.511719 21.125 488.644531 21.125 C 493.777344 21.125 490.714844 10.824219 489.402344 7.613281 Z M 490.90625 7.308594 C 490.71875 7.367188 490.527344 7.417969 490.335938 7.460938 C 490.6875 8.253906 490.992188 9.011719 491.25 9.734375 C 491.109375 8.976562 490.996094 8.167969 490.90625 7.308594 Z M 493.105469 6.214844 L 492.851562 6.390625 L 495.683594 11.296875 L 494.902344 11.75 L 492.070312 6.839844 L 491.792969 6.972656 C 492.261719 10.40625 494.757812 20.859375 499.203125 18.292969 C 503.648438 15.734375 495.84375 8.335938 493.101562 6.214844 Z M 494.253906 5.199219 L 494.050781 5.410156 L 493.835938 5.613281 C 494.539062 6.125 495.183594 6.628906 495.769531 7.132812 C 495.269531 6.542969 494.765625 5.898438 494.253906 5.199219 Z M 495.613281 3.152344 L 495.480469 3.429688 L 500.390625 6.265625 L 499.9375 7.046875 L 495.027344 4.210938 L 494.855469 4.464844 C 496.976562 7.199219 504.375 15.007812 506.933594 10.566406 C 509.5 6.117188 499.046875 3.621094 495.613281 3.152344 Z M 496.101562 1.699219 C 496.058594 1.890625 496.007812 2.078125 495.949219 2.265625 C 496.804688 2.355469 497.609375 2.46875 498.363281 2.609375 C 497.640625 2.351562 496.886719 2.050781 496.101562 1.699219 Z M 860.648438 95.671875 L 860.648438 91.230469 C 859.277344 91.230469 858.21875 92.472656 858.460938 93.84375 C 858.652344 94.917969 859.59375 95.671875 860.648438 95.671875 Z M 860.648438 77.09375 L 860.648438 74.019531 C 858.617188 71.96875 855.839844 69.757812 852.90625 67.421875 C 846.84375 62.59375 836.660156 56.253906 838.414062 47.3125 C 834.285156 48.480469 831.386719 48.585938 827.8125 45.628906 C 825.804688 43.976562 824.046875 41.417969 823.675781 38.796875 C 828.074219 36.449219 832.070312 33.347656 835.433594 29.667969 C 839.371094 40.949219 854.535156 46.765625 860.648438 55.53125 L 860.648438 52.277344 C 853.972656 45.109375 839.179688 37.070312 837.058594 27.789062 C 839.171875 25.199219 841 22.363281 842.484375 19.332031 C 846.066406 29.378906 854.507812 32.101562 860.648438 38.796875 L 860.648438 35.910156 C 854.265625 30.25 845.625 25.480469 843.820312 16.332031 C 845.84375 11.28125 846.957031 5.769531 846.957031 0 L 844.863281 0 C 844.859375 23.117188 826.117188 41.855469 803.003906 41.855469 C 779.890625 41.855469 761.148438 23.113281 761.148438 0 L 759.054688 0 C 759.054688 24.273438 778.730469 43.949219 803.003906 43.949219 C 809.699219 43.949219 816.046875 42.453125 821.730469 39.773438 C 822.46875 42.769531 824.101562 45.273438 826.488281 47.242188 C 829.121094 49.417969 832.476562 50.59375 835.894531 50.097656 C 835.964844 56.597656 844.285156 63.226562 851.605469 69.054688 C 855.386719 72.066406 858.886719 74.855469 860.648438 77.09375 Z M 860.648438 69.175781 L 860.648438 57.851562 C 856.617188 65.402344 858.632812 69.175781 860.648438 69.175781 Z M 754.347656 19.273438 C 753.285156 19.886719 751.925781 19.523438 751.3125 18.460938 C 750.699219 17.398438 751.0625 16.039062 752.125 15.425781 C 753.1875 14.8125 754.546875 15.175781 755.160156 16.238281 C 755.773438 17.300781 755.410156 18.660156 754.347656 19.273438 Z M 681.441406 0 C 681.441406 3.855469 687.058594 4.125 689.902344 3.636719 C 687.316406 4.601562 682.453125 7.644531 684.394531 11.011719 C 686.34375 14.390625 691.421875 11.683594 693.550781 9.921875 C 691.785156 12.050781 689.082031 17.128906 692.457031 19.074219 C 695.832031 21.023438 698.882812 16.132812 699.84375 13.539062 C 699.378906 16.265625 699.570312 22.027344 703.46875 22.027344 C 707.363281 22.027344 707.558594 16.273438 707.097656 13.550781 C 708.058594 16.144531 711.105469 21.019531 714.476562 19.074219 C 717.855469 17.125 715.148438 12.046875 713.382812 9.917969 C 715.511719 11.683594 720.589844 14.390625 722.539062 11.011719 C 724.480469 7.648438 719.625 4.605469 717.039062 3.640625 C 719.792969 4.105469 725.492188 3.898438 725.492188 0 L 724.585938 0 C 724.585938 5.191406 714.421875 2.15625 711.078125 0.765625 C 711.101562 0.511719 711.117188 0.257812 711.117188 0 L 710.210938 0 C 710.210938 1.863281 709.457031 3.550781 708.238281 4.773438 C 707.019531 5.992188 705.332031 6.746094 703.464844 6.746094 C 701.601562 6.746094 699.914062 5.992188 698.695312 4.773438 C 697.476562 3.550781 696.722656 1.863281 696.722656 0 L 695.816406 0 C 695.816406 0.257812 695.832031 0.511719 695.855469 0.761719 C 692.609375 2.097656 682.347656 5.183594 682.347656 0 Z M 700.757812 0 C 700.757812 1.496094 701.972656 2.710938 703.464844 2.710938 C 704.960938 2.710938 706.175781 1.496094 706.175781 0 Z M 669.316406 0 C 669.320312 18.859375 684.613281 34.152344 703.46875 34.152344 C 722.324219 34.152344 737.617188 18.855469 737.617188 0 L 739.710938 0 C 739.710938 20.015625 723.484375 36.246094 703.46875 36.246094 C 683.453125 36.246094 667.226562 20.015625 667.226562 0 Z M 684.195312 64.75 C 683.253906 63.960938 683.136719 62.554688 683.929688 61.617188 C 684.71875 60.683594 686.128906 60.566406 687.0625 61.359375 C 688 62.144531 688.113281 63.550781 687.324219 64.488281 C 686.535156 65.417969 685.128906 65.542969 684.195312 64.75 Z M 676.855469 73.511719 C 675.914062 72.71875 675.800781 71.3125 676.589844 70.378906 C 677.382812 69.445312 678.789062 69.328125 679.722656 70.117188 C 680.660156 70.90625 680.773438 72.3125 679.988281 73.25 C 679.195312 74.183594 677.789062 74.304688 676.855469 73.511719 Z M 668.519531 79.515625 C 667.578125 78.726562 667.460938 77.320312 668.253906 76.386719 C 669.042969 75.449219 670.449219 75.332031 671.386719 76.125 C 672.324219 76.910156 672.4375 78.316406 671.648438 79.253906 C 670.859375 80.1875 669.453125 80.308594 668.519531 79.515625 Z M 659.777344 84.566406 C 658.839844 83.773438 658.71875 82.367188 659.511719 81.433594 C 660.304688 80.496094 661.710938 80.378906 662.644531 81.171875 C 663.585938 81.960938 663.699219 83.363281 662.910156 84.304688 C 662.121094 85.234375 660.714844 85.355469 659.777344 84.566406 Z M 651.574219 89.6875 C 650.636719 88.894531 650.519531 87.488281 651.308594 86.554688 C 652.101562 85.621094 653.507812 85.503906 654.441406 86.292969 C 655.378906 87.082031 655.496094 88.488281 654.707031 89.429688 C 653.917969 90.355469 652.511719 90.480469 651.574219 89.6875 Z M 655.898438 49.574219 C 654.867188 65.371094 668.476562 59.191406 655.898438 49.574219 Z M 672.179688 52.023438 C 686.484375 57.191406 675.800781 66.796875 672.179688 52.023438 Z M 747.382812 27.921875 C 746.320312 27.304688 745.953125 25.949219 746.570312 24.882812 C 747.183594 23.820312 748.539062 23.457031 749.601562 24.070312 C 750.667969 24.683594 751.03125 26.042969 750.417969 27.105469 C 749.800781 28.167969 748.445312 28.53125 747.382812 27.921875 Z M 738.660156 38.335938 C 737.792969 37.46875 737.792969 36.058594 738.660156 35.191406 C 739.527344 34.324219 740.933594 34.324219 741.800781 35.191406 C 742.667969 36.058594 742.667969 37.464844 741.800781 38.335938 C 740.933594 39.203125 739.527344 39.199219 738.660156 38.335938 Z M 727.539062 46.136719 C 726.925781 45.074219 727.289062 43.714844 728.351562 43.101562 C 729.414062 42.488281 730.773438 42.851562 731.386719 43.914062 C 732 44.976562 731.636719 46.335938 730.574219 46.949219 C 729.511719 47.5625 728.152344 47.199219 727.539062 46.136719 Z M 714.777344 50.796875 C 714.460938 49.609375 715.164062 48.390625 716.347656 48.074219 C 717.535156 47.757812 718.75 48.460938 719.070312 49.644531 C 719.386719 50.832031 718.683594 52.046875 717.5 52.367188 C 716.3125 52.683594 715.097656 51.980469 714.777344 50.796875 Z M 701.246094 51.992188 C 701.246094 50.761719 702.242188 49.769531 703.46875 49.769531 C 704.695312 49.769531 705.6875 50.765625 705.6875 51.988281 C 705.6875 53.21875 704.695312 54.210938 703.46875 54.210938 C 702.238281 54.214844 701.246094 53.21875 701.246094 51.992188 Z M 687.863281 49.644531 C 688.179688 48.457031 689.402344 47.757812 690.585938 48.074219 C 691.773438 48.390625 692.472656 49.609375 692.15625 50.792969 C 691.839844 51.980469 690.621094 52.679688 689.4375 52.367188 C 688.25 52.046875 687.550781 50.828125 687.863281 49.644531 Z M 669.222656 36.164062 C 672.515625 51.675781 683.957031 42.023438 669.222656 36.164062 Z M 696.15625 2.265625 C 696.097656 2.078125 696.050781 1.890625 696.003906 1.699219 C 695.214844 2.050781 694.457031 2.351562 693.734375 2.609375 C 694.492188 2.472656 695.300781 2.355469 696.15625 2.265625 Z M 697.253906 4.464844 L 697.082031 4.210938 L 692.175781 7.046875 L 691.722656 6.265625 L 696.628906 3.429688 L 696.496094 3.152344 C 693.058594 3.621094 682.613281 6.121094 685.175781 10.566406 C 687.738281 15.007812 695.132812 7.203125 697.253906 4.464844 Z M 698.273438 5.617188 L 698.058594 5.410156 L 697.855469 5.199219 C 697.347656 5.898438 696.839844 6.542969 696.339844 7.128906 C 696.929688 6.628906 697.570312 6.125 698.273438 5.617188 Z M 700.316406 6.972656 L 700.042969 6.839844 L 697.207031 11.75 L 696.425781 11.296875 L 699.261719 6.390625 L 699.007812 6.214844 C 696.269531 8.339844 688.460938 15.734375 692.90625 18.292969 C 697.351562 20.859375 699.851562 10.40625 700.316406 6.972656 Z M 701.773438 7.460938 C 701.582031 7.417969 701.390625 7.367188 701.207031 7.308594 C 701.113281 8.171875 700.996094 8.984375 700.859375 9.746094 C 701.117188 9.015625 701.421875 8.253906 701.773438 7.460938 Z M 704.222656 7.613281 L 703.917969 7.636719 L 703.917969 13.304688 L 703.015625 13.304688 L 703.015625 7.636719 L 702.710938 7.613281 C 701.398438 10.824219 698.335938 21.125 703.46875 21.125 C 708.601562 21.125 705.539062 10.824219 704.222656 7.613281 Z M 705.726562 7.308594 C 705.542969 7.367188 705.351562 7.417969 705.160156 7.460938 C 705.511719 8.253906 705.816406 9.011719 706.074219 9.734375 C 705.933594 8.976562 705.820312 8.167969 705.726562 7.308594 Z M 707.925781 6.214844 L 707.675781 6.390625 L 710.507812 11.296875 L 709.726562 11.75 L 706.890625 6.839844 L 706.617188 6.972656 C 707.085938 10.40625 709.582031 20.859375 714.027344 18.292969 C 718.472656 15.730469 710.667969 8.335938 707.925781 6.214844 Z M 709.078125 5.199219 L 708.875 5.410156 L 708.660156 5.613281 C 709.363281 6.125 710.007812 6.628906 710.59375 7.132812 C 710.09375 6.542969 709.589844 5.898438 709.078125 5.199219 Z M 710.4375 3.152344 L 710.304688 3.429688 L 715.214844 6.265625 L 714.761719 7.046875 L 709.851562 4.210938 L 709.679688 4.460938 C 711.800781 7.199219 719.199219 15.007812 721.757812 10.566406 C 724.324219 6.117188 713.871094 3.621094 710.4375 3.152344 Z M 710.925781 1.699219 C 710.882812 1.890625 710.832031 2.078125 710.773438 2.265625 C 711.628906 2.355469 712.433594 2.46875 713.1875 2.609375 C 712.464844 2.351562 711.710938 2.050781 710.925781 1.699219 Z M 825.03125 0 C 825.03125 3.855469 819.414062 4.125 816.566406 3.636719 C 819.15625 4.601562 824.019531 7.644531 822.078125 11.011719 C 820.128906 14.390625 815.050781 11.683594 812.921875 9.921875 C 814.6875 12.050781 817.390625 17.125 814.015625 19.074219 C 810.636719 21.023438 807.589844 16.132812 806.628906 13.539062 C 807.09375 16.265625 806.902344 22.027344 803.003906 22.027344 C 799.109375 22.027344 798.914062 16.273438 799.375 13.550781 C 798.414062 16.144531 795.367188 21.019531 791.996094 19.074219 C 788.617188 17.125 791.324219 12.046875 793.089844 9.917969 C 790.960938 11.683594 785.882812 14.390625 783.929688 11.011719 C 781.988281 7.648438 786.847656 4.605469 789.433594 3.640625 C 786.679688 4.105469 780.980469 3.898438 780.980469 0 L 781.886719 0 C 781.886719 5.191406 792.050781 2.15625 795.394531 0.765625 C 795.367188 0.511719 795.355469 0.257812 795.355469 0 L 796.261719 0 C 796.261719 1.863281 797.015625 3.550781 798.234375 4.769531 C 799.453125 5.988281 801.140625 6.746094 803.003906 6.746094 C 804.867188 6.746094 806.554688 5.988281 807.773438 4.769531 C 808.996094 3.550781 809.75 1.863281 809.75 0 L 810.65625 0 C 810.65625 0.257812 810.640625 0.511719 810.617188 0.761719 C 813.863281 2.097656 824.125 5.183594 824.125 0 Z M 805.714844 0 C 805.714844 1.496094 804.5 2.710938 803.007812 2.710938 C 801.511719 2.710938 800.296875 1.496094 800.296875 0 Z M 837.15625 0 C 837.152344 18.859375 821.859375 34.152344 803.003906 34.152344 C 784.148438 34.152344 768.855469 18.855469 768.855469 0 L 766.761719 0 C 766.761719 20.015625 782.988281 36.246094 803.003906 36.246094 C 823.019531 36.246094 839.246094 20.015625 839.246094 0 L 837.152344 0 Z M 822.277344 64.75 C 823.214844 63.957031 823.335938 62.550781 822.542969 61.617188 C 821.753906 60.683594 820.34375 60.566406 819.410156 61.359375 C 818.46875 62.144531 818.359375 63.550781 819.144531 64.488281 C 819.933594 65.417969 821.339844 65.542969 822.277344 64.75 Z M 829.617188 73.511719 C 830.554688 72.71875 830.671875 71.3125 829.882812 70.378906 C 829.089844 69.445312 827.683594 69.328125 826.75 70.117188 C 825.8125 70.90625 825.699219 72.3125 826.484375 73.25 C 827.277344 74.179688 828.683594 74.304688 829.617188 73.511719 Z M 837.953125 79.515625 C 838.894531 78.726562 839.011719 77.320312 838.21875 76.386719 C 837.429688 75.449219 836.023438 75.332031 835.085938 76.125 C 834.148438 76.910156 834.035156 78.316406 834.824219 79.253906 C 835.613281 80.1875 837.019531 80.308594 837.953125 79.515625 Z M 846.691406 84.566406 C 847.632812 83.773438 847.75 82.367188 846.957031 81.433594 C 846.167969 80.496094 844.761719 80.378906 843.828125 81.171875 C 842.886719 81.960938 842.773438 83.363281 843.5625 84.304688 C 844.351562 85.234375 845.757812 85.355469 846.691406 84.566406 Z M 854.894531 89.6875 C 855.835938 88.894531 855.953125 87.488281 855.164062 86.554688 C 854.371094 85.621094 852.964844 85.503906 852.027344 86.292969 C 851.089844 87.082031 850.976562 88.488281 851.765625 89.429688 C 852.554688 90.355469 853.960938 90.480469 854.894531 89.6875 Z M 850.574219 49.574219 C 851.605469 65.371094 837.996094 59.191406 850.574219 49.574219 Z M 834.292969 52.023438 C 819.988281 57.191406 830.671875 66.796875 834.292969 52.023438 Z M 759.089844 27.917969 C 760.152344 27.304688 760.515625 25.945312 759.902344 24.882812 C 759.289062 23.820312 757.929688 23.457031 756.871094 24.070312 C 755.804688 24.683594 755.441406 26.042969 756.054688 27.105469 C 756.667969 28.167969 758.027344 28.53125 759.089844 27.917969 Z M 767.8125 38.335938 C 768.679688 37.46875 768.679688 36.058594 767.8125 35.191406 C 766.945312 34.324219 765.539062 34.324219 764.671875 35.191406 C 763.800781 36.058594 763.804688 37.464844 764.671875 38.335938 C 765.539062 39.203125 766.945312 39.199219 767.8125 38.335938 Z M 778.933594 46.136719 C 779.546875 45.074219 779.183594 43.714844 778.121094 43.101562 C 777.058594 42.488281 775.699219 42.851562 775.085938 43.914062 C 774.472656 44.976562 774.835938 46.335938 775.898438 46.949219 C 776.960938 47.5625 778.320312 47.199219 778.933594 46.136719 Z M 791.695312 50.796875 C 792.011719 49.609375 791.308594 48.390625 790.125 48.074219 C 788.9375 47.753906 787.722656 48.460938 787.402344 49.644531 C 787.085938 50.828125 787.789062 52.046875 788.972656 52.367188 C 790.160156 52.683594 791.375 51.980469 791.695312 50.796875 Z M 805.226562 51.992188 C 805.226562 50.761719 804.230469 49.769531 803.003906 49.769531 C 801.777344 49.769531 800.785156 50.765625 800.785156 51.988281 C 800.78125 53.21875 801.777344 54.210938 803.003906 54.210938 C 804.234375 54.214844 805.226562 53.21875 805.226562 51.992188 Z M 818.609375 49.644531 C 818.289062 48.457031 817.070312 47.757812 815.886719 48.074219 C 814.699219 48.390625 814 49.609375 814.316406 50.792969 C 814.632812 51.980469 815.851562 52.679688 817.035156 52.367188 C 818.222656 52.046875 818.921875 50.828125 818.609375 49.644531 Z M 837.246094 36.164062 C 833.957031 51.671875 822.511719 42.023438 837.246094 36.164062 Z M 810.316406 2.265625 C 810.371094 2.078125 810.421875 1.890625 810.464844 1.699219 C 811.257812 2.050781 812.011719 2.351562 812.738281 2.609375 C 811.980469 2.472656 811.171875 2.355469 810.316406 2.265625 Z M 809.21875 4.464844 L 809.390625 4.210938 L 814.296875 7.046875 L 814.75 6.265625 L 809.84375 3.429688 L 809.976562 3.152344 C 813.414062 3.621094 823.859375 6.121094 821.296875 10.566406 C 818.734375 15.007812 811.339844 7.203125 809.21875 4.464844 Z M 808.199219 5.617188 L 808.414062 5.410156 L 808.617188 5.199219 C 809.125 5.898438 809.632812 6.542969 810.132812 7.128906 C 809.542969 6.628906 808.902344 6.125 808.199219 5.617188 Z M 806.15625 6.972656 L 806.429688 6.839844 L 809.265625 11.75 L 810.046875 11.296875 L 807.210938 6.390625 L 807.464844 6.214844 C 810.203125 8.339844 818.007812 15.734375 813.566406 18.292969 C 809.121094 20.859375 806.621094 10.40625 806.15625 6.972656 Z M 804.699219 7.460938 C 804.890625 7.417969 805.082031 7.367188 805.265625 7.308594 C 805.359375 8.171875 805.472656 8.984375 805.613281 9.746094 C 805.355469 9.015625 805.050781 8.253906 804.699219 7.460938 Z M 802.246094 7.613281 L 802.550781 7.636719 L 802.550781 13.304688 L 803.457031 13.304688 L 803.457031 7.636719 L 803.761719 7.613281 C 805.074219 10.824219 808.136719 21.125 803.003906 21.125 C 797.871094 21.125 800.933594 10.824219 802.246094 7.613281 Z M 800.742188 7.308594 C 800.929688 7.367188 801.121094 7.417969 801.3125 7.460938 C 800.960938 8.253906 800.65625 9.007812 800.398438 9.734375 C 800.535156 8.976562 800.652344 8.167969 800.742188 7.308594 Z M 798.542969 6.214844 L 798.796875 6.390625 L 795.964844 11.296875 L 796.746094 11.75 L 799.578125 6.839844 L 799.855469 6.972656 C 799.386719 10.40625 796.890625 20.859375 792.445312 18.292969 C 788 15.730469 795.804688 8.335938 798.542969 6.214844 Z M 797.394531 5.199219 L 797.597656 5.410156 L 797.8125 5.613281 C 797.109375 6.125 796.464844 6.628906 795.878906 7.132812 C 796.378906 6.542969 796.882812 5.898438 797.394531 5.199219 Z M 796.035156 3.152344 L 796.167969 3.429688 L 791.257812 6.265625 L 791.710938 7.046875 L 796.621094 4.210938 L 796.792969 4.460938 C 794.671875 7.199219 787.273438 15.007812 784.710938 10.566406 C 782.148438 6.117188 792.601562 3.621094 796.035156 3.152344 Z M 795.546875 1.699219 C 795.589844 1.890625 795.640625 2.078125 795.695312 2.265625 C 794.84375 2.355469 794.039062 2.46875 793.285156 2.609375 C 794.007812 2.351562 794.757812 2.046875 795.546875 1.699219 Z M 229.867188 0 C 229.867188 5.769531 230.980469 11.28125 233.003906 16.332031 C 231.199219 25.480469 222.558594 30.25 216.175781 35.910156 C 209.792969 30.25 201.152344 25.480469 199.347656 16.332031 C 201.371094 11.28125 202.484375 5.769531 202.484375 0 L 200.390625 0 C 200.390625 23.117188 181.644531 41.855469 158.53125 41.855469 C 135.417969 41.855469 116.675781 23.113281 116.675781 0 L 114.582031 0 C 114.582031 24.273438 134.257812 43.949219 158.53125 43.949219 C 165.230469 43.949219 171.574219 42.453125 177.257812 39.773438 C 178 42.769531 179.628906 45.273438 182.015625 47.242188 C 184.648438 49.417969 188.007812 50.59375 191.421875 50.097656 C 191.492188 56.597656 199.8125 63.226562 207.132812 69.058594 C 210.914062 72.066406 214.414062 74.855469 216.175781 77.09375 C 217.9375 74.855469 221.4375 72.066406 225.21875 69.058594 C 232.539062 63.226562 240.859375 56.597656 240.929688 50.097656 C 244.347656 50.59375 247.703125 49.417969 250.335938 47.242188 C 252.722656 45.273438 254.355469 42.769531 255.097656 39.773438 C 260.777344 42.453125 267.125 43.949219 273.820312 43.949219 C 298.09375 43.949219 317.769531 24.273438 317.769531 0 L 315.675781 0 C 315.675781 23.113281 296.9375 41.855469 273.820312 41.855469 C 250.707031 41.855469 231.964844 23.117188 231.960938 0 Z M 216.175781 38.796875 C 222.316406 32.101562 230.757812 29.378906 234.339844 19.332031 C 235.824219 22.363281 237.652344 25.199219 239.765625 27.789062 C 237.644531 37.070312 222.851562 45.109375 216.175781 52.277344 C 209.5 45.109375 194.707031 37.070312 192.585938 27.789062 C 194.699219 25.199219 196.527344 22.363281 198.011719 19.332031 C 201.59375 29.378906 210.035156 32.101562 216.175781 38.796875 Z M 216.175781 55.53125 C 222.289062 46.765625 237.453125 40.949219 241.390625 29.667969 C 244.753906 33.347656 248.75 36.449219 253.148438 38.796875 C 252.777344 41.417969 251.019531 43.976562 249.011719 45.628906 C 245.4375 48.585938 242.539062 48.480469 238.410156 47.3125 C 240.164062 56.253906 229.980469 62.59375 223.917969 67.421875 C 220.984375 69.757812 218.207031 71.96875 216.175781 74.019531 C 214.144531 71.96875 211.367188 69.757812 208.433594 67.421875 C 202.371094 62.59375 192.1875 56.253906 193.941406 47.3125 C 189.8125 48.480469 186.917969 48.585938 183.339844 45.628906 C 181.332031 43.976562 179.574219 41.417969 179.203125 38.796875 C 183.601562 36.449219 187.597656 33.347656 190.960938 29.667969 C 194.898438 40.949219 210.0625 46.765625 216.175781 55.53125 Z M 216.175781 69.175781 C 218.191406 69.175781 220.207031 65.402344 216.175781 57.851562 C 212.148438 65.402344 214.160156 69.175781 216.175781 69.175781 Z M 216.175781 95.671875 C 217.230469 95.671875 218.171875 94.914062 218.363281 93.84375 C 218.605469 92.472656 217.546875 91.226562 216.175781 91.226562 C 214.804688 91.226562 213.746094 92.472656 213.988281 93.84375 C 214.179688 94.914062 215.121094 95.671875 216.175781 95.671875 Z M 324.699219 19.273438 C 323.636719 19.886719 322.277344 19.523438 321.664062 18.460938 C 321.050781 17.398438 321.414062 16.039062 322.476562 15.425781 C 323.539062 14.8125 324.898438 15.175781 325.511719 16.238281 C 326.125 17.300781 325.761719 18.660156 324.699219 19.273438 Z M 251.792969 0 C 251.792969 3.855469 257.410156 4.125 260.253906 3.636719 C 257.667969 4.601562 252.804688 7.644531 254.746094 11.011719 C 256.695312 14.390625 261.773438 11.683594 263.902344 9.917969 C 262.136719 12.050781 259.433594 17.125 262.808594 19.074219 C 266.183594 21.023438 269.234375 16.132812 270.191406 13.539062 C 269.730469 16.265625 269.921875 22.027344 273.820312 22.027344 C 277.714844 22.027344 277.910156 16.273438 277.449219 13.550781 C 278.410156 16.144531 281.457031 21.019531 284.828125 19.074219 C 288.207031 17.125 285.5 12.046875 283.734375 9.917969 C 285.863281 11.683594 290.941406 14.390625 292.890625 11.011719 C 294.832031 7.648438 289.976562 4.605469 287.386719 3.640625 C 290.144531 4.105469 295.84375 3.894531 295.84375 0 L 294.9375 0 C 294.9375 5.191406 284.773438 2.15625 281.429688 0.765625 C 281.453125 0.511719 281.46875 0.257812 281.46875 0 L 280.5625 0 C 280.5625 1.863281 279.808594 3.550781 278.589844 4.769531 C 277.371094 5.988281 275.683594 6.746094 273.820312 6.746094 C 271.953125 6.746094 270.265625 5.988281 269.046875 4.769531 C 267.828125 3.550781 267.074219 1.863281 267.074219 0 L 266.167969 0 C 266.167969 0.257812 266.183594 0.511719 266.207031 0.761719 C 262.960938 2.097656 252.699219 5.183594 252.699219 0 Z M 271.109375 0 C 271.109375 1.496094 272.324219 2.710938 273.816406 2.710938 C 275.3125 2.710938 276.527344 1.496094 276.527344 0 Z M 239.667969 0 C 239.671875 18.859375 254.964844 34.152344 273.820312 34.152344 C 292.675781 34.152344 307.96875 18.855469 307.96875 0 L 310.0625 0 C 310.0625 20.015625 293.835938 36.246094 273.820312 36.246094 C 253.804688 36.246094 237.578125 20.015625 237.574219 0 Z M 254.546875 64.75 C 253.605469 63.957031 253.488281 62.550781 254.28125 61.617188 C 255.070312 60.683594 256.480469 60.566406 257.414062 61.355469 C 258.351562 62.144531 258.464844 63.550781 257.679688 64.488281 C 256.886719 65.417969 255.480469 65.539062 254.546875 64.75 Z M 247.207031 73.511719 C 246.265625 72.71875 246.152344 71.3125 246.941406 70.378906 C 247.734375 69.445312 249.140625 69.328125 250.074219 70.117188 C 251.011719 70.90625 251.125 72.3125 250.339844 73.25 C 249.546875 74.179688 248.140625 74.304688 247.207031 73.511719 Z M 238.871094 79.515625 C 237.929688 78.726562 237.8125 77.320312 238.605469 76.386719 C 239.394531 75.449219 240.800781 75.332031 241.738281 76.125 C 242.675781 76.910156 242.789062 78.316406 242 79.253906 C 241.210938 80.1875 239.804688 80.308594 238.871094 79.515625 Z M 230.132812 84.566406 C 229.191406 83.773438 229.074219 82.367188 229.863281 81.433594 C 230.65625 80.496094 232.0625 80.378906 232.996094 81.171875 C 233.9375 81.960938 234.050781 83.363281 233.261719 84.304688 C 232.472656 85.234375 231.066406 85.355469 230.132812 84.566406 Z M 221.925781 89.6875 C 220.988281 88.894531 220.871094 87.488281 221.660156 86.554688 C 222.453125 85.621094 223.859375 85.503906 224.792969 86.292969 C 225.734375 87.082031 225.847656 88.488281 225.058594 89.425781 C 224.269531 90.355469 222.863281 90.480469 221.925781 89.6875 Z M 226.25 49.574219 C 225.21875 65.371094 238.828125 59.191406 226.25 49.574219 Z M 242.53125 52.019531 C 256.835938 57.191406 246.152344 66.796875 242.53125 52.019531 Z M 317.734375 27.917969 C 316.671875 27.304688 316.308594 25.945312 316.921875 24.882812 C 317.535156 23.820312 318.894531 23.457031 319.953125 24.070312 C 321.019531 24.683594 321.382812 26.042969 320.769531 27.105469 C 320.15625 28.167969 318.796875 28.53125 317.734375 27.917969 Z M 309.011719 38.335938 C 308.144531 37.464844 308.144531 36.058594 309.011719 35.191406 C 309.878906 34.324219 311.285156 34.324219 312.152344 35.191406 C 313.019531 36.058594 313.019531 37.464844 312.152344 38.335938 C 311.285156 39.203125 309.878906 39.199219 309.011719 38.335938 Z M 297.890625 46.136719 C 297.277344 45.074219 297.640625 43.714844 298.703125 43.101562 C 299.765625 42.488281 301.125 42.851562 301.738281 43.914062 C 302.351562 44.976562 301.988281 46.335938 300.925781 46.949219 C 299.863281 47.5625 298.503906 47.199219 297.890625 46.136719 Z M 285.128906 50.796875 C 284.8125 49.609375 285.515625 48.390625 286.699219 48.074219 C 287.886719 47.753906 289.101562 48.460938 289.421875 49.644531 C 289.738281 50.828125 289.035156 52.046875 287.851562 52.367188 C 286.664062 52.683594 285.449219 51.980469 285.128906 50.796875 Z M 271.597656 51.992188 C 271.597656 50.761719 272.59375 49.769531 273.820312 49.769531 C 275.046875 49.769531 276.039062 50.765625 276.039062 51.988281 C 276.042969 53.21875 275.046875 54.210938 273.820312 54.210938 C 272.589844 54.214844 271.597656 53.21875 271.597656 51.992188 Z M 258.214844 49.644531 C 258.535156 48.457031 259.753906 47.753906 260.9375 48.074219 C 262.125 48.390625 262.824219 49.609375 262.507812 50.792969 C 262.191406 51.980469 260.972656 52.679688 259.789062 52.367188 C 258.601562 52.046875 257.902344 50.828125 258.214844 49.644531 Z M 239.574219 36.164062 C 242.867188 51.671875 254.308594 42.023438 239.574219 36.164062 Z M 266.507812 2.265625 C 266.449219 2.078125 266.402344 1.890625 266.355469 1.699219 C 265.566406 2.046875 264.8125 2.351562 264.085938 2.609375 C 264.84375 2.472656 265.652344 2.355469 266.507812 2.265625 Z M 267.605469 4.464844 L 267.433594 4.210938 L 262.527344 7.046875 L 262.074219 6.265625 L 266.980469 3.429688 L 266.847656 3.152344 C 263.410156 3.621094 252.964844 6.121094 255.527344 10.5625 C 258.089844 15.007812 265.484375 7.203125 267.605469 4.464844 Z M 268.625 5.613281 L 268.410156 5.410156 L 268.207031 5.199219 C 267.699219 5.898438 267.191406 6.542969 266.691406 7.128906 C 267.28125 6.628906 267.921875 6.125 268.625 5.613281 Z M 270.667969 6.972656 L 270.394531 6.839844 L 267.558594 11.75 L 266.777344 11.296875 L 269.613281 6.390625 L 269.359375 6.214844 C 266.621094 8.339844 258.816406 15.734375 263.257812 18.292969 C 267.703125 20.859375 270.203125 10.40625 270.667969 6.972656 Z M 272.125 7.460938 C 271.933594 7.417969 271.742188 7.367188 271.558594 7.308594 C 271.464844 8.171875 271.347656 8.984375 271.210938 9.742188 C 271.46875 9.015625 271.773438 8.253906 272.125 7.460938 Z M 274.574219 7.613281 L 274.269531 7.636719 L 274.269531 13.304688 L 273.367188 13.304688 L 273.367188 7.636719 L 273.0625 7.613281 C 271.75 10.824219 268.6875 21.125 273.820312 21.125 C 278.953125 21.125 275.890625 10.824219 274.578125 7.613281 Z M 276.078125 7.308594 C 275.894531 7.367188 275.703125 7.417969 275.511719 7.460938 C 275.863281 8.253906 276.167969 9.007812 276.425781 9.734375 C 276.285156 8.976562 276.171875 8.167969 276.082031 7.308594 Z M 278.277344 6.214844 L 278.027344 6.390625 L 280.859375 11.296875 L 280.078125 11.75 L 277.246094 6.839844 L 276.96875 6.972656 C 277.4375 10.40625 279.933594 20.859375 284.378906 18.292969 C 288.824219 15.730469 281.019531 8.335938 278.277344 6.214844 Z M 279.429688 5.195312 L 279.226562 5.410156 L 279.011719 5.613281 C 279.714844 6.125 280.359375 6.628906 280.945312 7.128906 C 280.445312 6.542969 279.941406 5.898438 279.429688 5.195312 Z M 280.789062 3.152344 L 280.65625 3.429688 L 285.566406 6.265625 L 285.113281 7.046875 L 280.203125 4.210938 L 280.03125 4.460938 C 282.152344 7.199219 289.550781 15.007812 292.109375 10.5625 C 294.675781 6.117188 284.222656 3.621094 280.789062 3.152344 Z M 281.277344 1.699219 C 281.234375 1.890625 281.183594 2.078125 281.125 2.265625 C 281.980469 2.355469 282.785156 2.46875 283.539062 2.609375 C 282.816406 2.351562 282.0625 2.046875 281.277344 1.699219 Z M 395.382812 0 C 395.382812 3.855469 389.765625 4.125 386.921875 3.636719 C 389.507812 4.601562 394.371094 7.644531 392.429688 11.011719 C 390.480469 14.390625 385.402344 11.683594 383.273438 9.917969 C 385.039062 12.050781 387.742188 17.125 384.367188 19.074219 C 380.988281 21.023438 377.941406 16.132812 376.980469 13.539062 C 377.445312 16.261719 377.253906 22.027344 373.355469 22.027344 C 369.460938 22.027344 369.265625 16.273438 369.726562 13.550781 C 368.765625 16.140625 365.71875 21.019531 362.347656 19.074219 C 358.96875 17.125 361.675781 12.046875 363.441406 9.917969 C 361.3125 11.683594 356.234375 14.390625 354.285156 11.011719 C 352.34375 7.648438 357.199219 4.605469 359.785156 3.640625 C 357.03125 4.105469 351.332031 3.894531 351.332031 0 L 352.238281 0 C 352.238281 5.191406 362.402344 2.15625 365.746094 0.765625 C 365.722656 0.511719 365.707031 0.257812 365.707031 0 L 366.613281 0 C 366.613281 1.863281 367.367188 3.550781 368.585938 4.769531 C 369.804688 5.988281 371.492188 6.746094 373.359375 6.746094 C 375.21875 6.746094 376.910156 5.988281 378.128906 4.769531 C 379.347656 3.550781 380.101562 1.863281 380.101562 0 L 381.007812 0 C 381.007812 0.257812 380.992188 0.511719 380.96875 0.761719 C 384.214844 2.097656 394.476562 5.179688 394.476562 0 Z M 376.066406 0 C 376.066406 1.496094 374.851562 2.710938 373.359375 2.710938 C 371.863281 2.710938 370.648438 1.496094 370.648438 0 Z M 407.503906 0 C 407.503906 18.859375 392.210938 34.152344 373.355469 34.152344 C 354.5 34.152344 339.207031 18.855469 339.207031 0 L 337.113281 0 C 337.113281 20.015625 353.339844 36.242188 373.355469 36.242188 C 393.371094 36.242188 409.597656 20.015625 409.597656 0 Z M 392.628906 64.75 C 393.570312 63.957031 393.6875 62.550781 392.894531 61.617188 C 392.105469 60.683594 390.695312 60.5625 389.761719 61.355469 C 388.824219 62.144531 388.710938 63.550781 389.496094 64.488281 C 390.285156 65.417969 391.695312 65.539062 392.628906 64.75 Z M 399.96875 73.511719 C 400.90625 72.71875 401.023438 71.3125 400.234375 70.378906 C 399.441406 69.445312 398.035156 69.328125 397.101562 70.117188 C 396.164062 70.902344 396.050781 72.3125 396.835938 73.25 C 397.628906 74.179688 399.035156 74.304688 399.96875 73.511719 Z M 408.304688 79.515625 C 409.246094 78.726562 409.363281 77.320312 408.570312 76.386719 C 407.78125 75.449219 406.375 75.332031 405.4375 76.125 C 404.5 76.910156 404.386719 78.316406 405.175781 79.253906 C 405.964844 80.1875 407.371094 80.308594 408.304688 79.515625 Z M 417.042969 84.566406 C 417.984375 83.773438 418.101562 82.367188 417.3125 81.433594 C 416.519531 80.496094 415.113281 80.378906 414.179688 81.171875 C 413.238281 81.960938 413.125 83.363281 413.914062 84.304688 C 414.703125 85.234375 416.109375 85.355469 417.042969 84.566406 Z M 425.25 89.6875 C 426.1875 88.894531 426.304688 87.488281 425.515625 86.554688 C 424.722656 85.621094 423.316406 85.503906 422.378906 86.292969 C 421.441406 87.082031 421.328125 88.488281 422.117188 89.425781 C 422.90625 90.355469 424.3125 90.480469 425.25 89.6875 Z M 420.925781 49.574219 C 421.957031 65.371094 408.347656 59.191406 420.925781 49.574219 Z M 404.644531 52.019531 C 390.339844 57.191406 401.023438 66.796875 404.644531 52.019531 Z M 329.441406 27.917969 C 330.503906 27.304688 330.867188 25.945312 330.253906 24.882812 C 329.640625 23.820312 328.28125 23.457031 327.21875 24.070312 C 326.15625 24.683594 325.792969 26.042969 326.40625 27.105469 C 327.019531 28.167969 328.378906 28.53125 329.441406 27.917969 Z M 338.164062 38.335938 C 339.03125 37.464844 339.03125 36.058594 338.164062 35.191406 C 337.296875 34.324219 335.890625 34.324219 335.023438 35.191406 C 334.152344 36.058594 334.15625 37.464844 335.023438 38.335938 C 335.890625 39.203125 337.296875 39.199219 338.164062 38.335938 Z M 349.285156 46.136719 C 349.898438 45.074219 349.535156 43.714844 348.472656 43.101562 C 347.410156 42.488281 346.050781 42.851562 345.4375 43.914062 C 344.824219 44.976562 345.1875 46.335938 346.25 46.949219 C 347.3125 47.5625 348.671875 47.199219 349.285156 46.136719 Z M 362.046875 50.792969 C 362.363281 49.609375 361.660156 48.390625 360.476562 48.070312 C 359.289062 47.753906 358.074219 48.460938 357.753906 49.640625 C 357.4375 50.828125 358.140625 52.046875 359.324219 52.363281 C 360.511719 52.683594 361.726562 51.976562 362.046875 50.792969 Z M 375.578125 51.992188 C 375.578125 50.761719 374.582031 49.769531 373.355469 49.769531 C 372.128906 49.769531 371.136719 50.765625 371.136719 51.988281 C 371.132812 53.21875 372.128906 54.210938 373.355469 54.210938 C 374.585938 54.214844 375.578125 53.21875 375.578125 51.992188 Z M 388.960938 49.644531 C 388.640625 48.457031 387.421875 47.753906 386.238281 48.070312 C 385.050781 48.390625 384.351562 49.609375 384.667969 50.792969 C 384.984375 51.980469 386.203125 52.679688 387.386719 52.363281 C 388.574219 52.046875 389.273438 50.828125 388.960938 49.644531 Z M 407.597656 36.164062 C 404.308594 51.671875 392.863281 42.023438 407.597656 36.164062 Z M 380.667969 2.265625 C 380.722656 2.078125 380.773438 1.890625 380.820312 1.695312 C 381.609375 2.046875 382.363281 2.351562 383.089844 2.609375 C 382.332031 2.472656 381.523438 2.355469 380.667969 2.265625 Z M 379.566406 4.464844 L 379.742188 4.210938 L 384.648438 7.046875 L 385.101562 6.265625 L 380.195312 3.429688 L 380.328125 3.152344 C 383.765625 3.621094 394.210938 6.121094 391.648438 10.5625 C 389.085938 15.007812 381.691406 7.203125 379.566406 4.464844 Z M 378.550781 5.613281 L 378.765625 5.410156 L 378.96875 5.199219 C 379.476562 5.898438 379.984375 6.542969 380.484375 7.128906 C 379.894531 6.628906 379.253906 6.125 378.550781 5.613281 Z M 376.507812 6.972656 L 376.78125 6.839844 L 379.617188 11.75 L 380.398438 11.296875 L 377.5625 6.390625 L 377.816406 6.214844 C 380.554688 8.339844 388.359375 15.734375 383.917969 18.292969 C 379.472656 20.859375 376.972656 10.40625 376.507812 6.972656 Z M 375.050781 7.460938 C 375.242188 7.417969 375.433594 7.367188 375.617188 7.308594 C 375.710938 8.171875 375.828125 8.984375 375.964844 9.742188 C 375.707031 9.015625 375.402344 8.253906 375.050781 7.460938 Z M 372.597656 7.613281 L 372.902344 7.636719 L 372.902344 13.304688 L 373.808594 13.304688 L 373.808594 7.636719 L 374.113281 7.613281 C 375.425781 10.824219 378.488281 21.125 373.355469 21.125 C 368.222656 21.125 371.285156 10.824219 372.597656 7.613281 Z M 371.09375 7.308594 C 371.28125 7.367188 371.472656 7.417969 371.664062 7.460938 C 371.3125 8.253906 371.007812 9.007812 370.75 9.734375 C 370.890625 8.976562 371.003906 8.167969 371.09375 7.308594 Z M 368.894531 6.214844 L 369.148438 6.390625 L 366.316406 11.296875 L 367.097656 11.75 L 369.929688 6.839844 L 370.207031 6.972656 C 369.738281 10.40625 367.242188 20.859375 362.796875 18.292969 C 358.351562 15.730469 366.15625 8.335938 368.894531 6.214844 Z M 367.746094 5.195312 L 367.949219 5.410156 L 368.164062 5.613281 C 367.460938 6.121094 366.816406 6.628906 366.230469 7.128906 C 366.730469 6.542969 367.234375 5.898438 367.746094 5.195312 Z M 366.386719 3.152344 L 366.519531 3.425781 L 361.609375 6.265625 L 362.0625 7.046875 L 366.972656 4.210938 L 367.144531 4.460938 C 365.023438 7.199219 357.625 15.007812 355.066406 10.5625 C 352.5 6.117188 362.953125 3.621094 366.386719 3.152344 Z M 365.898438 1.699219 C 365.941406 1.890625 365.992188 2.078125 366.050781 2.265625 C 365.195312 2.355469 364.390625 2.46875 363.636719 2.605469 C 364.359375 2.351562 365.109375 2.046875 365.898438 1.699219 Z M 1.351562 95.671875 L 1.351562 91.226562 C 2.722656 91.226562 3.78125 92.472656 3.539062 93.84375 C 3.347656 94.914062 2.40625 95.671875 1.351562 95.671875 Z M 1.351562 77.09375 L 1.351562 74.015625 C 3.382812 71.96875 6.160156 69.757812 9.09375 67.421875 C 15.15625 62.59375 25.339844 56.253906 23.585938 47.3125 C 27.714844 48.480469 30.613281 48.582031 34.1875 45.628906 C 36.195312 43.976562 37.953125 41.417969 38.324219 38.792969 C 33.925781 36.445312 29.929688 33.347656 26.566406 29.667969 C 22.628906 40.949219 7.464844 46.761719 1.351562 55.53125 L 1.351562 52.277344 C 8.027344 45.109375 22.820312 37.070312 24.941406 27.789062 C 22.828125 25.199219 21 22.363281 19.515625 19.332031 C 15.933594 29.375 7.492188 32.101562 1.351562 38.796875 L 1.351562 35.910156 C 7.734375 30.246094 16.375 25.480469 18.179688 16.328125 C 16.15625 11.28125 15.042969 5.769531 15.042969 0 L 17.136719 0 C 17.140625 23.117188 35.882812 41.855469 58.996094 41.855469 C 82.109375 41.855469 100.851562 23.113281 100.851562 0 L 102.945312 0 C 102.945312 24.273438 83.269531 43.949219 58.996094 43.949219 C 52.296875 43.949219 45.953125 42.449219 40.269531 39.773438 C 39.527344 42.769531 37.898438 45.273438 35.511719 47.242188 C 32.878906 49.414062 29.523438 50.59375 26.105469 50.09375 C 26.035156 56.59375 17.714844 63.226562 10.394531 69.054688 C 6.613281 72.066406 3.113281 74.855469 1.351562 77.09375 Z M 1.351562 69.175781 L 1.351562 57.851562 C 5.378906 65.402344 3.367188 69.175781 1.351562 69.175781 Z M 107.652344 19.273438 C 108.714844 19.886719 110.074219 19.523438 110.6875 18.460938 C 111.300781 17.398438 110.9375 16.039062 109.875 15.425781 C 108.8125 14.8125 107.453125 15.175781 106.839844 16.238281 C 106.226562 17.300781 106.589844 18.660156 107.652344 19.273438 Z M 180.558594 0 C 180.558594 3.855469 174.941406 4.121094 172.097656 3.636719 C 174.683594 4.601562 179.546875 7.644531 177.605469 11.011719 C 175.65625 14.390625 170.578125 11.683594 168.449219 9.917969 C 170.214844 12.046875 172.917969 17.125 169.542969 19.074219 C 166.167969 21.023438 163.117188 16.132812 162.15625 13.539062 C 162.621094 16.261719 162.429688 22.027344 158.53125 22.027344 C 154.636719 22.027344 154.441406 16.273438 154.902344 13.550781 C 153.941406 16.140625 150.894531 21.019531 147.523438 19.074219 C 144.144531 17.125 146.851562 12.046875 148.617188 9.917969 C 146.488281 11.683594 141.410156 14.390625 139.460938 11.011719 C 137.519531 7.648438 142.375 4.605469 144.960938 3.640625 C 142.207031 4.105469 136.507812 3.894531 136.507812 0 L 137.414062 0 C 137.414062 5.191406 147.578125 2.15625 150.921875 0.765625 C 150.898438 0.511719 150.882812 0.257812 150.882812 0 L 151.789062 0 C 151.789062 1.863281 152.542969 3.550781 153.761719 4.769531 C 154.980469 5.988281 156.667969 6.746094 158.53125 6.746094 C 160.394531 6.746094 162.085938 5.988281 163.304688 4.769531 C 164.523438 3.550781 165.277344 1.863281 165.277344 0 L 166.183594 0 C 166.183594 0.257812 166.167969 0.511719 166.144531 0.761719 C 169.390625 2.097656 179.652344 5.179688 179.652344 0 Z M 161.242188 0 C 161.242188 1.496094 160.027344 2.710938 158.535156 2.710938 C 157.039062 2.710938 155.824219 1.496094 155.824219 0 Z M 192.683594 0 C 192.679688 18.855469 177.386719 34.152344 158.53125 34.152344 C 139.675781 34.152344 124.382812 18.855469 124.382812 0 L 122.289062 0 C 122.289062 20.015625 138.515625 36.242188 158.53125 36.242188 C 178.546875 36.242188 194.773438 20.015625 194.773438 0 L 192.679688 0 Z M 177.804688 64.75 C 178.746094 63.957031 178.863281 62.550781 178.070312 61.617188 C 177.28125 60.683594 175.871094 60.5625 174.9375 61.355469 C 174 62.144531 173.886719 63.550781 174.671875 64.488281 C 175.464844 65.417969 176.871094 65.539062 177.804688 64.75 Z M 185.144531 73.511719 C 186.085938 72.71875 186.199219 71.3125 185.410156 70.378906 C 184.617188 69.445312 183.210938 69.328125 182.277344 70.117188 C 181.339844 70.902344 181.226562 72.308594 182.011719 73.25 C 182.804688 74.179688 184.210938 74.304688 185.144531 73.511719 Z M 193.480469 79.515625 C 194.421875 78.726562 194.539062 77.320312 193.746094 76.386719 C 192.957031 75.449219 191.550781 75.332031 190.613281 76.125 C 189.675781 76.910156 189.5625 78.316406 190.351562 79.253906 C 191.140625 80.183594 192.546875 80.308594 193.480469 79.515625 Z M 202.21875 84.566406 C 203.160156 83.773438 203.277344 82.367188 202.488281 81.433594 C 201.695312 80.496094 200.289062 80.378906 199.355469 81.171875 C 198.414062 81.960938 198.300781 83.363281 199.089844 84.304688 C 199.878906 85.234375 201.285156 85.355469 202.21875 84.566406 Z M 210.425781 89.6875 C 211.363281 88.894531 211.480469 87.488281 210.691406 86.554688 C 209.898438 85.621094 208.492188 85.503906 207.554688 86.292969 C 206.621094 87.082031 206.503906 88.488281 207.292969 89.425781 C 208.082031 90.355469 209.488281 90.480469 210.425781 89.6875 Z M 206.101562 49.574219 C 207.132812 65.371094 193.523438 59.191406 206.101562 49.574219 Z M 189.820312 52.019531 C 175.515625 57.191406 186.199219 66.792969 189.820312 52.019531 Z M 114.617188 27.917969 C 115.679688 27.304688 116.042969 25.945312 115.429688 24.882812 C 114.816406 23.820312 113.457031 23.457031 112.398438 24.070312 C 111.332031 24.683594 110.96875 26.042969 111.582031 27.105469 C 112.195312 28.167969 113.554688 28.53125 114.617188 27.917969 Z M 123.339844 38.332031 C 124.207031 37.464844 124.207031 36.058594 123.339844 35.191406 C 122.472656 34.324219 121.066406 34.324219 120.199219 35.191406 C 119.328125 36.058594 119.332031 37.464844 120.199219 38.332031 C 121.066406 39.203125 122.472656 39.199219 123.339844 38.332031 Z M 134.460938 46.136719 C 135.074219 45.074219 134.710938 43.714844 133.648438 43.101562 C 132.585938 42.488281 131.226562 42.851562 130.613281 43.914062 C 130 44.976562 130.363281 46.335938 131.425781 46.949219 C 132.488281 47.5625 133.847656 47.199219 134.460938 46.136719 Z M 147.222656 50.792969 C 147.539062 49.609375 146.835938 48.390625 145.652344 48.070312 C 144.464844 47.753906 143.25 48.460938 142.929688 49.640625 C 142.613281 50.828125 143.316406 52.046875 144.5 52.363281 C 145.6875 52.683594 146.902344 51.976562 147.222656 50.792969 Z M 160.753906 51.992188 C 160.753906 50.761719 159.757812 49.769531 158.53125 49.769531 C 157.304688 49.769531 156.3125 50.765625 156.3125 51.988281 C 156.308594 53.21875 157.304688 54.210938 158.53125 54.210938 C 159.761719 54.214844 160.753906 53.21875 160.753906 51.992188 Z M 174.136719 49.644531 C 173.816406 48.457031 172.597656 47.753906 171.414062 48.070312 C 170.226562 48.390625 169.527344 49.609375 169.84375 50.792969 C 170.160156 51.980469 171.378906 52.679688 172.5625 52.363281 C 173.75 52.046875 174.449219 50.828125 174.136719 49.644531 Z M 192.777344 36.164062 C 189.484375 51.671875 178.039062 42.019531 192.777344 36.164062 Z M 165.84375 2.265625 C 165.902344 2.078125 165.949219 1.890625 165.996094 1.695312 C 166.785156 2.046875 167.539062 2.351562 168.265625 2.609375 C 167.507812 2.472656 166.699219 2.355469 165.84375 2.265625 Z M 164.746094 4.464844 L 164.917969 4.210938 L 169.824219 7.042969 L 170.277344 6.265625 L 165.371094 3.429688 L 165.503906 3.152344 C 168.941406 3.621094 179.386719 6.121094 176.824219 10.5625 C 174.261719 15.007812 166.867188 7.203125 164.746094 4.464844 Z M 163.726562 5.613281 L 163.941406 5.410156 L 164.144531 5.199219 C 164.652344 5.898438 165.160156 6.542969 165.660156 7.128906 C 165.070312 6.628906 164.429688 6.125 163.726562 5.613281 Z M 161.683594 6.972656 L 161.957031 6.839844 L 164.792969 11.75 L 165.574219 11.296875 L 162.738281 6.390625 L 162.992188 6.214844 C 165.730469 8.339844 173.535156 15.734375 169.09375 18.292969 C 164.648438 20.859375 162.148438 10.40625 161.683594 6.972656 Z M 160.226562 7.460938 C 160.417969 7.417969 160.609375 7.367188 160.792969 7.308594 C 160.886719 8.171875 161.003906 8.984375 161.140625 9.742188 C 160.882812 9.015625 160.578125 8.253906 160.226562 7.460938 Z M 157.773438 7.613281 L 158.082031 7.636719 L 158.082031 13.304688 L 158.984375 13.304688 L 158.984375 7.636719 L 159.289062 7.613281 C 160.601562 10.824219 163.664062 21.125 158.53125 21.125 C 153.398438 21.125 156.460938 10.824219 157.773438 7.613281 Z M 156.269531 7.308594 C 156.457031 7.367188 156.648438 7.417969 156.839844 7.460938 C 156.488281 8.25 156.183594 9.007812 155.925781 9.734375 C 156.066406 8.976562 156.179688 8.167969 156.269531 7.308594 Z M 154.070312 6.214844 L 154.324219 6.386719 L 151.492188 11.296875 L 152.273438 11.75 L 155.105469 6.839844 L 155.382812 6.972656 C 154.914062 10.40625 152.417969 20.855469 147.972656 18.292969 C 143.527344 15.730469 151.332031 8.335938 154.074219 6.214844 Z M 152.921875 5.195312 L 153.125 5.40625 L 153.339844 5.613281 C 152.636719 6.121094 151.992188 6.628906 151.40625 7.128906 C 151.90625 6.542969 152.410156 5.898438 152.921875 5.195312 Z M 151.5625 3.152344 L 151.695312 3.425781 L 146.785156 6.265625 L 147.238281 7.042969 L 152.148438 4.210938 L 152.320312 4.460938 C 150.199219 7.199219 142.800781 15.007812 140.242188 10.5625 C 137.675781 6.117188 148.128906 3.621094 151.5625 3.152344 Z M 151.074219 1.699219 C 151.117188 1.890625 151.167969 2.078125 151.226562 2.265625 C 150.371094 2.355469 149.566406 2.46875 148.8125 2.605469 C 149.535156 2.351562 150.289062 2.046875 151.074219 1.699219 Z M 36.96875 0 C 36.96875 3.855469 42.585938 4.121094 45.433594 3.636719 C 42.84375 4.601562 37.980469 7.644531 39.921875 11.011719 C 41.871094 14.390625 46.949219 11.683594 49.078125 9.917969 C 47.3125 12.046875 44.609375 17.125 47.984375 19.074219 C 51.363281 21.023438 54.410156 16.132812 55.371094 13.539062 C 54.90625 16.261719 55.097656 22.027344 58.996094 22.027344 C 62.890625 22.027344 63.085938 16.273438 62.625 13.550781 C 63.585938 16.140625 66.632812 21.019531 70.003906 19.074219 C 73.382812 17.125 70.675781 12.046875 68.910156 9.917969 C 71.039062 11.683594 76.117188 14.390625 78.066406 11.011719 C 80.011719 7.644531 75.152344 4.601562 72.566406 3.640625 C 75.320312 4.105469 81.019531 3.894531 81.019531 0 L 80.113281 0 C 80.113281 5.191406 69.949219 2.15625 66.605469 0.765625 C 66.628906 0.511719 66.644531 0.257812 66.644531 0 L 65.738281 0 C 65.738281 1.863281 64.984375 3.550781 63.765625 4.769531 C 62.546875 5.988281 60.859375 6.746094 58.996094 6.746094 C 57.132812 6.746094 55.441406 5.988281 54.222656 4.769531 C 53.003906 3.550781 52.25 1.863281 52.25 0 L 51.34375 0 C 51.34375 0.257812 51.359375 0.511719 51.382812 0.761719 C 48.136719 2.097656 37.875 5.179688 37.875 0 Z M 56.285156 0 C 56.285156 1.496094 57.5 2.710938 58.992188 2.710938 C 60.488281 2.710938 61.703125 1.496094 61.703125 0 Z M 24.84375 0 C 24.847656 18.855469 40.140625 34.148438 58.996094 34.148438 C 77.851562 34.148438 93.144531 18.855469 93.144531 0 L 95.238281 0 C 95.238281 20.015625 79.011719 36.242188 58.996094 36.242188 C 38.980469 36.242188 22.753906 20.015625 22.753906 0 L 24.847656 0 Z M 39.722656 64.75 C 38.78125 63.957031 38.664062 62.550781 39.457031 61.617188 C 40.246094 60.683594 41.65625 60.5625 42.589844 61.355469 C 43.527344 62.144531 43.640625 63.550781 42.855469 64.488281 C 42.066406 65.417969 40.65625 65.539062 39.722656 64.75 Z M 32.382812 73.511719 C 31.441406 72.71875 31.328125 71.3125 32.117188 70.378906 C 32.910156 69.445312 34.316406 69.328125 35.25 70.117188 C 36.1875 70.902344 36.300781 72.308594 35.515625 73.25 C 34.722656 74.179688 33.316406 74.304688 32.382812 73.511719 Z M 24.046875 79.515625 C 23.105469 78.726562 22.988281 77.320312 23.78125 76.382812 C 24.570312 75.449219 25.976562 75.332031 26.914062 76.125 C 27.851562 76.90625 27.964844 78.316406 27.175781 79.253906 C 26.386719 80.183594 24.980469 80.308594 24.046875 79.515625 Z M 15.308594 84.566406 C 14.367188 83.773438 14.25 82.367188 15.039062 81.433594 C 15.832031 80.496094 17.238281 80.378906 18.171875 81.171875 C 19.113281 81.960938 19.226562 83.363281 18.4375 84.304688 C 17.648438 85.234375 16.242188 85.355469 15.308594 84.566406 Z M 7.101562 89.6875 C 6.164062 88.894531 6.046875 87.488281 6.835938 86.554688 C 7.628906 85.621094 9.035156 85.503906 9.972656 86.292969 C 10.910156 87.082031 11.023438 88.488281 10.234375 89.425781 C 9.445312 90.355469 8.039062 90.480469 7.101562 89.6875 Z M 11.425781 49.574219 C 10.394531 65.371094 24.003906 59.191406 11.425781 49.574219 Z M 27.707031 52.019531 C 42.011719 57.191406 31.328125 66.792969 27.707031 52.019531 Z M 102.910156 27.917969 C 101.847656 27.304688 101.484375 25.945312 102.097656 24.882812 C 102.710938 23.820312 104.070312 23.457031 105.132812 24.070312 C 106.195312 24.683594 106.558594 26.042969 105.945312 27.105469 C 105.328125 28.167969 103.972656 28.53125 102.910156 27.917969 Z M 94.1875 38.332031 C 93.320312 37.464844 93.320312 36.058594 94.1875 35.191406 C 95.054688 34.324219 96.460938 34.324219 97.328125 35.191406 C 98.195312 36.058594 98.195312 37.464844 97.328125 38.332031 C 96.460938 39.203125 95.054688 39.199219 94.1875 38.332031 Z M 83.066406 46.136719 C 82.453125 45.074219 82.816406 43.714844 83.878906 43.101562 C 84.941406 42.488281 86.300781 42.851562 86.914062 43.914062 C 87.527344 44.976562 87.164062 46.335938 86.101562 46.949219 C 85.039062 47.5625 83.679688 47.195312 83.066406 46.136719 Z M 70.304688 50.792969 C 69.988281 49.609375 70.691406 48.390625 71.875 48.070312 C 73.0625 47.753906 74.277344 48.457031 74.597656 49.640625 C 74.914062 50.828125 74.210938 52.046875 73.027344 52.363281 C 71.839844 52.683594 70.625 51.976562 70.304688 50.792969 Z M 56.773438 51.992188 C 56.773438 50.761719 57.769531 49.769531 58.996094 49.769531 C 60.222656 49.769531 61.214844 50.765625 61.214844 51.988281 C 61.214844 53.21875 60.222656 54.210938 58.996094 54.210938 C 57.765625 54.214844 56.773438 53.21875 56.773438 51.992188 Z M 43.390625 49.644531 C 43.710938 48.457031 44.929688 47.753906 46.113281 48.070312 C 47.300781 48.390625 48 49.609375 47.683594 50.792969 C 47.367188 51.980469 46.148438 52.679688 44.964844 52.363281 C 43.777344 52.046875 43.078125 50.828125 43.390625 49.644531 Z M 24.75 36.164062 C 28.042969 51.671875 39.488281 42.019531 24.75 36.164062 Z M 51.683594 2.265625 C 51.628906 2.078125 51.578125 1.890625 51.53125 1.695312 C 50.742188 2.046875 49.988281 2.351562 49.261719 2.609375 C 50.019531 2.472656 50.828125 2.355469 51.683594 2.265625 Z M 52.78125 4.464844 L 52.609375 4.210938 L 47.703125 7.042969 L 47.25 6.261719 L 52.15625 3.429688 L 52.023438 3.152344 C 48.585938 3.621094 38.140625 6.117188 40.703125 10.5625 C 43.265625 15.007812 50.660156 7.203125 52.78125 4.464844 Z M 53.800781 5.613281 L 53.585938 5.410156 L 53.382812 5.199219 C 52.875 5.898438 52.367188 6.542969 51.867188 7.128906 C 52.457031 6.628906 53.097656 6.125 53.800781 5.613281 Z M 55.84375 6.972656 L 55.570312 6.839844 L 52.734375 11.75 L 51.953125 11.296875 L 54.789062 6.390625 L 54.535156 6.214844 C 51.796875 8.339844 43.992188 15.734375 48.433594 18.292969 C 52.878906 20.859375 55.378906 10.40625 55.84375 6.972656 Z M 57.300781 7.460938 C 57.109375 7.417969 56.917969 7.367188 56.734375 7.308594 C 56.640625 8.171875 56.523438 8.984375 56.386719 9.742188 C 56.644531 9.015625 56.949219 8.253906 57.300781 7.460938 Z M 59.753906 7.613281 L 59.445312 7.636719 L 59.445312 13.304688 L 58.542969 13.304688 L 58.542969 7.636719 L 58.238281 7.613281 C 56.925781 10.824219 53.863281 21.125 58.996094 21.125 C 64.128906 21.125 61.066406 10.824219 59.753906 7.613281 Z M 61.257812 7.308594 C 61.070312 7.367188 60.878906 7.417969 60.6875 7.460938 C 61.039062 8.25 61.34375 9.007812 61.601562 9.734375 C 61.460938 8.976562 61.347656 8.167969 61.257812 7.308594 Z M 63.457031 6.214844 L 63.203125 6.386719 L 66.035156 11.296875 L 65.253906 11.75 L 62.421875 6.839844 L 62.144531 6.972656 C 62.613281 10.40625 65.109375 20.855469 69.554688 18.292969 C 74 15.730469 66.195312 8.335938 63.457031 6.214844 Z M 64.605469 5.195312 L 64.402344 5.40625 L 64.1875 5.613281 C 64.890625 6.121094 65.535156 6.628906 66.121094 7.128906 C 65.621094 6.542969 65.117188 5.898438 64.605469 5.195312 Z M 65.964844 3.152344 L 65.832031 3.425781 L 70.742188 6.261719 L 70.289062 7.042969 L 65.378906 4.210938 L 65.207031 4.460938 C 67.328125 7.199219 74.726562 15.007812 77.285156 10.5625 C 79.851562 6.117188 69.398438 3.621094 65.964844 3.152344 Z M 66.453125 1.699219 C 66.410156 1.890625 66.359375 2.078125 66.300781 2.265625 C 67.15625 2.355469 67.960938 2.46875 68.714844 2.605469 C 67.992188 2.351562 67.238281 2.046875 66.453125 1.699219 Z M 66.453125 1.699219 " fill-opacity="1" fill-rule="evenodd"/></svg>