<svg xmlns="http://www.w3.org/2000/svg" xmlns:xlink="http://www.w3.org/1999/xlink" width="1200" zoomAndPan="magnify" viewBox="0 0 900 37.5" height="50" preserveAspectRatio="xMidYMid meet" version="1.0"><defs><clipPath id="b02a8ec40d"><path d="M 466.457031 0.738281 L 894.078125 0.738281 L 894.078125 34.785156 L 466.457031 34.785156 Z M 466.457031 0.738281 " clip-rule="nonzero"/></clipPath><clipPath id="834a18c8ef"><path d="M 72.621094 0.738281 L 501.898438 0.738281 L 501.898438 34.785156 L 72.621094 34.785156 Z M 72.621094 0.738281 " clip-rule="nonzero"/></clipPath><clipPath id="fbf9446752"><path d="M 5.921875 0.738281 L 108 0.738281 L 108 34.785156 L 5.921875 34.785156 Z M 5.921875 0.738281 " clip-rule="nonzero"/></clipPath></defs><g clip-path="url(#b02a8ec40d)"><path fill="#e58f9e" d="M 474.296875 10.769531 C 474.25 10.121094 474.261719 9.480469 474.332031 8.855469 C 475.007812 11.726562 476.523438 14.167969 478.507812 15.804688 C 478.90625 16.132812 478.96875 16.714844 478.648438 17.117188 C 478.296875 17.558594 477.640625 17.589844 477.242188 17.1875 C 475.582031 15.53125 474.488281 13.292969 474.296875 10.769531 Z M 489.089844 17.1875 C 490.746094 15.53125 491.84375 13.292969 492.03125 10.769531 C 492.082031 10.121094 492.066406 9.480469 491.996094 8.855469 C 491.320312 11.726562 489.808594 14.167969 487.820312 15.804688 C 487.421875 16.132812 487.359375 16.714844 487.679688 17.117188 C 488.03125 17.558594 488.6875 17.589844 489.089844 17.1875 Z M 476.019531 23.199219 C 476.855469 23.625 477.875 23.238281 478.203125 22.359375 C 478.5 21.5625 478.101562 20.679688 477.308594 20.367188 C 473.339844 18.808594 469.703125 15.742188 467.167969 11.566406 C 467.375 12.585938 467.683594 13.601562 468.09375 14.597656 C 469.683594 18.472656 472.558594 21.4375 476.019531 23.199219 Z M 488.125 22.359375 C 488.453125 23.238281 489.472656 23.625 490.308594 23.199219 C 493.773438 21.4375 496.644531 18.472656 498.238281 14.597656 C 498.644531 13.601562 498.953125 12.585938 499.160156 11.566406 C 496.625 15.742188 492.988281 18.808594 489.023438 20.367188 C 488.230469 20.679688 487.828125 21.5625 488.128906 22.359375 Z M 483.164062 0.738281 C 478.542969 5.359375 478.542969 12.847656 483.164062 17.46875 C 487.785156 12.847656 487.785156 5.359375 483.164062 0.738281 Z M 518.375 9.652344 C 517.335938 8.121094 514.738281 8.121094 513.691406 9.652344 C 512.480469 11.429688 512.992188 15.789062 516.015625 19.363281 C 519.042969 15.773438 519.574219 11.425781 518.375 9.652344 Z M 512.886719 19.5 C 511.824219 16.546875 509.480469 14.785156 508.050781 14.886719 C 506.816406 14.976562 505.949219 16.480469 506.488281 17.597656 C 507.109375 18.894531 509.804688 20.058594 512.886719 19.5 Z M 525.566406 17.601562 C 526.105469 16.480469 525.234375 14.976562 524 14.886719 C 522.574219 14.785156 520.230469 16.546875 519.164062 19.503906 C 522.246094 20.058594 524.945312 18.894531 525.566406 17.601562 Z M 881.605469 27.398438 C 881.234375 27.089844 880.933594 26.71875 880.703125 26.3125 L 880.703125 22.996094 C 880.703125 22.097656 879.972656 21.371094 879.078125 21.371094 L 878.496094 21.371094 C 877.597656 21.371094 876.867188 22.097656 876.867188 22.996094 L 876.867188 26.644531 L 876.890625 26.644531 C 876.695312 26.917969 876.46875 27.175781 876.203125 27.394531 C 873.417969 29.707031 868.773438 32.464844 862.476562 32.484375 L 862.410156 32.484375 C 855.753906 32.484375 850.914062 29.300781 848.617188 27.394531 C 848.300781 27.132812 848.035156 26.824219 847.820312 26.484375 L 847.820312 22.996094 C 847.820312 22.097656 847.089844 21.371094 846.191406 21.371094 L 845.609375 21.371094 C 844.710938 21.371094 843.984375 22.097656 843.984375 22.996094 L 843.984375 26.515625 C 843.773438 26.84375 843.511719 27.140625 843.207031 27.394531 C 840.910156 29.300781 836.070312 32.484375 829.414062 32.484375 L 829.347656 32.484375 C 823.050781 32.464844 818.40625 29.707031 815.621094 27.394531 C 815.253906 27.09375 814.957031 26.726562 814.726562 26.320312 L 814.726562 22.996094 C 814.726562 22.097656 814 21.371094 813.101562 21.371094 L 812.519531 21.371094 C 811.621094 21.371094 810.894531 22.097656 810.894531 22.996094 L 810.894531 26.644531 L 810.917969 26.644531 C 810.722656 26.917969 810.496094 27.175781 810.230469 27.394531 C 807.441406 29.707031 802.800781 32.464844 796.5 32.484375 L 796.4375 32.484375 C 789.78125 32.484375 784.941406 29.300781 782.644531 27.394531 C 782.328125 27.132812 782.058594 26.824219 781.84375 26.480469 L 781.84375 22.996094 C 781.84375 22.097656 781.117188 21.367188 780.21875 21.367188 L 779.636719 21.367188 C 778.738281 21.367188 778.007812 22.097656 778.007812 22.996094 L 778.007812 26.515625 C 777.796875 26.84375 777.539062 27.140625 777.230469 27.394531 C 774.933594 29.296875 770.09375 32.484375 763.4375 32.484375 L 763.375 32.484375 C 757.074219 32.464844 752.433594 29.707031 749.644531 27.394531 C 749.28125 27.09375 748.980469 26.726562 748.753906 26.320312 L 748.753906 22.996094 C 748.753906 22.097656 748.023438 21.367188 747.125 21.367188 L 746.542969 21.367188 C 745.644531 21.367188 744.917969 22.097656 744.917969 22.996094 L 744.917969 26.644531 L 744.941406 26.644531 C 744.746094 26.917969 744.519531 27.175781 744.253906 27.394531 C 741.46875 29.707031 736.824219 32.464844 730.527344 32.484375 L 730.460938 32.484375 C 723.804688 32.484375 718.964844 29.296875 716.667969 27.394531 C 716.351562 27.132812 716.085938 26.824219 715.871094 26.480469 L 715.871094 22.996094 C 715.871094 22.097656 715.140625 21.367188 714.242188 21.367188 L 713.660156 21.367188 C 712.761719 21.367188 712.035156 22.097656 712.035156 22.996094 L 712.035156 26.515625 C 711.820312 26.84375 711.5625 27.140625 711.253906 27.394531 C 708.960938 29.296875 704.121094 32.484375 697.464844 32.484375 L 697.398438 32.484375 C 691.101562 32.464844 686.457031 29.707031 683.671875 27.394531 C 683.304688 27.09375 683.007812 26.726562 682.777344 26.320312 L 682.777344 22.996094 C 682.777344 22.097656 682.050781 21.367188 681.152344 21.367188 L 680.570312 21.367188 C 679.671875 21.367188 678.941406 22.097656 678.941406 22.996094 L 678.941406 26.644531 L 678.96875 26.644531 C 678.773438 26.917969 678.546875 27.175781 678.277344 27.394531 C 675.492188 29.707031 670.851562 32.464844 664.550781 32.484375 L 664.488281 32.484375 C 657.832031 32.484375 652.992188 29.296875 650.695312 27.394531 C 650.375 27.132812 650.109375 26.824219 649.894531 26.480469 L 649.894531 22.996094 C 649.894531 22.097656 649.164062 21.367188 648.265625 21.367188 L 647.6875 21.367188 C 646.789062 21.367188 646.058594 22.097656 646.058594 22.996094 L 646.058594 26.511719 C 645.847656 26.839844 645.589844 27.140625 645.28125 27.394531 C 642.984375 29.296875 638.144531 32.484375 631.488281 32.484375 L 631.425781 32.484375 C 625.125 32.464844 620.480469 29.707031 617.695312 27.394531 C 617.328125 27.089844 617.03125 26.726562 616.804688 26.320312 L 616.804688 22.996094 C 616.804688 22.097656 616.074219 21.367188 615.175781 21.367188 L 614.59375 21.367188 C 613.695312 21.367188 612.96875 22.097656 612.96875 22.996094 L 612.96875 26.640625 L 612.992188 26.640625 C 612.796875 26.917969 612.570312 27.175781 612.304688 27.394531 C 609.519531 29.707031 604.875 32.464844 598.578125 32.484375 L 598.511719 32.484375 C 591.855469 32.484375 587.015625 29.296875 584.71875 27.394531 C 584.402344 27.132812 584.136719 26.824219 583.917969 26.480469 L 583.917969 22.996094 C 583.917969 22.097656 583.191406 21.367188 582.292969 21.367188 L 581.710938 21.367188 C 580.8125 21.367188 580.082031 22.097656 580.082031 22.996094 L 580.082031 26.511719 C 579.871094 26.839844 579.613281 27.140625 579.304688 27.394531 C 577.007812 29.296875 572.167969 32.484375 565.511719 32.484375 L 565.449219 32.484375 C 559.152344 32.464844 554.507812 29.707031 551.722656 27.394531 C 551.355469 27.089844 551.058594 26.726562 550.828125 26.320312 L 550.828125 22.996094 C 550.828125 22.097656 550.101562 21.367188 549.203125 21.367188 L 548.621094 21.367188 C 547.722656 21.367188 546.992188 22.097656 546.992188 22.996094 L 546.992188 26.640625 L 547.019531 26.640625 C 546.824219 26.917969 546.59375 27.175781 546.328125 27.394531 C 543.542969 29.707031 538.898438 32.464844 532.601562 32.484375 L 532.535156 32.484375 C 525.878906 32.484375 521.042969 29.296875 518.746094 27.394531 C 518.425781 27.132812 518.160156 26.824219 517.945312 26.480469 L 517.945312 22.996094 C 517.945312 22.097656 517.214844 21.367188 516.316406 21.367188 L 515.734375 21.367188 C 514.835938 21.367188 514.109375 22.097656 514.109375 22.996094 L 514.109375 26.511719 C 513.898438 26.839844 513.636719 27.140625 513.332031 27.394531 C 511.035156 29.296875 506.195312 32.484375 499.539062 32.484375 L 499.472656 32.484375 C 493.175781 32.464844 488.53125 29.703125 485.746094 27.394531 C 485.480469 27.171875 485.253906 26.917969 485.058594 26.640625 L 485.082031 26.640625 L 485.082031 22.996094 C 485.082031 22.097656 484.355469 21.367188 483.457031 21.367188 L 482.875 21.367188 C 481.976562 21.367188 481.246094 22.097656 481.246094 22.996094 L 481.246094 26.335938 C 481.019531 26.734375 480.722656 27.09375 480.359375 27.394531 C 478.0625 29.300781 473.226562 32.484375 466.570312 32.484375 L 466.570312 35.0625 C 474.03125 35.0625 479.445312 31.507812 482.003906 29.382812 C 482.402344 29.054688 482.75 28.679688 483.054688 28.277344 C 483.355469 28.679688 483.703125 29.050781 484.097656 29.378906 C 486.644531 31.492188 492.03125 35.042969 499.464844 35.066406 L 499.539062 35.066406 C 507.003906 35.066406 512.414062 31.507812 514.976562 29.382812 C 515.378906 29.046875 515.730469 28.667969 516.039062 28.257812 C 516.34375 28.667969 516.695312 29.046875 517.097656 29.382812 C 519.664062 31.507812 525.070312 35.066406 532.535156 35.066406 L 532.609375 35.066406 C 540.042969 35.042969 545.429688 31.492188 547.976562 29.378906 C 548.375 29.050781 548.722656 28.675781 549.023438 28.269531 C 549.328125 28.675781 549.675781 29.050781 550.074219 29.378906 C 552.621094 31.492188 558.003906 35.042969 565.441406 35.066406 L 565.511719 35.066406 C 572.976562 35.066406 578.386719 31.507812 580.953125 29.382812 C 581.355469 29.046875 581.707031 28.667969 582.011719 28.257812 C 582.316406 28.667969 582.667969 29.046875 583.074219 29.382812 C 585.636719 31.507812 591.046875 35.066406 598.511719 35.066406 L 598.582031 35.066406 C 606.019531 35.042969 611.402344 31.492188 613.953125 29.378906 C 614.347656 29.050781 614.695312 28.675781 615 28.269531 C 615.300781 28.675781 615.648438 29.050781 616.046875 29.378906 C 618.59375 31.492188 623.980469 35.042969 631.414062 35.066406 L 631.488281 35.066406 C 638.953125 35.066406 644.363281 31.507812 646.925781 29.382812 C 647.328125 29.046875 647.679688 28.667969 647.988281 28.257812 C 648.292969 28.667969 648.644531 29.046875 649.046875 29.382812 C 651.609375 31.507812 657.019531 35.066406 664.484375 35.066406 L 664.558594 35.066406 C 671.992188 35.042969 677.378906 31.492188 679.925781 29.378906 C 680.324219 29.050781 680.671875 28.675781 680.972656 28.269531 C 681.277344 28.675781 681.625 29.050781 682.023438 29.378906 C 684.570312 31.492188 689.953125 35.042969 697.390625 35.066406 L 697.460938 35.066406 C 704.925781 35.066406 710.335938 31.507812 712.898438 29.382812 C 713.304688 29.046875 713.65625 28.667969 713.960938 28.257812 C 714.265625 28.667969 714.617188 29.046875 715.019531 29.382812 C 717.585938 31.507812 722.996094 35.066406 730.457031 35.066406 L 730.53125 35.066406 C 737.96875 35.042969 743.351562 31.492188 745.898438 29.378906 C 746.296875 29.050781 746.644531 28.675781 746.949219 28.269531 C 747.25 28.675781 747.597656 29.050781 747.996094 29.378906 C 750.542969 31.492188 755.925781 35.042969 763.363281 35.066406 L 763.4375 35.066406 C 770.898438 35.066406 776.308594 31.507812 778.875 29.382812 C 779.277344 29.046875 779.628906 28.667969 779.933594 28.257812 C 780.238281 28.667969 780.59375 29.046875 780.996094 29.382812 C 783.558594 31.507812 788.96875 35.066406 796.433594 35.066406 L 796.503906 35.066406 C 803.941406 35.042969 809.324219 31.492188 811.875 29.378906 C 812.269531 29.050781 812.617188 28.675781 812.921875 28.269531 C 813.222656 28.675781 813.570312 29.050781 813.96875 29.378906 C 816.515625 31.492188 821.902344 35.042969 829.335938 35.066406 L 829.410156 35.066406 C 836.875 35.066406 842.285156 31.507812 844.847656 29.382812 C 845.25 29.046875 845.601562 28.667969 845.910156 28.257812 C 846.214844 28.667969 846.566406 29.046875 846.96875 29.382812 C 849.53125 31.507812 854.941406 35.066406 862.40625 35.066406 L 862.480469 35.066406 C 869.914062 35.042969 875.300781 31.492188 877.847656 29.378906 C 878.246094 29.050781 878.59375 28.671875 878.898438 28.265625 C 879.203125 28.675781 879.554688 29.050781 879.953125 29.382812 C 882.515625 31.507812 887.929688 35.066406 895.390625 35.066406 L 895.390625 32.484375 C 888.734375 32.484375 883.898438 29.300781 881.601562 27.394531 Z M 554.835938 17.1875 C 556.492188 15.53125 557.589844 13.292969 557.777344 10.769531 C 557.828125 10.121094 557.8125 9.480469 557.742188 8.855469 C 557.066406 11.726562 555.554688 14.167969 553.566406 15.804688 C 553.171875 16.132812 553.105469 16.714844 553.425781 17.117188 C 553.777344 17.558594 554.433594 17.589844 554.835938 17.1875 Z M 542.988281 17.1875 C 543.386719 17.589844 544.042969 17.558594 544.394531 17.117188 C 544.714844 16.714844 544.652344 16.132812 544.253906 15.804688 C 542.269531 14.167969 540.753906 11.726562 540.078125 8.855469 C 540.007812 9.480469 539.996094 10.121094 540.042969 10.769531 C 540.234375 13.292969 541.328125 15.53125 542.988281 17.1875 Z M 553.871094 22.359375 C 554.199219 23.238281 555.21875 23.625 556.054688 23.199219 C 559.519531 21.4375 562.390625 18.472656 563.984375 14.597656 C 564.390625 13.601562 564.699219 12.585938 564.90625 11.566406 C 562.371094 15.742188 558.734375 18.808594 554.769531 20.367188 C 553.976562 20.679688 553.574219 21.5625 553.871094 22.359375 Z M 541.765625 23.199219 C 542.601562 23.625 543.621094 23.238281 543.949219 22.359375 C 544.246094 21.5625 543.847656 20.679688 543.054688 20.367188 C 539.085938 18.808594 535.453125 15.742188 532.914062 11.566406 C 533.125 12.585938 533.429688 13.601562 533.839844 14.597656 C 535.433594 18.472656 538.304688 21.4375 541.765625 23.199219 Z M 548.910156 0.738281 C 544.289062 5.359375 544.289062 12.847656 548.910156 17.46875 C 553.53125 12.847656 553.53125 5.359375 548.910156 0.738281 Z M 584.347656 9.652344 C 583.308594 8.121094 580.714844 8.121094 579.667969 9.652344 C 578.457031 11.429688 578.964844 15.789062 581.988281 19.363281 C 585.019531 15.773438 585.550781 11.425781 584.347656 9.652344 Z M 578.863281 19.5 C 577.796875 16.546875 575.457031 14.785156 574.027344 14.886719 C 572.792969 14.976562 571.921875 16.480469 572.460938 17.597656 C 573.085938 18.894531 575.78125 20.058594 578.863281 19.5 Z M 591.542969 17.601562 C 592.082031 16.480469 591.210938 14.976562 589.976562 14.886719 C 588.546875 14.785156 586.207031 16.546875 585.140625 19.503906 C 588.222656 20.058594 590.917969 18.894531 591.542969 17.601562 Z M 620.808594 17.1875 C 622.46875 15.53125 623.5625 13.292969 623.753906 10.769531 C 623.800781 10.121094 623.789062 9.480469 623.71875 8.855469 C 623.042969 11.726562 621.527344 14.167969 619.542969 15.804688 C 619.144531 16.132812 619.082031 16.714844 619.398438 17.117188 C 619.753906 17.558594 620.410156 17.589844 620.808594 17.1875 Z M 608.960938 17.1875 C 609.363281 17.589844 610.019531 17.558594 610.371094 17.117188 C 610.691406 16.714844 610.625 16.132812 610.230469 15.804688 C 608.242188 14.167969 606.730469 11.726562 606.054688 8.855469 C 605.984375 9.480469 605.96875 10.121094 606.019531 10.769531 C 606.207031 13.292969 607.304688 15.53125 608.960938 17.1875 Z M 619.847656 22.359375 C 620.175781 23.238281 621.195312 23.625 622.03125 23.199219 C 625.492188 21.4375 628.367188 18.472656 629.957031 14.597656 C 630.367188 13.601562 630.671875 12.585938 630.882812 11.566406 C 628.347656 15.742188 624.710938 18.808594 620.742188 20.367188 C 619.949219 20.679688 619.550781 21.5625 619.847656 22.359375 Z M 607.742188 23.199219 C 608.578125 23.625 609.597656 23.238281 609.925781 22.359375 C 610.222656 21.5625 609.820312 20.679688 609.027344 20.367188 C 605.0625 18.808594 601.425781 15.742188 598.890625 11.566406 C 599.097656 12.585938 599.40625 13.601562 599.8125 14.597656 C 601.40625 18.472656 604.277344 21.4375 607.742188 23.199219 Z M 614.886719 0.738281 C 610.265625 5.359375 610.265625 12.847656 614.886719 17.46875 C 619.507812 12.847656 619.507812 5.359375 614.886719 0.738281 Z M 650.324219 9.652344 C 649.285156 8.121094 646.6875 8.121094 645.640625 9.652344 C 644.429688 11.429688 644.941406 15.789062 647.964844 19.363281 C 650.996094 15.773438 651.523438 11.425781 650.324219 9.652344 Z M 644.839844 19.5 C 643.773438 16.546875 641.429688 14.785156 640.003906 14.886719 C 638.769531 14.976562 637.898438 16.480469 638.4375 17.597656 C 639.058594 18.894531 641.757812 20.058594 644.839844 19.5 Z M 657.515625 17.601562 C 658.054688 16.480469 657.183594 14.976562 655.949219 14.886719 C 654.523438 14.785156 652.179688 16.546875 651.113281 19.503906 C 654.195312 20.058594 656.894531 18.894531 657.515625 17.601562 Z M 686.785156 17.1875 C 688.445312 15.53125 689.539062 13.292969 689.726562 10.769531 C 689.777344 10.121094 689.761719 9.480469 689.691406 8.855469 C 689.015625 11.726562 687.503906 14.167969 685.515625 15.804688 C 685.121094 16.132812 685.054688 16.714844 685.375 17.117188 C 685.726562 17.558594 686.382812 17.589844 686.785156 17.1875 Z M 674.9375 17.1875 C 675.335938 17.589844 675.992188 17.558594 676.347656 17.117188 C 676.664062 16.714844 676.601562 16.132812 676.203125 15.804688 C 674.21875 14.167969 672.703125 11.726562 672.027344 8.855469 C 671.957031 9.480469 671.945312 10.121094 671.992188 10.769531 C 672.183594 13.292969 673.277344 15.53125 674.9375 17.1875 Z M 685.824219 22.359375 C 686.148438 23.238281 687.167969 23.625 688.003906 23.199219 C 691.46875 21.4375 694.339844 18.472656 695.933594 14.597656 C 696.339844 13.601562 696.648438 12.585938 696.855469 11.566406 C 694.320312 15.742188 690.683594 18.808594 686.71875 20.367188 C 685.925781 20.679688 685.527344 21.5625 685.824219 22.359375 Z M 673.71875 23.199219 C 674.550781 23.625 675.570312 23.238281 675.898438 22.359375 C 676.195312 21.5625 675.796875 20.679688 675.003906 20.367188 C 671.035156 18.808594 667.402344 15.742188 664.863281 11.566406 C 665.074219 12.585938 665.378906 13.601562 665.789062 14.597656 C 667.382812 18.472656 670.253906 21.4375 673.71875 23.199219 Z M 680.859375 0.738281 C 676.238281 5.359375 676.238281 12.847656 680.859375 17.46875 C 685.480469 12.847656 685.480469 5.359375 680.859375 0.738281 Z M 716.296875 9.652344 C 715.261719 8.121094 712.664062 8.121094 711.617188 9.652344 C 710.40625 11.429688 710.914062 15.789062 713.9375 19.363281 C 716.96875 15.773438 717.5 11.425781 716.296875 9.652344 Z M 710.8125 19.5 C 709.746094 16.546875 707.40625 14.785156 705.976562 14.886719 C 704.742188 14.976562 703.875 16.480469 704.410156 17.597656 C 705.035156 18.894531 707.730469 20.058594 710.8125 19.5 Z M 723.492188 17.601562 C 724.03125 16.480469 723.160156 14.976562 721.925781 14.886719 C 720.496094 14.785156 718.15625 16.546875 717.089844 19.503906 C 720.171875 20.058594 722.867188 18.894531 723.492188 17.601562 Z M 752.757812 17.1875 C 754.417969 15.53125 755.511719 13.292969 755.703125 10.769531 C 755.75 10.121094 755.738281 9.480469 755.667969 8.855469 C 754.992188 11.726562 753.476562 14.167969 751.492188 15.804688 C 751.09375 16.132812 751.03125 16.714844 751.351562 17.117188 C 751.703125 17.558594 752.359375 17.589844 752.757812 17.1875 Z M 740.910156 17.1875 C 741.3125 17.589844 741.96875 17.558594 742.320312 17.117188 C 742.640625 16.714844 742.574219 16.132812 742.179688 15.804688 C 740.191406 14.167969 738.679688 11.726562 738.003906 8.855469 C 737.933594 9.480469 737.921875 10.121094 737.96875 10.769531 C 738.15625 13.292969 739.253906 15.53125 740.910156 17.1875 Z M 751.796875 22.359375 C 752.125 23.238281 753.144531 23.625 753.980469 23.199219 C 757.441406 21.4375 760.316406 18.472656 761.90625 14.597656 C 762.316406 13.601562 762.625 12.585938 762.832031 11.566406 C 760.296875 15.742188 756.660156 18.808594 752.691406 20.367188 C 751.898438 20.679688 751.5 21.5625 751.796875 22.359375 Z M 739.691406 23.199219 C 740.527344 23.625 741.546875 23.238281 741.875 22.359375 C 742.171875 21.5625 741.769531 20.679688 740.980469 20.367188 C 737.011719 18.808594 733.375 15.742188 730.839844 11.566406 C 731.046875 12.585938 731.355469 13.601562 731.765625 14.597656 C 733.355469 18.472656 736.230469 21.4375 739.691406 23.199219 Z M 746.835938 0.738281 C 742.214844 5.359375 742.214844 12.847656 746.835938 17.46875 C 751.457031 12.847656 751.457031 5.359375 746.835938 0.738281 Z M 782.273438 9.652344 C 781.234375 8.121094 778.636719 8.121094 777.589844 9.652344 C 776.378906 11.429688 776.890625 15.789062 779.914062 19.363281 C 782.945312 15.773438 783.472656 11.425781 782.273438 9.652344 Z M 776.789062 19.5 C 775.722656 16.546875 773.378906 14.785156 771.953125 14.886719 C 770.71875 14.976562 769.847656 16.480469 770.386719 17.597656 C 771.007812 18.894531 773.707031 20.058594 776.789062 19.5 Z M 789.464844 17.601562 C 790.003906 16.480469 789.136719 14.976562 787.902344 14.886719 C 786.472656 14.785156 784.128906 16.546875 783.066406 19.503906 C 786.148438 20.058594 788.84375 18.894531 789.464844 17.601562 Z M 818.734375 17.1875 C 820.394531 15.53125 821.488281 13.292969 821.675781 10.769531 C 821.726562 10.121094 821.710938 9.480469 821.640625 8.855469 C 820.964844 11.726562 819.453125 14.167969 817.464844 15.804688 C 817.070312 16.132812 817.003906 16.714844 817.324219 17.117188 C 817.675781 17.558594 818.332031 17.589844 818.734375 17.1875 Z M 806.886719 17.1875 C 807.285156 17.589844 807.945312 17.558594 808.296875 17.117188 C 808.613281 16.714844 808.550781 16.132812 808.152344 15.804688 C 806.167969 14.167969 804.652344 11.726562 803.976562 8.855469 C 803.90625 9.480469 803.894531 10.121094 803.945312 10.769531 C 804.132812 13.292969 805.226562 15.53125 806.886719 17.1875 Z M 817.773438 22.359375 C 818.097656 23.238281 819.117188 23.625 819.953125 23.199219 C 823.417969 21.4375 826.289062 18.472656 827.882812 14.597656 C 828.292969 13.601562 828.597656 12.585938 828.808594 11.566406 C 826.269531 15.742188 822.632812 18.808594 818.667969 20.367188 C 817.875 20.679688 817.476562 21.5625 817.773438 22.359375 Z M 805.667969 23.199219 C 806.503906 23.625 807.523438 23.238281 807.847656 22.359375 C 808.144531 21.5625 807.746094 20.679688 806.953125 20.367188 C 802.988281 18.808594 799.351562 15.742188 796.8125 11.566406 C 797.023438 12.585938 797.328125 13.601562 797.738281 14.597656 C 799.332031 18.472656 802.203125 21.4375 805.667969 23.199219 Z M 812.808594 0.738281 C 808.191406 5.359375 808.191406 12.847656 812.808594 17.46875 C 817.429688 12.847656 817.429688 5.359375 812.808594 0.738281 Z M 848.246094 9.652344 C 847.210938 8.121094 844.613281 8.121094 843.566406 9.652344 C 842.355469 11.429688 842.867188 15.789062 845.890625 19.363281 C 848.917969 15.773438 849.449219 11.425781 848.246094 9.652344 Z M 842.761719 19.5 C 841.695312 16.546875 839.355469 14.785156 837.925781 14.886719 C 836.691406 14.976562 835.824219 16.480469 836.359375 17.597656 C 836.984375 18.894531 839.679688 20.058594 842.761719 19.5 Z M 855.441406 17.601562 C 855.980469 16.480469 855.109375 14.976562 853.875 14.886719 C 852.445312 14.785156 850.105469 16.546875 849.039062 19.503906 C 852.121094 20.058594 854.820312 18.894531 855.441406 17.601562 Z M 884.707031 17.1875 C 886.367188 15.53125 887.460938 13.292969 887.652344 10.769531 C 887.699219 10.121094 887.6875 9.480469 887.617188 8.855469 C 886.941406 11.726562 885.425781 14.167969 883.441406 15.804688 C 883.042969 16.132812 882.980469 16.714844 883.300781 17.117188 C 883.652344 17.558594 884.308594 17.589844 884.707031 17.1875 Z M 872.859375 17.1875 C 873.261719 17.589844 873.917969 17.558594 874.269531 17.117188 C 874.589844 16.714844 874.527344 16.132812 874.128906 15.804688 C 872.144531 14.167969 870.628906 11.726562 869.953125 8.855469 C 869.882812 9.480469 869.871094 10.121094 869.917969 10.769531 C 870.105469 13.292969 871.203125 15.53125 872.859375 17.1875 Z M 883.746094 22.359375 C 884.074219 23.238281 885.09375 23.625 885.929688 23.199219 C 889.390625 21.4375 892.265625 18.472656 893.855469 14.597656 C 894.265625 13.601562 894.574219 12.585938 894.78125 11.566406 C 892.246094 15.742188 888.609375 18.808594 884.640625 20.367188 C 883.851562 20.679688 883.449219 21.5625 883.746094 22.359375 Z M 871.640625 23.199219 C 872.476562 23.625 873.496094 23.238281 873.824219 22.359375 C 874.121094 21.5625 873.722656 20.679688 872.929688 20.367188 C 868.960938 18.808594 865.324219 15.742188 862.789062 11.566406 C 862.996094 12.585938 863.304688 13.601562 863.714844 14.597656 C 865.304688 18.472656 868.179688 21.4375 871.640625 23.199219 Z M 878.785156 0.738281 C 874.164062 5.359375 874.164062 12.847656 878.785156 17.46875 C 883.40625 12.847656 883.40625 5.359375 878.785156 0.738281 Z M 878.785156 0.738281 " fill-opacity="1" fill-rule="nonzero"/></g><g clip-path="url(#834a18c8ef)"><path fill="#e58f9e" d="M 80.460938 10.769531 C 80.410156 10.121094 80.425781 9.480469 80.496094 8.855469 C 81.171875 11.726562 82.683594 14.167969 84.671875 15.804688 C 85.066406 16.132812 85.132812 16.714844 84.8125 17.117188 C 84.460938 17.558594 83.804688 17.589844 83.402344 17.1875 C 81.742188 15.53125 80.648438 13.292969 80.460938 10.769531 Z M 95.25 17.1875 C 96.910156 15.53125 98.003906 13.292969 98.195312 10.769531 C 98.242188 10.121094 98.230469 9.480469 98.160156 8.855469 C 97.484375 11.726562 95.96875 14.167969 93.984375 15.804688 C 93.585938 16.132812 93.523438 16.714844 93.839844 17.117188 C 94.191406 17.558594 94.851562 17.589844 95.25 17.1875 Z M 82.183594 23.199219 C 83.019531 23.625 84.039062 23.238281 84.363281 22.359375 C 84.660156 21.5625 84.261719 20.679688 83.46875 20.367188 C 79.503906 18.808594 75.867188 15.742188 73.332031 11.566406 C 73.539062 12.585938 73.847656 13.601562 74.253906 14.597656 C 75.847656 18.472656 78.71875 21.4375 82.183594 23.199219 Z M 94.289062 22.359375 C 94.617188 23.238281 95.636719 23.625 96.472656 23.199219 C 99.933594 21.4375 102.804688 18.472656 104.398438 14.597656 C 104.808594 13.601562 105.113281 12.585938 105.324219 11.566406 C 102.789062 15.742188 99.152344 18.808594 95.183594 20.367188 C 94.390625 20.679688 93.992188 21.5625 94.289062 22.359375 Z M 89.328125 0.738281 C 84.707031 5.359375 84.707031 12.847656 89.328125 17.46875 C 93.949219 12.847656 93.949219 5.359375 89.328125 0.738281 Z M 124.535156 9.652344 C 123.496094 8.121094 120.902344 8.121094 119.855469 9.652344 C 118.644531 11.429688 119.152344 15.789062 122.175781 19.363281 C 125.207031 15.773438 125.738281 11.425781 124.535156 9.652344 Z M 119.050781 19.5 C 117.984375 16.546875 115.644531 14.785156 114.214844 14.886719 C 112.980469 14.976562 112.109375 16.480469 112.648438 17.597656 C 113.273438 18.894531 115.96875 20.058594 119.050781 19.5 Z M 131.730469 17.601562 C 132.265625 16.480469 131.398438 14.976562 130.164062 14.886719 C 128.734375 14.785156 126.394531 16.546875 125.328125 19.503906 C 128.410156 20.058594 131.105469 18.894531 131.730469 17.601562 Z M 487.769531 27.398438 C 487.394531 27.089844 487.09375 26.71875 486.867188 26.3125 L 486.867188 22.996094 C 486.867188 22.097656 486.136719 21.371094 485.238281 21.371094 L 484.65625 21.371094 C 483.757812 21.371094 483.03125 22.097656 483.03125 22.996094 L 483.03125 26.644531 L 483.054688 26.644531 C 482.859375 26.917969 482.632812 27.175781 482.367188 27.394531 C 479.578125 29.707031 474.9375 32.464844 468.636719 32.484375 L 468.574219 32.484375 C 461.917969 32.484375 457.078125 29.300781 454.78125 27.394531 C 454.464844 27.132812 454.195312 26.824219 453.980469 26.484375 L 453.980469 22.996094 C 453.980469 22.097656 453.253906 21.371094 452.355469 21.371094 L 451.773438 21.371094 C 450.875 21.371094 450.144531 22.097656 450.144531 22.996094 L 450.144531 26.515625 C 449.933594 26.84375 449.675781 27.140625 449.367188 27.394531 C 447.070312 29.300781 442.230469 32.484375 435.574219 32.484375 L 435.511719 32.484375 C 429.210938 32.464844 424.570312 29.707031 421.78125 27.394531 C 421.417969 27.09375 421.117188 26.726562 420.890625 26.320312 L 420.890625 22.996094 C 420.890625 22.097656 420.160156 21.371094 419.261719 21.371094 L 418.683594 21.371094 C 417.785156 21.371094 417.054688 22.097656 417.054688 22.996094 L 417.054688 26.644531 L 417.078125 26.644531 C 416.882812 26.917969 416.65625 27.175781 416.390625 27.394531 C 413.605469 29.707031 408.960938 32.464844 402.664062 32.484375 L 402.597656 32.484375 C 395.941406 32.484375 391.101562 29.300781 388.804688 27.394531 C 388.488281 27.132812 388.222656 26.824219 388.007812 26.480469 L 388.007812 22.996094 C 388.007812 22.097656 387.277344 21.367188 386.378906 21.367188 L 385.796875 21.367188 C 384.898438 21.367188 384.171875 22.097656 384.171875 22.996094 L 384.171875 26.515625 C 383.957031 26.84375 383.699219 27.140625 383.394531 27.394531 C 381.097656 29.296875 376.257812 32.484375 369.601562 32.484375 L 369.535156 32.484375 C 363.238281 32.464844 358.59375 29.707031 355.808594 27.394531 C 355.441406 27.09375 355.144531 26.726562 354.914062 26.320312 L 354.914062 22.996094 C 354.914062 22.097656 354.1875 21.367188 353.289062 21.367188 L 352.707031 21.367188 C 351.808594 21.367188 351.078125 22.097656 351.078125 22.996094 L 351.078125 26.644531 L 351.105469 26.644531 C 350.910156 26.917969 350.683594 27.175781 350.417969 27.394531 C 347.628906 29.707031 342.988281 32.464844 336.6875 32.484375 L 336.625 32.484375 C 329.96875 32.484375 325.128906 29.296875 322.832031 27.394531 C 322.511719 27.132812 322.246094 26.824219 322.03125 26.480469 L 322.03125 22.996094 C 322.03125 22.097656 321.304688 21.367188 320.40625 21.367188 L 319.824219 21.367188 C 318.925781 21.367188 318.195312 22.097656 318.195312 22.996094 L 318.195312 26.515625 C 317.984375 26.84375 317.726562 27.140625 317.417969 27.394531 C 315.121094 29.296875 310.28125 32.484375 303.625 32.484375 L 303.5625 32.484375 C 297.261719 32.464844 292.621094 29.707031 289.832031 27.394531 C 289.46875 27.09375 289.167969 26.726562 288.941406 26.320312 L 288.941406 22.996094 C 288.941406 22.097656 288.210938 21.367188 287.3125 21.367188 L 286.730469 21.367188 C 285.832031 21.367188 285.105469 22.097656 285.105469 22.996094 L 285.105469 26.644531 L 285.128906 26.644531 C 284.933594 26.917969 284.707031 27.175781 284.441406 27.394531 C 281.65625 29.707031 277.011719 32.464844 270.714844 32.484375 L 270.648438 32.484375 C 263.992188 32.484375 259.152344 29.296875 256.855469 27.394531 C 256.539062 27.132812 256.273438 26.824219 256.058594 26.480469 L 256.058594 22.996094 C 256.058594 22.097656 255.328125 21.367188 254.429688 21.367188 L 253.847656 21.367188 C 252.949219 21.367188 252.222656 22.097656 252.222656 22.996094 L 252.222656 26.511719 C 252.007812 26.839844 251.75 27.140625 251.441406 27.394531 C 249.144531 29.296875 244.308594 32.484375 237.652344 32.484375 L 237.585938 32.484375 C 231.289062 32.464844 226.644531 29.707031 223.859375 27.394531 C 223.492188 27.089844 223.195312 26.726562 222.964844 26.320312 L 222.964844 22.996094 C 222.964844 22.097656 222.238281 21.367188 221.339844 21.367188 L 220.757812 21.367188 C 219.859375 21.367188 219.128906 22.097656 219.128906 22.996094 L 219.128906 26.640625 L 219.15625 26.640625 C 218.960938 26.917969 218.730469 27.175781 218.464844 27.394531 C 215.679688 29.707031 211.039062 32.464844 204.738281 32.484375 L 204.675781 32.484375 C 198.019531 32.484375 193.179688 29.296875 190.882812 27.394531 C 190.5625 27.132812 190.296875 26.824219 190.082031 26.480469 L 190.082031 22.996094 C 190.082031 22.097656 189.351562 21.367188 188.453125 21.367188 L 187.875 21.367188 C 186.976562 21.367188 186.246094 22.097656 186.246094 22.996094 L 186.246094 26.511719 C 186.035156 26.839844 185.777344 27.140625 185.46875 27.394531 C 183.171875 29.296875 178.332031 32.484375 171.675781 32.484375 L 171.613281 32.484375 C 165.3125 32.464844 160.667969 29.707031 157.882812 27.394531 C 157.515625 27.089844 157.21875 26.726562 156.992188 26.320312 L 156.992188 22.996094 C 156.992188 22.097656 156.261719 21.367188 155.363281 21.367188 L 154.78125 21.367188 C 153.882812 21.367188 153.15625 22.097656 153.15625 22.996094 L 153.15625 26.640625 L 153.179688 26.640625 C 152.984375 26.917969 152.757812 27.175781 152.492188 27.394531 C 149.707031 29.707031 145.0625 32.464844 138.761719 32.484375 L 138.699219 32.484375 C 132.042969 32.484375 127.203125 29.296875 124.90625 27.394531 C 124.589844 27.132812 124.324219 26.824219 124.105469 26.480469 L 124.105469 22.996094 C 124.105469 22.097656 123.378906 21.367188 122.480469 21.367188 L 121.898438 21.367188 C 121 21.367188 120.269531 22.097656 120.269531 22.996094 L 120.269531 26.511719 C 120.058594 26.839844 119.800781 27.140625 119.492188 27.394531 C 117.195312 29.296875 112.355469 32.484375 105.699219 32.484375 L 105.636719 32.484375 C 99.339844 32.464844 94.695312 29.703125 91.910156 27.394531 C 91.640625 27.171875 91.414062 26.917969 91.21875 26.640625 L 91.246094 26.640625 L 91.246094 22.996094 C 91.246094 22.097656 90.515625 21.367188 89.617188 21.367188 L 89.035156 21.367188 C 88.136719 21.367188 87.410156 22.097656 87.410156 22.996094 L 87.410156 26.335938 C 87.179688 26.734375 86.882812 27.09375 86.519531 27.394531 C 84.222656 29.300781 79.390625 32.484375 72.730469 32.484375 L 72.730469 35.0625 C 80.195312 35.0625 85.609375 31.507812 88.167969 29.382812 C 88.566406 29.054688 88.914062 28.679688 89.21875 28.277344 C 89.519531 28.679688 89.863281 29.050781 90.261719 29.378906 C 92.808594 31.492188 98.191406 35.042969 105.628906 35.066406 L 105.703125 35.066406 C 113.164062 35.066406 118.574219 31.507812 121.140625 29.382812 C 121.542969 29.046875 121.894531 28.667969 122.199219 28.257812 C 122.503906 28.667969 122.859375 29.046875 123.261719 29.382812 C 125.824219 31.507812 131.234375 35.066406 138.699219 35.066406 L 138.769531 35.066406 C 146.207031 35.042969 151.589844 31.492188 154.140625 29.378906 C 154.535156 29.050781 154.882812 28.675781 155.1875 28.269531 C 155.488281 28.675781 155.835938 29.050781 156.234375 29.378906 C 158.78125 31.492188 164.167969 35.042969 171.601562 35.066406 L 171.675781 35.066406 C 179.140625 35.066406 184.550781 31.507812 187.113281 29.382812 C 187.515625 29.046875 187.867188 28.667969 188.175781 28.257812 C 188.480469 28.667969 188.832031 29.046875 189.234375 29.382812 C 191.800781 31.507812 197.207031 35.066406 204.671875 35.066406 L 204.746094 35.066406 C 212.183594 35.042969 217.566406 31.492188 220.113281 29.378906 C 220.511719 29.050781 220.859375 28.675781 221.160156 28.269531 C 221.464844 28.675781 221.8125 29.050781 222.210938 29.378906 C 224.757812 31.492188 230.140625 35.042969 237.578125 35.066406 L 237.648438 35.066406 C 245.113281 35.066406 250.523438 31.507812 253.089844 29.382812 C 253.492188 29.046875 253.84375 28.667969 254.148438 28.257812 C 254.453125 28.667969 254.804688 29.046875 255.210938 29.382812 C 257.773438 31.507812 263.183594 35.066406 270.648438 35.066406 L 270.71875 35.066406 C 278.15625 35.042969 283.539062 31.492188 286.085938 29.378906 C 286.484375 29.050781 286.832031 28.675781 287.136719 28.269531 C 287.4375 28.675781 287.785156 29.050781 288.183594 29.378906 C 290.730469 31.492188 296.117188 35.042969 303.550781 35.066406 L 303.625 35.066406 C 311.089844 35.066406 316.5 31.507812 319.0625 29.382812 C 319.464844 29.046875 319.816406 28.667969 320.121094 28.257812 C 320.429688 28.667969 320.78125 29.046875 321.183594 29.382812 C 323.746094 31.507812 329.15625 35.066406 336.621094 35.066406 L 336.695312 35.066406 C 344.128906 35.042969 349.515625 31.492188 352.0625 29.378906 C 352.460938 29.050781 352.808594 28.675781 353.109375 28.269531 C 353.414062 28.675781 353.761719 29.050781 354.15625 29.378906 C 356.707031 31.492188 362.089844 35.042969 369.527344 35.066406 L 369.597656 35.066406 C 377.0625 35.066406 382.472656 31.507812 385.035156 29.382812 C 385.441406 29.046875 385.792969 28.667969 386.097656 28.257812 C 386.402344 28.667969 386.753906 29.046875 387.15625 29.382812 C 389.722656 31.507812 395.128906 35.066406 402.59375 35.066406 L 402.667969 35.066406 C 410.105469 35.042969 415.488281 31.492188 418.035156 29.378906 C 418.433594 29.050781 418.78125 28.675781 419.082031 28.269531 C 419.386719 28.675781 419.734375 29.050781 420.132812 29.378906 C 422.679688 31.492188 428.0625 35.042969 435.5 35.066406 L 435.570312 35.066406 C 443.035156 35.066406 448.445312 31.507812 451.011719 29.382812 C 451.414062 29.046875 451.765625 28.667969 452.070312 28.257812 C 452.375 28.667969 452.726562 29.046875 453.132812 29.382812 C 455.695312 31.507812 461.105469 35.066406 468.570312 35.066406 L 468.640625 35.066406 C 476.078125 35.042969 481.460938 31.492188 484.007812 29.378906 C 484.410156 29.050781 484.757812 28.671875 485.0625 28.265625 C 485.367188 28.675781 485.714844 29.050781 486.117188 29.382812 C 488.675781 31.507812 494.089844 35.066406 501.554688 35.066406 L 501.554688 32.484375 C 494.894531 32.484375 490.058594 29.300781 487.765625 27.394531 Z M 160.996094 17.1875 C 162.65625 15.53125 163.75 13.292969 163.941406 10.769531 C 163.988281 10.121094 163.976562 9.480469 163.90625 8.855469 C 163.230469 11.726562 161.714844 14.167969 159.730469 15.804688 C 159.332031 16.132812 159.269531 16.714844 159.589844 17.117188 C 159.941406 17.558594 160.597656 17.589844 160.996094 17.1875 Z M 149.148438 17.1875 C 149.550781 17.589844 150.207031 17.558594 150.558594 17.117188 C 150.878906 16.714844 150.8125 16.132812 150.417969 15.804688 C 148.429688 14.167969 146.917969 11.726562 146.242188 8.855469 C 146.171875 9.480469 146.15625 10.121094 146.207031 10.769531 C 146.394531 13.292969 147.488281 15.53125 149.148438 17.1875 Z M 160.035156 22.359375 C 160.363281 23.238281 161.382812 23.625 162.21875 23.199219 C 165.679688 21.4375 168.554688 18.472656 170.144531 14.597656 C 170.554688 13.601562 170.859375 12.585938 171.070312 11.566406 C 168.53125 15.742188 164.898438 18.808594 160.929688 20.367188 C 160.136719 20.679688 159.738281 21.5625 160.035156 22.359375 Z M 147.929688 23.199219 C 148.765625 23.625 149.785156 23.238281 150.113281 22.359375 C 150.410156 21.5625 150.007812 20.679688 149.21875 20.367188 C 145.25 18.808594 141.613281 15.742188 139.078125 11.566406 C 139.285156 12.585938 139.59375 13.601562 140.003906 14.597656 C 141.59375 18.472656 144.464844 21.4375 147.929688 23.199219 Z M 155.074219 0.738281 C 150.453125 5.359375 150.453125 12.847656 155.074219 17.46875 C 159.695312 12.847656 159.695312 5.359375 155.074219 0.738281 Z M 190.511719 9.652344 C 189.472656 8.121094 186.875 8.121094 185.828125 9.652344 C 184.617188 11.429688 185.128906 15.789062 188.152344 19.363281 C 191.183594 15.773438 191.710938 11.425781 190.511719 9.652344 Z M 185.027344 19.5 C 183.960938 16.546875 181.617188 14.785156 180.191406 14.886719 C 178.953125 14.976562 178.085938 16.480469 178.625 17.597656 C 179.246094 18.894531 181.945312 20.058594 185.027344 19.5 Z M 197.703125 17.601562 C 198.242188 16.480469 197.371094 14.976562 196.136719 14.886719 C 194.710938 14.785156 192.367188 16.546875 191.300781 19.503906 C 194.382812 20.058594 197.082031 18.894531 197.703125 17.601562 Z M 226.972656 17.1875 C 228.628906 15.53125 229.726562 13.292969 229.914062 10.769531 C 229.964844 10.121094 229.949219 9.480469 229.878906 8.855469 C 229.203125 11.726562 227.691406 14.167969 225.703125 15.804688 C 225.308594 16.132812 225.242188 16.714844 225.5625 17.117188 C 225.914062 17.558594 226.570312 17.589844 226.972656 17.1875 Z M 215.125 17.1875 C 215.523438 17.589844 216.179688 17.558594 216.535156 17.117188 C 216.851562 16.714844 216.789062 16.132812 216.390625 15.804688 C 214.40625 14.167969 212.890625 11.726562 212.214844 8.855469 C 212.144531 9.480469 212.132812 10.121094 212.179688 10.769531 C 212.371094 13.292969 213.464844 15.53125 215.125 17.1875 Z M 226.011719 22.359375 C 226.335938 23.238281 227.355469 23.625 228.191406 23.199219 C 231.65625 21.4375 234.527344 18.472656 236.121094 14.597656 C 236.527344 13.601562 236.835938 12.585938 237.042969 11.566406 C 234.507812 15.742188 230.871094 18.808594 226.90625 20.367188 C 226.113281 20.679688 225.714844 21.5625 226.011719 22.359375 Z M 213.902344 23.199219 C 214.738281 23.625 215.757812 23.238281 216.085938 22.359375 C 216.382812 21.5625 215.984375 20.679688 215.191406 20.367188 C 211.222656 18.808594 207.589844 15.742188 205.050781 11.566406 C 205.261719 12.585938 205.566406 13.601562 205.976562 14.597656 C 207.570312 18.472656 210.441406 21.4375 213.902344 23.199219 Z M 221.046875 0.738281 C 216.429688 5.359375 216.429688 12.847656 221.046875 17.46875 C 225.667969 12.847656 225.667969 5.359375 221.046875 0.738281 Z M 256.484375 9.652344 C 255.449219 8.121094 252.851562 8.121094 251.804688 9.652344 C 250.59375 11.429688 251.101562 15.789062 254.125 19.363281 C 257.15625 15.773438 257.6875 11.425781 256.484375 9.652344 Z M 251 19.5 C 249.933594 16.546875 247.59375 14.785156 246.164062 14.886719 C 244.929688 14.976562 244.058594 16.480469 244.597656 17.597656 C 245.222656 18.894531 247.917969 20.058594 251 19.5 Z M 263.679688 17.601562 C 264.21875 16.480469 263.347656 14.976562 262.113281 14.886719 C 260.683594 14.785156 258.34375 16.546875 257.277344 19.503906 C 260.359375 20.058594 263.054688 18.894531 263.679688 17.601562 Z M 292.945312 17.1875 C 294.605469 15.53125 295.699219 13.292969 295.890625 10.769531 C 295.9375 10.121094 295.925781 9.480469 295.855469 8.855469 C 295.179688 11.726562 293.664062 14.167969 291.679688 15.804688 C 291.28125 16.132812 291.21875 16.714844 291.539062 17.117188 C 291.890625 17.558594 292.546875 17.589844 292.945312 17.1875 Z M 281.097656 17.1875 C 281.5 17.589844 282.15625 17.558594 282.507812 17.117188 C 282.828125 16.714844 282.761719 16.132812 282.367188 15.804688 C 280.378906 14.167969 278.867188 11.726562 278.191406 8.855469 C 278.121094 9.480469 278.105469 10.121094 278.15625 10.769531 C 278.34375 13.292969 279.441406 15.53125 281.097656 17.1875 Z M 291.984375 22.359375 C 292.3125 23.238281 293.332031 23.625 294.167969 23.199219 C 297.628906 21.4375 300.503906 18.472656 302.09375 14.597656 C 302.503906 13.601562 302.8125 12.585938 303.019531 11.566406 C 300.484375 15.742188 296.847656 18.808594 292.878906 20.367188 C 292.085938 20.679688 291.6875 21.5625 291.984375 22.359375 Z M 279.878906 23.199219 C 280.714844 23.625 281.734375 23.238281 282.0625 22.359375 C 282.359375 21.5625 281.957031 20.679688 281.167969 20.367188 C 277.199219 18.808594 273.5625 15.742188 271.027344 11.566406 C 271.234375 12.585938 271.542969 13.601562 271.953125 14.597656 C 273.542969 18.472656 276.414062 21.4375 279.878906 23.199219 Z M 287.023438 0.738281 C 282.402344 5.359375 282.402344 12.847656 287.023438 17.46875 C 291.644531 12.847656 291.644531 5.359375 287.023438 0.738281 Z M 322.460938 9.652344 C 321.421875 8.121094 318.824219 8.121094 317.777344 9.652344 C 316.566406 11.429688 317.078125 15.789062 320.101562 19.363281 C 323.132812 15.773438 323.660156 11.425781 322.460938 9.652344 Z M 316.976562 19.5 C 315.910156 16.546875 313.566406 14.785156 312.140625 14.886719 C 310.90625 14.976562 310.035156 16.480469 310.574219 17.597656 C 311.195312 18.894531 313.894531 20.058594 316.976562 19.5 Z M 329.652344 17.601562 C 330.191406 16.480469 329.324219 14.976562 328.089844 14.886719 C 326.660156 14.785156 324.316406 16.546875 323.253906 19.503906 C 326.335938 20.058594 329.03125 18.894531 329.652344 17.601562 Z M 358.921875 17.1875 C 360.582031 15.53125 361.675781 13.292969 361.863281 10.769531 C 361.914062 10.121094 361.898438 9.480469 361.828125 8.855469 C 361.152344 11.726562 359.640625 14.167969 357.652344 15.804688 C 357.257812 16.132812 357.191406 16.714844 357.511719 17.117188 C 357.863281 17.558594 358.519531 17.589844 358.921875 17.1875 Z M 347.074219 17.1875 C 347.472656 17.589844 348.132812 17.558594 348.484375 17.117188 C 348.800781 16.714844 348.738281 16.132812 348.339844 15.804688 C 346.355469 14.167969 344.839844 11.726562 344.164062 8.855469 C 344.09375 9.480469 344.082031 10.121094 344.128906 10.769531 C 344.320312 13.292969 345.414062 15.53125 347.074219 17.1875 Z M 357.960938 22.359375 C 358.285156 23.238281 359.304688 23.625 360.140625 23.199219 C 363.605469 21.4375 366.476562 18.472656 368.070312 14.597656 C 368.480469 13.601562 368.785156 12.585938 368.996094 11.566406 C 366.457031 15.742188 362.820312 18.808594 358.855469 20.367188 C 358.0625 20.679688 357.664062 21.5625 357.960938 22.359375 Z M 345.855469 23.199219 C 346.691406 23.625 347.707031 23.238281 348.035156 22.359375 C 348.332031 21.5625 347.933594 20.679688 347.140625 20.367188 C 343.175781 18.808594 339.539062 15.742188 337 11.566406 C 337.210938 12.585938 337.515625 13.601562 337.925781 14.597656 C 339.519531 18.472656 342.390625 21.4375 345.855469 23.199219 Z M 352.996094 0.738281 C 348.378906 5.359375 348.378906 12.847656 352.996094 17.46875 C 357.617188 12.847656 357.617188 5.359375 352.996094 0.738281 Z M 388.433594 9.652344 C 387.398438 8.121094 384.800781 8.121094 383.753906 9.652344 C 382.542969 11.429688 383.050781 15.789062 386.078125 19.363281 C 389.105469 15.773438 389.636719 11.425781 388.433594 9.652344 Z M 382.949219 19.5 C 381.882812 16.546875 379.542969 14.785156 378.113281 14.886719 C 376.878906 14.976562 376.011719 16.480469 376.546875 17.597656 C 377.171875 18.894531 379.867188 20.058594 382.949219 19.5 Z M 395.628906 17.601562 C 396.167969 16.480469 395.296875 14.976562 394.0625 14.886719 C 392.632812 14.785156 390.292969 16.546875 389.226562 19.503906 C 392.308594 20.058594 395.007812 18.894531 395.628906 17.601562 Z M 424.894531 17.1875 C 426.554688 15.53125 427.652344 13.292969 427.839844 10.769531 C 427.886719 10.121094 427.875 9.480469 427.804688 8.855469 C 427.128906 11.726562 425.613281 14.167969 423.628906 15.804688 C 423.230469 16.132812 423.167969 16.714844 423.488281 17.117188 C 423.839844 17.558594 424.496094 17.589844 424.894531 17.1875 Z M 413.046875 17.1875 C 413.449219 17.589844 414.105469 17.558594 414.457031 17.117188 C 414.777344 16.714844 414.714844 16.132812 414.316406 15.804688 C 412.332031 14.167969 410.816406 11.726562 410.140625 8.855469 C 410.070312 9.480469 410.058594 10.121094 410.105469 10.769531 C 410.292969 13.292969 411.390625 15.53125 413.046875 17.1875 Z M 423.933594 22.359375 C 424.261719 23.238281 425.28125 23.625 426.117188 23.199219 C 429.578125 21.4375 432.453125 18.472656 434.042969 14.597656 C 434.453125 13.601562 434.761719 12.585938 434.96875 11.566406 C 432.433594 15.742188 428.796875 18.808594 424.828125 20.367188 C 424.039062 20.679688 423.636719 21.5625 423.933594 22.359375 Z M 411.828125 23.199219 C 412.664062 23.625 413.683594 23.238281 414.011719 22.359375 C 414.308594 21.5625 413.90625 20.679688 413.117188 20.367188 C 409.148438 18.808594 405.511719 15.742188 402.976562 11.566406 C 403.183594 12.585938 403.492188 13.601562 403.902344 14.597656 C 405.492188 18.472656 408.367188 21.4375 411.828125 23.199219 Z M 418.972656 0.738281 C 414.351562 5.359375 414.351562 12.847656 418.972656 17.46875 C 423.59375 12.847656 423.59375 5.359375 418.972656 0.738281 Z M 454.410156 9.652344 C 453.371094 8.121094 450.773438 8.121094 449.730469 9.652344 C 448.515625 11.429688 449.027344 15.789062 452.050781 19.363281 C 455.082031 15.773438 455.609375 11.425781 454.410156 9.652344 Z M 448.925781 19.5 C 447.859375 16.546875 445.519531 14.785156 444.089844 14.886719 C 442.855469 14.976562 441.984375 16.480469 442.523438 17.597656 C 443.144531 18.894531 445.84375 20.058594 448.925781 19.5 Z M 461.605469 17.601562 C 462.140625 16.480469 461.273438 14.976562 460.039062 14.886719 C 458.609375 14.785156 456.265625 16.546875 455.203125 19.503906 C 458.285156 20.058594 460.980469 18.894531 461.605469 17.601562 Z M 490.871094 17.1875 C 492.53125 15.53125 493.625 13.292969 493.8125 10.769531 C 493.863281 10.121094 493.847656 9.480469 493.777344 8.855469 C 493.101562 11.726562 491.589844 14.167969 489.601562 15.804688 C 489.207031 16.132812 489.140625 16.714844 489.460938 17.117188 C 489.8125 17.558594 490.472656 17.589844 490.871094 17.1875 Z M 479.023438 17.1875 C 479.421875 17.589844 480.082031 17.558594 480.433594 17.117188 C 480.753906 16.714844 480.6875 16.132812 480.292969 15.804688 C 478.304688 14.167969 476.792969 11.726562 476.117188 8.855469 C 476.046875 9.480469 476.03125 10.121094 476.078125 10.769531 C 476.269531 13.292969 477.363281 15.53125 479.023438 17.1875 Z M 489.910156 22.359375 C 490.238281 23.238281 491.253906 23.625 492.089844 23.199219 C 495.554688 21.4375 498.425781 18.472656 500.019531 14.597656 C 500.429688 13.601562 500.734375 12.585938 500.945312 11.566406 C 498.40625 15.742188 494.773438 18.808594 490.804688 20.367188 C 490.011719 20.679688 489.613281 21.5625 489.910156 22.359375 Z M 477.804688 23.199219 C 478.640625 23.625 479.660156 23.238281 479.984375 22.359375 C 480.28125 21.5625 479.882812 20.679688 479.089844 20.367188 C 475.125 18.808594 471.488281 15.742188 468.953125 11.566406 C 469.160156 12.585938 469.46875 13.601562 469.875 14.597656 C 471.46875 18.472656 474.339844 21.4375 477.804688 23.199219 Z M 484.949219 0.738281 C 480.328125 5.359375 480.328125 12.847656 484.949219 17.46875 C 489.566406 12.847656 489.566406 5.359375 484.949219 0.738281 Z M 484.949219 0.738281 " fill-opacity="1" fill-rule="nonzero"/></g><g clip-path="url(#fbf9446752)"><path fill="#e58f9e" d="M -313.289062 10.769531 C -313.339844 10.121094 -313.324219 9.480469 -313.253906 8.855469 C -312.578125 11.726562 -311.066406 14.167969 -309.078125 15.804688 C -308.683594 16.132812 -308.617188 16.714844 -308.9375 17.117188 C -309.289062 17.558594 -309.945312 17.589844 -310.347656 17.1875 C -312.007812 15.53125 -313.101562 13.292969 -313.289062 10.769531 Z M -298.5 17.1875 C -296.839844 15.53125 -295.746094 13.292969 -295.554688 10.769531 C -295.507812 10.121094 -295.519531 9.480469 -295.589844 8.855469 C -296.265625 11.726562 -297.78125 14.167969 -299.765625 15.804688 C -300.164062 16.132812 -300.226562 16.714844 -299.910156 17.117188 C -299.558594 17.558594 -298.898438 17.589844 -298.5 17.1875 Z M -311.566406 23.199219 C -310.730469 23.625 -309.710938 23.238281 -309.386719 22.359375 C -309.089844 21.5625 -309.488281 20.679688 -310.28125 20.367188 C -314.246094 18.808594 -317.882812 15.742188 -320.417969 11.566406 C -320.210938 12.585938 -319.902344 13.601562 -319.496094 14.597656 C -317.902344 18.472656 -315.03125 21.4375 -311.566406 23.199219 Z M -299.460938 22.359375 C -299.132812 23.238281 -298.113281 23.625 -297.277344 23.199219 C -293.816406 21.4375 -290.945312 18.472656 -289.351562 14.597656 C -288.941406 13.601562 -288.636719 12.585938 -288.425781 11.566406 C -290.960938 15.742188 -294.597656 18.808594 -298.566406 20.367188 C -299.359375 20.679688 -299.757812 21.5625 -299.460938 22.359375 Z M -304.421875 0.738281 C -309.042969 5.359375 -309.042969 12.847656 -304.421875 17.46875 C -299.800781 12.847656 -299.800781 5.359375 -304.421875 0.738281 Z M -269.214844 9.652344 C -270.253906 8.121094 -272.847656 8.121094 -273.894531 9.652344 C -275.105469 11.429688 -274.597656 15.789062 -271.574219 19.363281 C -268.542969 15.773438 -268.011719 11.425781 -269.214844 9.652344 Z M -274.699219 19.5 C -275.765625 16.546875 -278.105469 14.785156 -279.535156 14.886719 C -280.769531 14.976562 -281.640625 16.480469 -281.101562 17.597656 C -280.476562 18.894531 -277.78125 20.058594 -274.699219 19.5 Z M -262.019531 17.601562 C -261.484375 16.480469 -262.351562 14.976562 -263.585938 14.886719 C -265.015625 14.785156 -267.355469 16.546875 -268.421875 19.503906 C -265.339844 20.058594 -262.644531 18.894531 -262.019531 17.601562 Z M 94.019531 27.398438 C 93.644531 27.089844 93.34375 26.71875 93.117188 26.3125 L 93.117188 22.996094 C 93.117188 22.097656 92.386719 21.371094 91.488281 21.371094 L 90.90625 21.371094 C 90.007812 21.371094 89.28125 22.097656 89.28125 22.996094 L 89.28125 26.644531 L 89.304688 26.644531 C 89.109375 26.917969 88.882812 27.175781 88.617188 27.394531 C 85.828125 29.707031 81.1875 32.464844 74.886719 32.484375 L 74.824219 32.484375 C 68.167969 32.484375 63.328125 29.300781 61.03125 27.394531 C 60.714844 27.132812 60.445312 26.824219 60.230469 26.484375 L 60.230469 22.996094 C 60.230469 22.097656 59.503906 21.371094 58.605469 21.371094 L 58.023438 21.371094 C 57.125 21.371094 56.394531 22.097656 56.394531 22.996094 L 56.394531 26.515625 C 56.183594 26.84375 55.925781 27.140625 55.617188 27.394531 C 53.320312 29.300781 48.480469 32.484375 41.824219 32.484375 L 41.761719 32.484375 C 35.460938 32.464844 30.820312 29.707031 28.03125 27.394531 C 27.667969 27.09375 27.367188 26.726562 27.140625 26.320312 L 27.140625 22.996094 C 27.140625 22.097656 26.410156 21.371094 25.511719 21.371094 L 24.933594 21.371094 C 24.035156 21.371094 23.304688 22.097656 23.304688 22.996094 L 23.304688 26.644531 L 23.328125 26.644531 C 23.132812 26.917969 22.90625 27.175781 22.640625 27.394531 C 19.855469 29.707031 15.210938 32.464844 8.914062 32.484375 L 8.847656 32.484375 C 2.191406 32.484375 -2.648438 29.300781 -4.945312 27.394531 C -5.261719 27.132812 -5.527344 26.824219 -5.742188 26.480469 L -5.742188 22.996094 C -5.742188 22.097656 -6.472656 21.367188 -7.371094 21.367188 L -7.953125 21.367188 C -8.851562 21.367188 -9.578125 22.097656 -9.578125 22.996094 L -9.578125 26.515625 C -9.792969 26.84375 -10.050781 27.140625 -10.355469 27.394531 C -12.652344 29.296875 -17.492188 32.484375 -24.148438 32.484375 L -24.214844 32.484375 C -30.511719 32.464844 -35.15625 29.707031 -37.941406 27.394531 C -38.308594 27.09375 -38.605469 26.726562 -38.835938 26.320312 L -38.835938 22.996094 C -38.835938 22.097656 -39.5625 21.367188 -40.460938 21.367188 L -41.042969 21.367188 C -41.941406 21.367188 -42.671875 22.097656 -42.671875 22.996094 L -42.671875 26.644531 L -42.644531 26.644531 C -42.839844 26.917969 -43.066406 27.175781 -43.332031 27.394531 C -46.121094 29.707031 -50.761719 32.464844 -57.0625 32.484375 L -57.125 32.484375 C -63.78125 32.484375 -68.621094 29.296875 -70.917969 27.394531 C -71.238281 27.132812 -71.503906 26.824219 -71.71875 26.480469 L -71.71875 22.996094 C -71.71875 22.097656 -72.445312 21.367188 -73.34375 21.367188 L -73.925781 21.367188 C -74.824219 21.367188 -75.554688 22.097656 -75.554688 22.996094 L -75.554688 26.515625 C -75.765625 26.84375 -76.023438 27.140625 -76.332031 27.394531 C -78.628906 29.296875 -83.46875 32.484375 -90.125 32.484375 L -90.1875 32.484375 C -96.488281 32.464844 -101.128906 29.707031 -103.917969 27.394531 C -104.28125 27.09375 -104.582031 26.726562 -104.808594 26.320312 L -104.808594 22.996094 C -104.808594 22.097656 -105.539062 21.367188 -106.4375 21.367188 L -107.019531 21.367188 C -107.917969 21.367188 -108.644531 22.097656 -108.644531 22.996094 L -108.644531 26.644531 L -108.621094 26.644531 C -108.816406 26.917969 -109.042969 27.175781 -109.308594 27.394531 C -112.09375 29.707031 -116.738281 32.464844 -123.035156 32.484375 L -123.101562 32.484375 C -129.757812 32.484375 -134.597656 29.296875 -136.894531 27.394531 C -137.210938 27.132812 -137.476562 26.824219 -137.691406 26.480469 L -137.691406 22.996094 C -137.691406 22.097656 -138.421875 21.367188 -139.320312 21.367188 L -139.902344 21.367188 C -140.800781 21.367188 -141.527344 22.097656 -141.527344 22.996094 L -141.527344 26.511719 C -141.742188 26.839844 -142 27.140625 -142.308594 27.394531 C -144.605469 29.296875 -149.441406 32.484375 -156.097656 32.484375 L -156.164062 32.484375 C -162.460938 32.464844 -167.105469 29.707031 -169.890625 27.394531 C -170.257812 27.089844 -170.554688 26.726562 -170.785156 26.320312 L -170.785156 22.996094 C -170.785156 22.097656 -171.511719 21.367188 -172.410156 21.367188 L -172.992188 21.367188 C -173.890625 21.367188 -174.621094 22.097656 -174.621094 22.996094 L -174.621094 26.640625 L -174.59375 26.640625 C -174.789062 26.917969 -175.019531 27.175781 -175.285156 27.394531 C -178.070312 29.707031 -182.710938 32.464844 -189.011719 32.484375 L -189.074219 32.484375 C -195.730469 32.484375 -200.570312 29.296875 -202.867188 27.394531 C -203.1875 27.132812 -203.453125 26.824219 -203.667969 26.480469 L -203.667969 22.996094 C -203.667969 22.097656 -204.398438 21.367188 -205.296875 21.367188 L -205.875 21.367188 C -206.773438 21.367188 -207.503906 22.097656 -207.503906 22.996094 L -207.503906 26.511719 C -207.714844 26.839844 -207.972656 27.140625 -208.28125 27.394531 C -210.578125 29.296875 -215.417969 32.484375 -222.074219 32.484375 L -222.136719 32.484375 C -228.4375 32.464844 -233.082031 29.707031 -235.867188 27.394531 C -236.234375 27.089844 -236.53125 26.726562 -236.757812 26.320312 L -236.757812 22.996094 C -236.757812 22.097656 -237.488281 21.367188 -238.386719 21.367188 L -238.96875 21.367188 C -239.867188 21.367188 -240.59375 22.097656 -240.59375 22.996094 L -240.59375 26.640625 L -240.570312 26.640625 C -240.765625 26.917969 -240.992188 27.175781 -241.257812 27.394531 C -244.042969 29.707031 -248.6875 32.464844 -254.988281 32.484375 L -255.050781 32.484375 C -261.707031 32.484375 -266.546875 29.296875 -268.84375 27.394531 C -269.160156 27.132812 -269.425781 26.824219 -269.644531 26.480469 L -269.644531 22.996094 C -269.644531 22.097656 -270.371094 21.367188 -271.269531 21.367188 L -271.851562 21.367188 C -272.75 21.367188 -273.480469 22.097656 -273.480469 22.996094 L -273.480469 26.511719 C -273.691406 26.839844 -273.949219 27.140625 -274.257812 27.394531 C -276.554688 29.296875 -281.394531 32.484375 -288.050781 32.484375 L -288.113281 32.484375 C -294.410156 32.464844 -299.054688 29.703125 -301.839844 27.394531 C -302.109375 27.171875 -302.335938 26.917969 -302.53125 26.640625 L -302.503906 26.640625 L -302.503906 22.996094 C -302.503906 22.097656 -303.234375 21.367188 -304.132812 21.367188 L -304.714844 21.367188 C -305.613281 21.367188 -306.339844 22.097656 -306.339844 22.996094 L -306.339844 26.335938 C -306.570312 26.734375 -306.867188 27.09375 -307.230469 27.394531 C -309.527344 29.300781 -314.359375 32.484375 -321.019531 32.484375 L -321.019531 35.0625 C -313.554688 35.0625 -308.140625 31.507812 -305.582031 29.382812 C -305.183594 29.054688 -304.835938 28.679688 -304.535156 28.277344 C -304.230469 28.679688 -303.886719 29.050781 -303.488281 29.378906 C -300.941406 31.492188 -295.558594 35.042969 -288.121094 35.066406 L -288.046875 35.066406 C -280.585938 35.066406 -275.175781 31.507812 -272.609375 29.382812 C -272.207031 29.046875 -271.855469 28.667969 -271.550781 28.257812 C -271.246094 28.667969 -270.890625 29.046875 -270.488281 29.382812 C -267.925781 31.507812 -262.515625 35.066406 -255.050781 35.066406 L -254.980469 35.066406 C -247.542969 35.042969 -242.160156 31.492188 -239.609375 29.378906 C -239.214844 29.050781 -238.867188 28.675781 -238.5625 28.269531 C -238.261719 28.675781 -237.914062 29.050781 -237.515625 29.378906 C -234.96875 31.492188 -229.582031 35.042969 -222.148438 35.066406 L -222.074219 35.066406 C -214.609375 35.066406 -209.199219 31.507812 -206.636719 29.382812 C -206.234375 29.046875 -205.882812 28.667969 -205.574219 28.257812 C -205.269531 28.667969 -204.917969 29.046875 -204.515625 29.382812 C -201.953125 31.507812 -196.542969 35.066406 -189.078125 35.066406 L -189.003906 35.066406 C -181.566406 35.042969 -176.183594 31.492188 -173.636719 29.378906 C -173.238281 29.050781 -172.890625 28.675781 -172.589844 28.269531 C -172.285156 28.675781 -171.9375 29.050781 -171.539062 29.378906 C -168.992188 31.492188 -163.609375 35.042969 -156.171875 35.066406 L -156.101562 35.066406 C -148.636719 35.066406 -143.226562 31.507812 -140.660156 29.382812 C -140.257812 29.046875 -139.90625 28.667969 -139.601562 28.257812 C -139.296875 28.667969 -138.945312 29.046875 -138.539062 29.382812 C -135.976562 31.507812 -130.566406 35.066406 -123.101562 35.066406 L -123.03125 35.066406 C -115.59375 35.042969 -110.210938 31.492188 -107.664062 29.378906 C -107.265625 29.050781 -106.917969 28.675781 -106.613281 28.269531 C -106.3125 28.675781 -105.964844 29.050781 -105.566406 29.378906 C -103.019531 31.492188 -97.632812 35.042969 -90.199219 35.066406 L -90.125 35.066406 C -82.660156 35.066406 -77.25 31.507812 -74.6875 29.382812 C -74.285156 29.046875 -73.933594 28.667969 -73.628906 28.257812 C -73.320312 28.667969 -72.96875 29.046875 -72.566406 29.382812 C -70.003906 31.507812 -64.59375 35.066406 -57.128906 35.066406 L -57.054688 35.066406 C -49.621094 35.042969 -44.234375 31.492188 -41.6875 29.378906 C -41.289062 29.050781 -40.941406 28.675781 -40.640625 28.269531 C -40.335938 28.675781 -39.988281 29.050781 -39.59375 29.378906 C -37.042969 31.492188 -31.660156 35.042969 -24.222656 35.066406 L -24.152344 35.066406 C -16.6875 35.066406 -11.277344 31.507812 -8.714844 29.382812 C -8.308594 29.046875 -7.957031 28.667969 -7.652344 28.257812 C -7.347656 28.667969 -6.996094 29.046875 -6.59375 29.382812 C -4.027344 31.507812 1.378906 35.066406 8.84375 35.066406 L 8.917969 35.066406 C 16.355469 35.042969 21.738281 31.492188 24.285156 29.378906 C 24.683594 29.050781 25.03125 28.675781 25.332031 28.269531 C 25.636719 28.675781 25.984375 29.050781 26.382812 29.378906 C 28.929688 31.492188 34.3125 35.042969 41.75 35.066406 L 41.820312 35.066406 C 49.285156 35.066406 54.695312 31.507812 57.261719 29.382812 C 57.664062 29.046875 58.015625 28.667969 58.320312 28.257812 C 58.625 28.667969 58.976562 29.046875 59.382812 29.382812 C 61.945312 31.507812 67.355469 35.066406 74.820312 35.066406 L 74.890625 35.066406 C 82.328125 35.042969 87.710938 31.492188 90.257812 29.378906 C 90.660156 29.050781 91.007812 28.671875 91.3125 28.265625 C 91.617188 28.675781 91.964844 29.050781 92.367188 29.382812 C 94.925781 31.507812 100.339844 35.066406 107.804688 35.066406 L 107.804688 32.484375 C 101.144531 32.484375 96.308594 29.300781 94.015625 27.394531 Z M -232.753906 17.1875 C -231.09375 15.53125 -230 13.292969 -229.808594 10.769531 C -229.761719 10.121094 -229.773438 9.480469 -229.84375 8.855469 C -230.519531 11.726562 -232.035156 14.167969 -234.019531 15.804688 C -234.417969 16.132812 -234.480469 16.714844 -234.160156 17.117188 C -233.808594 17.558594 -233.152344 17.589844 -232.753906 17.1875 Z M -244.601562 17.1875 C -244.199219 17.589844 -243.542969 17.558594 -243.191406 17.117188 C -242.871094 16.714844 -242.9375 16.132812 -243.332031 15.804688 C -245.320312 14.167969 -246.832031 11.726562 -247.507812 8.855469 C -247.578125 9.480469 -247.59375 10.121094 -247.542969 10.769531 C -247.355469 13.292969 -246.261719 15.53125 -244.601562 17.1875 Z M -233.714844 22.359375 C -233.386719 23.238281 -232.367188 23.625 -231.53125 23.199219 C -228.070312 21.4375 -225.195312 18.472656 -223.605469 14.597656 C -223.195312 13.601562 -222.890625 12.585938 -222.679688 11.566406 C -225.21875 15.742188 -228.851562 18.808594 -232.820312 20.367188 C -233.613281 20.679688 -234.011719 21.5625 -233.714844 22.359375 Z M -245.820312 23.199219 C -244.984375 23.625 -243.964844 23.238281 -243.636719 22.359375 C -243.339844 21.5625 -243.742188 20.679688 -244.53125 20.367188 C -248.5 18.808594 -252.136719 15.742188 -254.671875 11.566406 C -254.464844 12.585938 -254.15625 13.601562 -253.746094 14.597656 C -252.15625 18.472656 -249.285156 21.4375 -245.820312 23.199219 Z M -238.675781 0.738281 C -243.296875 5.359375 -243.296875 12.847656 -238.675781 17.46875 C -234.054688 12.847656 -234.054688 5.359375 -238.675781 0.738281 Z M -203.238281 9.652344 C -204.277344 8.121094 -206.875 8.121094 -207.921875 9.652344 C -209.132812 11.429688 -208.621094 15.789062 -205.597656 19.363281 C -202.566406 15.773438 -202.039062 11.425781 -203.238281 9.652344 Z M -208.722656 19.5 C -209.789062 16.546875 -212.132812 14.785156 -213.558594 14.886719 C -214.796875 14.976562 -215.664062 16.480469 -215.125 17.597656 C -214.503906 18.894531 -211.804688 20.058594 -208.722656 19.5 Z M -196.046875 17.601562 C -195.507812 16.480469 -196.378906 14.976562 -197.613281 14.886719 C -199.039062 14.785156 -201.382812 16.546875 -202.449219 19.503906 C -199.367188 20.058594 -196.667969 18.894531 -196.046875 17.601562 Z M -166.777344 17.1875 C -165.121094 15.53125 -164.023438 13.292969 -163.835938 10.769531 C -163.785156 10.121094 -163.800781 9.480469 -163.871094 8.855469 C -164.546875 11.726562 -166.058594 14.167969 -168.046875 15.804688 C -168.441406 16.132812 -168.507812 16.714844 -168.1875 17.117188 C -167.835938 17.558594 -167.179688 17.589844 -166.777344 17.1875 Z M -178.625 17.1875 C -178.226562 17.589844 -177.570312 17.558594 -177.214844 17.117188 C -176.898438 16.714844 -176.960938 16.132812 -177.359375 15.804688 C -179.34375 14.167969 -180.859375 11.726562 -181.535156 8.855469 C -181.605469 9.480469 -181.617188 10.121094 -181.570312 10.769531 C -181.378906 13.292969 -180.285156 15.53125 -178.625 17.1875 Z M -167.738281 22.359375 C -167.414062 23.238281 -166.394531 23.625 -165.558594 23.199219 C -162.09375 21.4375 -159.222656 18.472656 -157.628906 14.597656 C -157.222656 13.601562 -156.914062 12.585938 -156.707031 11.566406 C -159.242188 15.742188 -162.878906 18.808594 -166.84375 20.367188 C -167.636719 20.679688 -168.035156 21.5625 -167.738281 22.359375 Z M -179.847656 23.199219 C -179.011719 23.625 -177.992188 23.238281 -177.664062 22.359375 C -177.367188 21.5625 -177.765625 20.679688 -178.558594 20.367188 C -182.527344 18.808594 -186.160156 15.742188 -188.699219 11.566406 C -188.488281 12.585938 -188.183594 13.601562 -187.773438 14.597656 C -186.179688 18.472656 -183.308594 21.4375 -179.847656 23.199219 Z M -172.703125 0.738281 C -177.320312 5.359375 -177.320312 12.847656 -172.703125 17.46875 C -168.082031 12.847656 -168.082031 5.359375 -172.703125 0.738281 Z M -137.265625 9.652344 C -138.300781 8.121094 -140.898438 8.121094 -141.945312 9.652344 C -143.15625 11.429688 -142.648438 15.789062 -139.625 19.363281 C -136.59375 15.773438 -136.0625 11.425781 -137.265625 9.652344 Z M -142.75 19.5 C -143.816406 16.546875 -146.15625 14.785156 -147.585938 14.886719 C -148.820312 14.976562 -149.691406 16.480469 -149.152344 17.597656 C -148.527344 18.894531 -145.832031 20.058594 -142.75 19.5 Z M -130.070312 17.601562 C -129.53125 16.480469 -130.402344 14.976562 -131.636719 14.886719 C -133.066406 14.785156 -135.40625 16.546875 -136.472656 19.503906 C -133.390625 20.058594 -130.695312 18.894531 -130.070312 17.601562 Z M -100.804688 17.1875 C -99.144531 15.53125 -98.050781 13.292969 -97.859375 10.769531 C -97.8125 10.121094 -97.824219 9.480469 -97.894531 8.855469 C -98.570312 11.726562 -100.085938 14.167969 -102.070312 15.804688 C -102.46875 16.132812 -102.53125 16.714844 -102.210938 17.117188 C -101.859375 17.558594 -101.203125 17.589844 -100.804688 17.1875 Z M -112.652344 17.1875 C -112.25 17.589844 -111.59375 17.558594 -111.242188 17.117188 C -110.921875 16.714844 -110.988281 16.132812 -111.382812 15.804688 C -113.371094 14.167969 -114.882812 11.726562 -115.558594 8.855469 C -115.628906 9.480469 -115.644531 10.121094 -115.59375 10.769531 C -115.40625 13.292969 -114.308594 15.53125 -112.652344 17.1875 Z M -101.765625 22.359375 C -101.4375 23.238281 -100.417969 23.625 -99.582031 23.199219 C -96.121094 21.4375 -93.246094 18.472656 -91.65625 14.597656 C -91.246094 13.601562 -90.9375 12.585938 -90.730469 11.566406 C -93.265625 15.742188 -96.902344 18.808594 -100.871094 20.367188 C -101.664062 20.679688 -102.0625 21.5625 -101.765625 22.359375 Z M -113.871094 23.199219 C -113.035156 23.625 -112.015625 23.238281 -111.6875 22.359375 C -111.390625 21.5625 -111.792969 20.679688 -112.582031 20.367188 C -116.550781 18.808594 -120.1875 15.742188 -122.722656 11.566406 C -122.515625 12.585938 -122.207031 13.601562 -121.796875 14.597656 C -120.207031 18.472656 -117.335938 21.4375 -113.871094 23.199219 Z M -106.726562 0.738281 C -111.347656 5.359375 -111.347656 12.847656 -106.726562 17.46875 C -102.105469 12.847656 -102.105469 5.359375 -106.726562 0.738281 Z M -71.289062 9.652344 C -72.328125 8.121094 -74.925781 8.121094 -75.972656 9.652344 C -77.183594 11.429688 -76.671875 15.789062 -73.648438 19.363281 C -70.617188 15.773438 -70.089844 11.425781 -71.289062 9.652344 Z M -76.773438 19.5 C -77.839844 16.546875 -80.183594 14.785156 -81.609375 14.886719 C -82.84375 14.976562 -83.714844 16.480469 -83.175781 17.597656 C -82.554688 18.894531 -79.855469 20.058594 -76.773438 19.5 Z M -64.097656 17.601562 C -63.558594 16.480469 -64.425781 14.976562 -65.660156 14.886719 C -67.089844 14.785156 -69.433594 16.546875 -70.496094 19.503906 C -67.414062 20.058594 -64.71875 18.894531 -64.097656 17.601562 Z M -34.828125 17.1875 C -33.167969 15.53125 -32.074219 13.292969 -31.886719 10.769531 C -31.835938 10.121094 -31.851562 9.480469 -31.921875 8.855469 C -32.597656 11.726562 -34.109375 14.167969 -36.097656 15.804688 C -36.492188 16.132812 -36.558594 16.714844 -36.238281 17.117188 C -35.886719 17.558594 -35.230469 17.589844 -34.828125 17.1875 Z M -46.675781 17.1875 C -46.277344 17.589844 -45.617188 17.558594 -45.265625 17.117188 C -44.949219 16.714844 -45.011719 16.132812 -45.410156 15.804688 C -47.394531 14.167969 -48.910156 11.726562 -49.585938 8.855469 C -49.65625 9.480469 -49.667969 10.121094 -49.621094 10.769531 C -49.429688 13.292969 -48.335938 15.53125 -46.675781 17.1875 Z M -35.789062 22.359375 C -35.464844 23.238281 -34.445312 23.625 -33.609375 23.199219 C -30.144531 21.4375 -27.273438 18.472656 -25.679688 14.597656 C -25.269531 13.601562 -24.964844 12.585938 -24.753906 11.566406 C -27.292969 15.742188 -30.929688 18.808594 -34.894531 20.367188 C -35.6875 20.679688 -36.085938 21.5625 -35.789062 22.359375 Z M -47.894531 23.199219 C -47.058594 23.625 -46.042969 23.238281 -45.714844 22.359375 C -45.417969 21.5625 -45.816406 20.679688 -46.609375 20.367188 C -50.574219 18.808594 -54.210938 15.742188 -56.75 11.566406 C -56.539062 12.585938 -56.234375 13.601562 -55.824219 14.597656 C -54.230469 18.472656 -51.359375 21.4375 -47.894531 23.199219 Z M -40.753906 0.738281 C -45.371094 5.359375 -45.371094 12.847656 -40.753906 17.46875 C -36.132812 12.847656 -36.132812 5.359375 -40.753906 0.738281 Z M -5.316406 9.652344 C -6.351562 8.121094 -8.949219 8.121094 -9.996094 9.652344 C -11.207031 11.429688 -10.699219 15.789062 -7.671875 19.363281 C -4.644531 15.773438 -4.113281 11.425781 -5.316406 9.652344 Z M -10.800781 19.5 C -11.867188 16.546875 -14.207031 14.785156 -15.636719 14.886719 C -16.871094 14.976562 -17.738281 16.480469 -17.203125 17.597656 C -16.578125 18.894531 -13.882812 20.058594 -10.800781 19.5 Z M 1.878906 17.601562 C 2.417969 16.480469 1.546875 14.976562 0.3125 14.886719 C -1.117188 14.785156 -3.457031 16.546875 -4.523438 19.503906 C -1.441406 20.058594 1.257812 18.894531 1.878906 17.601562 Z M 31.144531 17.1875 C 32.804688 15.53125 33.902344 13.292969 34.089844 10.769531 C 34.136719 10.121094 34.125 9.480469 34.054688 8.855469 C 33.378906 11.726562 31.863281 14.167969 29.878906 15.804688 C 29.480469 16.132812 29.417969 16.714844 29.738281 17.117188 C 30.089844 17.558594 30.746094 17.589844 31.144531 17.1875 Z M 19.296875 17.1875 C 19.699219 17.589844 20.355469 17.558594 20.707031 17.117188 C 21.027344 16.714844 20.964844 16.132812 20.566406 15.804688 C 18.582031 14.167969 17.066406 11.726562 16.390625 8.855469 C 16.320312 9.480469 16.308594 10.121094 16.355469 10.769531 C 16.542969 13.292969 17.640625 15.53125 19.296875 17.1875 Z M 30.183594 22.359375 C 30.511719 23.238281 31.53125 23.625 32.367188 23.199219 C 35.828125 21.4375 38.703125 18.472656 40.292969 14.597656 C 40.703125 13.601562 41.011719 12.585938 41.21875 11.566406 C 38.683594 15.742188 35.046875 18.808594 31.078125 20.367188 C 30.289062 20.679688 29.886719 21.5625 30.183594 22.359375 Z M 18.078125 23.199219 C 18.914062 23.625 19.933594 23.238281 20.261719 22.359375 C 20.558594 21.5625 20.15625 20.679688 19.367188 20.367188 C 15.398438 18.808594 11.761719 15.742188 9.226562 11.566406 C 9.433594 12.585938 9.742188 13.601562 10.152344 14.597656 C 11.742188 18.472656 14.617188 21.4375 18.078125 23.199219 Z M 25.222656 0.738281 C 20.601562 5.359375 20.601562 12.847656 25.222656 17.46875 C 29.84375 12.847656 29.84375 5.359375 25.222656 0.738281 Z M 60.660156 9.652344 C 59.621094 8.121094 57.023438 8.121094 55.980469 9.652344 C 54.765625 11.429688 55.277344 15.789062 58.300781 19.363281 C 61.332031 15.773438 61.859375 11.425781 60.660156 9.652344 Z M 55.175781 19.5 C 54.109375 16.546875 51.769531 14.785156 50.339844 14.886719 C 49.105469 14.976562 48.234375 16.480469 48.773438 17.597656 C 49.394531 18.894531 52.09375 20.058594 55.175781 19.5 Z M 67.855469 17.601562 C 68.390625 16.480469 67.523438 14.976562 66.289062 14.886719 C 64.859375 14.785156 62.515625 16.546875 61.453125 19.503906 C 64.535156 20.058594 67.230469 18.894531 67.855469 17.601562 Z M 97.121094 17.1875 C 98.78125 15.53125 99.875 13.292969 100.0625 10.769531 C 100.113281 10.121094 100.097656 9.480469 100.027344 8.855469 C 99.351562 11.726562 97.839844 14.167969 95.851562 15.804688 C 95.457031 16.132812 95.390625 16.714844 95.710938 17.117188 C 96.0625 17.558594 96.722656 17.589844 97.121094 17.1875 Z M 85.273438 17.1875 C 85.671875 17.589844 86.332031 17.558594 86.683594 17.117188 C 87.003906 16.714844 86.9375 16.132812 86.542969 15.804688 C 84.554688 14.167969 83.042969 11.726562 82.367188 8.855469 C 82.296875 9.480469 82.28125 10.121094 82.328125 10.769531 C 82.519531 13.292969 83.613281 15.53125 85.273438 17.1875 Z M 96.160156 22.359375 C 96.488281 23.238281 97.503906 23.625 98.339844 23.199219 C 101.804688 21.4375 104.675781 18.472656 106.269531 14.597656 C 106.679688 13.601562 106.984375 12.585938 107.195312 11.566406 C 104.65625 15.742188 101.023438 18.808594 97.054688 20.367188 C 96.261719 20.679688 95.863281 21.5625 96.160156 22.359375 Z M 84.054688 23.199219 C 84.890625 23.625 85.910156 23.238281 86.234375 22.359375 C 86.53125 21.5625 86.132812 20.679688 85.339844 20.367188 C 81.375 18.808594 77.738281 15.742188 75.203125 11.566406 C 75.410156 12.585938 75.71875 13.601562 76.125 14.597656 C 77.71875 18.472656 80.589844 21.4375 84.054688 23.199219 Z M 91.199219 0.738281 C 86.578125 5.359375 86.578125 12.847656 91.199219 17.46875 C 95.816406 12.847656 95.816406 5.359375 91.199219 0.738281 Z M 91.199219 0.738281 " fill-opacity="1" fill-rule="nonzero"/></g></svg>