<svg xmlns="http://www.w3.org/2000/svg" xmlns:xlink="http://www.w3.org/1999/xlink" width="200" zoomAndPan="magnify" viewBox="0 0 150 44.999999" height="60" preserveAspectRatio="xMidYMid meet" version="1.0"><defs><g/><clipPath id="50ac30cf3e"><path d="M 45 0 L 95 0 L 95 45 L 45 45 Z M 45 0 " clip-rule="nonzero"/></clipPath><clipPath id="17312dc959"><rect x="0" width="150" y="0" height="45"/></clipPath></defs><g transform="matrix(1, 0, 0, 1, 0, 0)"><g clip-path="url(#17312dc959)"><g clip-path="url(#50ac30cf3e)"><g fill="#e1b382" fill-opacity="1"><g transform="translate(96.198346, 45.522696)"><g><path d="M -6.140625 -12.25 C -6.273438 -11.414062 -6.484375 -10.597656 -6.765625 -9.796875 C -8.117188 -6.472656 -10.472656 -4.191406 -13.828125 -2.953125 C -17.179688 -1.710938 -20.898438 -1.421875 -24.984375 -2.078125 C -29.648438 -2.835938 -34.15625 -4.785156 -38.5 -7.921875 C -40.207031 -9.222656 -41.804688 -10.785156 -43.296875 -12.609375 C -44.785156 -14.429688 -45.925781 -16.203125 -46.71875 -17.921875 C -47.082031 -18.816406 -47.410156 -19.84375 -47.703125 -21 C -48.097656 -22.78125 -48.242188 -24.019531 -48.140625 -24.71875 C -48.097656 -24.945312 -48.019531 -25.050781 -47.90625 -25.03125 L -47.703125 -24.96875 C -47.546875 -24.945312 -47.441406 -25.09375 -47.390625 -25.40625 C -47.367188 -25.5625 -47.347656 -26.082031 -47.328125 -26.96875 C -46.992188 -25.726562 -46.78125 -25.078125 -46.6875 -25.015625 C -46.570312 -24.992188 -46.488281 -25.140625 -46.4375 -25.453125 C -46.375 -25.867188 -46.363281 -26.566406 -46.40625 -27.546875 C -46.144531 -27.921875 -45.921875 -28.304688 -45.734375 -28.703125 C -44.867188 -30.535156 -44.414062 -31.570312 -44.375 -31.8125 C -44.332031 -32.050781 -44.382812 -32.179688 -44.53125 -32.203125 C -44.875 -32.253906 -45.039062 -32.335938 -45.03125 -32.453125 C -45.019531 -32.515625 -44.984375 -32.566406 -44.921875 -32.609375 C -44.710938 -32.890625 -44.382812 -33.535156 -43.9375 -34.546875 C -42.695312 -37.304688 -42.007812 -39.097656 -41.875 -39.921875 C -41.769531 -40.535156 -41.472656 -41.035156 -40.984375 -41.421875 C -40.492188 -41.804688 -40.148438 -42.597656 -39.953125 -43.796875 C -39.597656 -45.628906 -39.328125 -46.53125 -39.140625 -46.5 C -38.910156 -46.457031 -38.859375 -45.398438 -38.984375 -43.328125 C -39.109375 -41.503906 -39.125 -40.585938 -39.03125 -40.578125 C -38.988281 -40.566406 -38.9375 -40.703125 -38.875 -40.984375 C -38.363281 -43.097656 -37.9375 -44.128906 -37.59375 -44.078125 C -37.34375 -44.035156 -37.15625 -43.710938 -37.03125 -43.109375 C -36.925781 -42.597656 -36.925781 -42.003906 -37.03125 -41.328125 C -37.1875 -40.390625 -37.148438 -39.898438 -36.921875 -39.859375 L -36.71875 -39.84375 C -36.476562 -39.800781 -36.3125 -39.46875 -36.21875 -38.84375 C -36.113281 -38.09375 -36.132812 -37.101562 -36.28125 -35.875 C -36.332031 -35.28125 -36.28125 -34.972656 -36.125 -34.953125 C -35.832031 -34.898438 -35.492188 -35.335938 -35.109375 -36.265625 L -34.609375 -37.71875 L -34.28125 -36.375 C -34.144531 -35.757812 -34.007812 -35.394531 -33.875 -35.28125 C -33.75 -35.164062 -33.597656 -35.097656 -33.421875 -35.078125 C -33.191406 -35.035156 -32.90625 -35.035156 -32.5625 -35.078125 C -31.507812 -35.109375 -30.125 -34.984375 -28.40625 -34.703125 C -24.6875 -34.097656 -21.785156 -33.367188 -19.703125 -32.515625 C -16.765625 -31.160156 -14.195312 -29.488281 -12 -27.5 C -9.8125 -25.507812 -8.25 -23.414062 -7.3125 -21.21875 C -6.0625 -18.082031 -5.671875 -15.09375 -6.140625 -12.25 Z M -7.25 -14.703125 C -7.195312 -14.984375 -7.21875 -15.128906 -7.3125 -15.140625 C -7.425781 -15.160156 -7.503906 -15.050781 -7.546875 -14.8125 C -7.578125 -14.613281 -7.578125 -14.453125 -7.546875 -14.328125 C -7.523438 -14.203125 -7.492188 -14.132812 -7.453125 -14.125 C -7.378906 -14.113281 -7.3125 -14.304688 -7.25 -14.703125 Z M -7.390625 -16.203125 C -7.335938 -16.796875 -7.519531 -17.71875 -7.9375 -18.96875 C -8.40625 -20.40625 -8.863281 -21.484375 -9.3125 -22.203125 C -9.632812 -22.742188 -9.8125 -23.015625 -9.84375 -23.015625 C -9.851562 -22.960938 -9.6875 -22.570312 -9.34375 -21.84375 C -8.863281 -20.769531 -8.441406 -19.457031 -8.078125 -17.90625 C -7.816406 -16.726562 -7.609375 -16.125 -7.453125 -16.09375 C -7.421875 -16.09375 -7.398438 -16.128906 -7.390625 -16.203125 Z M -15.03125 -13.3125 C -14.539062 -16.257812 -15.71875 -18.941406 -18.5625 -21.359375 C -21.226562 -23.617188 -24.632812 -25.085938 -28.78125 -25.765625 C -31.570312 -26.222656 -33.835938 -26.25 -35.578125 -25.84375 C -36.347656 -25.675781 -36.859375 -25.613281 -37.109375 -25.65625 C -37.367188 -25.695312 -37.679688 -26.015625 -38.046875 -26.609375 C -38.503906 -27.421875 -38.78125 -28.007812 -38.875 -28.375 C -38.894531 -28.5 -38.953125 -28.566406 -39.046875 -28.578125 C -39.296875 -28.617188 -39.894531 -27.984375 -40.84375 -26.671875 C -41.3125 -25.984375 -41.640625 -25.085938 -41.828125 -23.984375 C -42.003906 -22.890625 -42.039062 -21.59375 -41.9375 -20.09375 C -41.351562 -19.675781 -41.003906 -19.460938 -40.890625 -19.453125 C -40.753906 -19.429688 -40.679688 -19.460938 -40.671875 -19.546875 C -40.648438 -19.640625 -40.675781 -19.765625 -40.75 -19.921875 L -40.765625 -20.0625 C -40.734375 -20.0625 -40.613281 -19.898438 -40.40625 -19.578125 C -40.175781 -19.171875 -40.007812 -18.960938 -39.90625 -18.953125 C -39.894531 -18.953125 -39.882812 -18.972656 -39.875 -19.015625 C -39.863281 -19.066406 -39.800781 -19.082031 -39.6875 -19.0625 C -39.53125 -19.03125 -39.304688 -18.90625 -39.015625 -18.6875 C -38.535156 -18.320312 -37.976562 -18.035156 -37.34375 -17.828125 C -36.71875 -17.628906 -35.8125 -17.035156 -34.625 -16.046875 C -31.96875 -13.804688 -29.597656 -12.367188 -27.515625 -11.734375 C -25.441406 -11.097656 -23.988281 -10.710938 -23.15625 -10.578125 C -20.289062 -10.109375 -18.035156 -10.359375 -16.390625 -11.328125 C -16.023438 -11.523438 -15.765625 -11.710938 -15.609375 -11.890625 C -15.316406 -12.253906 -15.125 -12.726562 -15.03125 -13.3125 Z M -13.9375 -27.6875 C -13.925781 -27.738281 -14.066406 -27.921875 -14.359375 -28.234375 C -14.816406 -28.742188 -15.175781 -29.019531 -15.4375 -29.0625 C -15.582031 -29.082031 -15.660156 -29.0625 -15.671875 -29 C -15.691406 -28.882812 -15.332031 -28.59375 -14.59375 -28.125 C -14.226562 -27.851562 -14.007812 -27.707031 -13.9375 -27.6875 Z M -16.234375 -29.484375 C -16.222656 -29.546875 -16.445312 -29.738281 -16.90625 -30.0625 C -17.875 -30.738281 -18.671875 -31.128906 -19.296875 -31.234375 C -19.367188 -31.242188 -19.40625 -31.226562 -19.40625 -31.1875 C -19.425781 -31.070312 -18.875 -30.710938 -17.75 -30.109375 C -17.03125 -29.710938 -16.5625 -29.5 -16.34375 -29.46875 C -16.28125 -29.457031 -16.242188 -29.460938 -16.234375 -29.484375 Z M -16.234375 -29.484375 "/></g></g></g></g></g></g><g fill="#e1b382" fill-opacity="1"><g transform="translate(0.0234392, 36.008128)"><g><path d="M 12.40625 -5.125 C 12.15625 -5.125 11.863281 -5.175781 11.53125 -5.28125 C 11.289062 -5.363281 10.691406 -5.601562 9.734375 -6 C 8.785156 -6.394531 7.578125 -6.882812 6.109375 -7.46875 C 2.148438 -9.03125 0.140625 -9.859375 0.078125 -9.953125 C 0.078125 -9.992188 0.765625 -10.320312 2.140625 -10.9375 C 3.515625 -11.5625 4.519531 -12.023438 5.15625 -12.328125 C 6.65625 -13.066406 8.195312 -13.757812 9.78125 -14.40625 C 10.457031 -14.675781 10.835938 -14.8125 10.921875 -14.8125 C 10.992188 -14.789062 11.03125 -14.757812 11.03125 -14.71875 C 11.03125 -14.6875 11.015625 -14.648438 10.984375 -14.609375 C 10.953125 -14.566406 10.925781 -14.523438 10.90625 -14.484375 C 10.894531 -14.441406 10.890625 -14.40625 10.890625 -14.375 L 10.90625 -14.296875 C 10.90625 -14.253906 10.882812 -14.203125 10.84375 -14.140625 C 10.800781 -14.078125 10.738281 -14.007812 10.65625 -13.9375 C 10.582031 -13.863281 10.5 -13.789062 10.40625 -13.71875 C 10.8125 -13.914062 11.050781 -14.015625 11.125 -14.015625 C 11.132812 -14.015625 11.140625 -14.007812 11.140625 -14 C 11.140625 -13.96875 11.039062 -13.878906 10.84375 -13.734375 C 10.613281 -13.566406 10.414062 -13.304688 10.25 -12.953125 L 9.890625 -12.21875 C 9.816406 -12.039062 8.628906 -11.441406 6.328125 -10.421875 C 5.941406 -10.253906 5.75 -10.148438 5.75 -10.109375 C 5.75 -10.085938 6.03125 -9.960938 6.59375 -9.734375 C 7.8125 -9.222656 9.066406 -8.734375 10.359375 -8.265625 C 10.953125 -8.035156 11.382812 -7.847656 11.65625 -7.703125 C 11.988281 -7.523438 12.203125 -7.4375 12.296875 -7.4375 C 12.410156 -7.4375 12.691406 -7.316406 13.140625 -7.078125 C 13.523438 -6.867188 13.71875 -6.738281 13.71875 -6.6875 C 13.71875 -6.6875 13.710938 -6.679688 13.703125 -6.671875 C 13.691406 -6.671875 13.6875 -6.664062 13.6875 -6.65625 C 13.6875 -6.613281 13.789062 -6.546875 14 -6.453125 C 14.351562 -6.316406 14.53125 -6.203125 14.53125 -6.109375 C 14.53125 -6.085938 14.507812 -6.078125 14.46875 -6.078125 C 14.394531 -6.078125 14.179688 -6.125 13.828125 -6.21875 C 13.523438 -6.300781 13.328125 -6.34375 13.234375 -6.34375 L 13.21875 -6.34375 C 13.21875 -6.3125 13.347656 -6.238281 13.609375 -6.125 C 13.835938 -6.007812 13.953125 -5.921875 13.953125 -5.859375 C 13.953125 -5.785156 13.847656 -5.75 13.640625 -5.75 L 13.40625 -5.765625 C 13.238281 -5.765625 13.15625 -5.738281 13.15625 -5.6875 C 13.15625 -5.632812 13.0625 -5.609375 12.875 -5.609375 C 12.644531 -5.609375 12.335938 -5.640625 11.953125 -5.703125 C 11.835938 -5.722656 11.753906 -5.734375 11.703125 -5.734375 C 11.660156 -5.734375 11.640625 -5.722656 11.640625 -5.703125 C 11.640625 -5.671875 11.789062 -5.585938 12.09375 -5.453125 C 12.40625 -5.296875 12.5625 -5.207031 12.5625 -5.1875 C 12.5625 -5.144531 12.507812 -5.125 12.40625 -5.125 Z M 6 -7.75 C 6.019531 -7.75 6.03125 -7.753906 6.03125 -7.765625 C 6.03125 -7.816406 5.867188 -7.910156 5.546875 -8.046875 C 5.265625 -8.160156 5.09375 -8.21875 5.03125 -8.21875 C 5.007812 -8.21875 5 -8.21875 5 -8.21875 C 5 -8.1875 5.148438 -8.101562 5.453125 -7.96875 C 5.710938 -7.832031 5.894531 -7.757812 6 -7.75 Z M 4.796875 -8.265625 C 4.867188 -8.265625 4.90625 -8.273438 4.90625 -8.296875 C 4.90625 -8.304688 4.867188 -8.332031 4.796875 -8.375 C 4.691406 -8.4375 4.570312 -8.46875 4.4375 -8.46875 C 4.394531 -8.46875 4.375 -8.460938 4.375 -8.453125 C 4.375 -8.441406 4.410156 -8.414062 4.484375 -8.375 C 4.585938 -8.300781 4.691406 -8.265625 4.796875 -8.265625 Z M 2.640625 -9.21875 C 2.660156 -9.21875 2.671875 -9.222656 2.671875 -9.234375 C 2.671875 -9.253906 2.609375 -9.300781 2.484375 -9.375 C 2.316406 -9.46875 2.195312 -9.515625 2.125 -9.515625 C 2.101562 -9.515625 2.09375 -9.515625 2.09375 -9.515625 C 2.09375 -9.492188 2.15625 -9.445312 2.28125 -9.375 C 2.4375 -9.269531 2.554688 -9.21875 2.640625 -9.21875 Z M 1.953125 -9.53125 C 1.960938 -9.53125 1.96875 -9.53125 1.96875 -9.53125 C 1.96875 -9.5625 1.894531 -9.613281 1.75 -9.6875 C 1.519531 -9.800781 1.328125 -9.882812 1.171875 -9.9375 C 1.097656 -9.945312 1.050781 -9.953125 1.03125 -9.953125 C 1.019531 -9.953125 1.015625 -9.953125 1.015625 -9.953125 C 1.015625 -9.929688 1.050781 -9.894531 1.125 -9.84375 C 1.207031 -9.789062 1.300781 -9.742188 1.40625 -9.703125 C 1.675781 -9.585938 1.859375 -9.53125 1.953125 -9.53125 Z M 1.953125 -9.53125 "/></g></g></g><g fill="#2d545e" fill-opacity="1"><g transform="translate(14.613282, 36.008128)"><g><path d="M 8.015625 4.046875 C 7.867188 4.046875 7.710938 4.019531 7.546875 3.96875 C 7.066406 3.800781 6.789062 3.488281 6.71875 3.03125 C 6.675781 2.707031 6.640625 1.429688 6.609375 -0.796875 C 6.441406 -10.816406 5.664062 -17.613281 4.28125 -21.1875 C 3.96875 -21.988281 3.691406 -22.5 3.453125 -22.71875 C 3.390625 -22.78125 3.335938 -22.8125 3.296875 -22.8125 C 3.242188 -22.8125 3.171875 -22.742188 3.078125 -22.609375 C 2.671875 -22.085938 2.289062 -21.125 1.9375 -19.71875 C 1.582031 -18.320312 1.296875 -16.679688 1.078125 -14.796875 C 1.003906 -14.109375 0.945312 -13.765625 0.90625 -13.765625 C 0.894531 -13.765625 0.882812 -13.78125 0.875 -13.8125 C 0.863281 -13.882812 0.847656 -13.921875 0.828125 -13.921875 C 0.804688 -13.921875 0.796875 -13.796875 0.796875 -13.546875 C 0.785156 -13.210938 0.742188 -12.984375 0.671875 -12.859375 C 0.648438 -12.828125 0.632812 -12.8125 0.625 -12.8125 C 0.601562 -12.8125 0.59375 -12.867188 0.59375 -12.984375 C 0.59375 -13.078125 0.597656 -13.207031 0.609375 -13.375 C 0.628906 -13.570312 0.640625 -13.742188 0.640625 -13.890625 C 0.640625 -14.273438 0.597656 -14.46875 0.515625 -14.46875 C 0.492188 -14.46875 0.46875 -14.453125 0.4375 -14.421875 L 0.4375 -14.40625 C 0.40625 -14.40625 0.390625 -14.539062 0.390625 -14.8125 C 0.390625 -14.988281 0.394531 -15.210938 0.40625 -15.484375 L 0.421875 -16.015625 C 0.421875 -16.210938 0.410156 -16.3125 0.390625 -16.3125 C 0.347656 -16.3125 0.269531 -15.789062 0.15625 -14.75 L 0.0625 -13.75 C 0.164062 -16.019531 0.21875 -17.445312 0.21875 -18.03125 C 0.21875 -18.59375 0.175781 -18.898438 0.09375 -18.953125 C 0.03125 -19.003906 0 -19.054688 0 -19.109375 C 0 -19.160156 0.0195312 -19.222656 0.0625 -19.296875 C 0.132812 -19.441406 0.179688 -19.726562 0.203125 -20.15625 C 0.234375 -20.582031 0.265625 -20.882812 0.296875 -21.0625 C 0.335938 -21.238281 0.375 -21.5 0.40625 -21.84375 C 0.445312 -22.207031 0.585938 -22.644531 0.828125 -23.15625 C 1.078125 -23.664062 1.335938 -24.066406 1.609375 -24.359375 C 2.128906 -24.867188 2.679688 -25.125 3.265625 -25.125 C 3.921875 -25.125 4.535156 -24.8125 5.109375 -24.1875 C 5.984375 -23.238281 6.691406 -21.535156 7.234375 -19.078125 C 7.785156 -16.628906 8.203125 -13.28125 8.484375 -9.03125 C 8.648438 -6.875 8.742188 -5.390625 8.765625 -4.578125 C 8.765625 -4.203125 8.773438 -4.015625 8.796875 -4.015625 C 8.859375 -4.015625 9.046875 -4.445312 9.359375 -5.3125 C 9.847656 -6.6875 10.503906 -8.316406 11.328125 -10.203125 C 12.421875 -12.734375 13.613281 -15.234375 14.90625 -17.703125 C 15.351562 -18.546875 15.992188 -19.691406 16.828125 -21.140625 L 17.890625 -22.96875 C 18.242188 -23.59375 18.785156 -24.421875 19.515625 -25.453125 C 19.804688 -25.867188 20.007812 -26.144531 20.125 -26.28125 C 20.320312 -26.5 20.804688 -27.117188 21.578125 -28.140625 C 22.378906 -29.210938 23.132812 -30.117188 23.84375 -30.859375 C 24.5625 -31.609375 25.347656 -32.3125 26.203125 -32.96875 C 26.660156 -33.332031 27.207031 -33.691406 27.84375 -34.046875 C 28.09375 -34.179688 28.253906 -34.253906 28.328125 -34.265625 C 28.328125 -34.234375 28.113281 -34.09375 27.6875 -33.84375 C 27.21875 -33.582031 26.921875 -33.382812 26.796875 -33.25 C 26.753906 -33.207031 26.734375 -33.179688 26.734375 -33.171875 C 26.734375 -33.160156 26.734375 -33.15625 26.734375 -33.15625 C 26.765625 -33.15625 26.84375 -33.203125 26.96875 -33.296875 C 27.375 -33.566406 27.859375 -33.820312 28.421875 -34.0625 C 29.242188 -34.40625 29.941406 -34.578125 30.515625 -34.578125 C 30.734375 -34.578125 30.972656 -34.523438 31.234375 -34.421875 C 31.691406 -34.265625 31.921875 -34.148438 31.921875 -34.078125 C 31.921875 -34.066406 31.914062 -34.0625 31.90625 -34.0625 C 31.882812 -34.0625 31.84375 -34.078125 31.78125 -34.109375 C 31.40625 -34.253906 31.007812 -34.328125 30.59375 -34.328125 C 29.726562 -34.328125 28.785156 -34.003906 27.765625 -33.359375 C 27.171875 -32.984375 26.738281 -32.6875 26.46875 -32.46875 C 26.34375 -32.363281 26.28125 -32.300781 26.28125 -32.28125 C 26.28125 -32.269531 26.285156 -32.265625 26.296875 -32.265625 C 26.347656 -32.265625 26.597656 -32.425781 27.046875 -32.75 C 27.410156 -33 27.804688 -33.234375 28.234375 -33.453125 C 28.992188 -33.828125 29.492188 -34.015625 29.734375 -34.015625 C 29.804688 -34.015625 29.84375 -33.992188 29.84375 -33.953125 C 29.84375 -33.921875 29.828125 -33.894531 29.796875 -33.875 C 29.765625 -33.851562 29.726562 -33.84375 29.6875 -33.84375 C 29.59375 -33.84375 29.53125 -33.8125 29.5 -33.75 C 29.476562 -33.695312 29.234375 -33.5625 28.765625 -33.34375 C 28.234375 -33.082031 27.800781 -32.816406 27.46875 -32.546875 C 27.300781 -32.398438 27.21875 -32.300781 27.21875 -32.25 C 27.21875 -32.226562 27.234375 -32.21875 27.265625 -32.21875 C 27.304688 -32.21875 27.363281 -32.234375 27.4375 -32.265625 L 27.453125 -32.28125 L 27.453125 -32.265625 C 27.453125 -32.210938 27.171875 -31.910156 26.609375 -31.359375 C 25.847656 -30.585938 25.0625 -29.703125 24.25 -28.703125 C 23.9375 -28.304688 23.78125 -28.078125 23.78125 -28.015625 C 23.832031 -28.015625 24.101562 -28.300781 24.59375 -28.875 C 25.207031 -29.582031 25.90625 -30.242188 26.6875 -30.859375 L 26.703125 -30.875 L 26.703125 -30.859375 C 26.703125 -30.816406 26.347656 -30.378906 25.640625 -29.546875 C 20.359375 -23.390625 15.835938 -15.570312 12.078125 -6.09375 C 11.546875 -4.726562 11.019531 -3.234375 10.5 -1.609375 C 9.988281 0.00390625 9.597656 1.394531 9.328125 2.5625 C 9.085938 3.550781 8.648438 4.046875 8.015625 4.046875 Z M 7.234375 3.28125 C 7.242188 3.28125 7.25 3.269531 7.25 3.25 C 7.25 3.226562 7.238281 3.191406 7.21875 3.140625 C 7.195312 3.085938 7.175781 3.050781 7.15625 3.03125 C 7.144531 3.019531 7.132812 3.015625 7.125 3.015625 C 7.101562 3.015625 7.09375 3.03125 7.09375 3.0625 C 7.09375 3.101562 7.101562 3.144531 7.125 3.1875 C 7.164062 3.25 7.203125 3.28125 7.234375 3.28125 Z M 7.03125 1.6875 C 7.03125 1.6875 7.035156 1.65625 7.046875 1.59375 C 7.054688 1.46875 7.0625 1.332031 7.0625 1.1875 C 7.0625 1.050781 7.054688 0.921875 7.046875 0.796875 C 7.035156 0.734375 7.03125 0.703125 7.03125 0.703125 C 7.019531 0.703125 7.015625 0.863281 7.015625 1.1875 C 7.015625 1.519531 7.019531 1.6875 7.03125 1.6875 Z M 9.109375 1.90625 C 9.117188 1.90625 9.128906 1.898438 9.140625 1.890625 C 9.148438 1.878906 9.15625 1.859375 9.15625 1.828125 C 9.15625 1.804688 9.15625 1.789062 9.15625 1.78125 C 9.15625 1.75 9.148438 1.71875 9.140625 1.6875 C 9.128906 1.65625 9.117188 1.640625 9.109375 1.640625 C 9.085938 1.640625 9.078125 1.679688 9.078125 1.765625 C 9.078125 1.859375 9.085938 1.90625 9.109375 1.90625 Z M 7.03125 0.265625 C 7.050781 0.265625 7.0625 0.179688 7.0625 0.015625 C 7.0625 -0.0546875 7.054688 -0.128906 7.046875 -0.203125 C 7.035156 -0.234375 7.03125 -0.25 7.03125 -0.25 C 7.007812 -0.25 7 -0.171875 7 -0.015625 C 7 0.171875 7.007812 0.265625 7.03125 0.265625 Z M 10.578125 -2.859375 C 10.585938 -2.859375 10.628906 -2.929688 10.703125 -3.078125 C 10.796875 -3.273438 10.863281 -3.476562 10.90625 -3.6875 C 10.914062 -3.738281 10.921875 -3.773438 10.921875 -3.796875 C 10.921875 -3.804688 10.914062 -3.8125 10.90625 -3.8125 C 10.894531 -3.8125 10.84375 -3.71875 10.75 -3.53125 C 10.632812 -3.25 10.566406 -3.039062 10.546875 -2.90625 C 10.554688 -2.875 10.566406 -2.859375 10.578125 -2.859375 Z M 11.171875 -4.546875 C 11.210938 -4.546875 11.382812 -4.941406 11.6875 -5.734375 C 12.007812 -6.535156 12.171875 -6.976562 12.171875 -7.0625 C 12.128906 -7.0625 11.953125 -6.664062 11.640625 -5.875 C 11.335938 -5.09375 11.179688 -4.648438 11.171875 -4.546875 Z M 11.171875 -4.546875 "/></g></g></g><g fill="#2d545e" fill-opacity="1"><g transform="translate(31.754013, 36.008128)"><g><path d="M 1.140625 -1.984375 C 0.703125 -1.984375 0.320312 -2.171875 0 -2.546875 C -0.238281 -2.816406 -0.394531 -3.078125 -0.46875 -3.328125 C -0.519531 -3.492188 -0.546875 -3.828125 -0.546875 -4.328125 C -0.546875 -5.015625 -0.519531 -5.566406 -0.46875 -5.984375 C -0.332031 -7.066406 -0.015625 -8.421875 0.484375 -10.046875 C 0.765625 -10.972656 1.03125 -11.757812 1.28125 -12.40625 C 1.53125 -13.050781 1.703125 -13.375 1.796875 -13.375 L 1.84375 -13.375 C 1.894531 -13.375 1.945312 -13.421875 2 -13.515625 C 2.03125 -13.578125 2.054688 -13.609375 2.078125 -13.609375 C 2.097656 -13.609375 2.109375 -13.582031 2.109375 -13.53125 L 2.078125 -13.28125 C 2.078125 -13.15625 2.109375 -13.09375 2.171875 -13.09375 L 2.234375 -13.09375 C 2.285156 -13.09375 2.3125 -13.0625 2.3125 -13 C 2.3125 -12.925781 2.28125 -12.800781 2.21875 -12.625 C 2.175781 -12.507812 2.15625 -12.441406 2.15625 -12.421875 C 2.15625 -12.410156 2.15625 -12.40625 2.15625 -12.40625 C 2.164062 -12.40625 2.203125 -12.445312 2.265625 -12.53125 C 2.367188 -12.65625 2.421875 -12.765625 2.421875 -12.859375 C 2.421875 -12.953125 2.460938 -13.023438 2.546875 -13.078125 C 2.566406 -13.085938 2.582031 -13.09375 2.59375 -13.09375 C 2.601562 -13.09375 2.609375 -13.078125 2.609375 -13.046875 C 2.609375 -13.015625 2.597656 -12.960938 2.578125 -12.890625 C 2.515625 -12.691406 2.484375 -12.507812 2.484375 -12.34375 C 2.484375 -12.144531 2.535156 -11.929688 2.640625 -11.703125 C 2.816406 -11.328125 2.90625 -11.066406 2.90625 -10.921875 L 2.90625 -10.6875 C 2.90625 -10.40625 2.816406 -10.015625 2.640625 -9.515625 C 2.441406 -8.921875 2.328125 -8.507812 2.296875 -8.28125 C 2.296875 -8.125 2.265625 -8 2.203125 -7.90625 C 2.109375 -7.75 1.972656 -7.160156 1.796875 -6.140625 C 1.722656 -5.742188 1.6875 -5.476562 1.6875 -5.34375 C 1.6875 -5.15625 1.734375 -5.0625 1.828125 -5.0625 C 2.085938 -5.0625 2.726562 -5.828125 3.75 -7.359375 L 4.109375 -7.921875 C 4.285156 -8.222656 4.460938 -8.46875 4.640625 -8.65625 C 4.828125 -8.863281 4.984375 -9.09375 5.109375 -9.34375 C 5.242188 -9.59375 5.453125 -9.890625 5.734375 -10.234375 C 6.066406 -10.660156 6.242188 -10.875 6.265625 -10.875 C 6.265625 -10.851562 6.242188 -10.796875 6.203125 -10.703125 C 6.191406 -10.679688 6.1875 -10.660156 6.1875 -10.640625 C 6.1875 -10.628906 6.191406 -10.625 6.203125 -10.625 C 6.234375 -10.625 6.351562 -10.738281 6.5625 -10.96875 C 6.800781 -11.238281 6.945312 -11.375 7 -11.375 C 7.019531 -11.375 7.03125 -11.367188 7.03125 -11.359375 C 7.03125 -11.285156 6.929688 -11.082031 6.734375 -10.75 C 6.535156 -10.414062 6.4375 -10.21875 6.4375 -10.15625 C 6.4375 -10.144531 6.441406 -10.140625 6.453125 -10.140625 C 6.484375 -10.140625 6.59375 -10.242188 6.78125 -10.453125 C 6.945312 -10.628906 7.054688 -10.71875 7.109375 -10.71875 C 7.140625 -10.71875 7.15625 -10.691406 7.15625 -10.640625 C 7.15625 -10.566406 7.113281 -10.425781 7.03125 -10.21875 C 7 -10.125 6.984375 -10.050781 6.984375 -10 C 6.984375 -9.925781 7.007812 -9.875 7.0625 -9.84375 C 7.113281 -9.820312 7.140625 -9.773438 7.140625 -9.703125 C 7.128906 -9.566406 7.054688 -9.320312 6.921875 -8.96875 C 6.878906 -8.863281 6.84375 -8.796875 6.8125 -8.765625 C 6.757812 -8.703125 6.734375 -8.632812 6.734375 -8.5625 C 6.734375 -8.550781 6.738281 -8.546875 6.75 -8.546875 C 6.789062 -8.546875 6.90625 -8.648438 7.09375 -8.859375 C 7.257812 -9.054688 7.367188 -9.15625 7.421875 -9.15625 C 7.453125 -9.144531 7.46875 -9.117188 7.46875 -9.078125 C 7.46875 -8.972656 7.378906 -8.753906 7.203125 -8.421875 C 7.035156 -8.097656 6.710938 -7.585938 6.234375 -6.890625 C 5.753906 -6.203125 5.25 -5.515625 4.71875 -4.828125 C 4.195312 -4.148438 3.789062 -3.660156 3.5 -3.359375 C 2.613281 -2.441406 1.828125 -1.984375 1.140625 -1.984375 Z M 1.71875 -2.34375 C 1.738281 -2.34375 1.773438 -2.351562 1.828125 -2.375 C 1.878906 -2.394531 1.914062 -2.414062 1.9375 -2.4375 C 1.957031 -2.457031 1.96875 -2.472656 1.96875 -2.484375 C 1.96875 -2.503906 1.953125 -2.515625 1.921875 -2.515625 C 1.878906 -2.515625 1.828125 -2.484375 1.765625 -2.421875 C 1.722656 -2.390625 1.703125 -2.363281 1.703125 -2.34375 C 1.703125 -2.34375 1.707031 -2.34375 1.71875 -2.34375 Z M 0.515625 -2.515625 C 0.535156 -2.515625 0.546875 -2.53125 0.546875 -2.5625 C 0.546875 -2.582031 0.46875 -2.660156 0.3125 -2.796875 L 0.0625 -3 C 0.332031 -2.675781 0.484375 -2.515625 0.515625 -2.515625 Z M 2.171875 -2.53125 C 2.253906 -2.53125 2.46875 -2.6875 2.8125 -3 C 2.976562 -3.164062 3.0625 -3.253906 3.0625 -3.265625 C 3.050781 -3.265625 3.015625 -3.238281 2.953125 -3.1875 C 2.722656 -3 2.507812 -2.835938 2.3125 -2.703125 C 2.207031 -2.628906 2.15625 -2.578125 2.15625 -2.546875 C 2.15625 -2.535156 2.160156 -2.53125 2.171875 -2.53125 Z M 0.0625 -3.078125 C 0.0820312 -3.078125 0.09375 -3.09375 0.09375 -3.125 C 0.09375 -3.1875 0.0507812 -3.289062 -0.03125 -3.4375 C -0.09375 -3.5625 -0.140625 -3.625 -0.171875 -3.625 C -0.179688 -3.625 -0.1875 -3.613281 -0.1875 -3.59375 C -0.1875 -3.519531 -0.171875 -3.441406 -0.140625 -3.359375 C -0.109375 -3.273438 -0.0703125 -3.207031 -0.03125 -3.15625 C 0.0078125 -3.101562 0.0390625 -3.078125 0.0625 -3.078125 Z M 3.859375 -15.0625 C 3.734375 -15.0625 3.648438 -15.097656 3.609375 -15.171875 C 3.566406 -15.273438 3.492188 -15.328125 3.390625 -15.328125 C 3.347656 -15.328125 3.273438 -15.347656 3.171875 -15.390625 C 3.078125 -15.441406 2.984375 -15.503906 2.890625 -15.578125 C 2.648438 -15.753906 2.476562 -15.84375 2.375 -15.84375 C 2.269531 -15.84375 2.195312 -15.890625 2.15625 -15.984375 L 2.15625 -16 C 2.15625 -16.101562 2.257812 -16.390625 2.46875 -16.859375 C 2.695312 -17.367188 2.84375 -17.625 2.90625 -17.625 C 2.925781 -17.625 3.007812 -17.585938 3.15625 -17.515625 C 3.3125 -17.441406 3.488281 -17.347656 3.6875 -17.234375 C 3.882812 -17.128906 4.066406 -17.023438 4.234375 -16.921875 C 4.398438 -16.828125 4.519531 -16.753906 4.59375 -16.703125 C 4.664062 -16.648438 4.738281 -16.59375 4.8125 -16.53125 L 4.21875 -15.21875 C 4.15625 -15.113281 4.035156 -15.0625 3.859375 -15.0625 Z M 3.859375 -15.0625 "/></g></g></g><g fill="#2d545e" fill-opacity="1"><g transform="translate(37.030883, 36.008128)"><g><path d="M 1.25 -1.046875 C 1.226562 -1.046875 1.21875 -1.117188 1.21875 -1.265625 C 1.21875 -1.390625 1.222656 -1.585938 1.234375 -1.859375 C 1.253906 -2.140625 1.265625 -2.34375 1.265625 -2.46875 C 1.265625 -2.550781 1.257812 -2.59375 1.25 -2.59375 C 1.238281 -2.59375 1.21875 -2.523438 1.1875 -2.390625 C 1.070312 -1.953125 1 -1.734375 0.96875 -1.734375 C 0.9375 -1.734375 0.90625 -1.757812 0.875 -1.8125 C 0.800781 -1.925781 0.765625 -2.109375 0.765625 -2.359375 C 0.765625 -2.617188 0.710938 -2.804688 0.609375 -2.921875 C 0.503906 -3.046875 0.453125 -3.289062 0.453125 -3.65625 C 0.453125 -3.96875 0.4375 -4.140625 0.40625 -4.171875 C 0.375 -4.203125 0.351562 -4.21875 0.34375 -4.21875 C 0.300781 -4.21875 0.253906 -4.109375 0.203125 -3.890625 C 0.171875 -3.722656 0.128906 -3.640625 0.078125 -3.640625 C 0.0234375 -3.640625 0 -3.734375 0 -3.921875 C 0 -4.222656 0.0195312 -4.597656 0.0625 -5.046875 C 0.144531 -5.910156 0.222656 -6.398438 0.296875 -6.515625 C 0.378906 -6.660156 0.726562 -8.203125 1.34375 -11.140625 C 1.78125 -13.171875 2.128906 -14.773438 2.390625 -15.953125 C 2.660156 -17.128906 2.992188 -18.5 3.390625 -20.0625 C 4.148438 -23.09375 4.738281 -25.351562 5.15625 -26.84375 C 5.363281 -27.582031 5.601562 -28.398438 5.875 -29.296875 C 6.125 -30.109375 6.316406 -30.5625 6.453125 -30.65625 C 6.523438 -30.695312 6.570312 -30.71875 6.59375 -30.71875 C 6.625 -30.71875 6.640625 -30.6875 6.640625 -30.625 C 6.640625 -30.59375 6.632812 -30.546875 6.625 -30.484375 L 6.609375 -30.390625 C 6.609375 -30.273438 6.640625 -30.21875 6.703125 -30.21875 L 6.765625 -30.234375 C 6.816406 -30.234375 6.84375 -30.175781 6.84375 -30.0625 C 6.84375 -30 6.8125 -29.726562 6.75 -29.25 L 7.140625 -30.296875 C 7.097656 -29.554688 7.078125 -29.125 7.078125 -29 C 7.078125 -28.695312 7.101562 -28.503906 7.15625 -28.421875 C 7.21875 -28.347656 7.269531 -28.195312 7.3125 -27.96875 C 7.351562 -27.738281 7.378906 -27.539062 7.390625 -27.375 C 7.398438 -27.207031 7.40625 -27.085938 7.40625 -27.015625 C 7.40625 -26.859375 7.394531 -26.726562 7.375 -26.625 C 7.332031 -26.394531 7.1875 -25.800781 6.9375 -24.84375 L 6.296875 -22.4375 C 5.867188 -20.8125 5.351562 -18.664062 4.75 -16 C 3.96875 -12.613281 3.578125 -10.804688 3.578125 -10.578125 C 3.578125 -10.515625 3.59375 -10.484375 3.625 -10.484375 C 3.664062 -10.484375 4.039062 -10.785156 4.75 -11.390625 C 5.363281 -11.910156 6.03125 -12.492188 6.75 -13.140625 C 8.332031 -14.554688 9.453125 -15.710938 10.109375 -16.609375 C 10.359375 -16.953125 10.523438 -17.125 10.609375 -17.125 C 10.628906 -17.125 10.644531 -17.113281 10.65625 -17.09375 C 10.6875 -17.050781 10.707031 -17.03125 10.71875 -17.03125 C 10.726562 -17.03125 10.734375 -17.050781 10.734375 -17.09375 C 10.734375 -17.132812 10.742188 -17.164062 10.765625 -17.1875 C 10.796875 -17.21875 10.820312 -17.234375 10.84375 -17.234375 C 10.882812 -17.234375 10.90625 -17.21875 10.90625 -17.1875 C 10.90625 -17.144531 10.882812 -17.085938 10.84375 -17.015625 C 10.800781 -16.953125 10.78125 -16.90625 10.78125 -16.875 C 10.78125 -16.820312 10.816406 -16.796875 10.890625 -16.796875 L 10.984375 -16.796875 C 11.023438 -16.796875 11.046875 -16.769531 11.046875 -16.71875 C 11.046875 -16.613281 10.992188 -16.476562 10.890625 -16.3125 C 10.804688 -16.1875 10.765625 -16.097656 10.765625 -16.046875 L 10.765625 -16.015625 L 10.875 -16.09375 C 10.925781 -16.15625 10.984375 -16.234375 11.046875 -16.328125 C 11.191406 -16.566406 11.28125 -16.6875 11.3125 -16.6875 C 11.3125 -16.6875 11.3125 -16.679688 11.3125 -16.671875 C 11.3125 -16.628906 11.257812 -16.492188 11.15625 -16.265625 C 11.070312 -16.066406 11.007812 -15.867188 10.96875 -15.671875 C 10.90625 -15.460938 10.875 -15.300781 10.875 -15.1875 C 10.875 -15.113281 10.890625 -15.078125 10.921875 -15.078125 L 10.953125 -15.078125 C 10.972656 -15.097656 10.988281 -15.109375 11 -15.109375 C 11.007812 -15.109375 11.015625 -15.101562 11.015625 -15.09375 C 11.015625 -15.070312 11 -15.03125 10.96875 -14.96875 C 10.90625 -14.851562 10.847656 -14.722656 10.796875 -14.578125 C 10.742188 -14.441406 10.710938 -14.328125 10.703125 -14.234375 C 10.691406 -14.148438 10.6875 -14.09375 10.6875 -14.0625 C 10.6875 -14.019531 10.691406 -13.988281 10.703125 -13.96875 C 10.703125 -13.90625 10.546875 -13.710938 10.234375 -13.390625 C 9.429688 -12.523438 8.6875 -11.804688 8 -11.234375 C 5.71875 -9.304688 4.21875 -7.960938 3.5 -7.203125 C 2.851562 -6.503906 2.53125 -6 2.53125 -5.6875 C 2.53125 -5.601562 2.5625 -5.546875 2.625 -5.515625 C 2.664062 -5.503906 2.738281 -5.5 2.84375 -5.5 C 3.09375 -5.5 3.378906 -5.523438 3.703125 -5.578125 C 4.097656 -5.628906 5.015625 -5.898438 6.453125 -6.390625 C 7.191406 -6.640625 7.726562 -6.832031 8.0625 -6.96875 C 9.195312 -7.425781 9.859375 -7.65625 10.046875 -7.65625 C 10.078125 -7.65625 10.097656 -7.648438 10.109375 -7.640625 C 10.117188 -7.628906 10.128906 -7.625 10.140625 -7.625 C 10.265625 -7.625 10.503906 -7.695312 10.859375 -7.84375 C 11.210938 -8 11.4375 -8.078125 11.53125 -8.078125 C 11.539062 -8.078125 11.546875 -8.070312 11.546875 -8.0625 C 11.546875 -8.019531 11.3125 -7.851562 10.84375 -7.5625 C 10.375 -7.28125 10.140625 -7.125 10.140625 -7.09375 C 10.179688 -7.09375 10.238281 -7.101562 10.3125 -7.125 C 10.414062 -7.15625 10.535156 -7.203125 10.671875 -7.265625 C 10.890625 -7.359375 11.023438 -7.40625 11.078125 -7.40625 C 11.128906 -7.40625 11.15625 -7.375 11.15625 -7.3125 C 11.15625 -7.269531 11.117188 -7.210938 11.046875 -7.140625 C 10.972656 -7.066406 10.890625 -6.992188 10.796875 -6.921875 C 10.546875 -6.753906 10.421875 -6.644531 10.421875 -6.59375 C 10.421875 -6.550781 10.457031 -6.53125 10.53125 -6.53125 C 10.550781 -6.53125 10.5625 -6.523438 10.5625 -6.515625 C 10.5625 -6.484375 10.488281 -6.40625 10.34375 -6.28125 C 10.144531 -6.113281 9.875 -5.921875 9.53125 -5.703125 C 9.300781 -5.546875 9.1875 -5.457031 9.1875 -5.4375 C 9.1875 -5.425781 9.191406 -5.421875 9.203125 -5.421875 C 9.273438 -5.421875 9.519531 -5.488281 9.9375 -5.625 C 10.164062 -5.707031 10.304688 -5.75 10.359375 -5.75 L 10.375 -5.75 C 10.375 -5.75 10.375 -5.742188 10.375 -5.734375 C 10.375 -5.722656 10.335938 -5.675781 10.265625 -5.59375 C 9.984375 -5.3125 9.378906 -4.988281 8.453125 -4.625 C 7.535156 -4.269531 6.550781 -3.953125 5.5 -3.671875 C 4.457031 -3.398438 3.601562 -3.257812 2.9375 -3.25 L 2.03125 -3.234375 C 1.925781 -2.867188 1.851562 -2.644531 1.8125 -2.5625 C 1.78125 -2.476562 1.75 -2.429688 1.71875 -2.421875 C 1.6875 -2.410156 1.65625 -2.351562 1.625 -2.25 C 1.59375 -2.144531 1.566406 -2.015625 1.546875 -1.859375 C 1.503906 -1.535156 1.429688 -1.289062 1.328125 -1.125 C 1.296875 -1.070312 1.269531 -1.046875 1.25 -1.046875 Z M 2.03125 -13.1875 C 2.1875 -13.570312 2.269531 -13.804688 2.28125 -13.890625 C 2.320312 -14.003906 2.34375 -14.117188 2.34375 -14.234375 C 2.34375 -14.273438 2.335938 -14.296875 2.328125 -14.296875 C 2.265625 -14.296875 2.164062 -13.925781 2.03125 -13.1875 Z M 2.390625 -14.53125 C 2.421875 -14.53125 2.4375 -14.570312 2.4375 -14.65625 C 2.4375 -14.675781 2.425781 -14.703125 2.40625 -14.734375 C 2.394531 -14.765625 2.382812 -14.78125 2.375 -14.78125 C 2.363281 -14.78125 2.359375 -14.742188 2.359375 -14.671875 C 2.359375 -14.578125 2.367188 -14.53125 2.390625 -14.53125 Z M 2.921875 -16.515625 C 2.941406 -16.523438 2.96875 -16.585938 3 -16.703125 C 3.007812 -16.753906 3.015625 -16.789062 3.015625 -16.8125 C 3.015625 -16.851562 3.003906 -16.875 2.984375 -16.875 C 2.953125 -16.875 2.925781 -16.84375 2.90625 -16.78125 C 2.882812 -16.738281 2.875 -16.695312 2.875 -16.65625 C 2.875 -16.5625 2.882812 -16.515625 2.90625 -16.515625 Z M 3.109375 -17.140625 C 3.128906 -17.140625 3.171875 -17.253906 3.234375 -17.484375 C 3.242188 -17.554688 3.25 -17.613281 3.25 -17.65625 C 3.25 -17.695312 3.238281 -17.71875 3.21875 -17.71875 C 3.175781 -17.71875 3.140625 -17.671875 3.109375 -17.578125 C 3.085938 -17.515625 3.078125 -17.445312 3.078125 -17.375 C 3.078125 -17.21875 3.085938 -17.140625 3.109375 -17.140625 Z M 1.75 -2.046875 C 1.738281 -2.046875 1.734375 -2.078125 1.734375 -2.140625 C 1.734375 -2.242188 1.738281 -2.296875 1.75 -2.296875 C 1.757812 -2.296875 1.769531 -2.273438 1.78125 -2.234375 C 1.800781 -2.203125 1.8125 -2.171875 1.8125 -2.140625 C 1.8125 -2.078125 1.789062 -2.046875 1.75 -2.046875 Z M 1.75 -2.046875 "/></g></g></g><g fill="#2d545e" fill-opacity="1"><g transform="translate(47.890318, 36.008128)"><g><path d="M 2.140625 -3.5625 C 0.929688 -3.582031 0.191406 -3.609375 -0.078125 -3.640625 C -0.242188 -3.671875 -0.328125 -3.726562 -0.328125 -3.8125 C -0.328125 -3.84375 -0.328125 -3.878906 -0.328125 -3.921875 C -0.296875 -4.054688 -0.257812 -4.671875 -0.21875 -5.765625 C -0.175781 -6.753906 -0.0976562 -7.84375 0.015625 -9.03125 C 0.128906 -10.144531 0.191406 -11.296875 0.203125 -12.484375 C 0.203125 -13.859375 0.234375 -14.546875 0.296875 -14.546875 L 0.3125 -14.546875 C 0.320312 -14.535156 0.363281 -14.484375 0.4375 -14.390625 C 0.507812 -14.273438 0.570312 -14.21875 0.625 -14.21875 C 0.644531 -14.21875 0.664062 -14.242188 0.6875 -14.296875 C 0.71875 -14.347656 0.742188 -14.375 0.765625 -14.375 C 0.785156 -14.363281 0.804688 -14.328125 0.828125 -14.265625 C 0.960938 -13.828125 1.039062 -13.601562 1.0625 -13.59375 L 1.078125 -13.59375 C 1.085938 -13.59375 1.09375 -13.628906 1.09375 -13.703125 C 1.09375 -13.828125 1.0625 -14.007812 1 -14.25 C 0.976562 -14.34375 0.96875 -14.425781 0.96875 -14.5 C 0.96875 -14.53125 0.96875 -14.546875 0.96875 -14.546875 C 1 -14.546875 1.035156 -14.492188 1.078125 -14.390625 C 1.117188 -14.285156 1.15625 -14.171875 1.1875 -14.046875 C 1.320312 -13.554688 1.429688 -13.3125 1.515625 -13.3125 C 1.523438 -13.3125 1.535156 -13.316406 1.546875 -13.328125 C 1.566406 -13.347656 1.613281 -13.425781 1.6875 -13.5625 C 1.757812 -13.695312 1.84375 -13.863281 1.9375 -14.0625 C 2.414062 -15.050781 2.957031 -15.546875 3.5625 -15.546875 C 3.863281 -15.546875 4.1875 -15.421875 4.53125 -15.171875 C 4.726562 -15.046875 4.898438 -14.878906 5.046875 -14.671875 C 5.203125 -14.472656 5.398438 -14.144531 5.640625 -13.6875 C 5.929688 -13.132812 6.226562 -12.675781 6.53125 -12.3125 C 6.832031 -11.957031 7.070312 -11.773438 7.25 -11.765625 C 7.34375 -11.753906 7.421875 -11.691406 7.484375 -11.578125 C 7.515625 -11.515625 7.550781 -11.476562 7.59375 -11.46875 C 7.644531 -11.457031 7.6875 -11.453125 7.71875 -11.453125 C 7.78125 -11.453125 7.867188 -11.460938 7.984375 -11.484375 C 8.359375 -11.566406 8.609375 -11.609375 8.734375 -11.609375 C 8.796875 -11.609375 8.828125 -11.597656 8.828125 -11.578125 C 8.828125 -11.523438 8.722656 -11.457031 8.515625 -11.375 C 8.097656 -11.21875 7.742188 -11.128906 7.453125 -11.109375 C 7.398438 -11.097656 7.375 -11.09375 7.375 -11.09375 C 7.375 -11.070312 7.488281 -11.050781 7.71875 -11.03125 C 7.957031 -11.007812 8.109375 -10.984375 8.171875 -10.953125 C 8.234375 -10.929688 8.265625 -10.90625 8.265625 -10.875 C 8.265625 -10.820312 8.195312 -10.769531 8.0625 -10.71875 C 7.957031 -10.675781 7.84375 -10.644531 7.71875 -10.625 C 7.457031 -10.59375 7.328125 -10.539062 7.328125 -10.46875 C 7.328125 -10.457031 7.332031 -10.441406 7.34375 -10.421875 C 7.351562 -10.410156 7.359375 -10.394531 7.359375 -10.375 C 7.359375 -10.3125 7.25 -10.28125 7.03125 -10.28125 C 6.800781 -10.28125 6.535156 -10.332031 6.234375 -10.4375 C 5.941406 -10.550781 5.671875 -10.695312 5.421875 -10.875 L 5.03125 -11.171875 C 5.125 -11.078125 5.207031 -10.976562 5.28125 -10.875 C 5.363281 -10.78125 5.484375 -10.675781 5.640625 -10.5625 C 5.773438 -10.445312 6.097656 -10.207031 6.609375 -9.84375 C 6.484375 -9.875 6.363281 -9.898438 6.25 -9.921875 C 6.132812 -9.941406 6.007812 -9.976562 5.875 -10.03125 C 5.75 -10.082031 5.640625 -10.132812 5.546875 -10.1875 C 5.296875 -10.351562 5.003906 -10.617188 4.671875 -10.984375 C 4.335938 -11.347656 4.101562 -11.65625 3.96875 -11.90625 C 3.84375 -12.15625 3.753906 -12.28125 3.703125 -12.28125 C 3.660156 -12.28125 3.570312 -12.054688 3.4375 -11.609375 C 3.300781 -11.171875 3.15625 -10.625 3 -9.96875 C 2.90625 -9.5625 2.785156 -8.816406 2.640625 -7.734375 C 2.484375 -6.628906 2.316406 -5.238281 2.140625 -3.5625 Z M 2.40625 -8.421875 C 2.414062 -8.421875 2.425781 -8.425781 2.4375 -8.4375 C 2.445312 -8.445312 2.453125 -8.460938 2.453125 -8.484375 C 2.453125 -8.515625 2.453125 -8.535156 2.453125 -8.546875 C 2.453125 -8.566406 2.441406 -8.59375 2.421875 -8.625 C 2.410156 -8.65625 2.398438 -8.671875 2.390625 -8.671875 C 2.378906 -8.671875 2.375 -8.632812 2.375 -8.5625 C 2.375 -8.46875 2.382812 -8.421875 2.40625 -8.421875 Z M 2.484375 -8.921875 C 2.546875 -8.921875 2.640625 -9.320312 2.765625 -10.125 C 2.640625 -9.738281 2.5625 -9.484375 2.53125 -9.359375 C 2.488281 -9.203125 2.46875 -9.078125 2.46875 -8.984375 C 2.46875 -8.941406 2.472656 -8.921875 2.484375 -8.921875 Z M 2.484375 -8.921875 "/></g></g></g><g fill="#2d545e" fill-opacity="1"><g transform="translate(54.710218, 36.008128)"><g><path d="M 5.90625 -0.84375 C 5.601562 -0.84375 5.328125 -0.921875 5.078125 -1.078125 C 4.828125 -1.253906 4.632812 -1.445312 4.5 -1.65625 C 4.34375 -1.894531 4.226562 -2.238281 4.15625 -2.6875 C 4.082031 -3.144531 4.046875 -3.601562 4.046875 -4.0625 L 4.0625 -4.890625 C 4.0625 -5.191406 4.050781 -5.347656 4.03125 -5.359375 C 4 -5.359375 3.914062 -5.242188 3.78125 -5.015625 C 3.625 -4.753906 3.378906 -4.445312 3.046875 -4.09375 C 2.710938 -3.75 2.425781 -3.5 2.1875 -3.34375 C 1.800781 -3.113281 1.4375 -3 1.09375 -3 C 0.414062 -3 -0.0820312 -3.367188 -0.40625 -4.109375 C -0.53125 -4.441406 -0.59375 -4.84375 -0.59375 -5.3125 C -0.59375 -5.84375 -0.515625 -6.453125 -0.359375 -7.140625 C -0.078125 -8.460938 0.378906 -9.804688 1.015625 -11.171875 C 1.816406 -12.898438 2.710938 -14.175781 3.703125 -15 C 4.203125 -15.40625 4.742188 -15.609375 5.328125 -15.609375 C 5.765625 -15.609375 6.203125 -15.484375 6.640625 -15.234375 C 7.046875 -15.003906 7.25 -14.84375 7.25 -14.75 C 7.25 -14.71875 7.238281 -14.703125 7.21875 -14.703125 C 7.164062 -14.703125 7.097656 -14.738281 7.015625 -14.8125 L 6.96875 -14.828125 L 6.96875 -14.8125 C 6.96875 -14.800781 7.039062 -14.71875 7.1875 -14.5625 C 7.382812 -14.332031 7.484375 -14.191406 7.484375 -14.140625 C 7.484375 -14.128906 7.476562 -14.125 7.46875 -14.125 C 7.414062 -14.125 7.285156 -14.226562 7.078125 -14.4375 C 6.835938 -14.675781 6.675781 -14.796875 6.59375 -14.796875 C 6.507812 -14.796875 6.46875 -14.773438 6.46875 -14.734375 C 6.46875 -14.679688 6.539062 -14.59375 6.6875 -14.46875 L 6.921875 -14.25 L 6.609375 -14.46875 C 6.179688 -14.726562 5.789062 -14.859375 5.4375 -14.859375 C 5.332031 -14.859375 5.238281 -14.84375 5.15625 -14.8125 C 5.082031 -14.78125 5.046875 -14.753906 5.046875 -14.734375 C 5.046875 -14.710938 5.160156 -14.703125 5.390625 -14.703125 C 5.898438 -14.679688 6.289062 -14.515625 6.5625 -14.203125 C 6.601562 -14.148438 6.625 -14.117188 6.625 -14.109375 L 6.625 -14.09375 C 6.601562 -14.09375 6.523438 -14.144531 6.390625 -14.25 C 6.097656 -14.457031 5.816406 -14.5625 5.546875 -14.5625 C 5.421875 -14.5625 5.289062 -14.535156 5.15625 -14.484375 C 5.03125 -14.441406 4.894531 -14.351562 4.75 -14.21875 C 4.613281 -14.09375 4.503906 -13.96875 4.421875 -13.84375 C 4.347656 -13.71875 4.3125 -13.617188 4.3125 -13.546875 L 4.3125 -13.5 C 4.320312 -13.457031 4.328125 -13.425781 4.328125 -13.40625 C 4.328125 -13.351562 4.3125 -13.328125 4.28125 -13.328125 C 4.21875 -13.328125 4.117188 -13.09375 3.984375 -12.625 C 3.929688 -12.4375 3.894531 -12.265625 3.875 -12.109375 C 3.851562 -11.960938 3.671875 -11.539062 3.328125 -10.84375 C 2.929688 -10.03125 2.578125 -9.144531 2.265625 -8.1875 C 2.117188 -7.769531 2.046875 -7.5 2.046875 -7.375 C 2.046875 -7.175781 2.082031 -7.078125 2.15625 -7.078125 C 2.34375 -7.078125 2.628906 -7.460938 3.015625 -8.234375 C 3.242188 -8.691406 3.640625 -9.585938 4.203125 -10.921875 C 4.429688 -11.460938 4.644531 -11.9375 4.84375 -12.34375 C 5.050781 -12.757812 5.191406 -13.007812 5.265625 -13.09375 C 5.410156 -13.25 5.625 -13.328125 5.90625 -13.328125 L 6.03125 -13.328125 C 6.46875 -13.328125 6.75 -13.148438 6.875 -12.796875 C 6.9375 -12.617188 6.96875 -12.34375 6.96875 -11.96875 C 6.96875 -11.625 6.9375 -11.191406 6.875 -10.671875 C 6.53125 -7.421875 6.359375 -5.332031 6.359375 -4.40625 C 6.359375 -4.09375 6.378906 -3.910156 6.421875 -3.859375 L 6.4375 -3.859375 C 6.507812 -3.859375 6.664062 -4 6.90625 -4.28125 C 7.15625 -4.582031 7.421875 -4.941406 7.703125 -5.359375 C 7.984375 -5.785156 8.203125 -6.164062 8.359375 -6.5 C 8.503906 -6.8125 8.691406 -7.144531 8.921875 -7.5 C 9.160156 -7.851562 9.40625 -8.316406 9.65625 -8.890625 C 9.914062 -9.441406 10.0625 -9.71875 10.09375 -9.71875 L 10.109375 -9.703125 C 10.109375 -9.640625 10.0625 -9.523438 9.96875 -9.359375 C 9.863281 -9.128906 9.8125 -8.992188 9.8125 -8.953125 C 9.8125 -8.941406 9.816406 -8.9375 9.828125 -8.9375 C 9.867188 -8.9375 9.976562 -9.117188 10.15625 -9.484375 C 10.238281 -9.660156 10.316406 -9.84375 10.390625 -10.03125 C 10.578125 -10.488281 10.726562 -10.800781 10.84375 -10.96875 C 10.894531 -11.039062 10.925781 -11.078125 10.9375 -11.078125 C 10.957031 -11.078125 10.96875 -11.0625 10.96875 -11.03125 C 10.96875 -10.945312 10.84375 -10.539062 10.59375 -9.8125 C 10.351562 -9.09375 10.191406 -8.644531 10.109375 -8.46875 C 10.078125 -8.40625 10.0625 -8.351562 10.0625 -8.3125 C 10.0625 -8.300781 10.066406 -8.296875 10.078125 -8.296875 C 10.117188 -8.296875 10.28125 -8.597656 10.5625 -9.203125 C 10.800781 -9.722656 10.953125 -9.984375 11.015625 -9.984375 C 11.054688 -9.984375 11.078125 -9.925781 11.078125 -9.8125 C 11.078125 -9.625 11.019531 -9.375 10.90625 -9.0625 C 10.789062 -8.757812 10.734375 -8.566406 10.734375 -8.484375 C 10.734375 -8.453125 10.75 -8.4375 10.78125 -8.4375 C 10.789062 -8.4375 10.804688 -8.4375 10.828125 -8.4375 C 10.847656 -8.445312 10.863281 -8.453125 10.875 -8.453125 C 10.90625 -8.453125 10.921875 -8.425781 10.921875 -8.375 C 10.921875 -8.269531 10.84375 -7.96875 10.6875 -7.46875 C 10.425781 -6.6875 10.222656 -6.160156 10.078125 -5.890625 C 10.015625 -5.765625 9.984375 -5.675781 9.984375 -5.625 C 9.984375 -5.613281 9.988281 -5.609375 10 -5.609375 L 10.015625 -5.609375 C 10.046875 -5.628906 10.101562 -5.703125 10.1875 -5.828125 C 10.269531 -5.960938 10.351562 -6.113281 10.4375 -6.28125 C 10.53125 -6.445312 10.625 -6.613281 10.71875 -6.78125 C 10.820312 -6.957031 10.90625 -7.097656 10.96875 -7.203125 C 11.039062 -7.304688 11.113281 -7.40625 11.1875 -7.5 L 11.125 -7.1875 C 11.070312 -6.988281 10.941406 -6.664062 10.734375 -6.21875 C 10.523438 -5.769531 10.285156 -5.300781 10.015625 -4.8125 C 9.753906 -4.320312 9.515625 -3.910156 9.296875 -3.578125 C 8.390625 -2.265625 7.609375 -1.441406 6.953125 -1.109375 C 6.578125 -0.929688 6.226562 -0.84375 5.90625 -0.84375 Z M 5.90625 -0.84375 "/></g></g></g><g fill="#2d545e" fill-opacity="1"><g transform="translate(64.259534, 36.008128)"><g><path d="M 12.09375 -3.265625 C 11.78125 -3.265625 11.523438 -3.335938 11.328125 -3.484375 C 11.015625 -3.691406 10.84375 -3.972656 10.8125 -4.328125 C 10.78125 -4.691406 10.765625 -4.957031 10.765625 -5.125 C 10.765625 -5.738281 10.832031 -6.609375 10.96875 -7.734375 C 11.082031 -8.773438 11.140625 -9.378906 11.140625 -9.546875 C 11.140625 -9.585938 11.140625 -9.613281 11.140625 -9.625 C 11.117188 -9.625 11.035156 -9.492188 10.890625 -9.234375 C 10.753906 -8.984375 10.582031 -8.660156 10.375 -8.265625 C 9.945312 -7.398438 9.597656 -6.742188 9.328125 -6.296875 C 9.054688 -5.859375 8.816406 -5.566406 8.609375 -5.421875 C 8.410156 -5.285156 8.179688 -5.21875 7.921875 -5.21875 C 7.015625 -5.21875 6.5625 -5.878906 6.5625 -7.203125 C 6.5625 -7.523438 6.582031 -7.972656 6.625 -8.546875 C 6.726562 -9.878906 6.828125 -10.800781 6.921875 -11.3125 C 6.941406 -11.394531 6.953125 -11.453125 6.953125 -11.484375 C 6.953125 -11.515625 6.945312 -11.53125 6.9375 -11.53125 C 6.851562 -11.53125 6.453125 -10.78125 5.734375 -9.28125 C 4.804688 -7.382812 4.054688 -5.992188 3.484375 -5.109375 C 2.691406 -3.898438 1.976562 -3.285156 1.34375 -3.265625 L 1.09375 -3.265625 C 0.601562 -3.265625 0.226562 -3.484375 -0.03125 -3.921875 C -0.15625 -4.140625 -0.25 -4.441406 -0.3125 -4.828125 C -0.382812 -5.222656 -0.421875 -5.554688 -0.421875 -5.828125 C -0.421875 -6.160156 -0.335938 -6.914062 -0.171875 -8.09375 C -0.109375 -8.601562 -0.03125 -9.085938 0.0625 -9.546875 C 0.375 -11.160156 0.675781 -12.585938 0.96875 -13.828125 C 1.269531 -15.078125 1.476562 -15.757812 1.59375 -15.875 C 1.6875 -15.925781 1.734375 -16.019531 1.734375 -16.15625 C 1.734375 -16.289062 1.769531 -16.382812 1.84375 -16.4375 C 1.863281 -16.445312 1.882812 -16.453125 1.90625 -16.453125 C 1.925781 -16.453125 1.9375 -16.429688 1.9375 -16.390625 C 1.9375 -16.359375 1.925781 -16.3125 1.90625 -16.25 C 1.8125 -15.84375 1.765625 -15.550781 1.765625 -15.375 C 1.765625 -15.269531 1.785156 -15.21875 1.828125 -15.21875 C 1.859375 -15.21875 1.882812 -15.226562 1.90625 -15.25 C 1.9375 -15.269531 1.953125 -15.300781 1.953125 -15.34375 C 1.953125 -15.382812 1.957031 -15.40625 1.96875 -15.40625 C 1.976562 -15.40625 1.988281 -15.398438 2 -15.390625 C 2.007812 -15.390625 2.015625 -15.375 2.015625 -15.34375 C 2.015625 -15.207031 1.992188 -15.003906 1.953125 -14.734375 C 1.878906 -14.328125 1.816406 -14.046875 1.765625 -13.890625 C 1.753906 -13.867188 1.75 -13.847656 1.75 -13.828125 C 1.75 -13.773438 1.769531 -13.75 1.8125 -13.75 C 1.84375 -13.75 1.882812 -13.835938 1.9375 -14.015625 C 2 -14.203125 2.054688 -14.429688 2.109375 -14.703125 C 2.160156 -14.984375 2.207031 -15.195312 2.25 -15.34375 C 2.289062 -15.488281 2.316406 -15.5625 2.328125 -15.5625 C 2.335938 -15.5625 2.34375 -15.535156 2.34375 -15.484375 C 2.34375 -15.335938 2.316406 -15.132812 2.265625 -14.875 C 2.128906 -14.257812 2.0625 -13.539062 2.0625 -12.71875 C 2.0625 -12.257812 2.085938 -11.984375 2.140625 -11.890625 C 2.179688 -11.804688 2.203125 -11.738281 2.203125 -11.6875 C 2.203125 -11.644531 2.179688 -11.609375 2.140625 -11.578125 C 2.097656 -11.554688 2.078125 -11.515625 2.078125 -11.453125 C 2.078125 -11.421875 2.082031 -11.390625 2.09375 -11.359375 C 2.15625 -11.148438 2.1875 -10.71875 2.1875 -10.0625 C 2.1875 -9.414062 2.164062 -8.898438 2.125 -8.515625 C 2.082031 -8.203125 2.0625 -7.96875 2.0625 -7.8125 C 2.0625 -7.644531 2.09375 -7.5625 2.15625 -7.5625 C 2.238281 -7.5625 2.351562 -7.679688 2.5 -7.921875 C 2.71875 -8.253906 3.40625 -9.582031 4.5625 -11.90625 C 5.46875 -13.738281 6.140625 -15.007812 6.578125 -15.71875 C 7.015625 -16.425781 7.40625 -16.878906 7.75 -17.078125 C 8.082031 -17.304688 8.375 -17.421875 8.625 -17.421875 C 9.007812 -17.421875 9.320312 -17.0625 9.5625 -16.34375 C 9.644531 -16.113281 9.6875 -15.773438 9.6875 -15.328125 C 9.6875 -14.703125 9.59375 -13.738281 9.40625 -12.4375 C 9.289062 -11.644531 9.234375 -11.191406 9.234375 -11.078125 C 9.234375 -11.054688 9.234375 -11.039062 9.234375 -11.03125 C 9.242188 -11.03125 9.25 -11.03125 9.25 -11.03125 C 9.28125 -11.03125 9.34375 -11.128906 9.4375 -11.328125 C 9.507812 -11.492188 9.546875 -11.625 9.546875 -11.71875 C 9.546875 -11.738281 9.539062 -11.753906 9.53125 -11.765625 C 9.53125 -11.785156 9.53125 -11.800781 9.53125 -11.8125 C 9.53125 -11.84375 9.546875 -11.859375 9.578125 -11.859375 C 9.648438 -11.859375 9.832031 -12.113281 10.125 -12.625 C 10.96875 -14.050781 11.734375 -14.765625 12.421875 -14.765625 C 12.585938 -14.765625 12.722656 -14.726562 12.828125 -14.65625 C 12.941406 -14.59375 13.097656 -14.367188 13.296875 -13.984375 C 13.398438 -13.765625 13.476562 -13.582031 13.53125 -13.4375 C 13.59375 -13.226562 13.625 -12.863281 13.625 -12.34375 C 13.625 -11.300781 13.601562 -10.414062 13.5625 -9.6875 C 13.53125 -9.195312 13.515625 -8.914062 13.515625 -8.84375 C 13.515625 -8.757812 13.519531 -8.71875 13.53125 -8.71875 C 13.550781 -8.71875 13.675781 -9 13.90625 -9.5625 C 14.144531 -10.132812 14.304688 -10.472656 14.390625 -10.578125 C 14.484375 -10.679688 14.546875 -10.789062 14.578125 -10.90625 C 14.617188 -11.03125 14.65625 -11.09375 14.6875 -11.09375 L 14.703125 -11.09375 C 14.703125 -11 14.46875 -10.335938 14 -9.109375 C 13.539062 -7.890625 13.3125 -7.238281 13.3125 -7.15625 C 13.34375 -7.15625 13.539062 -7.566406 13.90625 -8.390625 C 14.269531 -9.210938 14.46875 -9.625 14.5 -9.625 C 14.53125 -9.582031 14.546875 -9.515625 14.546875 -9.421875 C 14.546875 -9.191406 14.441406 -8.785156 14.234375 -8.203125 C 14.078125 -7.796875 14 -7.539062 14 -7.4375 C 14 -7.394531 14.015625 -7.375 14.046875 -7.375 C 14.046875 -7.375 14.050781 -7.378906 14.0625 -7.390625 C 14.082031 -7.398438 14.101562 -7.40625 14.125 -7.40625 C 14.15625 -7.40625 14.171875 -7.375 14.171875 -7.3125 C 14.171875 -7.175781 14.023438 -6.726562 13.734375 -5.96875 C 13.421875 -5.125 13.144531 -4.546875 12.90625 -4.234375 C 12.675781 -3.929688 12.394531 -3.78125 12.0625 -3.78125 C 11.863281 -3.78125 11.679688 -3.863281 11.515625 -4.03125 C 11.359375 -4.195312 11.28125 -4.378906 11.28125 -4.578125 C 11.28125 -4.648438 11.269531 -4.707031 11.25 -4.75 C 11.226562 -4.800781 11.207031 -4.828125 11.1875 -4.828125 C 11.144531 -4.828125 11.125 -4.796875 11.125 -4.734375 C 11.125 -4.609375 11.179688 -4.421875 11.296875 -4.171875 C 11.367188 -4.003906 11.457031 -3.875 11.5625 -3.78125 C 11.664062 -3.695312 11.753906 -3.644531 11.828125 -3.625 C 11.898438 -3.601562 11.96875 -3.59375 12.03125 -3.59375 C 12.34375 -3.59375 12.625 -3.722656 12.875 -3.984375 C 13.082031 -4.203125 13.359375 -4.609375 13.703125 -5.203125 C 14.046875 -5.796875 14.242188 -6.09375 14.296875 -6.09375 C 14.304688 -6.09375 14.3125 -6.085938 14.3125 -6.078125 C 14.3125 -6.015625 14.257812 -5.847656 14.15625 -5.578125 C 13.738281 -4.453125 13.269531 -3.726562 12.75 -3.40625 C 12.539062 -3.3125 12.320312 -3.265625 12.09375 -3.265625 Z M 7.34375 -5.578125 C 7.34375 -5.609375 7.273438 -5.734375 7.140625 -5.953125 C 6.992188 -6.140625 6.910156 -6.378906 6.890625 -6.671875 C 6.867188 -6.828125 6.847656 -7.421875 6.828125 -8.453125 C 6.796875 -7.585938 6.78125 -7.085938 6.78125 -6.953125 C 6.78125 -6.609375 6.8125 -6.359375 6.875 -6.203125 C 6.914062 -6.085938 6.988281 -5.96875 7.09375 -5.84375 C 7.238281 -5.664062 7.320312 -5.578125 7.34375 -5.578125 Z M 8.421875 -5.515625 C 8.710938 -5.796875 8.875 -5.957031 8.90625 -6 C 8.945312 -6.050781 8.96875 -6.085938 8.96875 -6.109375 C 8.96875 -6.117188 8.960938 -6.125 8.953125 -6.125 C 8.910156 -6.125 8.8125 -6.03125 8.65625 -5.84375 Z M 6.890625 -8.765625 C 6.972656 -9.015625 7.019531 -9.1875 7.03125 -9.28125 C 7.0625 -9.40625 7.078125 -9.507812 7.078125 -9.59375 C 7.078125 -9.632812 7.070312 -9.65625 7.0625 -9.65625 C 7.039062 -9.65625 7.015625 -9.601562 6.984375 -9.5 C 6.921875 -9.375 6.890625 -9.21875 6.890625 -9.03125 Z M 7.4375 -12.3125 C 7.457031 -12.3125 7.476562 -12.332031 7.5 -12.375 C 7.53125 -12.425781 7.554688 -12.476562 7.578125 -12.53125 C 7.597656 -12.582031 7.609375 -12.628906 7.609375 -12.671875 C 7.609375 -12.753906 7.570312 -12.796875 7.5 -12.796875 C 7.4375 -12.796875 7.398438 -12.703125 7.390625 -12.515625 C 7.390625 -12.378906 7.40625 -12.3125 7.4375 -12.3125 Z M 7.5 -12.90625 C 7.53125 -12.90625 7.554688 -12.925781 7.578125 -12.96875 C 7.597656 -13.007812 7.609375 -13.054688 7.609375 -13.109375 C 7.609375 -13.234375 7.59375 -13.296875 7.5625 -13.296875 C 7.53125 -13.304688 7.507812 -13.3125 7.5 -13.3125 C 7.445312 -13.3125 7.378906 -13.265625 7.296875 -13.171875 C 7.242188 -13.109375 7.21875 -13.070312 7.21875 -13.0625 C 7.21875 -13.050781 7.222656 -13.046875 7.234375 -13.046875 C 7.253906 -13.046875 7.289062 -13.054688 7.34375 -13.078125 C 7.394531 -13.097656 7.429688 -13.109375 7.453125 -13.109375 C 7.472656 -13.109375 7.484375 -13.097656 7.484375 -13.078125 C 7.484375 -13.066406 7.472656 -13.046875 7.453125 -13.015625 C 7.441406 -12.992188 7.4375 -12.972656 7.4375 -12.953125 C 7.4375 -12.921875 7.457031 -12.90625 7.5 -12.90625 Z M 7.5 -12.90625 "/></g></g></g><g fill="#2d545e" fill-opacity="1"><g transform="translate(79.580655, 36.008128)"><g><path d="M 5.90625 -0.84375 C 5.601562 -0.84375 5.328125 -0.921875 5.078125 -1.078125 C 4.828125 -1.253906 4.632812 -1.445312 4.5 -1.65625 C 4.34375 -1.894531 4.226562 -2.238281 4.15625 -2.6875 C 4.082031 -3.144531 4.046875 -3.601562 4.046875 -4.0625 L 4.0625 -4.890625 C 4.0625 -5.191406 4.050781 -5.347656 4.03125 -5.359375 C 4 -5.359375 3.914062 -5.242188 3.78125 -5.015625 C 3.625 -4.753906 3.378906 -4.445312 3.046875 -4.09375 C 2.710938 -3.75 2.425781 -3.5 2.1875 -3.34375 C 1.800781 -3.113281 1.4375 -3 1.09375 -3 C 0.414062 -3 -0.0820312 -3.367188 -0.40625 -4.109375 C -0.53125 -4.441406 -0.59375 -4.84375 -0.59375 -5.3125 C -0.59375 -5.84375 -0.515625 -6.453125 -0.359375 -7.140625 C -0.078125 -8.460938 0.378906 -9.804688 1.015625 -11.171875 C 1.816406 -12.898438 2.710938 -14.175781 3.703125 -15 C 4.203125 -15.40625 4.742188 -15.609375 5.328125 -15.609375 C 5.765625 -15.609375 6.203125 -15.484375 6.640625 -15.234375 C 7.046875 -15.003906 7.25 -14.84375 7.25 -14.75 C 7.25 -14.71875 7.238281 -14.703125 7.21875 -14.703125 C 7.164062 -14.703125 7.097656 -14.738281 7.015625 -14.8125 L 6.96875 -14.828125 L 6.96875 -14.8125 C 6.96875 -14.800781 7.039062 -14.71875 7.1875 -14.5625 C 7.382812 -14.332031 7.484375 -14.191406 7.484375 -14.140625 C 7.484375 -14.128906 7.476562 -14.125 7.46875 -14.125 C 7.414062 -14.125 7.285156 -14.226562 7.078125 -14.4375 C 6.835938 -14.675781 6.675781 -14.796875 6.59375 -14.796875 C 6.507812 -14.796875 6.46875 -14.773438 6.46875 -14.734375 C 6.46875 -14.679688 6.539062 -14.59375 6.6875 -14.46875 L 6.921875 -14.25 L 6.609375 -14.46875 C 6.179688 -14.726562 5.789062 -14.859375 5.4375 -14.859375 C 5.332031 -14.859375 5.238281 -14.84375 5.15625 -14.8125 C 5.082031 -14.78125 5.046875 -14.753906 5.046875 -14.734375 C 5.046875 -14.710938 5.160156 -14.703125 5.390625 -14.703125 C 5.898438 -14.679688 6.289062 -14.515625 6.5625 -14.203125 C 6.601562 -14.148438 6.625 -14.117188 6.625 -14.109375 L 6.625 -14.09375 C 6.601562 -14.09375 6.523438 -14.144531 6.390625 -14.25 C 6.097656 -14.457031 5.816406 -14.5625 5.546875 -14.5625 C 5.421875 -14.5625 5.289062 -14.535156 5.15625 -14.484375 C 5.03125 -14.441406 4.894531 -14.351562 4.75 -14.21875 C 4.613281 -14.09375 4.503906 -13.96875 4.421875 -13.84375 C 4.347656 -13.71875 4.3125 -13.617188 4.3125 -13.546875 L 4.3125 -13.5 C 4.320312 -13.457031 4.328125 -13.425781 4.328125 -13.40625 C 4.328125 -13.351562 4.3125 -13.328125 4.28125 -13.328125 C 4.21875 -13.328125 4.117188 -13.09375 3.984375 -12.625 C 3.929688 -12.4375 3.894531 -12.265625 3.875 -12.109375 C 3.851562 -11.960938 3.671875 -11.539062 3.328125 -10.84375 C 2.929688 -10.03125 2.578125 -9.144531 2.265625 -8.1875 C 2.117188 -7.769531 2.046875 -7.5 2.046875 -7.375 C 2.046875 -7.175781 2.082031 -7.078125 2.15625 -7.078125 C 2.34375 -7.078125 2.628906 -7.460938 3.015625 -8.234375 C 3.242188 -8.691406 3.640625 -9.585938 4.203125 -10.921875 C 4.429688 -11.460938 4.644531 -11.9375 4.84375 -12.34375 C 5.050781 -12.757812 5.191406 -13.007812 5.265625 -13.09375 C 5.410156 -13.25 5.625 -13.328125 5.90625 -13.328125 L 6.03125 -13.328125 C 6.46875 -13.328125 6.75 -13.148438 6.875 -12.796875 C 6.9375 -12.617188 6.96875 -12.34375 6.96875 -11.96875 C 6.96875 -11.625 6.9375 -11.191406 6.875 -10.671875 C 6.53125 -7.421875 6.359375 -5.332031 6.359375 -4.40625 C 6.359375 -4.09375 6.378906 -3.910156 6.421875 -3.859375 L 6.4375 -3.859375 C 6.507812 -3.859375 6.664062 -4 6.90625 -4.28125 C 7.15625 -4.582031 7.421875 -4.941406 7.703125 -5.359375 C 7.984375 -5.785156 8.203125 -6.164062 8.359375 -6.5 C 8.503906 -6.8125 8.691406 -7.144531 8.921875 -7.5 C 9.160156 -7.851562 9.40625 -8.316406 9.65625 -8.890625 C 9.914062 -9.441406 10.0625 -9.71875 10.09375 -9.71875 L 10.109375 -9.703125 C 10.109375 -9.640625 10.0625 -9.523438 9.96875 -9.359375 C 9.863281 -9.128906 9.8125 -8.992188 9.8125 -8.953125 C 9.8125 -8.941406 9.816406 -8.9375 9.828125 -8.9375 C 9.867188 -8.9375 9.976562 -9.117188 10.15625 -9.484375 C 10.238281 -9.660156 10.316406 -9.84375 10.390625 -10.03125 C 10.578125 -10.488281 10.726562 -10.800781 10.84375 -10.96875 C 10.894531 -11.039062 10.925781 -11.078125 10.9375 -11.078125 C 10.957031 -11.078125 10.96875 -11.0625 10.96875 -11.03125 C 10.96875 -10.945312 10.84375 -10.539062 10.59375 -9.8125 C 10.351562 -9.09375 10.191406 -8.644531 10.109375 -8.46875 C 10.078125 -8.40625 10.0625 -8.351562 10.0625 -8.3125 C 10.0625 -8.300781 10.066406 -8.296875 10.078125 -8.296875 C 10.117188 -8.296875 10.28125 -8.597656 10.5625 -9.203125 C 10.800781 -9.722656 10.953125 -9.984375 11.015625 -9.984375 C 11.054688 -9.984375 11.078125 -9.925781 11.078125 -9.8125 C 11.078125 -9.625 11.019531 -9.375 10.90625 -9.0625 C 10.789062 -8.757812 10.734375 -8.566406 10.734375 -8.484375 C 10.734375 -8.453125 10.75 -8.4375 10.78125 -8.4375 C 10.789062 -8.4375 10.804688 -8.4375 10.828125 -8.4375 C 10.847656 -8.445312 10.863281 -8.453125 10.875 -8.453125 C 10.90625 -8.453125 10.921875 -8.425781 10.921875 -8.375 C 10.921875 -8.269531 10.84375 -7.96875 10.6875 -7.46875 C 10.425781 -6.6875 10.222656 -6.160156 10.078125 -5.890625 C 10.015625 -5.765625 9.984375 -5.675781 9.984375 -5.625 C 9.984375 -5.613281 9.988281 -5.609375 10 -5.609375 L 10.015625 -5.609375 C 10.046875 -5.628906 10.101562 -5.703125 10.1875 -5.828125 C 10.269531 -5.960938 10.351562 -6.113281 10.4375 -6.28125 C 10.53125 -6.445312 10.625 -6.613281 10.71875 -6.78125 C 10.820312 -6.957031 10.90625 -7.097656 10.96875 -7.203125 C 11.039062 -7.304688 11.113281 -7.40625 11.1875 -7.5 L 11.125 -7.1875 C 11.070312 -6.988281 10.941406 -6.664062 10.734375 -6.21875 C 10.523438 -5.769531 10.285156 -5.300781 10.015625 -4.8125 C 9.753906 -4.320312 9.515625 -3.910156 9.296875 -3.578125 C 8.390625 -2.265625 7.609375 -1.441406 6.953125 -1.109375 C 6.578125 -0.929688 6.226562 -0.84375 5.90625 -0.84375 Z M 5.90625 -0.84375 "/></g></g></g><g fill="#2d545e" fill-opacity="1"><g transform="translate(89.129971, 36.008128)"><g><path d="M 1.625 -4.734375 C 1.34375 -4.734375 1.082031 -4.8125 0.84375 -4.96875 C 0.488281 -5.1875 0.257812 -5.492188 0.15625 -5.890625 C 0.0507812 -6.285156 0 -6.710938 0 -7.171875 C 0 -8.128906 0.210938 -9.65625 0.640625 -11.75 C 1.109375 -14.0625 1.398438 -15.21875 1.515625 -15.21875 L 1.53125 -15.21875 C 1.5625 -15.21875 1.585938 -15.234375 1.609375 -15.265625 C 1.640625 -15.296875 1.664062 -15.332031 1.6875 -15.375 C 1.707031 -15.425781 1.722656 -15.453125 1.734375 -15.453125 C 1.753906 -15.453125 1.765625 -15.363281 1.765625 -15.1875 C 1.773438 -15.007812 1.785156 -14.90625 1.796875 -14.875 C 1.816406 -14.851562 1.832031 -14.84375 1.84375 -14.84375 C 1.863281 -14.84375 1.894531 -14.859375 1.9375 -14.890625 C 1.976562 -14.929688 2.007812 -14.953125 2.03125 -14.953125 C 2.050781 -14.953125 2.0625 -14.921875 2.0625 -14.859375 C 2.0625 -14.804688 2.050781 -14.722656 2.03125 -14.609375 C 2.019531 -14.503906 2.003906 -14.394531 1.984375 -14.28125 C 1.972656 -14.175781 1.960938 -14.09375 1.953125 -14.03125 L 1.9375 -13.96875 C 1.9375 -13.925781 1.945312 -13.898438 1.96875 -13.890625 C 2.03125 -13.890625 2.09375 -14.085938 2.15625 -14.484375 C 2.207031 -14.835938 2.257812 -15.015625 2.3125 -15.015625 C 2.332031 -15.015625 2.34375 -14.972656 2.34375 -14.890625 C 2.34375 -14.804688 2.332031 -14.703125 2.3125 -14.578125 C 2.28125 -14.378906 2.265625 -14.175781 2.265625 -13.96875 C 2.265625 -13.445312 2.316406 -13.109375 2.421875 -12.953125 C 2.503906 -12.847656 2.5625 -12.609375 2.59375 -12.234375 C 2.632812 -11.847656 2.6875 -11.65625 2.75 -11.65625 C 2.78125 -11.65625 2.796875 -11.640625 2.796875 -11.609375 C 2.796875 -11.578125 2.796875 -11.554688 2.796875 -11.546875 C 2.796875 -11.421875 2.722656 -10.945312 2.578125 -10.125 C 2.441406 -9.3125 2.375 -8.757812 2.375 -8.46875 C 2.375 -8.300781 2.398438 -8.21875 2.453125 -8.21875 C 2.523438 -8.21875 2.710938 -8.429688 3.015625 -8.859375 C 3.328125 -9.285156 4.050781 -10.347656 5.1875 -12.046875 C 6.539062 -14.078125 7.421875 -15.359375 7.828125 -15.890625 C 8.453125 -16.617188 9.023438 -16.984375 9.546875 -16.984375 C 9.742188 -16.984375 9.898438 -16.910156 10.015625 -16.765625 C 10.160156 -16.535156 10.265625 -16.285156 10.328125 -16.015625 C 10.398438 -15.742188 10.4375 -15.515625 10.4375 -15.328125 C 10.4375 -15.023438 10.273438 -14.023438 9.953125 -12.328125 C 9.722656 -11.117188 9.523438 -10.175781 9.359375 -9.5 C 9.285156 -9.25 9.222656 -8.867188 9.171875 -8.359375 C 9.128906 -7.859375 9.078125 -7.515625 9.015625 -7.328125 C 8.953125 -7.085938 8.921875 -6.835938 8.921875 -6.578125 C 8.921875 -6.347656 8.894531 -6.234375 8.84375 -6.234375 C 8.84375 -6.234375 8.835938 -6.234375 8.828125 -6.234375 C 8.816406 -6.242188 8.804688 -6.25 8.796875 -6.25 C 8.765625 -6.25 8.734375 -6.207031 8.703125 -6.125 C 8.679688 -6.039062 8.664062 -5.953125 8.65625 -5.859375 C 8.65625 -5.765625 8.65625 -5.703125 8.65625 -5.671875 C 8.65625 -5.546875 8.660156 -5.410156 8.671875 -5.265625 C 8.679688 -5.179688 8.6875 -5.109375 8.6875 -5.046875 C 8.6875 -4.898438 8.660156 -4.828125 8.609375 -4.828125 C 8.554688 -4.828125 8.503906 -4.941406 8.453125 -5.171875 L 8.21875 -6.5625 C 8.195312 -5.769531 8.179688 -5.351562 8.171875 -5.3125 C 8.148438 -5.25 8.128906 -5.21875 8.109375 -5.21875 C 8.046875 -5.21875 7.984375 -5.316406 7.921875 -5.515625 C 7.878906 -5.640625 7.847656 -5.769531 7.828125 -5.90625 C 7.785156 -6.195312 7.734375 -6.34375 7.671875 -6.34375 L 7.625 -6.34375 C 7.5 -6.34375 7.425781 -6.816406 7.40625 -7.765625 C 7.394531 -8.335938 7.367188 -8.625 7.328125 -8.625 C 7.296875 -8.625 7.253906 -8.414062 7.203125 -8 C 7.140625 -7.46875 7.066406 -7.203125 6.984375 -7.203125 C 6.921875 -7.203125 6.890625 -7.332031 6.890625 -7.59375 C 6.890625 -7.976562 6.9375 -8.546875 7.03125 -9.296875 C 7.070312 -9.734375 7.125 -10.085938 7.1875 -10.359375 C 7.28125 -10.734375 7.328125 -10.96875 7.328125 -11.0625 L 7.3125 -11.09375 C 7.269531 -11.09375 7.144531 -10.921875 6.9375 -10.578125 C 6.46875 -9.835938 5.878906 -8.976562 5.171875 -8 C 4.460938 -7.03125 3.914062 -6.332031 3.53125 -5.90625 C 3.039062 -5.394531 2.664062 -5.066406 2.40625 -4.921875 C 2.132812 -4.796875 1.875 -4.734375 1.625 -4.734375 Z M 5.640625 -9.328125 C 5.671875 -9.328125 5.738281 -9.390625 5.84375 -9.515625 C 5.914062 -9.609375 5.984375 -9.710938 6.046875 -9.828125 C 6.117188 -9.953125 6.171875 -10.050781 6.203125 -10.125 C 6.242188 -10.195312 6.265625 -10.242188 6.265625 -10.265625 C 6.265625 -10.273438 6.257812 -10.28125 6.25 -10.28125 C 6.226562 -10.28125 6.101562 -10.125 5.875 -9.8125 C 5.707031 -9.5625 5.625 -9.40625 5.625 -9.34375 C 5.625 -9.332031 5.628906 -9.328125 5.640625 -9.328125 Z M 6.34375 -10.390625 C 6.363281 -10.390625 6.421875 -10.453125 6.515625 -10.578125 C 6.578125 -10.648438 6.609375 -10.691406 6.609375 -10.703125 C 6.597656 -10.703125 6.554688 -10.671875 6.484375 -10.609375 C 6.359375 -10.515625 6.296875 -10.445312 6.296875 -10.40625 C 6.296875 -10.394531 6.3125 -10.390625 6.34375 -10.390625 Z M 7.15625 -11.453125 C 7.175781 -11.453125 7.222656 -11.488281 7.296875 -11.5625 C 7.390625 -11.644531 7.4375 -11.71875 7.4375 -11.78125 C 7.4375 -11.800781 7.425781 -11.8125 7.40625 -11.8125 C 7.351562 -11.8125 7.300781 -11.75 7.25 -11.625 C 7.1875 -11.53125 7.15625 -11.472656 7.15625 -11.453125 Z M 7.15625 -11.453125 "/></g></g></g><g fill="#2d545e" fill-opacity="1"><g transform="translate(99.902065, 36.008128)"><g><path d="M 18.140625 5.15625 C 18.003906 5.144531 17.757812 5.097656 17.40625 5.015625 C 16.457031 4.753906 15.90625 4.425781 15.75 4.03125 C 15.59375 3.644531 15.515625 3.363281 15.515625 3.1875 C 15.515625 2.738281 15.726562 2.289062 16.15625 1.84375 C 16.769531 1.257812 17.878906 0.703125 19.484375 0.171875 C 19.816406 0.0546875 20.097656 -0.046875 20.328125 -0.140625 C 20.566406 -0.234375 20.703125 -0.296875 20.734375 -0.328125 C 20.878906 -0.578125 21.175781 -1.5 21.625 -3.09375 C 21.8125 -3.738281 21.957031 -4.289062 22.0625 -4.75 C 22.695312 -7.664062 23.015625 -10.472656 23.015625 -13.171875 C 23.015625 -13.941406 23.003906 -14.46875 22.984375 -14.75 C 22.960938 -15.039062 22.929688 -15.1875 22.890625 -15.1875 C 22.785156 -15.1875 22.546875 -15.070312 22.171875 -14.84375 C 21.804688 -14.613281 21.1875 -14.1875 20.3125 -13.5625 C 19.445312 -12.945312 18.234375 -12.066406 16.671875 -10.921875 C 14.234375 -9.148438 12.269531 -7.8125 10.78125 -6.90625 C 9.289062 -6.007812 7.976562 -5.375 6.84375 -5 C 6.175781 -4.78125 5.617188 -4.65625 5.171875 -4.625 C 4.734375 -4.601562 4.4375 -4.59375 4.28125 -4.59375 C 3.769531 -4.59375 3.332031 -4.644531 2.96875 -4.75 C 1.9375 -5.113281 1.179688 -5.695312 0.703125 -6.5 C 0.234375 -7.3125 0 -8.164062 0 -9.0625 C 0 -9.289062 0.0078125 -9.519531 0.03125 -9.75 C 0.207031 -11.1875 0.804688 -12.710938 1.828125 -14.328125 C 2.847656 -15.941406 4.328125 -17.71875 6.265625 -19.65625 C 8.429688 -21.84375 10.765625 -23.800781 13.265625 -25.53125 C 14.816406 -26.625 16.425781 -27.59375 18.09375 -28.4375 C 19.757812 -29.289062 21.257812 -29.910156 22.59375 -30.296875 C 23.175781 -30.453125 23.835938 -30.59375 24.578125 -30.71875 C 25.316406 -30.851562 25.878906 -30.921875 26.265625 -30.921875 C 27.066406 -30.921875 27.769531 -30.828125 28.375 -30.640625 C 28.976562 -30.453125 29.394531 -30.195312 29.625 -29.875 C 29.800781 -29.613281 29.894531 -29.382812 29.90625 -29.1875 C 29.914062 -29 29.921875 -28.882812 29.921875 -28.84375 C 29.921875 -28.03125 29.300781 -27.054688 28.0625 -25.921875 C 27.226562 -25.148438 25.789062 -24.019531 23.75 -22.53125 C 21.894531 -21.15625 20.695312 -20.238281 20.15625 -19.78125 C 19.65625 -19.34375 19.359375 -19.125 19.265625 -19.125 L 19.25 -19.125 C 19.21875 -19.125 19.160156 -19.09375 19.078125 -19.03125 C 19.003906 -18.976562 18.765625 -18.765625 18.359375 -18.390625 C 18.679688 -18.804688 18.898438 -19.078125 19.015625 -19.203125 C 19.140625 -19.335938 19.25 -19.453125 19.34375 -19.546875 C 19.5625 -19.765625 19.710938 -19.945312 19.796875 -20.09375 C 19.828125 -20.144531 19.84375 -20.179688 19.84375 -20.203125 C 19.84375 -20.210938 19.835938 -20.21875 19.828125 -20.21875 C 19.785156 -20.21875 19.632812 -20.109375 19.375 -19.890625 C 19.21875 -19.742188 19.128906 -19.671875 19.109375 -19.671875 C 19.109375 -19.691406 19.222656 -19.820312 19.453125 -20.0625 C 19.816406 -20.445312 20.316406 -20.894531 20.953125 -21.40625 C 21.628906 -21.96875 21.96875 -22.257812 21.96875 -22.28125 C 21.96875 -22.289062 21.960938 -22.296875 21.953125 -22.296875 C 21.828125 -22.296875 21.101562 -21.734375 19.78125 -20.609375 C 19.21875 -20.128906 18.925781 -19.890625 18.90625 -19.890625 C 18.90625 -19.929688 19.304688 -20.320312 20.109375 -21.0625 C 20.429688 -21.351562 20.734375 -21.617188 21.015625 -21.859375 C 21.597656 -22.335938 22.070312 -22.753906 22.4375 -23.109375 C 22.84375 -23.484375 23.164062 -23.773438 23.40625 -23.984375 C 23.5625 -24.117188 23.691406 -24.242188 23.796875 -24.359375 C 23.910156 -24.484375 23.96875 -24.566406 23.96875 -24.609375 C 23.96875 -24.703125 24.007812 -24.796875 24.09375 -24.890625 C 24.1875 -24.984375 24.3125 -25.050781 24.46875 -25.09375 C 24.53125 -25.113281 24.582031 -25.140625 24.625 -25.171875 C 24.664062 -25.210938 24.6875 -25.25 24.6875 -25.28125 C 24.6875 -25.351562 25.035156 -25.722656 25.734375 -26.390625 C 26.035156 -26.671875 26.285156 -26.914062 26.484375 -27.125 C 26.679688 -27.34375 26.785156 -27.46875 26.796875 -27.5 C 26.804688 -27.59375 26.910156 -27.753906 27.109375 -27.984375 C 27.265625 -28.148438 27.34375 -28.28125 27.34375 -28.375 C 27.34375 -28.425781 27.320312 -28.46875 27.28125 -28.5 C 27.164062 -28.582031 26.796875 -28.625 26.171875 -28.625 C 25.515625 -28.625 24.945312 -28.570312 24.46875 -28.46875 C 23.832031 -28.332031 23.085938 -28.109375 22.234375 -27.796875 C 20.859375 -27.304688 19.5625 -26.726562 18.34375 -26.0625 C 17.664062 -25.6875 16.25 -24.796875 14.09375 -23.390625 C 13.414062 -22.953125 12.109375 -21.929688 10.171875 -20.328125 C 9.660156 -19.898438 8.945312 -19.226562 8.03125 -18.3125 C 7.125 -17.394531 6.414062 -16.640625 5.90625 -16.046875 C 4.332031 -14.179688 3.332031 -12.710938 2.90625 -11.640625 C 2.476562 -10.566406 2.265625 -9.738281 2.265625 -9.15625 C 2.265625 -8.632812 2.378906 -8.175781 2.609375 -7.78125 C 2.816406 -7.445312 3.054688 -7.210938 3.328125 -7.078125 C 3.609375 -6.953125 4 -6.890625 4.5 -6.890625 C 5.550781 -6.890625 6.921875 -7.351562 8.609375 -8.28125 C 10.304688 -9.21875 12.710938 -10.832031 15.828125 -13.125 C 17.523438 -14.375 18.847656 -15.320312 19.796875 -15.96875 C 20.742188 -16.625 21.460938 -17.070312 21.953125 -17.3125 C 22.453125 -17.550781 22.878906 -17.675781 23.234375 -17.6875 L 23.453125 -17.703125 C 23.890625 -17.703125 24.234375 -17.585938 24.484375 -17.359375 C 24.785156 -17.097656 25 -16.644531 25.125 -16 C 25.238281 -15.351562 25.296875 -14.476562 25.296875 -13.375 C 25.296875 -12.851562 25.285156 -12.285156 25.265625 -11.671875 C 25.179688 -9.734375 25.015625 -8.054688 24.765625 -6.640625 C 24.691406 -6.296875 24.597656 -5.789062 24.484375 -5.125 C 24.398438 -4.601562 24.273438 -4.023438 24.109375 -3.390625 L 24.0625 -3.1875 C 23.800781 -2.195312 23.644531 -1.59375 23.59375 -1.375 C 23.5625 -1.207031 23.546875 -1.085938 23.546875 -1.015625 C 23.546875 -0.960938 23.5625 -0.9375 23.59375 -0.9375 C 23.625 -0.9375 23.65625 -0.945312 23.6875 -0.96875 C 23.707031 -0.976562 23.742188 -0.984375 23.796875 -0.984375 C 23.878906 -0.984375 23.9375 -0.957031 23.96875 -0.90625 C 24.007812 -0.851562 24.046875 -0.828125 24.078125 -0.828125 C 24.097656 -0.828125 24.117188 -0.84375 24.140625 -0.875 C 24.171875 -0.90625 24.234375 -0.929688 24.328125 -0.953125 C 24.421875 -0.972656 24.523438 -0.984375 24.640625 -0.984375 C 24.765625 -0.984375 24.96875 -1 25.25 -1.03125 C 25.539062 -1.0625 25.84375 -1.09375 26.15625 -1.125 C 26.46875 -1.164062 26.78125 -1.191406 27.09375 -1.203125 C 27.40625 -1.210938 27.660156 -1.21875 27.859375 -1.21875 C 28.453125 -1.21875 28.882812 -1.1875 29.15625 -1.125 C 29.34375 -1.082031 29.515625 -1.007812 29.671875 -0.90625 C 30.160156 -0.601562 30.441406 -0.296875 30.515625 0.015625 C 30.523438 0.0664062 30.53125 0.0976562 30.53125 0.109375 C 30.53125 0.128906 30.53125 0.140625 30.53125 0.140625 C 30.507812 0.140625 30.445312 0.0546875 30.34375 -0.109375 C 30.175781 -0.367188 29.9375 -0.582031 29.625 -0.75 C 29.375 -0.875 29.09375 -0.945312 28.78125 -0.96875 C 28.601562 -0.96875 28.289062 -0.96875 27.84375 -0.96875 C 26.957031 -0.957031 26.289062 -0.914062 25.84375 -0.84375 C 24.945312 -0.664062 24.21875 -0.503906 23.65625 -0.359375 C 23.382812 -0.285156 23.25 -0.242188 23.25 -0.234375 C 23.257812 -0.222656 23.273438 -0.21875 23.296875 -0.21875 C 23.410156 -0.21875 23.773438 -0.28125 24.390625 -0.40625 C 25.128906 -0.550781 25.863281 -0.640625 26.59375 -0.671875 C 26.925781 -0.691406 27.164062 -0.703125 27.3125 -0.703125 C 27.4375 -0.703125 27.5 -0.691406 27.5 -0.671875 C 27.488281 -0.648438 27.425781 -0.617188 27.3125 -0.578125 C 27.207031 -0.535156 27.03125 -0.488281 26.78125 -0.4375 C 26.53125 -0.382812 26.269531 -0.335938 26 -0.296875 C 25.738281 -0.265625 25.484375 -0.226562 25.234375 -0.1875 C 24.984375 -0.144531 24.800781 -0.109375 24.6875 -0.078125 C 24.582031 -0.046875 24.453125 -0.015625 24.296875 0.015625 C 24.148438 0.0546875 24.015625 0.09375 23.890625 0.125 C 23.617188 0.1875 23.484375 0.257812 23.484375 0.34375 L 23.5 0.40625 C 23.5 0.488281 23.410156 0.546875 23.234375 0.578125 C 23.097656 0.597656 22.992188 0.648438 22.921875 0.734375 C 22.847656 0.816406 22.757812 0.976562 22.65625 1.21875 C 22.34375 1.914062 21.941406 2.570312 21.453125 3.1875 C 20.960938 3.800781 20.46875 4.265625 19.96875 4.578125 C 19.726562 4.722656 19.414062 4.851562 19.03125 4.96875 C 18.65625 5.09375 18.359375 5.15625 18.140625 5.15625 Z M 18 2.765625 C 18.0625 2.765625 18.25 2.703125 18.5625 2.578125 C 19.132812 2.328125 19.421875 2.15625 19.421875 2.0625 C 19.421875 2.050781 19.410156 2.046875 19.390625 2.046875 C 19.304688 2.046875 19.066406 2.144531 18.671875 2.34375 C 18.210938 2.582031 17.984375 2.722656 17.984375 2.765625 C 17.984375 2.765625 17.988281 2.765625 18 2.765625 Z M 4.65625 -4.8125 C 4.726562 -4.8125 4.765625 -4.84375 4.765625 -4.90625 C 4.765625 -4.9375 4.742188 -4.960938 4.703125 -4.984375 C 4.671875 -5.003906 4.632812 -5.015625 4.59375 -5.015625 C 4.519531 -5.015625 4.484375 -4.992188 4.484375 -4.953125 C 4.484375 -4.941406 4.488281 -4.921875 4.5 -4.890625 C 4.519531 -4.867188 4.546875 -4.847656 4.578125 -4.828125 C 4.609375 -4.816406 4.632812 -4.8125 4.65625 -4.8125 Z M 3.984375 -4.9375 C 4.117188 -4.9375 4.1875 -4.945312 4.1875 -4.96875 C 4.1875 -4.988281 4.128906 -5 4.015625 -5 C 3.953125 -5 3.894531 -4.992188 3.84375 -4.984375 C 3.8125 -4.972656 3.796875 -4.960938 3.796875 -4.953125 C 3.796875 -4.941406 3.859375 -4.9375 3.984375 -4.9375 Z M 2.65625 -5.234375 L 2.671875 -5.234375 C 2.671875 -5.253906 2.617188 -5.296875 2.515625 -5.359375 C 2.191406 -5.566406 1.867188 -5.847656 1.546875 -6.203125 C 1.234375 -6.554688 0.988281 -6.910156 0.8125 -7.265625 C 0.632812 -7.660156 0.519531 -7.859375 0.46875 -7.859375 C 0.46875 -7.859375 0.46875 -7.851562 0.46875 -7.84375 C 0.476562 -7.6875 0.5625 -7.453125 0.71875 -7.140625 C 0.882812 -6.835938 1.066406 -6.554688 1.265625 -6.296875 C 1.390625 -6.148438 1.546875 -5.992188 1.734375 -5.828125 C 1.929688 -5.671875 2.117188 -5.53125 2.296875 -5.40625 C 2.472656 -5.289062 2.59375 -5.234375 2.65625 -5.234375 Z M 11.890625 -7.953125 C 11.941406 -7.953125 12.21875 -8.109375 12.71875 -8.421875 C 13.125 -8.671875 13.328125 -8.816406 13.328125 -8.859375 C 13.285156 -8.859375 13.0625 -8.738281 12.65625 -8.5 C 12.144531 -8.1875 11.890625 -8.003906 11.890625 -7.953125 Z M 0.40625 -8.359375 C 0.425781 -8.359375 0.4375 -8.429688 0.4375 -8.578125 C 0.4375 -8.734375 0.425781 -8.8125 0.40625 -8.8125 C 0.382812 -8.8125 0.375 -8.734375 0.375 -8.578125 C 0.375 -8.429688 0.382812 -8.359375 0.40625 -8.359375 Z M 0.40625 -9 C 0.4375 -9 0.453125 -9.054688 0.453125 -9.171875 C 0.453125 -9.242188 0.429688 -9.28125 0.390625 -9.28125 C 0.347656 -9.28125 0.320312 -9.253906 0.3125 -9.203125 C 0.300781 -9.179688 0.296875 -9.164062 0.296875 -9.15625 C 0.296875 -9.132812 0.300781 -9.113281 0.3125 -9.09375 C 0.351562 -9.03125 0.382812 -9 0.40625 -9 Z M 14.015625 -9.34375 C 14.066406 -9.34375 14.320312 -9.503906 14.78125 -9.828125 C 16.5625 -11.085938 17.453125 -11.742188 17.453125 -11.796875 C 17.453125 -11.804688 17.445312 -11.8125 17.4375 -11.8125 C 17.425781 -11.8125 17.410156 -11.804688 17.390625 -11.796875 C 17.265625 -11.722656 16.878906 -11.460938 16.234375 -11.015625 L 15.578125 -10.546875 C 14.523438 -9.785156 14 -9.382812 14 -9.34375 C 14 -9.34375 14.003906 -9.34375 14.015625 -9.34375 Z M 17.6875 -11.9375 C 17.71875 -11.9375 17.785156 -12 17.890625 -12.125 C 17.953125 -12.195312 17.984375 -12.238281 17.984375 -12.25 L 17.96875 -12.25 C 17.9375 -12.25 17.851562 -12.179688 17.71875 -12.046875 C 17.6875 -12.015625 17.671875 -11.992188 17.671875 -11.984375 C 17.671875 -11.953125 17.675781 -11.9375 17.6875 -11.9375 Z M 19.25 -19.171875 C 19.28125 -19.171875 19.382812 -19.257812 19.5625 -19.4375 C 19.6875 -19.59375 19.75 -19.675781 19.75 -19.6875 C 19.75 -19.695312 19.75 -19.703125 19.75 -19.703125 C 19.707031 -19.703125 19.609375 -19.613281 19.453125 -19.4375 C 19.316406 -19.300781 19.25 -19.21875 19.25 -19.1875 C 19.25 -19.175781 19.25 -19.171875 19.25 -19.171875 Z M 21.578125 -22.75 C 21.554688 -22.75 21.546875 -22.769531 21.546875 -22.8125 C 21.546875 -22.84375 21.578125 -22.882812 21.640625 -22.9375 C 21.710938 -23 21.875 -23.125 22.125 -23.3125 C 21.832031 -22.988281 21.671875 -22.8125 21.640625 -22.78125 C 21.609375 -22.757812 21.585938 -22.75 21.578125 -22.75 Z M 23.328125 -24.109375 C 23.304688 -24.109375 23.296875 -24.117188 23.296875 -24.140625 C 23.296875 -24.179688 23.332031 -24.242188 23.40625 -24.328125 C 23.519531 -24.460938 23.59375 -24.53125 23.625 -24.53125 C 23.625 -24.507812 23.597656 -24.441406 23.546875 -24.328125 C 23.460938 -24.179688 23.390625 -24.109375 23.328125 -24.109375 Z M 23.328125 -24.109375 "/></g></g></g><g fill="#e1b382" fill-opacity="1"><g transform="translate(127.804681, 36.008128)"><g><path d="M 0.953125 0.671875 C 0.929688 0.671875 0.921875 0.644531 0.921875 0.59375 C 0.921875 0.5 0.96875 0.28125 1.0625 -0.0625 C 1.164062 -0.414062 1.21875 -0.632812 1.21875 -0.71875 C 1.21875 -0.738281 1.210938 -0.75 1.203125 -0.75 C 1.171875 -0.75 1.097656 -0.632812 0.984375 -0.40625 C 0.867188 -0.132812 0.785156 0 0.734375 0 C 0.679688 0 0.65625 -0.09375 0.65625 -0.28125 C 0.65625 -0.375 0.660156 -0.46875 0.671875 -0.5625 C 0.679688 -0.625 0.6875 -0.6875 0.6875 -0.75 C 0.6875 -0.863281 0.65625 -0.9375 0.59375 -0.96875 C 0.539062 -1 0.515625 -1.046875 0.515625 -1.109375 L 0.515625 -1.234375 C 0.515625 -1.347656 0.535156 -1.546875 0.578125 -1.828125 C 0.628906 -2.191406 0.65625 -2.441406 0.65625 -2.578125 C 0.65625 -2.609375 0.65625 -2.625 0.65625 -2.625 C 0.625 -2.625 0.519531 -2.453125 0.34375 -2.109375 L 0.078125 -1.546875 L 0.125 -2.09375 C 0.15625 -2.4375 0.289062 -2.925781 0.53125 -3.5625 C 0.875 -4.425781 1.609375 -6.351562 2.734375 -9.34375 C 3.078125 -10.238281 3.289062 -10.8125 3.375 -11.0625 C 3.5625 -11.570312 3.976562 -12.640625 4.625 -14.265625 C 5.269531 -15.890625 5.625 -16.800781 5.6875 -17 C 5.75 -17.207031 6.109375 -18.15625 6.765625 -19.84375 C 7.210938 -20.988281 7.613281 -21.976562 7.96875 -22.8125 C 8.113281 -23.113281 8.203125 -23.265625 8.234375 -23.265625 L 8.25 -23.25 C 8.300781 -23.25 8.363281 -23.296875 8.4375 -23.390625 C 8.476562 -23.460938 8.507812 -23.5 8.53125 -23.5 C 8.539062 -23.5 8.546875 -23.46875 8.546875 -23.40625 L 8.546875 -23.171875 C 8.546875 -23.035156 8.578125 -22.96875 8.640625 -22.96875 L 8.6875 -22.984375 C 8.738281 -22.984375 8.765625 -22.945312 8.765625 -22.875 C 8.765625 -22.757812 8.710938 -22.570312 8.609375 -22.3125 C 8.585938 -22.269531 8.578125 -22.234375 8.578125 -22.203125 C 8.578125 -22.191406 8.585938 -22.1875 8.609375 -22.1875 C 8.617188 -22.1875 8.632812 -22.191406 8.65625 -22.203125 C 8.6875 -22.222656 8.71875 -22.269531 8.75 -22.34375 C 8.789062 -22.414062 8.816406 -22.492188 8.828125 -22.578125 C 8.847656 -22.671875 8.875 -22.75 8.90625 -22.8125 C 8.945312 -22.882812 8.984375 -22.9375 9.015625 -22.96875 L 9.046875 -22.984375 C 9.066406 -22.984375 9.078125 -22.96875 9.078125 -22.9375 C 9.078125 -22.90625 9.066406 -22.851562 9.046875 -22.78125 C 8.972656 -22.5625 8.9375 -22.347656 8.9375 -22.140625 C 8.9375 -21.960938 8.957031 -21.785156 9 -21.609375 C 9.144531 -21.097656 9.21875 -20.707031 9.21875 -20.4375 C 9.21875 -20.226562 9.1875 -20.007812 9.125 -19.78125 C 9.039062 -19.488281 8.894531 -19.085938 8.6875 -18.578125 C 8.332031 -17.679688 8.15625 -17.191406 8.15625 -17.109375 C 8.15625 -17.035156 8.085938 -16.867188 7.953125 -16.609375 C 7.773438 -16.242188 7.441406 -15.394531 6.953125 -14.0625 C 6.722656 -13.457031 6.515625 -12.914062 6.328125 -12.4375 C 6.148438 -11.957031 6.039062 -11.648438 6 -11.515625 C 5.289062 -9.660156 4.566406 -7.738281 3.828125 -5.75 C 3.429688 -4.65625 3.234375 -4.070312 3.234375 -4 C 3.234375 -3.9375 3.085938 -3.609375 2.796875 -3.015625 C 2.515625 -2.421875 2.375 -2.070312 2.375 -1.96875 C 2.375 -1.875 2.28125 -1.617188 2.09375 -1.203125 C 2 -1.035156 1.914062 -0.867188 1.84375 -0.703125 C 1.769531 -0.535156 1.710938 -0.410156 1.671875 -0.328125 C 1.628906 -0.253906 1.585938 -0.171875 1.546875 -0.078125 C 1.585938 -0.285156 1.609375 -0.398438 1.609375 -0.421875 C 1.609375 -0.429688 1.601562 -0.4375 1.59375 -0.4375 C 1.570312 -0.4375 1.519531 -0.351562 1.4375 -0.1875 C 1.382812 -0.0625 1.335938 0.046875 1.296875 0.140625 C 1.253906 0.242188 1.234375 0.3125 1.234375 0.34375 C 1.234375 0.382812 1.21875 0.425781 1.1875 0.46875 C 1.15625 0.519531 1.113281 0.566406 1.0625 0.609375 C 1.007812 0.648438 0.972656 0.671875 0.953125 0.671875 Z M 3.015625 -9.3125 C 3.148438 -9.5625 3.238281 -9.734375 3.28125 -9.828125 C 3.320312 -9.929688 3.378906 -10.109375 3.453125 -10.359375 C 3.304688 -10.109375 3.210938 -9.929688 3.171875 -9.828125 C 3.128906 -9.734375 3.078125 -9.5625 3.015625 -9.3125 Z M 3.484375 -10.421875 C 3.515625 -10.429688 3.546875 -10.484375 3.578125 -10.578125 C 3.585938 -10.609375 3.59375 -10.632812 3.59375 -10.65625 C 3.59375 -10.675781 3.585938 -10.6875 3.578125 -10.6875 C 3.566406 -10.6875 3.550781 -10.675781 3.53125 -10.65625 C 3.507812 -10.644531 3.488281 -10.625 3.46875 -10.59375 C 3.445312 -10.5625 3.4375 -10.535156 3.4375 -10.515625 C 3.4375 -10.453125 3.445312 -10.421875 3.46875 -10.421875 Z M 4.078125 -11.890625 C 4.097656 -11.890625 4.125 -11.914062 4.15625 -11.96875 C 4.195312 -12.03125 4.222656 -12.082031 4.234375 -12.125 C 4.253906 -12.175781 4.265625 -12.21875 4.265625 -12.25 C 4.265625 -12.269531 4.257812 -12.28125 4.25 -12.28125 C 4.238281 -12.28125 4.210938 -12.253906 4.171875 -12.203125 C 4.140625 -12.148438 4.113281 -12.097656 4.09375 -12.046875 C 4.070312 -12.003906 4.0625 -11.96875 4.0625 -11.9375 C 4.0625 -11.90625 4.066406 -11.890625 4.078125 -11.890625 Z M 4.265625 -12.359375 C 4.410156 -12.597656 4.5 -12.753906 4.53125 -12.828125 C 4.5625 -12.898438 4.578125 -12.945312 4.578125 -12.96875 C 4.578125 -13.007812 4.570312 -13.03125 4.5625 -13.03125 C 4.488281 -13.03125 4.390625 -12.804688 4.265625 -12.359375 Z M 4.265625 -12.359375 "/></g></g></g><g fill="#e1b382" fill-opacity="1"><g transform="translate(137.084694, 36.008128)"><g><path d="M 0.21875 -4.6875 C 0.125 -4.6875 0.078125 -4.703125 0.078125 -4.734375 C 0.078125 -4.753906 0.253906 -4.878906 0.609375 -5.109375 C 0.921875 -5.304688 1.078125 -5.4375 1.078125 -5.5 C 1.078125 -5.507812 1.066406 -5.515625 1.046875 -5.515625 C 0.992188 -5.515625 0.878906 -5.460938 0.703125 -5.359375 C 0.523438 -5.265625 0.410156 -5.21875 0.359375 -5.21875 C 0.304688 -5.21875 0.28125 -5.265625 0.28125 -5.359375 C 0.28125 -5.390625 0.304688 -5.4375 0.359375 -5.5 C 0.410156 -5.570312 0.472656 -5.628906 0.546875 -5.671875 C 0.691406 -5.773438 0.765625 -5.875 0.765625 -5.96875 L 0.765625 -6.015625 C 0.765625 -6.128906 0.90625 -6.316406 1.1875 -6.578125 C 1.320312 -6.691406 1.457031 -6.789062 1.59375 -6.875 C 1.6875 -6.925781 1.734375 -6.957031 1.734375 -6.96875 C 1.734375 -6.976562 1.726562 -6.984375 1.71875 -6.984375 C 1.644531 -6.984375 1.421875 -6.925781 1.046875 -6.8125 C 0.984375 -6.800781 0.9375 -6.796875 0.90625 -6.796875 C 0.851562 -6.796875 0.828125 -6.8125 0.828125 -6.84375 C 0.828125 -6.9375 1.019531 -7.097656 1.40625 -7.328125 C 1.738281 -7.515625 2.273438 -7.753906 3.015625 -8.046875 C 3.703125 -8.316406 4.484375 -8.644531 5.359375 -9.03125 C 6.242188 -9.425781 6.945312 -9.734375 7.46875 -9.953125 L 5.953125 -10.703125 C 3.703125 -11.835938 2.566406 -12.453125 2.546875 -12.546875 C 2.554688 -12.546875 2.5625 -12.550781 2.5625 -12.5625 C 2.5625 -12.582031 2.550781 -12.601562 2.53125 -12.625 C 2.519531 -12.65625 2.492188 -12.691406 2.453125 -12.734375 C 2.421875 -12.773438 2.40625 -12.804688 2.40625 -12.828125 C 2.40625 -12.835938 2.421875 -12.84375 2.453125 -12.84375 C 2.484375 -12.84375 2.535156 -12.832031 2.609375 -12.8125 C 2.691406 -12.789062 2.753906 -12.78125 2.796875 -12.78125 C 2.867188 -12.78125 2.90625 -12.820312 2.90625 -12.90625 C 2.90625 -13 2.929688 -13.046875 2.984375 -13.046875 C 3.003906 -13.046875 3.03125 -13.039062 3.0625 -13.03125 C 3.113281 -13.007812 3.171875 -12.988281 3.234375 -12.96875 C 3.296875 -12.945312 3.351562 -12.925781 3.40625 -12.90625 C 3.46875 -12.882812 3.503906 -12.875 3.515625 -12.875 C 3.523438 -12.875 3.53125 -12.875 3.53125 -12.875 C 3.53125 -12.882812 3.429688 -12.96875 3.234375 -13.125 C 3.035156 -13.257812 2.9375 -13.332031 2.9375 -13.34375 L 3.140625 -13.28125 C 3.347656 -13.21875 3.507812 -13.1875 3.625 -13.1875 L 3.8125 -13.1875 C 4.007812 -13.1875 4.144531 -13.210938 4.21875 -13.265625 C 4.300781 -13.328125 4.519531 -13.378906 4.875 -13.421875 C 4.988281 -13.441406 5.085938 -13.453125 5.171875 -13.453125 C 5.335938 -13.453125 5.53125 -13.40625 5.75 -13.3125 C 5.894531 -13.25 6.414062 -12.992188 7.3125 -12.546875 L 7.734375 -12.328125 C 7.859375 -12.253906 9.550781 -11.410156 12.8125 -9.796875 C 12.09375 -9.460938 11.394531 -9.15625 10.71875 -8.875 C 9.414062 -8.332031 8.046875 -7.742188 6.609375 -7.109375 C 5.953125 -6.816406 5.570312 -6.644531 5.46875 -6.59375 C 5.28125 -6.476562 4.875 -6.285156 4.25 -6.015625 C 3.632812 -5.753906 3.289062 -5.625 3.21875 -5.625 C 3.144531 -5.625 2.925781 -5.539062 2.5625 -5.375 C 2.15625 -5.1875 1.585938 -4.960938 0.859375 -4.703125 L 0.84375 -4.6875 C 0.832031 -4.6875 0.828125 -4.691406 0.828125 -4.703125 C 0.828125 -4.722656 0.867188 -4.765625 0.953125 -4.828125 C 1.046875 -4.898438 1.09375 -4.945312 1.09375 -4.96875 C 1.09375 -4.976562 1.082031 -4.984375 1.0625 -4.984375 C 1 -4.984375 0.878906 -4.9375 0.703125 -4.84375 C 0.617188 -4.789062 0.523438 -4.75 0.421875 -4.71875 C 0.328125 -4.695312 0.257812 -4.6875 0.21875 -4.6875 Z M 6.96875 -9.421875 C 7.09375 -9.453125 7.207031 -9.492188 7.3125 -9.546875 C 7.425781 -9.597656 7.484375 -9.632812 7.484375 -9.65625 C 7.484375 -9.65625 7.476562 -9.65625 7.46875 -9.65625 C 7.425781 -9.65625 7.347656 -9.640625 7.234375 -9.609375 C 7.003906 -9.523438 6.890625 -9.46875 6.890625 -9.4375 C 6.890625 -9.425781 6.90625 -9.421875 6.9375 -9.421875 Z M 6.96875 -9.421875 "/></g></g></g></svg>