<svg xmlns="http://www.w3.org/2000/svg" xmlns:xlink="http://www.w3.org/1999/xlink" width="1000" zoomAndPan="magnify" viewBox="0 0 750 749.999995" height="1000" preserveAspectRatio="xMidYMid meet" version="1.0"><path fill="#9db7a4" d="M 581.425781 144.605469 C 583.769531 140.542969 587.554688 137.636719 592.089844 136.425781 C 593.601562 136.019531 595.136719 135.820312 596.660156 135.820312 C 599.707031 135.820312 602.707031 136.617188 605.40625 138.175781 C 606.753906 138.957031 607.921875 139.941406 608.992188 141.007812 L 609.035156 140.964844 C 610.09375 142.027344 611.039062 143.234375 611.824219 144.585938 C 616.664062 152.972656 613.78125 163.730469 605.394531 168.574219 C 599.847656 171.773438 593.265625 171.582031 588.046875 168.664062 C 596.554688 171.304688 607.445312 162.21875 601.6875 152.238281 C 601.183594 151.371094 600.613281 150.640625 600.011719 149.988281 C 599.359375 149.386719 598.628906 148.816406 597.761719 148.3125 C 587.78125 142.554688 578.695312 153.445312 581.335938 161.953125 C 578.417969 156.734375 578.226562 150.152344 581.425781 144.605469 Z M 581.003906 168.996094 L 580.992188 169.007812 C 585.179688 173.191406 590.859375 175.476562 596.652344 175.476562 C 600.402344 175.476562 604.199219 174.523438 607.675781 172.519531 C 618.234375 166.417969 621.867188 152.867188 615.765625 142.308594 C 614.78125 140.597656 613.582031 139.089844 612.246094 137.753906 L 612.25 137.75 C 610.898438 136.40625 609.386719 135.210938 607.6875 134.234375 C 602.578125 131.28125 596.613281 130.496094 590.910156 132.023438 C 585.203125 133.554688 580.433594 137.210938 577.480469 142.324219 C 572.378906 151.167969 574.113281 162.09375 581.003906 168.996094 " fill-opacity="1" fill-rule="nonzero"/><path fill="#9db7a4" d="M 621.539062 115.964844 C 625.773438 118.414062 629.570312 111.828125 625.335938 109.382812 C 621.09375 106.933594 617.300781 113.519531 621.539062 115.964844 " fill-opacity="1" fill-rule="nonzero"/><path fill="#9db7a4" d="M 607.867188 113.28125 C 612.109375 115.722656 615.902344 109.144531 611.664062 106.699219 C 607.429688 104.25 603.636719 110.835938 607.867188 113.28125 " fill-opacity="1" fill-rule="nonzero"/><path fill="#9db7a4" d="M 596.359375 108.234375 C 600.601562 110.683594 604.394531 104.105469 600.15625 101.660156 C 595.921875 99.210938 592.128906 105.792969 596.359375 108.234375 " fill-opacity="1" fill-rule="nonzero"/><path fill="#9db7a4" d="M 584.804688 103.96875 C 589.046875 106.417969 592.839844 99.832031 588.609375 97.390625 C 584.367188 94.945312 580.574219 101.527344 584.804688 103.96875 " fill-opacity="1" fill-rule="nonzero"/><path fill="#9db7a4" d="M 572.261719 100.730469 C 576.503906 103.179688 580.292969 96.59375 576.058594 94.148438 C 571.820312 91.707031 568.03125 98.285156 572.261719 100.730469 " fill-opacity="1" fill-rule="nonzero"/><path fill="#9db7a4" d="M 559.703125 100.285156 C 563.941406 102.734375 567.730469 96.152344 563.5 93.710938 C 559.257812 91.261719 555.46875 97.839844 559.703125 100.285156 " fill-opacity="1" fill-rule="nonzero"/><path fill="#9db7a4" d="M 547.476562 102.035156 C 551.71875 104.484375 555.507812 97.90625 551.273438 95.460938 C 547.035156 93.011719 543.246094 99.59375 547.476562 102.035156 " fill-opacity="1" fill-rule="nonzero"/><path fill="#9db7a4" d="M 535.921875 105.679688 C 540.15625 108.128906 543.953125 101.542969 539.71875 99.101562 C 535.476562 96.652344 531.691406 103.238281 535.921875 105.679688 " fill-opacity="1" fill-rule="nonzero"/><path fill="#9db7a4" d="M 634.019531 115.980469 C 636.777344 118.851562 642.269531 115.324219 639.996094 111.394531 C 639.820312 111.082031 639.613281 110.832031 639.398438 110.601562 C 639.167969 110.386719 638.917969 110.179688 638.605469 110.003906 C 634.675781 107.730469 631.148438 113.222656 634.019531 115.980469 " fill-opacity="1" fill-rule="nonzero"/><path fill="#9db7a4" d="M 558.214844 150.023438 C 566.699219 154.917969 574.28125 141.757812 565.816406 136.871094 C 557.335938 131.972656 549.753906 145.136719 558.214844 150.023438 " fill-opacity="1" fill-rule="nonzero"/><path fill="#9db7a4" d="M 476.0625 31.976562 C 480.296875 34.417969 484.101562 27.84375 479.859375 25.394531 C 475.628906 22.953125 471.824219 29.527344 476.0625 31.976562 " fill-opacity="1" fill-rule="nonzero"/><path fill="#9db7a4" d="M 485.21875 42.46875 C 489.457031 44.914062 493.257812 38.339844 489.023438 35.890625 C 484.785156 33.445312 480.984375 40.019531 485.21875 42.46875 " fill-opacity="1" fill-rule="nonzero"/><path fill="#9db7a4" d="M 495.34375 49.910156 C 499.574219 52.355469 503.378906 45.78125 499.140625 43.335938 C 494.90625 40.894531 491.101562 47.46875 495.34375 49.910156 " fill-opacity="1" fill-rule="nonzero"/><path fill="#9db7a4" d="M 504.8125 57.785156 C 509.042969 60.230469 512.851562 53.65625 508.609375 51.207031 C 504.378906 48.761719 500.578125 55.335938 504.8125 57.785156 " fill-opacity="1" fill-rule="nonzero"/><path fill="#9db7a4" d="M 513.894531 67.03125 C 518.125 69.476562 521.929688 62.902344 517.691406 60.453125 C 513.457031 58.007812 509.652344 64.582031 513.894531 67.03125 " fill-opacity="1" fill-rule="nonzero"/><path fill="#9db7a4" d="M 520.558594 77.683594 C 524.789062 80.132812 528.597656 73.554688 524.355469 71.109375 C 520.125 68.667969 516.316406 75.242188 520.558594 77.683594 " fill-opacity="1" fill-rule="nonzero"/><path fill="#9db7a4" d="M 525.152344 89.152344 C 529.386719 91.59375 533.191406 85.019531 528.949219 82.570312 C 524.71875 80.128906 520.914062 86.703125 525.152344 89.152344 " fill-opacity="1" fill-rule="nonzero"/><path fill="#9db7a4" d="M 527.777344 100.976562 C 532.011719 103.417969 535.816406 96.84375 531.574219 94.402344 C 527.34375 91.957031 523.539062 98.53125 527.777344 100.976562 " fill-opacity="1" fill-rule="nonzero"/><path fill="#9db7a4" d="M 527.121094 111.515625 C 531.363281 113.960938 535.152344 107.378906 530.921875 104.9375 C 526.6875 102.492188 522.882812 109.066406 527.121094 111.515625 " fill-opacity="1" fill-rule="nonzero"/><path fill="#9db7a4" d="M 478.222656 103.839844 C 486.691406 108.726562 494.300781 95.578125 485.824219 90.679688 C 477.355469 85.792969 469.746094 98.941406 478.222656 103.839844 " fill-opacity="1" fill-rule="nonzero"/><path fill="#9db7a4" d="M 668.96875 278.683594 C 677.359375 273.851562 688.113281 276.734375 692.953125 285.113281 C 693.738281 286.472656 694.300781 287.894531 694.6875 289.34375 L 694.679688 289.34375 C 695.074219 290.789062 695.296875 292.300781 695.296875 293.867188 C 695.296875 303.550781 687.421875 311.425781 677.742188 311.425781 C 671.335938 311.425781 665.742188 307.96875 662.675781 302.835938 C 668.722656 309.367188 682.699219 306.945312 682.699219 295.429688 C 682.699219 294.421875 682.570312 293.507812 682.371094 292.640625 C 682.113281 291.792969 681.761719 290.929688 681.257812 290.0625 C 675.496094 280.085938 662.179688 284.976562 660.214844 293.667969 C 660.296875 287.683594 663.421875 281.890625 668.96875 278.683594 Z M 656.40625 299.597656 C 658.9375 309.019531 667.527344 315.984375 677.742188 315.984375 C 689.933594 315.984375 699.855469 306.058594 699.855469 293.867188 C 699.855469 291.890625 699.566406 289.988281 699.082031 288.164062 C 698.59375 286.335938 697.886719 284.542969 696.902344 282.832031 C 690.796875 272.269531 677.25 268.640625 666.691406 274.742188 C 657.847656 279.84375 653.886719 290.175781 656.40625 299.597656 " fill-opacity="1" fill-rule="nonzero"/><path fill="#9db7a4" d="M 728.449219 309.125 C 727.328125 320.941406 726.238281 331.921875 722.125 343.125 C 717.378906 356.050781 707.460938 366.445312 696.695312 375 C 707.460938 383.554688 717.378906 393.949219 722.125 406.875 C 726.238281 418.078125 727.328125 429.058594 728.449219 440.878906 C 729.671875 453.851562 734.546875 464.445312 742.699219 473.523438 C 731.101562 477.316406 721.582031 484.054688 714.027344 494.671875 C 707.15625 504.34375 700.722656 513.308594 691.558594 520.957031 C 680.988281 529.78125 667.195312 533.816406 653.59375 535.84375 C 658.640625 548.640625 662.039062 562.597656 659.683594 576.164062 C 657.644531 587.921875 653.097656 597.984375 648.15625 608.769531 C 642.730469 620.617188 641.660156 632.230469 644.171875 644.171875 C 632.230469 641.660156 620.617188 642.730469 608.769531 648.15625 C 597.984375 653.097656 587.921875 657.644531 576.164062 659.683594 C 562.597656 662.039062 548.640625 658.640625 535.84375 653.59375 C 533.816406 667.195312 529.78125 680.988281 520.957031 691.558594 C 513.308594 700.722656 504.34375 707.15625 494.671875 714.027344 C 484.046875 721.582031 477.316406 731.101562 473.523438 742.699219 C 464.441406 734.546875 453.847656 729.671875 440.875 728.449219 C 429.058594 727.328125 418.078125 726.238281 406.875 722.125 C 393.949219 717.378906 383.554688 707.460938 375 696.695312 C 366.445312 707.460938 356.050781 717.378906 343.125 722.125 C 331.921875 726.238281 320.941406 727.328125 309.121094 728.449219 C 296.148438 729.671875 285.554688 734.546875 276.472656 742.699219 C 272.683594 731.101562 265.945312 721.582031 255.328125 714.027344 C 245.652344 707.15625 236.6875 700.722656 229.042969 691.558594 C 220.21875 680.988281 216.179688 667.195312 214.152344 653.59375 C 201.355469 658.640625 187.398438 662.039062 173.828125 659.683594 C 162.074219 657.644531 152.015625 653.097656 141.226562 648.15625 C 129.375 642.730469 117.765625 641.660156 105.824219 644.171875 C 108.339844 632.230469 107.265625 620.617188 101.839844 608.769531 C 96.902344 597.984375 92.359375 587.921875 90.316406 576.164062 C 87.960938 562.597656 91.359375 548.640625 96.402344 535.84375 C 82.804688 533.816406 69.011719 529.78125 58.441406 520.957031 C 49.277344 513.308594 42.84375 504.34375 35.972656 494.671875 C 28.417969 484.054688 18.898438 477.316406 7.300781 473.523438 C 15.453125 464.445312 20.328125 453.851562 21.550781 440.878906 C 22.671875 429.058594 23.761719 418.078125 27.875 406.875 C 32.621094 393.949219 42.539062 383.554688 53.300781 375 C 42.539062 366.445312 32.621094 356.050781 27.875 343.125 C 23.761719 331.921875 22.671875 320.941406 21.550781 309.125 C 20.328125 296.148438 15.453125 285.558594 7.300781 276.476562 C 18.898438 272.683594 28.417969 265.945312 35.972656 255.328125 C 42.84375 245.65625 49.277344 236.691406 58.441406 229.042969 C 69.011719 220.21875 82.804688 216.183594 96.402344 214.15625 C 91.359375 201.359375 87.960938 187.402344 90.316406 173.832031 C 92.359375 162.078125 96.902344 152.015625 101.839844 141.230469 C 107.265625 129.382812 108.339844 117.761719 105.824219 105.828125 C 117.765625 108.347656 129.375 107.269531 141.226562 101.84375 C 152.015625 96.902344 162.074219 92.355469 173.828125 90.316406 C 187.398438 87.960938 201.355469 91.359375 214.152344 96.40625 C 216.179688 82.804688 220.21875 69.011719 229.042969 58.441406 C 236.6875 49.277344 245.652344 42.84375 255.328125 35.972656 C 265.945312 28.417969 272.683594 18.898438 276.472656 7.300781 C 285.554688 15.453125 296.148438 20.328125 309.121094 21.550781 C 320.941406 22.671875 331.921875 23.761719 343.125 27.875 C 356.050781 32.621094 366.445312 42.539062 375 53.304688 C 383.554688 42.539062 393.949219 32.621094 406.875 27.875 C 418.078125 23.761719 429.058594 22.671875 440.875 21.550781 C 453.847656 20.328125 464.441406 15.453125 473.523438 7.300781 C 477.316406 18.898438 484.046875 28.417969 494.671875 35.972656 C 504.34375 42.84375 513.308594 49.277344 520.957031 58.441406 C 529.78125 69.011719 533.816406 82.804688 535.84375 96.40625 C 548.640625 91.359375 562.597656 87.960938 576.164062 90.316406 C 587.921875 92.355469 597.984375 96.902344 608.769531 101.84375 C 620.617188 107.269531 632.230469 108.347656 644.171875 105.828125 C 641.660156 117.761719 642.730469 129.382812 648.15625 141.230469 C 653.097656 152.015625 657.644531 162.078125 659.683594 173.832031 C 662.039062 187.402344 658.640625 201.359375 653.59375 214.15625 C 667.195312 216.183594 680.988281 220.21875 691.558594 229.042969 C 700.722656 236.691406 707.15625 245.65625 714.027344 255.328125 C 721.582031 265.945312 731.101562 272.683594 742.699219 276.476562 C 734.546875 285.558594 729.671875 296.148438 728.449219 309.125 Z M 715.839844 251.246094 C 710.253906 243.398438 705.074219 236.285156 697.933594 229.648438 C 686.535156 219.058594 673.382812 213.914062 658.726562 211.191406 C 663.695312 197.140625 665.816406 183.171875 662.34375 168.007812 C 660.167969 158.503906 656.59375 150.464844 652.59375 141.703125 C 646.152344 127.605469 645.015625 114.949219 649.515625 100.484375 C 635.050781 104.984375 622.394531 103.847656 608.296875 97.40625 C 599.535156 93.40625 591.496094 89.832031 581.992188 87.65625 C 566.828125 84.183594 552.859375 86.304688 538.808594 91.273438 C 536.085938 76.617188 530.941406 63.464844 520.351562 52.066406 C 513.714844 44.925781 506.601562 39.746094 498.753906 34.160156 C 486.128906 25.179688 478.816406 14.777344 475.480469 0 C 465.203125 11.132812 453.667969 16.476562 438.238281 17.949219 C 428.660156 18.863281 419.90625 19.789062 410.589844 22.660156 C 395.707031 27.234375 384.691406 36.105469 375 47.445312 C 365.308594 36.105469 354.292969 27.234375 339.410156 22.660156 C 330.09375 19.789062 321.339844 18.863281 311.757812 17.949219 C 296.332031 16.476562 284.792969 11.132812 274.515625 0 C 271.183594 14.777344 263.871094 25.179688 251.242188 34.160156 C 243.398438 39.746094 236.285156 44.925781 229.644531 52.066406 C 219.058594 63.464844 213.914062 76.617188 211.1875 91.273438 C 197.136719 86.304688 183.167969 84.183594 168.003906 87.65625 C 158.5 89.832031 150.460938 93.40625 141.703125 97.40625 C 127.609375 103.847656 114.949219 104.984375 100.480469 100.484375 C 104.980469 114.949219 103.84375 127.605469 97.40625 141.703125 C 93.402344 150.464844 89.828125 158.503906 87.65625 168.007812 C 84.179688 183.171875 86.300781 197.140625 91.265625 211.191406 C 76.621094 213.914062 63.460938 219.058594 52.066406 229.648438 C 44.925781 236.285156 39.746094 243.398438 34.160156 251.246094 C 25.179688 263.871094 14.777344 271.183594 0 274.519531 C 11.132812 284.796875 16.476562 296.332031 17.949219 311.757812 C 18.863281 321.339844 19.789062 330.09375 22.652344 339.410156 C 27.234375 354.292969 36.105469 365.308594 47.4375 375 C 36.105469 384.691406 27.234375 395.707031 22.652344 410.589844 C 19.789062 419.90625 18.863281 428.660156 17.949219 438.242188 C 16.476562 453.667969 11.132812 465.203125 0 475.480469 C 14.777344 478.816406 25.179688 486.128906 34.160156 498.757812 C 39.746094 506.601562 44.925781 513.714844 52.066406 520.351562 C 63.460938 530.941406 76.621094 536.085938 91.265625 538.808594 C 86.300781 552.859375 84.179688 566.828125 87.65625 581.992188 C 89.828125 591.496094 93.402344 599.535156 97.40625 608.296875 C 103.84375 622.394531 104.980469 635.050781 100.480469 649.515625 C 114.949219 645.015625 127.609375 646.152344 141.703125 652.59375 C 150.460938 656.59375 158.5 660.167969 168.003906 662.34375 C 183.167969 665.816406 197.136719 663.695312 211.1875 658.726562 C 213.914062 673.375 219.058594 686.535156 229.644531 697.933594 C 236.285156 705.074219 243.398438 710.253906 251.242188 715.839844 C 263.871094 724.820312 271.183594 735.222656 274.515625 750 C 284.792969 738.867188 296.332031 733.523438 311.757812 732.050781 C 321.339844 731.136719 330.09375 730.210938 339.410156 727.347656 C 354.292969 722.765625 365.308594 713.894531 375 702.5625 C 384.691406 713.894531 395.707031 722.765625 410.589844 727.347656 C 419.90625 730.210938 428.660156 731.136719 438.238281 732.050781 C 453.667969 733.523438 465.203125 738.867188 475.480469 750 C 478.816406 735.222656 486.128906 724.820312 498.753906 715.839844 C 506.601562 710.253906 513.714844 705.074219 520.351562 697.933594 C 530.941406 686.535156 536.085938 673.375 538.808594 658.726562 C 552.859375 663.695312 566.828125 665.816406 581.992188 662.34375 C 591.496094 660.167969 599.535156 656.59375 608.296875 652.59375 C 622.394531 646.152344 635.050781 645.015625 649.515625 649.515625 C 645.015625 635.050781 646.152344 622.394531 652.59375 608.296875 C 656.59375 599.535156 660.167969 591.496094 662.34375 581.992188 C 665.816406 566.828125 663.695312 552.859375 658.726562 538.808594 C 673.382812 536.085938 686.535156 530.941406 697.933594 520.351562 C 705.074219 513.714844 710.253906 506.601562 715.839844 498.757812 C 724.820312 486.128906 735.222656 478.816406 750 475.480469 C 738.867188 465.203125 733.523438 453.667969 732.050781 438.242188 C 731.136719 428.660156 730.210938 419.90625 727.339844 410.589844 C 722.765625 395.707031 713.894531 384.691406 702.5625 375 C 713.894531 365.308594 722.765625 354.292969 727.339844 339.410156 C 730.210938 330.09375 731.136719 321.339844 732.050781 311.757812 C 733.523438 296.332031 738.867188 284.796875 750 274.519531 C 735.222656 271.183594 724.820312 263.871094 715.839844 251.246094 " fill-opacity="1" fill-rule="nonzero"/><path fill="#9db7a4" d="M 724.605469 270.140625 C 722.15625 265.898438 715.582031 269.703125 718.023438 273.9375 C 720.472656 278.175781 727.046875 274.371094 724.605469 270.140625 " fill-opacity="1" fill-rule="nonzero"/><path fill="#9db7a4" d="M 707.53125 264.78125 C 709.980469 269.015625 716.554688 265.214844 714.109375 260.976562 C 711.660156 256.742188 705.085938 260.542969 707.53125 264.78125 " fill-opacity="1" fill-rule="nonzero"/><path fill="#9db7a4" d="M 706.664062 250.859375 C 704.21875 246.621094 697.644531 250.425781 700.089844 254.65625 C 702.53125 258.898438 709.105469 255.09375 706.664062 250.859375 " fill-opacity="1" fill-rule="nonzero"/><path fill="#9db7a4" d="M 698.792969 241.390625 C 696.34375 237.148438 689.769531 240.957031 692.214844 245.1875 C 694.664062 249.421875 701.238281 245.621094 698.792969 241.390625 " fill-opacity="1" fill-rule="nonzero"/><path fill="#9db7a4" d="M 689.546875 232.308594 C 687.097656 228.070312 680.523438 231.875 682.96875 236.105469 C 685.417969 240.347656 691.992188 236.542969 689.546875 232.308594 " fill-opacity="1" fill-rule="nonzero"/><path fill="#9db7a4" d="M 678.890625 225.644531 C 676.445312 221.402344 669.867188 225.210938 672.316406 229.441406 C 674.757812 233.683594 681.332031 229.875 678.890625 225.644531 " fill-opacity="1" fill-rule="nonzero"/><path fill="#9db7a4" d="M 667.429688 221.050781 C 664.980469 216.808594 658.40625 220.613281 660.847656 224.847656 C 663.296875 229.085938 669.871094 225.28125 667.429688 221.050781 " fill-opacity="1" fill-rule="nonzero"/><path fill="#9db7a4" d="M 649.023438 222.222656 C 651.46875 226.460938 658.042969 222.65625 655.597656 218.421875 C 653.148438 214.183594 646.582031 217.988281 649.023438 222.222656 " fill-opacity="1" fill-rule="nonzero"/><path fill="#9db7a4" d="M 728.828125 280.191406 C 729.785156 284.0625 736.300781 283.746094 736.300781 279.207031 C 736.300781 278.855469 736.246094 278.53125 736.171875 278.222656 C 736.089844 277.921875 735.964844 277.617188 735.789062 277.308594 C 733.523438 273.382812 727.714844 276.363281 728.828125 280.191406 " fill-opacity="1" fill-rule="nonzero"/><path fill="#9db7a4" d="M 659.320312 264.175781 C 654.421875 255.699219 641.273438 263.308594 646.160156 271.777344 C 651.058594 280.253906 664.207031 272.644531 659.320312 264.175781 " fill-opacity="1" fill-rule="nonzero"/><path fill="#9db7a4" d="M 640.617188 124.664062 C 638.171875 120.429688 631.585938 124.21875 634.035156 128.460938 C 636.480469 132.699219 643.066406 128.90625 640.617188 124.664062 " fill-opacity="1" fill-rule="nonzero"/><path fill="#9db7a4" d="M 636.71875 142.132812 C 639.164062 146.363281 645.75 142.570312 643.300781 138.335938 C 640.855469 134.097656 634.277344 137.890625 636.71875 142.132812 " fill-opacity="1" fill-rule="nonzero"/><path fill="#9db7a4" d="M 641.765625 153.640625 C 644.207031 157.871094 650.789062 154.078125 648.339844 149.84375 C 645.894531 145.605469 639.316406 149.398438 641.765625 153.640625 " fill-opacity="1" fill-rule="nonzero"/><path fill="#9db7a4" d="M 646.03125 165.195312 C 648.472656 169.425781 655.054688 165.632812 652.609375 161.390625 C 650.167969 157.160156 643.582031 160.953125 646.03125 165.195312 " fill-opacity="1" fill-rule="nonzero"/><path fill="#9db7a4" d="M 649.269531 177.738281 C 651.714844 181.96875 658.292969 178.179688 655.851562 173.941406 C 653.40625 169.707031 646.820312 173.496094 649.269531 177.738281 " fill-opacity="1" fill-rule="nonzero"/><path fill="#9db7a4" d="M 649.714844 190.296875 C 652.160156 194.53125 658.738281 190.742188 656.289062 186.5 C 653.847656 182.269531 647.265625 186.058594 649.714844 190.296875 " fill-opacity="1" fill-rule="nonzero"/><path fill="#9db7a4" d="M 647.957031 202.523438 C 650.40625 206.753906 656.988281 202.964844 654.539062 198.726562 C 652.09375 194.492188 645.515625 198.28125 647.957031 202.523438 " fill-opacity="1" fill-rule="nonzero"/><path fill="#9db7a4" d="M 644.320312 214.078125 C 646.761719 218.308594 653.347656 214.523438 650.898438 210.28125 C 648.457031 206.046875 641.871094 209.84375 644.320312 214.078125 " fill-opacity="1" fill-rule="nonzero"/><path fill="#9db7a4" d="M 645.0625 219.078125 C 642.621094 214.847656 636.039062 218.636719 638.484375 222.878906 C 640.933594 227.117188 647.507812 223.3125 645.0625 219.078125 " fill-opacity="1" fill-rule="nonzero"/><path fill="#9db7a4" d="M 599.976562 191.777344 C 604.863281 200.246094 618.027344 192.664062 613.128906 184.183594 C 608.242188 175.71875 595.082031 183.300781 599.976562 191.777344 " fill-opacity="1" fill-rule="nonzero"/><path fill="#9db7a4" d="M 692.953125 464.886719 C 688.113281 473.273438 677.359375 476.148438 668.96875 471.316406 C 663.421875 468.109375 660.296875 462.316406 660.214844 456.335938 C 662.179688 465.023438 675.496094 469.914062 681.257812 459.9375 C 681.761719 459.070312 682.113281 458.210938 682.371094 457.359375 C 682.570312 456.492188 682.699219 455.578125 682.699219 454.570312 C 682.699219 443.054688 668.722656 440.625 662.671875 447.164062 C 665.742188 442.03125 671.335938 438.574219 677.742188 438.574219 C 687.421875 438.574219 695.296875 446.449219 695.296875 456.132812 C 695.296875 457.699219 695.074219 459.210938 694.679688 460.65625 L 694.6875 460.65625 C 694.292969 462.105469 693.738281 463.527344 692.953125 464.886719 Z M 677.742188 434.015625 C 667.527344 434.015625 658.9375 440.980469 656.40625 450.402344 C 653.886719 459.824219 657.847656 470.15625 666.691406 475.257812 C 670.164062 477.261719 673.960938 478.21875 677.710938 478.21875 C 681.058594 478.21875 684.351562 477.414062 687.355469 475.96875 C 687.390625 475.949219 687.421875 475.933594 687.457031 475.921875 C 691.277344 474.058594 694.617188 471.117188 696.902344 467.167969 C 697.886719 465.457031 698.59375 463.664062 699.082031 461.835938 C 699.566406 460.011719 699.855469 458.109375 699.855469 456.132812 C 699.855469 443.933594 689.933594 434.015625 677.742188 434.015625 " fill-opacity="1" fill-rule="nonzero"/><path fill="#9db7a4" d="M 722.601562 458.988281 C 722.601562 463.886719 730.199219 463.875 730.199219 458.988281 C 730.199219 454.09375 722.601562 454.101562 722.601562 458.988281 " fill-opacity="1" fill-rule="nonzero"/><path fill="#9db7a4" d="M 718.09375 445.808594 C 718.09375 450.703125 725.6875 450.695312 725.6875 445.808594 C 725.6875 440.914062 718.09375 440.925781 718.09375 445.808594 " fill-opacity="1" fill-rule="nonzero"/><path fill="#9db7a4" d="M 716.707031 433.324219 C 716.707031 438.214844 724.300781 438.210938 724.300781 433.324219 C 724.300781 428.425781 716.707031 428.4375 716.707031 433.324219 " fill-opacity="1" fill-rule="nonzero"/><path fill="#9db7a4" d="M 714.625 421.183594 C 714.625 426.082031 722.21875 426.070312 722.21875 421.183594 C 722.21875 416.289062 714.625 416.296875 714.625 421.183594 " fill-opacity="1" fill-rule="nonzero"/><path fill="#9db7a4" d="M 711.15625 408.695312 C 711.15625 413.597656 718.75 413.585938 718.75 408.695312 C 718.75 403.804688 711.15625 403.808594 711.15625 408.695312 " fill-opacity="1" fill-rule="nonzero"/><path fill="#9db7a4" d="M 712.855469 397.601562 C 712.855469 392.707031 705.261719 392.710938 705.261719 397.601562 C 705.261719 402.492188 712.855469 402.488281 712.855469 397.601562 " fill-opacity="1" fill-rule="nonzero"/><path fill="#9db7a4" d="M 697.628906 387.890625 C 697.628906 392.785156 705.222656 392.777344 705.222656 387.890625 C 705.222656 382.992188 697.628906 383.003906 697.628906 387.890625 " fill-opacity="1" fill-rule="nonzero"/><path fill="#9db7a4" d="M 688.699219 379.699219 C 688.699219 384.597656 696.292969 384.585938 696.292969 379.699219 C 696.292969 374.804688 688.699219 374.8125 688.699219 379.699219 " fill-opacity="1" fill-rule="nonzero"/><path fill="#9db7a4" d="M 736.300781 470.792969 C 736.300781 466.253906 729.785156 465.9375 728.828125 469.808594 C 727.714844 473.636719 733.523438 476.617188 735.789062 472.695312 C 735.964844 472.382812 736.089844 472.078125 736.171875 471.777344 C 736.246094 471.476562 736.300781 471.148438 736.300781 470.792969 " fill-opacity="1" fill-rule="nonzero"/><path fill="#9db7a4" d="M 676.632812 421.183594 C 676.632812 411.394531 661.445312 411.410156 661.445312 421.183594 C 661.445312 430.976562 676.632812 430.957031 676.632812 421.183594 " fill-opacity="1" fill-rule="nonzero"/><path fill="#9db7a4" d="M 722.601562 291.011719 C 722.601562 295.898438 730.199219 295.90625 730.199219 291.011719 C 730.199219 286.121094 722.601562 286.113281 722.601562 291.011719 " fill-opacity="1" fill-rule="nonzero"/><path fill="#9db7a4" d="M 718.09375 304.191406 C 718.09375 309.078125 725.6875 309.085938 725.6875 304.191406 C 725.6875 299.304688 718.09375 299.296875 718.09375 304.191406 " fill-opacity="1" fill-rule="nonzero"/><path fill="#9db7a4" d="M 716.707031 316.675781 C 716.707031 321.5625 724.300781 321.574219 724.300781 316.675781 C 724.300781 311.789062 716.707031 311.785156 716.707031 316.675781 " fill-opacity="1" fill-rule="nonzero"/><path fill="#9db7a4" d="M 714.625 328.816406 C 714.625 333.703125 722.21875 333.710938 722.21875 328.816406 C 722.21875 323.929688 714.625 323.917969 714.625 328.816406 " fill-opacity="1" fill-rule="nonzero"/><path fill="#9db7a4" d="M 711.15625 341.304688 C 711.15625 346.191406 718.75 346.195312 718.75 341.304688 C 718.75 336.414062 711.15625 336.40625 711.15625 341.304688 " fill-opacity="1" fill-rule="nonzero"/><path fill="#9db7a4" d="M 705.261719 352.398438 C 705.261719 357.289062 712.855469 357.292969 712.855469 352.398438 C 712.855469 347.515625 705.261719 347.507812 705.261719 352.398438 " fill-opacity="1" fill-rule="nonzero"/><path fill="#9db7a4" d="M 697.628906 362.109375 C 697.628906 366.996094 705.222656 367.007812 705.222656 362.109375 C 705.222656 357.222656 697.628906 357.21875 697.628906 362.109375 " fill-opacity="1" fill-rule="nonzero"/><path fill="#9db7a4" d="M 688.699219 370.300781 C 688.699219 375.1875 696.292969 375.195312 696.292969 370.300781 C 696.292969 365.414062 688.699219 365.402344 688.699219 370.300781 " fill-opacity="1" fill-rule="nonzero"/><path fill="#9db7a4" d="M 679.246094 375 C 679.246094 379.898438 686.839844 379.886719 686.839844 375 C 686.839844 370.113281 679.246094 370.101562 679.246094 375 " fill-opacity="1" fill-rule="nonzero"/><path fill="#9db7a4" d="M 676.632812 328.816406 C 676.632812 319.039062 661.445312 319.023438 661.445312 328.816406 C 661.445312 338.589844 676.632812 338.609375 676.632812 328.816406 " fill-opacity="1" fill-rule="nonzero"/><path fill="#9db7a4" d="M 608.992188 608.992188 C 607.921875 610.058594 606.753906 611.042969 605.40625 611.824219 C 597.015625 616.667969 586.269531 613.78125 581.425781 605.394531 C 578.226562 599.847656 578.417969 593.265625 581.335938 588.039062 C 578.695312 596.554688 587.78125 607.445312 597.761719 601.6875 C 598.628906 601.183594 599.359375 600.613281 600.011719 600.011719 C 600.613281 599.359375 601.183594 598.628906 601.6875 597.761719 C 607.464844 587.753906 596.476562 578.628906 587.957031 581.359375 C 590.605469 579.867188 593.605469 579.074219 596.648438 579.074219 C 599.617188 579.074219 602.636719 579.835938 605.394531 581.425781 C 613.78125 586.269531 616.664062 597.027344 611.824219 605.40625 C 611.042969 606.753906 610.058594 607.921875 608.992188 608.992188 Z M 615.765625 607.6875 C 621.867188 597.128906 618.234375 583.582031 607.675781 577.480469 C 598.832031 572.371094 587.90625 574.113281 581.003906 581.003906 C 574.113281 587.90625 572.378906 598.832031 577.480469 607.675781 C 581.277344 614.253906 587.96875 618.09375 595.023438 618.621094 C 595.058594 618.621094 595.09375 618.625 595.136719 618.625 C 595.644531 618.660156 596.15625 618.726562 596.671875 618.726562 C 600.421875 618.726562 604.210938 617.777344 607.6875 615.765625 C 609.386719 614.789062 610.898438 613.597656 612.25 612.25 C 613.597656 610.898438 614.789062 609.386719 615.765625 607.6875 " fill-opacity="1" fill-rule="nonzero"/><path fill="#9db7a4" d="M 640.617188 625.335938 C 643.066406 621.09375 636.480469 617.300781 634.035156 621.539062 C 631.585938 625.773438 638.171875 629.566406 640.617188 625.335938 " fill-opacity="1" fill-rule="nonzero"/><path fill="#9db7a4" d="M 636.71875 607.867188 C 634.277344 612.109375 640.855469 615.902344 643.300781 611.664062 C 645.75 607.429688 639.164062 603.636719 636.71875 607.867188 " fill-opacity="1" fill-rule="nonzero"/><path fill="#9db7a4" d="M 641.765625 596.359375 C 639.316406 600.601562 645.894531 604.394531 648.339844 600.15625 C 650.789062 595.921875 644.207031 592.128906 641.765625 596.359375 " fill-opacity="1" fill-rule="nonzero"/><path fill="#9db7a4" d="M 646.03125 584.804688 C 643.582031 589.046875 650.167969 592.839844 652.609375 588.609375 C 655.054688 584.367188 648.472656 580.574219 646.03125 584.804688 " fill-opacity="1" fill-rule="nonzero"/><path fill="#9db7a4" d="M 649.269531 572.261719 C 646.820312 576.503906 653.40625 580.292969 655.851562 576.058594 C 658.292969 571.820312 651.714844 568.03125 649.269531 572.261719 " fill-opacity="1" fill-rule="nonzero"/><path fill="#9db7a4" d="M 649.714844 559.703125 C 647.265625 563.941406 653.847656 567.730469 656.289062 563.5 C 658.738281 559.257812 652.160156 555.46875 649.714844 559.703125 " fill-opacity="1" fill-rule="nonzero"/><path fill="#9db7a4" d="M 647.957031 547.476562 C 645.515625 551.71875 652.09375 555.507812 654.539062 551.273438 C 656.988281 547.035156 650.40625 543.246094 647.957031 547.476562 " fill-opacity="1" fill-rule="nonzero"/><path fill="#9db7a4" d="M 644.320312 535.921875 C 641.871094 540.15625 648.457031 543.953125 650.898438 539.71875 C 653.347656 535.476562 646.761719 531.691406 644.320312 535.921875 " fill-opacity="1" fill-rule="nonzero"/><path fill="#9db7a4" d="M 639.996094 638.605469 C 642.269531 634.675781 636.777344 631.148438 634.019531 634.019531 C 631.148438 636.777344 634.675781 642.269531 638.605469 639.996094 C 638.917969 639.820312 639.167969 639.613281 639.398438 639.398438 C 639.613281 639.167969 639.820312 638.917969 639.996094 638.605469 " fill-opacity="1" fill-rule="nonzero"/><path fill="#9db7a4" d="M 599.976562 558.214844 C 595.082031 566.699219 608.242188 574.28125 613.128906 565.816406 C 618.027344 557.335938 604.863281 549.753906 599.976562 558.214844 " fill-opacity="1" fill-rule="nonzero"/><path fill="#9db7a4" d="M 620.664062 515.304688 C 619.851562 514.929688 619.082031 515.136719 618.539062 515.605469 C 618.402344 516.308594 618.601562 517.089844 619.339844 517.605469 C 644.109375 535.019531 647.898438 564.550781 634.796875 590.390625 C 628.445312 602.921875 624.765625 614.21875 627.015625 627.015625 C 614.21875 624.765625 602.921875 628.445312 590.390625 634.796875 C 564.550781 647.898438 535.019531 644.109375 517.605469 619.339844 C 517.089844 618.601562 516.308594 618.402344 515.605469 618.539062 C 515.136719 619.082031 514.925781 619.851562 515.300781 620.664062 C 528.046875 648.132812 516.554688 675.609375 492.296875 691.433594 C 480.53125 699.109375 471.691406 707.054688 467.242188 719.261719 C 457.289062 710.917969 445.65625 708.457031 431.636719 707.6875 C 402.707031 706.113281 379.023438 688.066406 376.328125 657.90625 C 376.246094 657.011719 375.671875 656.449219 375 656.214844 C 374.324219 656.449219 373.75 657.011719 373.667969 657.90625 C 370.972656 688.066406 347.289062 706.113281 318.363281 707.6875 C 304.339844 708.457031 292.710938 710.917969 282.753906 719.261719 C 278.308594 707.054688 269.464844 699.109375 257.699219 691.433594 C 233.441406 675.609375 221.953125 648.132812 234.695312 620.664062 C 235.070312 619.851562 234.859375 619.082031 234.390625 618.539062 C 233.6875 618.402344 232.910156 618.601562 232.394531 619.339844 C 214.980469 644.109375 185.449219 647.898438 159.609375 634.796875 C 147.074219 628.445312 135.777344 624.765625 122.980469 627.015625 C 125.230469 614.21875 121.550781 602.921875 115.199219 590.390625 C 102.105469 564.550781 105.890625 535.019531 130.65625 517.605469 C 131.394531 517.089844 131.59375 516.308594 131.460938 515.605469 C 130.914062 515.136719 130.148438 514.929688 129.332031 515.304688 C 101.863281 528.046875 74.390625 516.554688 58.566406 492.296875 C 50.886719 480.53125 42.945312 471.691406 30.738281 467.242188 C 39.082031 457.289062 41.542969 445.660156 42.3125 431.636719 C 43.886719 402.710938 61.933594 379.023438 92.089844 376.332031 C 92.988281 376.246094 93.550781 375.675781 93.785156 375 C 93.550781 374.324219 92.988281 373.753906 92.089844 373.667969 C 61.933594 370.976562 43.886719 347.289062 42.3125 318.363281 C 41.542969 304.34375 39.082031 292.710938 30.738281 282.757812 C 42.945312 278.308594 50.886719 269.46875 58.566406 257.703125 C 74.390625 233.445312 101.863281 221.953125 129.332031 234.699219 C 130.148438 235.074219 130.914062 234.863281 131.460938 234.394531 C 131.59375 233.691406 131.394531 232.910156 130.65625 232.394531 C 105.890625 214.980469 102.105469 185.445312 115.199219 159.609375 C 121.550781 147.078125 125.230469 135.78125 122.980469 122.984375 C 135.777344 125.234375 147.074219 121.554688 159.609375 115.203125 C 185.449219 102.101562 214.980469 105.890625 232.394531 130.660156 C 232.910156 131.398438 233.6875 131.597656 234.390625 131.460938 C 234.859375 130.917969 235.070312 130.148438 234.695312 129.335938 C 221.953125 101.867188 233.441406 74.390625 257.699219 58.566406 C 269.464844 50.890625 278.308594 42.945312 282.753906 30.738281 C 292.710938 39.082031 304.339844 41.542969 318.363281 42.3125 C 347.289062 43.886719 370.972656 61.933594 373.667969 92.09375 C 373.75 92.988281 374.324219 93.550781 375 93.785156 C 375.671875 93.550781 376.246094 92.988281 376.328125 92.09375 C 379.023438 61.933594 402.707031 43.886719 431.636719 42.3125 C 445.65625 41.542969 457.289062 39.082031 467.242188 30.738281 C 471.691406 42.945312 480.53125 50.890625 492.296875 58.566406 C 516.554688 74.390625 528.046875 101.867188 515.300781 129.335938 C 514.925781 130.148438 515.136719 130.917969 515.605469 131.460938 C 516.308594 131.597656 517.089844 131.398438 517.605469 130.660156 C 535.019531 105.890625 564.550781 102.101562 590.390625 115.203125 C 602.921875 121.554688 614.21875 125.234375 627.015625 122.984375 C 624.765625 135.78125 628.445312 147.078125 634.796875 159.609375 C 647.898438 185.445312 644.109375 214.980469 619.339844 232.394531 C 618.601562 232.910156 618.402344 233.691406 618.539062 234.394531 C 619.082031 234.863281 619.851562 235.074219 620.664062 234.699219 C 648.132812 221.953125 675.609375 233.445312 691.433594 257.703125 C 699.109375 269.46875 707.054688 278.308594 719.261719 282.757812 C 710.917969 292.710938 708.457031 304.34375 707.6875 318.363281 C 706.113281 347.289062 688.066406 370.976562 657.90625 373.667969 C 657.011719 373.753906 656.449219 374.324219 656.214844 375 C 656.449219 375.675781 657.011719 376.246094 657.90625 376.332031 C 688.066406 379.023438 706.113281 402.710938 707.6875 431.636719 C 708.457031 445.660156 710.917969 457.289062 719.261719 467.242188 C 707.054688 471.691406 699.109375 480.53125 691.433594 492.296875 C 675.609375 516.554688 648.132812 528.046875 620.664062 515.304688 Z M 726.542969 469.195312 L 726.367188 469.148438 C 706.253906 450.25 716.898438 422.988281 703.535156 400.617188 C 695.957031 387.945312 684.1875 379.152344 670.539062 375 C 684.1875 370.847656 695.957031 362.054688 703.535156 349.382812 C 716.898438 327.011719 706.253906 299.75 726.367188 280.851562 L 726.542969 280.804688 C 699.578125 274.546875 695.113281 245.625 672.328125 232.921875 C 659.429688 225.734375 644.839844 224.003906 630.949219 227.226562 C 640.6875 216.808594 646.480469 203.308594 646.710938 188.542969 C 647.097656 162.492188 624.25 144.207031 632.21875 117.78125 C 605.792969 125.75 587.507812 102.902344 561.457031 103.289062 C 546.691406 103.511719 533.191406 109.3125 522.773438 119.050781 C 525.996094 105.160156 524.265625 90.570312 517.078125 77.671875 C 504.375 54.886719 475.453125 50.421875 469.195312 23.457031 L 469.148438 23.632812 C 450.25 43.746094 422.988281 33.101562 400.617188 46.464844 C 387.941406 54.042969 379.152344 65.8125 375 79.460938 C 370.84375 65.8125 362.054688 54.042969 349.382812 46.464844 C 327.011719 33.101562 299.746094 43.746094 280.851562 23.632812 L 280.804688 23.457031 C 274.546875 50.421875 245.625 54.886719 232.921875 77.671875 C 225.730469 90.570312 224.003906 105.160156 227.226562 119.050781 C 216.808594 109.3125 203.308594 103.511719 188.542969 103.289062 C 162.492188 102.902344 144.203125 125.75 117.777344 117.78125 C 125.746094 144.207031 102.902344 162.492188 103.289062 188.542969 C 103.515625 203.308594 109.3125 216.808594 119.050781 227.226562 C 105.15625 224.003906 90.566406 225.734375 77.671875 232.921875 C 54.886719 245.625 50.417969 274.546875 23.457031 280.804688 L 23.632812 280.851562 C 43.746094 299.75 33.101562 327.011719 46.464844 349.382812 C 54.042969 362.054688 65.8125 370.847656 79.457031 375 C 65.8125 379.152344 54.042969 387.945312 46.464844 400.617188 C 33.101562 422.988281 43.746094 450.25 23.632812 469.148438 L 23.457031 469.195312 C 50.417969 475.453125 54.886719 504.375 77.671875 517.078125 C 90.566406 524.265625 105.15625 525.996094 119.050781 522.773438 C 109.3125 533.191406 103.515625 546.691406 103.289062 561.457031 C 102.902344 587.507812 125.746094 605.792969 117.777344 632.21875 C 144.203125 624.25 162.492188 647.097656 188.542969 646.703125 C 203.308594 646.480469 216.808594 640.6875 227.226562 630.949219 C 224.003906 644.839844 225.730469 659.429688 232.921875 672.328125 C 245.625 695.113281 274.546875 699.578125 280.804688 726.542969 L 280.851562 726.367188 C 299.746094 706.253906 327.011719 716.898438 349.382812 703.535156 C 362.054688 695.957031 370.84375 684.1875 375 670.539062 C 379.152344 684.1875 387.941406 695.957031 400.617188 703.535156 C 422.988281 716.898438 450.25 706.253906 469.148438 726.367188 L 469.195312 726.542969 C 475.453125 699.578125 504.375 695.113281 517.078125 672.328125 C 524.265625 659.429688 525.996094 644.839844 522.773438 630.949219 C 533.191406 640.6875 546.691406 646.480469 561.457031 646.703125 C 587.507812 647.097656 605.792969 624.25 632.21875 632.21875 C 624.25 605.792969 647.097656 587.507812 646.710938 561.457031 C 646.480469 546.691406 640.6875 533.191406 630.949219 522.773438 C 644.839844 525.996094 659.429688 524.265625 672.328125 517.078125 C 695.113281 504.375 699.578125 475.453125 726.542969 469.195312 " fill-opacity="1" fill-rule="nonzero"/><path fill="#9db7a4" d="M 718.023438 476.0625 C 715.582031 480.296875 722.15625 484.101562 724.605469 479.859375 C 727.046875 475.628906 720.472656 471.824219 718.023438 476.0625 " fill-opacity="1" fill-rule="nonzero"/><path fill="#9db7a4" d="M 707.53125 485.21875 C 705.085938 489.457031 711.660156 493.257812 714.109375 489.023438 C 716.554688 484.789062 709.980469 480.984375 707.53125 485.21875 " fill-opacity="1" fill-rule="nonzero"/><path fill="#9db7a4" d="M 700.089844 495.34375 C 697.644531 499.574219 704.21875 503.378906 706.664062 499.140625 C 709.105469 494.90625 702.53125 491.101562 700.089844 495.34375 " fill-opacity="1" fill-rule="nonzero"/><path fill="#9db7a4" d="M 692.214844 504.8125 C 689.769531 509.042969 696.34375 512.851562 698.792969 508.609375 C 701.238281 504.382812 694.664062 500.578125 692.214844 504.8125 " fill-opacity="1" fill-rule="nonzero"/><path fill="#9db7a4" d="M 682.96875 513.898438 C 680.523438 518.125 687.097656 521.929688 689.546875 517.695312 C 691.992188 513.457031 685.417969 509.652344 682.96875 513.898438 " fill-opacity="1" fill-rule="nonzero"/><path fill="#9db7a4" d="M 672.316406 520.558594 C 669.867188 524.789062 676.445312 528.597656 678.890625 524.355469 C 681.332031 520.125 674.757812 516.316406 672.316406 520.558594 " fill-opacity="1" fill-rule="nonzero"/><path fill="#9db7a4" d="M 660.847656 525.152344 C 658.40625 529.386719 664.980469 533.191406 667.429688 528.949219 C 669.871094 524.71875 663.296875 520.914062 660.847656 525.152344 " fill-opacity="1" fill-rule="nonzero"/><path fill="#9db7a4" d="M 649.023438 527.777344 C 646.582031 532.011719 653.148438 535.816406 655.597656 531.574219 C 658.042969 527.34375 651.46875 523.539062 649.023438 527.777344 " fill-opacity="1" fill-rule="nonzero"/><path fill="#9db7a4" d="M 645.0625 530.921875 C 647.507812 526.6875 640.933594 522.882812 638.484375 527.121094 C 636.039062 531.363281 642.621094 535.152344 645.0625 530.921875 " fill-opacity="1" fill-rule="nonzero"/><path fill="#9db7a4" d="M 646.160156 478.226562 C 641.273438 486.691406 654.421875 494.304688 659.320312 485.824219 C 664.207031 477.355469 651.058594 469.746094 646.160156 478.226562 " fill-opacity="1" fill-rule="nonzero"/><path fill="#9db7a4" d="M 464.886719 692.953125 C 463.527344 693.738281 462.105469 694.300781 460.65625 694.6875 L 460.65625 694.679688 C 459.210938 695.074219 457.699219 695.296875 456.132812 695.296875 C 446.449219 695.296875 438.574219 687.421875 438.574219 677.742188 C 438.574219 671.335938 442.03125 665.742188 447.164062 662.671875 C 440.625 668.722656 443.054688 682.699219 454.570312 682.699219 C 455.578125 682.699219 456.492188 682.570312 457.359375 682.371094 C 458.207031 682.113281 459.070312 681.761719 459.9375 681.257812 C 469.921875 675.496094 465.015625 662.15625 456.308594 660.210938 C 462.296875 660.285156 468.105469 663.414062 471.316406 668.96875 C 476.15625 677.355469 473.273438 688.113281 464.886719 692.953125 Z M 475.257812 666.691406 C 470.148438 657.84375 459.824219 653.886719 450.402344 656.40625 C 440.980469 658.9375 434.015625 667.527344 434.015625 677.742188 C 434.015625 689.933594 443.933594 699.855469 456.132812 699.855469 C 458.109375 699.855469 460.011719 699.566406 461.835938 699.082031 L 461.839844 699.105469 C 463.664062 698.613281 465.457031 697.886719 467.167969 696.902344 C 477.726562 690.800781 481.359375 677.253906 475.257812 666.691406 " fill-opacity="1" fill-rule="nonzero"/><path fill="#9db7a4" d="M 476.0625 718.023438 C 471.824219 720.472656 475.628906 727.046875 479.859375 724.605469 C 484.101562 722.15625 480.296875 715.582031 476.0625 718.023438 " fill-opacity="1" fill-rule="nonzero"/><path fill="#9db7a4" d="M 485.21875 707.53125 C 480.984375 709.980469 484.785156 716.554688 489.023438 714.109375 C 493.257812 711.660156 489.457031 705.085938 485.21875 707.53125 " fill-opacity="1" fill-rule="nonzero"/><path fill="#9db7a4" d="M 495.34375 700.089844 C 491.101562 702.53125 494.90625 709.105469 499.140625 706.664062 C 503.378906 704.21875 499.574219 697.644531 495.34375 700.089844 " fill-opacity="1" fill-rule="nonzero"/><path fill="#9db7a4" d="M 504.8125 692.214844 C 500.578125 694.664062 504.378906 701.238281 508.609375 698.792969 C 512.851562 696.34375 509.042969 689.769531 504.8125 692.214844 " fill-opacity="1" fill-rule="nonzero"/><path fill="#9db7a4" d="M 513.894531 682.96875 C 509.652344 685.417969 513.457031 691.992188 517.691406 689.546875 C 521.929688 687.097656 518.125 680.523438 513.894531 682.96875 " fill-opacity="1" fill-rule="nonzero"/><path fill="#9db7a4" d="M 520.558594 672.316406 C 516.316406 674.757812 520.125 681.332031 524.355469 678.890625 C 528.597656 676.445312 524.789062 669.871094 520.558594 672.316406 " fill-opacity="1" fill-rule="nonzero"/><path fill="#9db7a4" d="M 525.152344 660.847656 C 520.914062 663.296875 524.71875 669.871094 528.949219 667.429688 C 533.191406 664.980469 529.386719 658.40625 525.152344 660.847656 " fill-opacity="1" fill-rule="nonzero"/><path fill="#9db7a4" d="M 527.777344 649.023438 C 523.539062 651.46875 527.34375 658.042969 531.574219 655.597656 C 535.816406 653.148438 532.011719 646.582031 527.777344 649.023438 " fill-opacity="1" fill-rule="nonzero"/><path fill="#9db7a4" d="M 469.808594 728.828125 C 465.9375 729.785156 466.253906 736.300781 470.792969 736.300781 C 471.144531 736.300781 471.46875 736.246094 471.777344 736.171875 C 472.078125 736.089844 472.382812 735.964844 472.691406 735.789062 C 476.617188 733.523438 473.636719 727.722656 469.808594 728.828125 " fill-opacity="1" fill-rule="nonzero"/><path fill="#9db7a4" d="M 478.222656 646.160156 C 469.746094 651.058594 477.355469 664.207031 485.824219 659.3125 C 494.300781 654.421875 486.691406 641.273438 478.222656 646.160156 " fill-opacity="1" fill-rule="nonzero"/><path fill="#9db7a4" d="M 621.539062 634.035156 C 617.300781 636.480469 621.09375 643.066406 625.335938 640.617188 C 629.570312 638.171875 625.773438 631.585938 621.539062 634.035156 " fill-opacity="1" fill-rule="nonzero"/><path fill="#9db7a4" d="M 607.867188 636.71875 C 603.636719 639.164062 607.429688 645.75 611.664062 643.300781 C 615.902344 640.855469 612.109375 634.277344 607.867188 636.71875 " fill-opacity="1" fill-rule="nonzero"/><path fill="#9db7a4" d="M 596.359375 641.765625 C 592.128906 644.207031 595.921875 650.789062 600.15625 648.339844 C 604.394531 645.894531 600.601562 639.316406 596.359375 641.765625 " fill-opacity="1" fill-rule="nonzero"/><path fill="#9db7a4" d="M 584.804688 646.03125 C 580.574219 648.472656 584.367188 655.058594 588.609375 652.609375 C 592.839844 650.167969 589.046875 643.582031 584.804688 646.03125 " fill-opacity="1" fill-rule="nonzero"/><path fill="#9db7a4" d="M 572.261719 649.269531 C 568.03125 651.714844 571.820312 658.292969 576.058594 655.851562 C 580.292969 653.40625 576.503906 646.820312 572.261719 649.269531 " fill-opacity="1" fill-rule="nonzero"/><path fill="#9db7a4" d="M 559.703125 649.714844 C 555.46875 652.160156 559.257812 658.738281 563.5 656.289062 C 567.730469 653.847656 563.941406 647.265625 559.703125 649.714844 " fill-opacity="1" fill-rule="nonzero"/><path fill="#9db7a4" d="M 547.476562 647.957031 C 543.246094 650.402344 547.035156 656.988281 551.273438 654.539062 C 555.507812 652.09375 551.71875 645.515625 547.476562 647.957031 " fill-opacity="1" fill-rule="nonzero"/><path fill="#9db7a4" d="M 535.921875 644.320312 C 531.691406 646.761719 535.476562 653.347656 539.71875 650.898438 C 543.953125 648.457031 540.15625 641.871094 535.921875 644.320312 " fill-opacity="1" fill-rule="nonzero"/><path fill="#9db7a4" d="M 530.921875 645.0625 C 535.152344 642.621094 531.363281 636.039062 527.121094 638.484375 C 522.882812 640.933594 526.6875 647.507812 530.921875 645.0625 " fill-opacity="1" fill-rule="nonzero"/><path fill="#9db7a4" d="M 558.214844 599.976562 C 549.753906 604.863281 557.335938 618.027344 565.816406 613.128906 C 574.28125 608.242188 566.699219 595.082031 558.214844 599.976562 " fill-opacity="1" fill-rule="nonzero"/><path fill="#9db7a4" d="M 291.011719 722.601562 C 286.113281 722.601562 286.125 730.195312 291.011719 730.195312 C 295.902344 730.195312 295.898438 722.601562 291.011719 722.601562 " fill-opacity="1" fill-rule="nonzero"/><path fill="#9db7a4" d="M 304.1875 718.09375 C 299.296875 718.09375 299.300781 725.6875 304.1875 725.6875 C 309.085938 725.6875 309.074219 718.09375 304.1875 718.09375 " fill-opacity="1" fill-rule="nonzero"/><path fill="#9db7a4" d="M 316.675781 716.707031 C 311.78125 716.707031 311.789062 724.300781 316.675781 724.300781 C 321.574219 724.300781 321.5625 716.707031 316.675781 716.707031 " fill-opacity="1" fill-rule="nonzero"/><path fill="#9db7a4" d="M 328.816406 714.625 C 323.917969 714.625 323.929688 722.21875 328.816406 722.21875 C 333.707031 722.21875 333.703125 714.625 328.816406 714.625 " fill-opacity="1" fill-rule="nonzero"/><path fill="#9db7a4" d="M 341.300781 711.15625 C 336.402344 711.15625 336.414062 718.75 341.300781 718.75 C 346.195312 718.75 346.1875 711.15625 341.300781 711.15625 " fill-opacity="1" fill-rule="nonzero"/><path fill="#9db7a4" d="M 352.398438 705.257812 C 347.507812 705.257812 347.511719 712.855469 352.398438 712.855469 C 357.292969 712.855469 357.285156 705.257812 352.398438 705.257812 " fill-opacity="1" fill-rule="nonzero"/><path fill="#9db7a4" d="M 362.109375 697.628906 C 357.214844 697.628906 357.222656 705.226562 362.109375 705.226562 C 367.007812 705.226562 366.996094 697.628906 362.109375 697.628906 " fill-opacity="1" fill-rule="nonzero"/><path fill="#9db7a4" d="M 370.300781 688.699219 C 365.402344 688.699219 365.414062 696.292969 370.300781 696.292969 C 375.191406 696.292969 375.1875 688.699219 370.300781 688.699219 " fill-opacity="1" fill-rule="nonzero"/><path fill="#9db7a4" d="M 280.1875 728.828125 C 276.363281 727.722656 273.378906 733.523438 277.304688 735.789062 C 277.617188 735.964844 277.921875 736.089844 278.21875 736.171875 C 278.53125 736.246094 278.851562 736.300781 279.203125 736.300781 C 283.746094 736.300781 284.0625 729.785156 280.1875 728.828125 " fill-opacity="1" fill-rule="nonzero"/><path fill="#9db7a4" d="M 328.816406 661.445312 C 319.023438 661.445312 319.042969 676.632812 328.816406 676.632812 C 338.605469 676.632812 338.589844 661.445312 328.816406 661.445312 " fill-opacity="1" fill-rule="nonzero"/><path fill="#9db7a4" d="M 458.988281 722.601562 C 454.101562 722.601562 454.09375 730.195312 458.988281 730.195312 C 463.875 730.195312 463.886719 722.601562 458.988281 722.601562 " fill-opacity="1" fill-rule="nonzero"/><path fill="#9db7a4" d="M 445.808594 718.09375 C 440.921875 718.09375 440.910156 725.6875 445.808594 725.6875 C 450.695312 725.6875 450.703125 718.09375 445.808594 718.09375 " fill-opacity="1" fill-rule="nonzero"/><path fill="#9db7a4" d="M 433.324219 716.707031 C 428.4375 716.707031 428.425781 724.300781 433.324219 724.300781 C 438.210938 724.300781 438.214844 716.707031 433.324219 716.707031 " fill-opacity="1" fill-rule="nonzero"/><path fill="#9db7a4" d="M 421.183594 714.625 C 416.296875 714.625 416.289062 722.21875 421.183594 722.21875 C 426.070312 722.21875 426.082031 714.625 421.183594 714.625 " fill-opacity="1" fill-rule="nonzero"/><path fill="#9db7a4" d="M 408.695312 711.15625 C 403.808594 711.15625 403.804688 718.75 408.695312 718.75 C 413.582031 718.75 413.59375 711.15625 408.695312 711.15625 " fill-opacity="1" fill-rule="nonzero"/><path fill="#9db7a4" d="M 397.597656 705.257812 C 392.710938 705.257812 392.707031 712.855469 397.597656 712.855469 C 402.484375 712.855469 402.492188 705.257812 397.597656 705.257812 " fill-opacity="1" fill-rule="nonzero"/><path fill="#9db7a4" d="M 387.890625 697.628906 C 383.003906 697.628906 382.992188 705.226562 387.890625 705.226562 C 392.777344 705.226562 392.78125 697.628906 387.890625 697.628906 " fill-opacity="1" fill-rule="nonzero"/><path fill="#9db7a4" d="M 379.699219 688.699219 C 374.8125 688.699219 374.804688 696.292969 379.699219 696.292969 C 384.585938 696.292969 384.597656 688.699219 379.699219 688.699219 " fill-opacity="1" fill-rule="nonzero"/><path fill="#9db7a4" d="M 375 679.246094 C 370.101562 679.246094 370.113281 686.839844 375 686.839844 C 379.886719 686.839844 379.898438 679.246094 375 679.246094 " fill-opacity="1" fill-rule="nonzero"/><path fill="#9db7a4" d="M 421.183594 661.445312 C 411.410156 661.445312 411.390625 676.632812 421.183594 676.632812 C 430.957031 676.632812 430.972656 661.445312 421.183594 661.445312 " fill-opacity="1" fill-rule="nonzero"/><path fill="#9db7a4" d="M 168.574219 605.394531 C 163.726562 613.773438 152.96875 616.664062 144.585938 611.824219 C 143.226562 611.039062 142.03125 610.082031 140.96875 609.027344 L 141.003906 608.992188 C 139.9375 607.921875 138.953125 606.753906 138.175781 605.40625 C 135.832031 601.347656 135.210938 596.617188 136.421875 592.089844 C 137.636719 587.554688 140.542969 583.769531 144.601562 581.425781 C 147.363281 579.832031 150.378906 579.082031 153.351562 579.082031 C 156.390625 579.082031 159.390625 579.867188 162.035156 581.359375 C 153.515625 578.636719 142.535156 587.753906 148.3125 597.761719 C 148.816406 598.628906 149.382812 599.359375 149.988281 600.011719 C 150.636719 600.613281 151.371094 601.183594 152.238281 601.6875 C 162.214844 607.445312 171.304688 596.554688 168.660156 588.046875 C 171.578125 593.273438 171.773438 599.847656 168.574219 605.394531 Z M 168.996094 581.003906 C 162.085938 574.113281 151.164062 572.371094 142.324219 577.480469 C 137.207031 580.433594 133.550781 585.203125 132.023438 590.910156 C 130.492188 596.613281 131.277344 602.570312 134.230469 607.6875 C 135.210938 609.386719 136.40625 610.898438 137.746094 612.25 L 137.753906 612.246094 C 139.089844 613.582031 140.59375 614.78125 142.304688 615.765625 C 145.78125 617.777344 149.578125 618.726562 153.328125 618.726562 C 153.84375 618.726562 154.351562 618.660156 154.863281 618.625 C 154.902344 618.625 154.9375 618.621094 154.972656 618.621094 C 162.027344 618.09375 168.71875 614.25 172.515625 607.675781 C 177.621094 598.832031 175.886719 587.90625 168.996094 581.003906 " fill-opacity="1" fill-rule="nonzero"/><path fill="#9db7a4" d="M 128.460938 634.035156 C 124.222656 631.585938 120.433594 638.171875 124.664062 640.617188 C 128.898438 643.066406 132.695312 636.480469 128.460938 634.035156 " fill-opacity="1" fill-rule="nonzero"/><path fill="#9db7a4" d="M 142.128906 636.71875 C 137.886719 634.277344 134.097656 640.855469 138.332031 643.300781 C 142.570312 645.75 146.359375 639.164062 142.128906 636.71875 " fill-opacity="1" fill-rule="nonzero"/><path fill="#9db7a4" d="M 153.636719 641.765625 C 149.394531 639.316406 145.605469 645.894531 149.839844 648.339844 C 154.078125 650.789062 157.867188 644.207031 153.636719 641.765625 " fill-opacity="1" fill-rule="nonzero"/><path fill="#9db7a4" d="M 165.191406 646.03125 C 160.949219 643.582031 157.160156 650.167969 161.390625 652.609375 C 165.632812 655.058594 169.421875 648.472656 165.191406 646.03125 " fill-opacity="1" fill-rule="nonzero"/><path fill="#9db7a4" d="M 177.738281 649.269531 C 173.496094 646.820312 169.703125 653.40625 173.941406 655.851562 C 178.175781 658.292969 181.96875 651.714844 177.738281 649.269531 " fill-opacity="1" fill-rule="nonzero"/><path fill="#9db7a4" d="M 190.292969 649.714844 C 186.058594 647.265625 182.265625 653.847656 186.496094 656.289062 C 190.738281 658.738281 194.53125 652.160156 190.292969 649.714844 " fill-opacity="1" fill-rule="nonzero"/><path fill="#9db7a4" d="M 202.523438 647.957031 C 198.28125 645.515625 194.488281 652.09375 198.726562 654.539062 C 202.960938 656.988281 206.753906 650.402344 202.523438 647.957031 " fill-opacity="1" fill-rule="nonzero"/><path fill="#9db7a4" d="M 214.078125 644.320312 C 209.839844 641.871094 206.042969 648.457031 210.28125 650.898438 C 214.523438 653.347656 218.308594 646.761719 214.078125 644.320312 " fill-opacity="1" fill-rule="nonzero"/><path fill="#9db7a4" d="M 115.980469 634.019531 C 113.21875 631.148438 107.730469 634.675781 110.003906 638.605469 C 110.179688 638.917969 110.382812 639.167969 110.601562 639.398438 C 110.828125 639.613281 111.082031 639.820312 111.390625 639.996094 C 115.324219 642.269531 118.851562 636.777344 115.980469 634.019531 " fill-opacity="1" fill-rule="nonzero"/><path fill="#9db7a4" d="M 191.78125 599.976562 C 183.296875 595.082031 175.714844 608.242188 184.183594 613.128906 C 192.660156 618.027344 200.242188 604.863281 191.78125 599.976562 " fill-opacity="1" fill-rule="nonzero"/><path fill="#9db7a4" d="M 285.109375 692.953125 C 276.726562 688.113281 273.84375 677.355469 278.683594 668.96875 C 281.886719 663.421875 287.675781 660.304688 293.660156 660.214844 C 284.96875 662.183594 280.089844 675.503906 290.0625 681.257812 C 290.929688 681.761719 291.789062 682.113281 292.640625 682.371094 C 293.507812 682.570312 294.421875 682.699219 295.429688 682.699219 C 306.941406 682.699219 309.367188 668.722656 302.835938 662.675781 C 307.96875 665.742188 311.425781 671.335938 311.425781 677.742188 C 311.425781 687.421875 303.550781 695.296875 293.863281 695.296875 C 292.300781 695.296875 290.789062 695.074219 289.339844 694.679688 L 289.339844 694.6875 C 287.894531 694.292969 286.46875 693.738281 285.109375 692.953125 Z M 288.164062 699.082031 C 289.984375 699.566406 291.890625 699.855469 293.863281 699.855469 C 306.058594 699.855469 315.984375 689.933594 315.984375 677.742188 C 315.984375 667.527344 309.015625 658.9375 299.59375 656.40625 C 290.167969 653.886719 279.84375 657.847656 274.738281 666.691406 C 268.640625 677.253906 272.273438 690.800781 282.832031 696.902344 C 284.542969 697.886719 286.335938 698.613281 288.15625 699.105469 L 288.164062 699.082031 " fill-opacity="1" fill-rule="nonzero"/><path fill="#9db7a4" d="M 273.9375 718.023438 C 269.699219 715.582031 265.898438 722.15625 270.140625 724.605469 C 274.371094 727.046875 278.171875 720.472656 273.9375 718.023438 " fill-opacity="1" fill-rule="nonzero"/><path fill="#9db7a4" d="M 264.777344 707.53125 C 260.542969 705.085938 256.738281 711.660156 260.976562 714.109375 C 265.210938 716.554688 269.015625 709.980469 264.777344 707.53125 " fill-opacity="1" fill-rule="nonzero"/><path fill="#9db7a4" d="M 254.652344 700.089844 C 250.421875 697.644531 246.621094 704.21875 250.855469 706.664062 C 255.09375 709.105469 258.894531 702.53125 254.652344 700.089844 " fill-opacity="1" fill-rule="nonzero"/><path fill="#9db7a4" d="M 245.183594 692.214844 C 240.953125 689.769531 237.144531 696.34375 241.386719 698.792969 C 245.617188 701.238281 249.421875 694.664062 245.183594 692.214844 " fill-opacity="1" fill-rule="nonzero"/><path fill="#9db7a4" d="M 236.101562 682.96875 C 231.871094 680.523438 228.070312 687.097656 232.304688 689.546875 C 236.542969 691.992188 240.34375 685.417969 236.101562 682.96875 " fill-opacity="1" fill-rule="nonzero"/><path fill="#9db7a4" d="M 229.441406 672.316406 C 225.210938 669.871094 221.402344 676.445312 225.644531 678.890625 C 229.875 681.332031 233.683594 674.757812 229.441406 672.316406 " fill-opacity="1" fill-rule="nonzero"/><path fill="#9db7a4" d="M 224.847656 660.847656 C 220.609375 658.40625 216.808594 664.980469 221.050781 667.429688 C 225.28125 669.871094 229.082031 663.296875 224.847656 660.847656 " fill-opacity="1" fill-rule="nonzero"/><path fill="#9db7a4" d="M 222.222656 649.023438 C 217.984375 646.582031 214.183594 653.148438 218.417969 655.597656 C 222.65625 658.042969 226.457031 651.46875 222.222656 649.023438 " fill-opacity="1" fill-rule="nonzero"/><path fill="#9db7a4" d="M 222.878906 638.484375 C 218.636719 636.039062 214.84375 642.621094 219.074219 645.0625 C 223.3125 647.507812 227.113281 640.933594 222.878906 638.484375 " fill-opacity="1" fill-rule="nonzero"/><path fill="#9db7a4" d="M 271.773438 646.160156 C 263.308594 641.273438 255.695312 654.421875 264.175781 659.3125 C 272.640625 664.207031 280.253906 651.058594 271.773438 646.160156 " fill-opacity="1" fill-rule="nonzero"/><path fill="#9db7a4" d="M 81.027344 471.316406 C 72.644531 476.15625 61.886719 473.265625 57.046875 464.886719 C 56.261719 463.527344 55.699219 462.105469 55.3125 460.65625 C 54.925781 459.210938 54.703125 457.699219 54.703125 456.132812 C 54.703125 446.449219 62.578125 438.574219 72.257812 438.574219 C 78.660156 438.574219 84.261719 442.03125 87.328125 447.167969 C 81.28125 440.625 67.300781 443.050781 67.300781 454.570312 C 67.300781 455.578125 67.429688 456.492188 67.628906 457.359375 C 67.886719 458.210938 68.238281 459.070312 68.742188 459.9375 C 74.472656 469.863281 87.683594 465.070312 89.753906 456.460938 C 89.722656 457.863281 89.582031 459.261719 89.207031 460.652344 C 87.996094 465.179688 85.089844 468.972656 81.027344 471.316406 Z M 93.613281 461.828125 C 94.632812 458.023438 94.597656 454.105469 93.601562 450.398438 L 93.589844 450.402344 C 91.058594 440.980469 82.46875 434.015625 72.257812 434.015625 C 60.066406 434.015625 50.144531 443.933594 50.144531 456.132812 C 50.144531 458.109375 50.425781 460.011719 50.917969 461.835938 C 51.402344 463.664062 52.113281 465.457031 53.097656 467.167969 C 55.382812 471.117188 58.722656 474.054688 62.542969 475.921875 C 62.578125 475.933594 62.613281 475.949219 62.640625 475.96875 C 65.648438 477.414062 68.941406 478.21875 72.285156 478.21875 C 76.035156 478.21875 79.832031 477.261719 83.308594 475.257812 C 88.421875 472.304688 92.085938 467.539062 93.613281 461.828125 " fill-opacity="1" fill-rule="nonzero"/><path fill="#9db7a4" d="M 25.394531 479.859375 C 27.84375 484.101562 34.417969 480.296875 31.976562 476.0625 C 29.527344 471.824219 22.953125 475.628906 25.394531 479.859375 " fill-opacity="1" fill-rule="nonzero"/><path fill="#9db7a4" d="M 42.46875 485.21875 C 40.019531 480.984375 33.445312 484.789062 35.890625 489.023438 C 38.339844 493.257812 44.914062 489.457031 42.46875 485.21875 " fill-opacity="1" fill-rule="nonzero"/><path fill="#9db7a4" d="M 43.335938 499.140625 C 45.78125 503.378906 52.355469 499.574219 49.910156 495.34375 C 47.464844 491.101562 40.894531 494.90625 43.335938 499.140625 " fill-opacity="1" fill-rule="nonzero"/><path fill="#9db7a4" d="M 51.207031 508.609375 C 53.652344 512.851562 60.230469 509.042969 57.785156 504.8125 C 55.335938 500.578125 48.761719 504.382812 51.207031 508.609375 " fill-opacity="1" fill-rule="nonzero"/><path fill="#9db7a4" d="M 60.449219 517.695312 C 62.898438 521.929688 69.472656 518.125 67.03125 513.898438 C 64.582031 509.652344 58.007812 513.457031 60.449219 517.695312 " fill-opacity="1" fill-rule="nonzero"/><path fill="#9db7a4" d="M 71.109375 524.355469 C 73.550781 528.597656 80.125 524.789062 77.683594 520.558594 C 75.238281 516.316406 68.664062 520.125 71.109375 524.355469 " fill-opacity="1" fill-rule="nonzero"/><path fill="#9db7a4" d="M 82.570312 528.949219 C 85.019531 533.191406 91.59375 529.386719 89.148438 525.152344 C 86.699219 520.914062 80.125 524.71875 82.570312 528.949219 " fill-opacity="1" fill-rule="nonzero"/><path fill="#9db7a4" d="M 100.972656 527.777344 C 98.53125 523.539062 91.957031 527.34375 94.398438 531.574219 C 96.847656 535.816406 103.421875 532.011719 100.972656 527.777344 " fill-opacity="1" fill-rule="nonzero"/><path fill="#9db7a4" d="M 21.171875 469.808594 C 20.214844 465.9375 13.699219 466.253906 13.699219 470.792969 C 13.699219 471.148438 13.753906 471.476562 13.828125 471.777344 C 13.910156 472.078125 14.035156 472.382812 14.210938 472.695312 C 16.476562 476.617188 22.277344 473.636719 21.171875 469.808594 " fill-opacity="1" fill-rule="nonzero"/><path fill="#9db7a4" d="M 90.683594 485.824219 C 95.578125 494.304688 108.726562 486.691406 103.839844 478.226562 C 98.941406 469.746094 85.792969 477.355469 90.683594 485.824219 " fill-opacity="1" fill-rule="nonzero"/><path fill="#9db7a4" d="M 109.382812 625.335938 C 111.824219 629.566406 118.410156 625.773438 115.960938 621.539062 C 113.519531 617.300781 106.933594 621.09375 109.382812 625.335938 " fill-opacity="1" fill-rule="nonzero"/><path fill="#9db7a4" d="M 113.277344 607.867188 C 110.835938 603.636719 104.25 607.429688 106.699219 611.664062 C 109.140625 615.902344 115.722656 612.109375 113.277344 607.867188 " fill-opacity="1" fill-rule="nonzero"/><path fill="#9db7a4" d="M 108.234375 596.359375 C 105.789062 592.128906 99.210938 595.921875 101.660156 600.15625 C 104.101562 604.394531 110.683594 600.601562 108.234375 596.359375 " fill-opacity="1" fill-rule="nonzero"/><path fill="#9db7a4" d="M 103.96875 584.804688 C 101.523438 580.574219 94.9375 584.367188 97.386719 588.609375 C 99.832031 592.839844 106.417969 589.046875 103.96875 584.804688 " fill-opacity="1" fill-rule="nonzero"/><path fill="#9db7a4" d="M 100.726562 572.261719 C 98.285156 568.03125 91.703125 571.820312 94.148438 576.058594 C 96.597656 580.292969 103.175781 576.503906 100.726562 572.261719 " fill-opacity="1" fill-rule="nonzero"/><path fill="#9db7a4" d="M 100.28125 559.703125 C 97.839844 555.46875 91.257812 559.257812 93.707031 563.5 C 96.152344 567.730469 102.730469 563.941406 100.28125 559.703125 " fill-opacity="1" fill-rule="nonzero"/><path fill="#9db7a4" d="M 102.039062 547.476562 C 99.597656 543.246094 93.011719 547.035156 95.460938 551.273438 C 97.902344 555.507812 104.484375 551.71875 102.039062 547.476562 " fill-opacity="1" fill-rule="nonzero"/><path fill="#9db7a4" d="M 105.679688 535.921875 C 103.234375 531.691406 96.648438 535.476562 99.097656 539.71875 C 101.542969 543.953125 108.128906 540.15625 105.679688 535.921875 " fill-opacity="1" fill-rule="nonzero"/><path fill="#9db7a4" d="M 111.515625 527.121094 C 109.066406 522.882812 102.492188 526.6875 104.933594 530.921875 C 107.378906 535.152344 113.957031 531.363281 111.515625 527.121094 " fill-opacity="1" fill-rule="nonzero"/><path fill="#9db7a4" d="M 150.023438 558.214844 C 145.136719 549.753906 131.96875 557.335938 136.867188 565.816406 C 141.753906 574.28125 154.914062 566.699219 150.023438 558.214844 " fill-opacity="1" fill-rule="nonzero"/><path fill="#9db7a4" d="M 72.28125 276.339844 C 75.257812 276.339844 78.273438 277.097656 81.027344 278.683594 C 85.089844 281.035156 87.996094 284.820312 89.207031 289.347656 C 89.582031 290.738281 89.722656 292.136719 89.753906 293.539062 C 87.683594 284.925781 74.472656 280.136719 68.742188 290.0625 C 68.238281 290.929688 67.886719 291.792969 67.628906 292.640625 C 67.429688 293.507812 67.300781 294.421875 67.300781 295.429688 C 67.300781 306.945312 81.28125 309.375 87.328125 302.832031 C 84.257812 307.96875 78.660156 311.425781 72.257812 311.425781 C 62.578125 311.425781 54.703125 303.550781 54.703125 293.867188 C 54.703125 292.300781 54.925781 290.789062 55.3125 289.34375 C 55.699219 287.894531 56.261719 286.472656 57.046875 285.113281 C 60.292969 279.488281 66.210938 276.339844 72.28125 276.339844 Z M 72.257812 315.984375 C 82.46875 315.984375 91.058594 309.019531 93.589844 299.597656 L 93.601562 299.601562 C 94.597656 295.894531 94.632812 291.980469 93.613281 288.164062 C 92.085938 282.464844 88.421875 277.695312 83.308594 274.742188 C 72.75 268.648438 59.199219 272.273438 53.097656 282.832031 C 52.113281 284.542969 51.402344 286.335938 50.917969 288.164062 C 50.425781 289.988281 50.144531 291.890625 50.144531 293.867188 C 50.144531 306.058594 60.066406 315.984375 72.257812 315.984375 " fill-opacity="1" fill-rule="nonzero"/><path fill="#9db7a4" d="M 27.398438 291.011719 C 27.398438 286.113281 19.804688 286.121094 19.804688 291.011719 C 19.804688 295.90625 27.398438 295.898438 27.398438 291.011719 " fill-opacity="1" fill-rule="nonzero"/><path fill="#9db7a4" d="M 31.90625 304.191406 C 31.90625 299.296875 24.3125 299.304688 24.3125 304.191406 C 24.3125 309.085938 31.90625 309.078125 31.90625 304.191406 " fill-opacity="1" fill-rule="nonzero"/><path fill="#9db7a4" d="M 33.292969 316.675781 C 33.292969 311.785156 25.699219 311.789062 25.699219 316.675781 C 25.699219 321.574219 33.292969 321.5625 33.292969 316.675781 " fill-opacity="1" fill-rule="nonzero"/><path fill="#9db7a4" d="M 35.375 328.816406 C 35.375 323.917969 27.78125 323.929688 27.78125 328.816406 C 27.78125 333.710938 35.375 333.703125 35.375 328.816406 " fill-opacity="1" fill-rule="nonzero"/><path fill="#9db7a4" d="M 38.84375 341.304688 C 38.84375 336.40625 31.25 336.414062 31.25 341.304688 C 31.25 346.195312 38.84375 346.191406 38.84375 341.304688 " fill-opacity="1" fill-rule="nonzero"/><path fill="#9db7a4" d="M 37.144531 352.398438 C 37.144531 357.292969 44.742188 357.289062 44.742188 352.398438 C 44.742188 347.507812 37.144531 347.515625 37.144531 352.398438 " fill-opacity="1" fill-rule="nonzero"/><path fill="#9db7a4" d="M 52.371094 362.109375 C 52.371094 357.21875 44.773438 357.222656 44.773438 362.109375 C 44.773438 367.007812 52.371094 366.996094 52.371094 362.109375 " fill-opacity="1" fill-rule="nonzero"/><path fill="#9db7a4" d="M 61.300781 370.300781 C 61.300781 365.402344 53.699219 365.414062 53.699219 370.300781 C 53.699219 375.195312 61.300781 375.1875 61.300781 370.300781 " fill-opacity="1" fill-rule="nonzero"/><path fill="#9db7a4" d="M 13.699219 279.207031 C 13.699219 283.746094 20.214844 284.0625 21.171875 280.191406 C 22.277344 276.363281 16.476562 273.382812 14.210938 277.308594 C 14.035156 277.617188 13.910156 277.921875 13.828125 278.222656 C 13.753906 278.53125 13.699219 278.855469 13.699219 279.207031 " fill-opacity="1" fill-rule="nonzero"/><path fill="#9db7a4" d="M 73.363281 328.816406 C 73.363281 338.609375 88.550781 338.589844 88.550781 328.816406 C 88.550781 319.023438 73.363281 319.039062 73.363281 328.816406 " fill-opacity="1" fill-rule="nonzero"/><path fill="#9db7a4" d="M 27.398438 458.988281 C 27.398438 454.101562 19.804688 454.09375 19.804688 458.988281 C 19.804688 463.875 27.398438 463.886719 27.398438 458.988281 " fill-opacity="1" fill-rule="nonzero"/><path fill="#9db7a4" d="M 31.90625 445.808594 C 31.90625 440.925781 24.3125 440.914062 24.3125 445.808594 C 24.3125 450.695312 31.90625 450.703125 31.90625 445.808594 " fill-opacity="1" fill-rule="nonzero"/><path fill="#9db7a4" d="M 33.292969 433.324219 C 33.292969 428.4375 25.699219 428.425781 25.699219 433.324219 C 25.699219 438.210938 33.292969 438.214844 33.292969 433.324219 " fill-opacity="1" fill-rule="nonzero"/><path fill="#9db7a4" d="M 35.375 421.183594 C 35.375 416.296875 27.78125 416.289062 27.78125 421.183594 C 27.78125 426.070312 35.375 426.082031 35.375 421.183594 " fill-opacity="1" fill-rule="nonzero"/><path fill="#9db7a4" d="M 38.84375 408.695312 C 38.84375 403.808594 31.25 403.804688 31.25 408.695312 C 31.25 413.585938 38.84375 413.597656 38.84375 408.695312 " fill-opacity="1" fill-rule="nonzero"/><path fill="#9db7a4" d="M 44.742188 397.601562 C 44.742188 392.710938 37.144531 392.707031 37.144531 397.601562 C 37.144531 402.488281 44.742188 402.492188 44.742188 397.601562 " fill-opacity="1" fill-rule="nonzero"/><path fill="#9db7a4" d="M 52.371094 387.890625 C 52.371094 383.003906 44.773438 382.992188 44.773438 387.890625 C 44.773438 392.777344 52.371094 392.785156 52.371094 387.890625 " fill-opacity="1" fill-rule="nonzero"/><path fill="#9db7a4" d="M 61.300781 379.699219 C 61.300781 374.8125 53.699219 374.804688 53.699219 379.699219 C 53.699219 384.585938 61.300781 384.597656 61.300781 379.699219 " fill-opacity="1" fill-rule="nonzero"/><path fill="#9db7a4" d="M 70.75 375 C 70.75 370.101562 63.15625 370.113281 63.15625 375 C 63.15625 379.886719 70.75 379.898438 70.75 375 " fill-opacity="1" fill-rule="nonzero"/><path fill="#9db7a4" d="M 73.363281 421.183594 C 73.363281 430.957031 88.550781 430.976562 88.550781 421.183594 C 88.550781 411.410156 73.363281 411.394531 73.363281 421.183594 " fill-opacity="1" fill-rule="nonzero"/><path fill="#9db7a4" d="M 144.585938 138.175781 C 147.34375 136.589844 150.355469 135.832031 153.339844 135.832031 C 159.410156 135.832031 165.320312 138.980469 168.574219 144.605469 C 171.773438 150.152344 171.578125 156.726562 168.660156 161.953125 C 171.304688 153.445312 162.210938 142.554688 152.238281 148.3125 C 151.371094 148.816406 150.636719 149.386719 149.988281 149.988281 C 149.382812 150.640625 148.816406 151.371094 148.3125 152.238281 C 142.550781 162.21875 153.445312 171.304688 161.953125 168.664062 C 156.726562 171.582031 150.144531 171.773438 144.601562 168.574219 C 136.222656 163.730469 133.335938 152.972656 138.175781 144.585938 C 138.960938 143.234375 139.910156 142.027344 140.964844 140.964844 L 140.96875 140.972656 C 142.03125 139.917969 143.230469 138.960938 144.585938 138.175781 Z M 134.230469 142.308594 C 128.132812 152.871094 131.765625 166.425781 142.324219 172.519531 C 145.796875 174.523438 149.59375 175.476562 153.34375 175.476562 C 159.140625 175.476562 164.8125 173.191406 169.007812 169.007812 L 168.996094 168.996094 C 175.886719 162.09375 177.621094 151.167969 172.515625 142.324219 C 166.417969 131.765625 152.863281 128.132812 142.304688 134.234375 C 140.59375 135.222656 139.089844 136.417969 137.753906 137.753906 C 136.417969 139.089844 135.222656 140.597656 134.230469 142.308594 " fill-opacity="1" fill-rule="nonzero"/><path fill="#9db7a4" d="M 109.382812 124.664062 C 106.933594 128.90625 113.519531 132.699219 115.960938 128.460938 C 118.410156 124.21875 111.824219 120.429688 109.382812 124.664062 " fill-opacity="1" fill-rule="nonzero"/><path fill="#9db7a4" d="M 113.277344 142.132812 C 115.722656 137.890625 109.140625 134.097656 106.699219 138.335938 C 104.25 142.570312 110.835938 146.363281 113.277344 142.132812 " fill-opacity="1" fill-rule="nonzero"/><path fill="#9db7a4" d="M 108.234375 153.640625 C 110.683594 149.398438 104.101562 145.605469 101.660156 149.84375 C 99.210938 154.078125 105.789062 157.871094 108.234375 153.640625 " fill-opacity="1" fill-rule="nonzero"/><path fill="#9db7a4" d="M 103.96875 165.195312 C 106.417969 160.953125 99.832031 157.160156 97.386719 161.390625 C 94.9375 165.632812 101.523438 169.425781 103.96875 165.195312 " fill-opacity="1" fill-rule="nonzero"/><path fill="#9db7a4" d="M 100.726562 177.738281 C 103.175781 173.496094 96.597656 169.707031 94.148438 173.941406 C 91.703125 178.179688 98.285156 181.96875 100.726562 177.738281 " fill-opacity="1" fill-rule="nonzero"/><path fill="#9db7a4" d="M 100.28125 190.296875 C 102.730469 186.058594 96.152344 182.269531 93.707031 186.5 C 91.257812 190.742188 97.839844 194.53125 100.28125 190.296875 " fill-opacity="1" fill-rule="nonzero"/><path fill="#9db7a4" d="M 102.039062 202.523438 C 104.484375 198.28125 97.902344 194.492188 95.460938 198.726562 C 93.011719 202.964844 99.597656 206.753906 102.039062 202.523438 " fill-opacity="1" fill-rule="nonzero"/><path fill="#9db7a4" d="M 105.679688 214.078125 C 108.128906 209.84375 101.542969 206.046875 99.097656 210.28125 C 96.648438 214.523438 103.234375 218.308594 105.679688 214.078125 " fill-opacity="1" fill-rule="nonzero"/><path fill="#9db7a4" d="M 110.003906 111.394531 C 107.730469 115.324219 113.21875 118.851562 115.980469 115.980469 C 118.851562 113.222656 115.324219 107.730469 111.390625 110.003906 C 111.082031 110.179688 110.828125 110.386719 110.601562 110.601562 C 110.382812 110.832031 110.179688 111.082031 110.003906 111.394531 " fill-opacity="1" fill-rule="nonzero"/><path fill="#9db7a4" d="M 150.023438 191.777344 C 154.914062 183.300781 141.753906 175.71875 136.867188 184.183594 C 131.96875 192.664062 145.136719 200.246094 150.023438 191.777344 " fill-opacity="1" fill-rule="nonzero"/><path fill="#9db7a4" d="M 31.976562 273.9375 C 34.417969 269.703125 27.84375 265.898438 25.394531 270.140625 C 22.953125 274.371094 29.527344 278.175781 31.976562 273.9375 " fill-opacity="1" fill-rule="nonzero"/><path fill="#9db7a4" d="M 42.46875 264.78125 C 44.914062 260.542969 38.339844 256.742188 35.890625 260.976562 C 33.445312 265.214844 40.019531 269.015625 42.46875 264.78125 " fill-opacity="1" fill-rule="nonzero"/><path fill="#9db7a4" d="M 49.910156 254.65625 C 52.355469 250.425781 45.78125 246.621094 43.335938 250.859375 C 40.894531 255.09375 47.464844 258.898438 49.910156 254.65625 " fill-opacity="1" fill-rule="nonzero"/><path fill="#9db7a4" d="M 57.785156 245.1875 C 60.230469 240.957031 53.652344 237.148438 51.207031 241.390625 C 48.761719 245.621094 55.335938 249.421875 57.785156 245.1875 " fill-opacity="1" fill-rule="nonzero"/><path fill="#9db7a4" d="M 67.03125 236.105469 C 69.472656 231.875 62.898438 228.070312 60.449219 232.308594 C 58.007812 236.542969 64.582031 240.347656 67.03125 236.105469 " fill-opacity="1" fill-rule="nonzero"/><path fill="#9db7a4" d="M 77.683594 229.441406 C 80.125 225.210938 73.550781 221.402344 71.109375 225.644531 C 68.664062 229.875 75.238281 233.683594 77.683594 229.441406 " fill-opacity="1" fill-rule="nonzero"/><path fill="#9db7a4" d="M 89.148438 224.847656 C 91.59375 220.613281 85.019531 216.808594 82.570312 221.050781 C 80.125 225.28125 86.699219 229.085938 89.148438 224.847656 " fill-opacity="1" fill-rule="nonzero"/><path fill="#9db7a4" d="M 100.972656 222.222656 C 103.421875 217.988281 96.847656 214.183594 94.398438 218.421875 C 91.957031 222.65625 98.53125 226.460938 100.972656 222.222656 " fill-opacity="1" fill-rule="nonzero"/><path fill="#9db7a4" d="M 111.515625 222.878906 C 113.957031 218.636719 107.378906 214.847656 104.933594 219.078125 C 102.492188 223.3125 109.066406 227.117188 111.515625 222.878906 " fill-opacity="1" fill-rule="nonzero"/><path fill="#9db7a4" d="M 103.839844 271.777344 C 108.726562 263.308594 95.578125 255.699219 90.683594 264.175781 C 85.792969 272.644531 98.941406 280.253906 103.839844 271.777344 " fill-opacity="1" fill-rule="nonzero"/><path fill="#9db7a4" d="M 285.109375 57.046875 C 286.46875 56.261719 287.886719 55.6875 289.335938 55.296875 L 289.339844 55.3125 C 290.789062 54.925781 292.300781 54.703125 293.863281 54.703125 C 303.550781 54.703125 311.425781 62.578125 311.425781 72.257812 C 311.425781 78.664062 307.96875 84.257812 302.828125 87.328125 C 309.375 81.28125 306.941406 67.300781 295.429688 67.300781 C 294.421875 67.300781 293.507812 67.429688 292.640625 67.628906 C 291.789062 67.886719 290.929688 68.238281 290.0625 68.742188 C 280.136719 74.472656 284.929688 87.691406 293.542969 89.753906 C 292.140625 89.726562 290.734375 89.585938 289.347656 89.210938 C 284.816406 87.996094 281.03125 85.089844 278.683594 81.03125 C 273.84375 72.644531 276.726562 61.886719 285.109375 57.046875 Z M 274.738281 83.308594 C 277.691406 88.425781 282.460938 92.085938 288.164062 93.617188 C 290.074219 94.125 292.007812 94.378906 293.929688 94.378906 C 295.84375 94.378906 297.753906 94.125 299.605469 93.621094 L 299.59375 93.59375 C 309.015625 91.0625 315.984375 82.472656 315.984375 72.257812 C 315.984375 60.066406 306.058594 50.144531 293.863281 50.144531 C 291.890625 50.144531 289.984375 50.425781 288.164062 50.917969 L 288.164062 50.914062 C 286.335938 51.40625 284.542969 52.113281 282.832031 53.097656 C 272.273438 59.199219 268.640625 72.75 274.738281 83.308594 " fill-opacity="1" fill-rule="nonzero"/><path fill="#9db7a4" d="M 273.9375 31.976562 C 278.171875 29.527344 274.371094 22.953125 270.140625 25.394531 C 265.898438 27.84375 269.699219 34.417969 273.9375 31.976562 " fill-opacity="1" fill-rule="nonzero"/><path fill="#9db7a4" d="M 264.777344 42.46875 C 269.015625 40.019531 265.210938 33.445312 260.976562 35.890625 C 256.738281 38.339844 260.542969 44.914062 264.777344 42.46875 " fill-opacity="1" fill-rule="nonzero"/><path fill="#9db7a4" d="M 254.652344 49.910156 C 258.894531 47.46875 255.09375 40.894531 250.855469 43.335938 C 246.621094 45.78125 250.421875 52.355469 254.652344 49.910156 " fill-opacity="1" fill-rule="nonzero"/><path fill="#9db7a4" d="M 245.183594 57.785156 C 249.421875 55.335938 245.617188 48.761719 241.386719 51.207031 C 237.144531 53.65625 240.953125 60.230469 245.183594 57.785156 " fill-opacity="1" fill-rule="nonzero"/><path fill="#9db7a4" d="M 236.101562 67.03125 C 240.34375 64.582031 236.542969 58.007812 232.304688 60.453125 C 228.070312 62.902344 231.871094 69.476562 236.101562 67.03125 " fill-opacity="1" fill-rule="nonzero"/><path fill="#9db7a4" d="M 229.441406 77.683594 C 233.683594 75.242188 229.875 68.667969 225.644531 71.109375 C 221.402344 73.554688 225.210938 80.132812 229.441406 77.683594 " fill-opacity="1" fill-rule="nonzero"/><path fill="#9db7a4" d="M 224.847656 89.152344 C 229.082031 86.703125 225.28125 80.128906 221.050781 82.570312 C 216.808594 85.019531 220.609375 91.59375 224.847656 89.152344 " fill-opacity="1" fill-rule="nonzero"/><path fill="#9db7a4" d="M 222.222656 100.976562 C 226.457031 98.53125 222.65625 91.957031 218.417969 94.402344 C 214.183594 96.84375 217.984375 103.417969 222.222656 100.976562 " fill-opacity="1" fill-rule="nonzero"/><path fill="#9db7a4" d="M 280.1875 21.171875 C 284.0625 20.214844 283.746094 13.699219 279.203125 13.699219 C 278.851562 13.699219 278.53125 13.753906 278.21875 13.828125 C 277.921875 13.910156 277.617188 14.035156 277.304688 14.210938 C 273.378906 16.476562 276.363281 22.285156 280.1875 21.171875 " fill-opacity="1" fill-rule="nonzero"/><path fill="#9db7a4" d="M 271.773438 103.839844 C 280.253906 98.941406 272.640625 85.792969 264.175781 90.679688 C 255.695312 95.578125 263.308594 108.726562 271.773438 103.839844 " fill-opacity="1" fill-rule="nonzero"/><path fill="#9db7a4" d="M 128.460938 115.964844 C 132.695312 113.519531 128.898438 106.933594 124.664062 109.382812 C 120.433594 111.828125 124.222656 118.414062 128.460938 115.964844 " fill-opacity="1" fill-rule="nonzero"/><path fill="#9db7a4" d="M 142.128906 113.28125 C 146.359375 110.835938 142.570312 104.25 138.332031 106.699219 C 134.097656 109.144531 137.886719 115.722656 142.128906 113.28125 " fill-opacity="1" fill-rule="nonzero"/><path fill="#9db7a4" d="M 153.636719 108.234375 C 157.867188 105.792969 154.078125 99.210938 149.839844 101.660156 C 145.605469 104.105469 149.394531 110.683594 153.636719 108.234375 " fill-opacity="1" fill-rule="nonzero"/><path fill="#9db7a4" d="M 165.191406 103.96875 C 169.421875 101.527344 165.632812 94.945312 161.390625 97.390625 C 157.160156 99.832031 160.949219 106.417969 165.191406 103.96875 " fill-opacity="1" fill-rule="nonzero"/><path fill="#9db7a4" d="M 177.738281 100.730469 C 181.96875 98.285156 178.175781 91.707031 173.941406 94.148438 C 169.703125 96.59375 173.496094 103.179688 177.738281 100.730469 " fill-opacity="1" fill-rule="nonzero"/><path fill="#9db7a4" d="M 190.292969 100.285156 C 194.53125 97.839844 190.738281 91.261719 186.496094 93.710938 C 182.265625 96.152344 186.058594 102.734375 190.292969 100.285156 " fill-opacity="1" fill-rule="nonzero"/><path fill="#9db7a4" d="M 202.523438 102.035156 C 206.753906 99.59375 202.960938 93.011719 198.726562 95.460938 C 194.488281 97.90625 198.28125 104.484375 202.523438 102.035156 " fill-opacity="1" fill-rule="nonzero"/><path fill="#9db7a4" d="M 214.078125 105.679688 C 218.308594 103.238281 214.523438 96.652344 210.28125 99.101562 C 206.042969 101.542969 209.839844 108.128906 214.078125 105.679688 " fill-opacity="1" fill-rule="nonzero"/><path fill="#9db7a4" d="M 219.074219 104.9375 C 214.84375 107.378906 218.636719 113.960938 222.878906 111.515625 C 227.113281 109.066406 223.3125 102.492188 219.074219 104.9375 " fill-opacity="1" fill-rule="nonzero"/><path fill="#9db7a4" d="M 191.78125 150.023438 C 200.242188 145.136719 192.660156 131.972656 184.183594 136.871094 C 175.714844 141.757812 183.296875 154.917969 191.78125 150.023438 " fill-opacity="1" fill-rule="nonzero"/><path fill="#9db7a4" d="M 456.132812 54.703125 C 457.699219 54.703125 459.210938 54.925781 460.65625 55.3125 L 460.664062 55.296875 C 462.109375 55.6875 463.527344 56.261719 464.886719 57.046875 C 473.273438 61.886719 476.15625 72.644531 471.316406 81.03125 C 468.972656 85.089844 465.179688 87.996094 460.652344 89.210938 C 459.210938 89.597656 457.746094 89.777344 456.285156 89.796875 C 465.011719 87.867188 469.925781 74.507812 459.9375 68.742188 C 459.070312 68.238281 458.207031 67.886719 457.359375 67.628906 C 456.492188 67.429688 455.578125 67.300781 454.570312 67.300781 C 443.050781 67.300781 440.625 81.28125 447.167969 87.328125 C 442.03125 84.265625 438.574219 78.664062 438.574219 72.257812 C 438.574219 62.578125 446.449219 54.703125 456.132812 54.703125 Z M 434.015625 72.257812 C 434.015625 82.472656 440.980469 91.0625 450.402344 93.59375 L 450.390625 93.621094 C 452.242188 94.125 454.152344 94.378906 456.070312 94.378906 C 457.992188 94.378906 459.925781 94.125 461.828125 93.617188 C 467.535156 92.085938 472.304688 88.425781 475.257812 83.308594 C 481.359375 72.75 477.726562 59.199219 467.167969 53.097656 C 465.457031 52.113281 463.664062 51.40625 461.835938 50.917969 C 460.011719 50.425781 458.109375 50.144531 456.132812 50.144531 C 443.933594 50.144531 434.015625 60.066406 434.015625 72.257812 " fill-opacity="1" fill-rule="nonzero"/><path fill="#9db7a4" d="M 458.988281 27.398438 C 463.886719 27.398438 463.875 19.804688 458.988281 19.804688 C 454.09375 19.804688 454.101562 27.398438 458.988281 27.398438 " fill-opacity="1" fill-rule="nonzero"/><path fill="#9db7a4" d="M 445.808594 31.90625 C 450.703125 31.90625 450.695312 24.3125 445.808594 24.3125 C 440.910156 24.3125 440.921875 31.90625 445.808594 31.90625 " fill-opacity="1" fill-rule="nonzero"/><path fill="#9db7a4" d="M 433.324219 33.292969 C 438.214844 33.292969 438.210938 25.699219 433.324219 25.699219 C 428.425781 25.699219 428.4375 33.292969 433.324219 33.292969 " fill-opacity="1" fill-rule="nonzero"/><path fill="#9db7a4" d="M 421.183594 35.375 C 426.082031 35.375 426.070312 27.78125 421.183594 27.78125 C 416.289062 27.78125 416.296875 35.375 421.183594 35.375 " fill-opacity="1" fill-rule="nonzero"/><path fill="#9db7a4" d="M 408.695312 38.84375 C 413.59375 38.84375 413.582031 31.25 408.695312 31.25 C 403.804688 31.25 403.808594 38.84375 408.695312 38.84375 " fill-opacity="1" fill-rule="nonzero"/><path fill="#9db7a4" d="M 397.597656 44.742188 C 402.492188 44.742188 402.484375 37.144531 397.597656 37.144531 C 392.707031 37.144531 392.710938 44.742188 397.597656 44.742188 " fill-opacity="1" fill-rule="nonzero"/><path fill="#9db7a4" d="M 387.890625 52.371094 C 392.78125 52.371094 392.777344 44.777344 387.890625 44.777344 C 382.992188 44.777344 383.003906 52.371094 387.890625 52.371094 " fill-opacity="1" fill-rule="nonzero"/><path fill="#9db7a4" d="M 379.699219 61.300781 C 384.597656 61.300781 384.585938 53.703125 379.699219 53.703125 C 374.804688 53.703125 374.8125 61.300781 379.699219 61.300781 " fill-opacity="1" fill-rule="nonzero"/><path fill="#9db7a4" d="M 469.808594 21.171875 C 473.636719 22.285156 476.617188 16.476562 472.691406 14.210938 C 472.382812 14.035156 472.078125 13.910156 471.777344 13.828125 C 471.46875 13.753906 471.144531 13.699219 470.792969 13.699219 C 466.253906 13.699219 465.9375 20.214844 469.808594 21.171875 " fill-opacity="1" fill-rule="nonzero"/><path fill="#9db7a4" d="M 421.183594 88.554688 C 430.972656 88.554688 430.957031 73.367188 421.183594 73.367188 C 411.390625 73.367188 411.410156 88.554688 421.183594 88.554688 " fill-opacity="1" fill-rule="nonzero"/><path fill="#9db7a4" d="M 291.011719 27.398438 C 295.898438 27.398438 295.902344 19.804688 291.011719 19.804688 C 286.125 19.804688 286.113281 27.398438 291.011719 27.398438 " fill-opacity="1" fill-rule="nonzero"/><path fill="#9db7a4" d="M 304.1875 31.90625 C 309.074219 31.90625 309.085938 24.3125 304.1875 24.3125 C 299.300781 24.3125 299.296875 31.90625 304.1875 31.90625 " fill-opacity="1" fill-rule="nonzero"/><path fill="#9db7a4" d="M 316.675781 33.292969 C 321.5625 33.292969 321.574219 25.699219 316.675781 25.699219 C 311.789062 25.699219 311.78125 33.292969 316.675781 33.292969 " fill-opacity="1" fill-rule="nonzero"/><path fill="#9db7a4" d="M 328.816406 35.375 C 333.703125 35.375 333.707031 27.78125 328.816406 27.78125 C 323.929688 27.78125 323.917969 35.375 328.816406 35.375 " fill-opacity="1" fill-rule="nonzero"/><path fill="#9db7a4" d="M 341.300781 38.84375 C 346.1875 38.84375 346.195312 31.25 341.300781 31.25 C 336.414062 31.25 336.402344 38.84375 341.300781 38.84375 " fill-opacity="1" fill-rule="nonzero"/><path fill="#9db7a4" d="M 352.398438 44.742188 C 357.285156 44.742188 357.292969 37.144531 352.398438 37.144531 C 347.511719 37.144531 347.507812 44.742188 352.398438 44.742188 " fill-opacity="1" fill-rule="nonzero"/><path fill="#9db7a4" d="M 362.109375 52.371094 C 366.996094 52.371094 367.007812 44.777344 362.109375 44.777344 C 357.222656 44.777344 357.214844 52.371094 362.109375 52.371094 " fill-opacity="1" fill-rule="nonzero"/><path fill="#9db7a4" d="M 370.300781 61.300781 C 375.1875 61.300781 375.191406 53.703125 370.300781 53.703125 C 365.414062 53.703125 365.402344 61.300781 370.300781 61.300781 " fill-opacity="1" fill-rule="nonzero"/><path fill="#9db7a4" d="M 375 70.753906 C 379.898438 70.753906 379.886719 63.160156 375 63.160156 C 370.113281 63.160156 370.101562 70.753906 375 70.753906 " fill-opacity="1" fill-rule="nonzero"/><path fill="#9db7a4" d="M 328.816406 88.554688 C 338.589844 88.554688 338.605469 73.367188 328.816406 73.367188 C 319.042969 73.367188 319.023438 88.554688 328.816406 88.554688 " fill-opacity="1" fill-rule="nonzero"/></svg>