<svg id="visual" viewBox="0 0 900 600" width="900" height="600" xmlns="http://www.w3.org/2000/svg" xmlns:xlink="http://www.w3.org/1999/xlink" version="1.1"><rect x="0" y="0" width="900" height="600" fill="#ffffff"></rect><path d="M0 477L18.8 477.2C37.7 477.3 75.3 477.7 112.8 478.3C150.3 479 187.7 480 225.2 477.7C262.7 475.3 300.3 469.7 337.8 468.7C375.3 467.7 412.7 471.3 450.2 470.2C487.7 469 525.3 463 562.8 461.8C600.3 460.7 637.7 464.3 675.2 470.2C712.7 476 750.3 484 787.8 482.3C825.3 480.7 862.7 469.3 881.3 463.7L900 458L900 601L881.3 601C862.7 601 825.3 601 787.8 601C750.3 601 712.7 601 675.2 601C637.7 601 600.3 601 562.8 601C525.3 601 487.7 601 450.2 601C412.7 601 375.3 601 337.8 601C300.3 601 262.7 601 225.2 601C187.7 601 150.3 601 112.8 601C75.3 601 37.7 601 18.8 601L0 601Z" fill="#ffffff"></path><path d="M0 475L18.8 478C37.7 481 75.3 487 112.8 491.8C150.3 496.7 187.7 500.3 225.2 500.3C262.7 500.3 300.3 496.7 337.8 494.2C375.3 491.7 412.7 490.3 450.2 485.8C487.7 481.3 525.3 473.7 562.8 471C600.3 468.3 637.7 470.7 675.2 477.3C712.7 484 750.3 495 787.8 494.3C825.3 493.7 862.7 481.3 881.3 475.2L900 469L900 601L881.3 601C862.7 601 825.3 601 787.8 601C750.3 601 712.7 601 675.2 601C637.7 601 600.3 601 562.8 601C525.3 601 487.7 601 450.2 601C412.7 601 375.3 601 337.8 601C300.3 601 262.7 601 225.2 601C187.7 601 150.3 601 112.8 601C75.3 601 37.7 601 18.8 601L0 601Z" fill="#fbe3da"></path><path d="M0 523L18.8 519.5C37.7 516 75.3 509 112.8 505C150.3 501 187.7 500 225.2 502.5C262.7 505 300.3 511 337.8 514.7C375.3 518.3 412.7 519.7 450.2 515.2C487.7 510.7 525.3 500.3 562.8 497C600.3 493.7 637.7 497.3 675.2 497.8C712.7 498.3 750.3 495.7 787.8 497.5C825.3 499.3 862.7 505.7 881.3 508.8L900 512L900 601L881.3 601C862.7 601 825.3 601 787.8 601C750.3 601 712.7 601 675.2 601C637.7 601 600.3 601 562.8 601C525.3 601 487.7 601 450.2 601C412.7 601 375.3 601 337.8 601C300.3 601 262.7 601 225.2 601C187.7 601 150.3 601 112.8 601C75.3 601 37.7 601 18.8 601L0 601Z" fill="#f5c7b5"></path><path d="M0 512L18.8 514.3C37.7 516.7 75.3 521.3 112.8 524.7C150.3 528 187.7 530 225.2 527.5C262.7 525 300.3 518 337.8 513.8C375.3 509.7 412.7 508.3 450.2 512.8C487.7 517.3 525.3 527.7 562.8 529.7C600.3 531.7 637.7 525.3 675.2 523.5C712.7 521.7 750.3 524.3 787.8 523.2C825.3 522 862.7 517 881.3 514.5L900 512L900 601L881.3 601C862.7 601 825.3 601 787.8 601C750.3 601 712.7 601 675.2 601C637.7 601 600.3 601 562.8 601C525.3 601 487.7 601 450.2 601C412.7 601 375.3 601 337.8 601C300.3 601 262.7 601 225.2 601C187.7 601 150.3 601 112.8 601C75.3 601 37.7 601 18.8 601L0 601Z" fill="#ecac92"></path><path d="M0 533L18.8 533.8C37.7 534.7 75.3 536.3 112.8 538.2C150.3 540 187.7 542 225.2 541.7C262.7 541.3 300.3 538.7 337.8 537.7C375.3 536.7 412.7 537.3 450.2 536.2C487.7 535 525.3 532 562.8 532.2C600.3 532.3 637.7 535.7 675.2 537.7C712.7 539.7 750.3 540.3 787.8 539.5C825.3 538.7 862.7 536.3 881.3 535.2L900 534L900 601L881.3 601C862.7 601 825.3 601 787.8 601C750.3 601 712.7 601 675.2 601C637.7 601 600.3 601 562.8 601C525.3 601 487.7 601 450.2 601C412.7 601 375.3 601 337.8 601C300.3 601 262.7 601 225.2 601C187.7 601 150.3 601 112.8 601C75.3 601 37.7 601 18.8 601L0 601Z" fill="#e19170"></path><path d="M0 549L18.8 549.2C37.7 549.3 75.3 549.7 112.8 549C150.3 548.3 187.7 546.7 225.2 549.8C262.7 553 300.3 561 337.8 562.8C375.3 564.7 412.7 560.3 450.2 560.5C487.7 560.7 525.3 565.3 562.8 564.7C600.3 564 637.7 558 675.2 553.8C712.7 549.7 750.3 547.3 787.8 549.8C825.3 552.3 862.7 559.7 881.3 563.3L900 567L900 601L881.3 601C862.7 601 825.3 601 787.8 601C750.3 601 712.7 601 675.2 601C637.7 601 600.3 601 562.8 601C525.3 601 487.7 601 450.2 601C412.7 601 375.3 601 337.8 601C300.3 601 262.7 601 225.2 601C187.7 601 150.3 601 112.8 601C75.3 601 37.7 601 18.8 601L0 601Z" fill="#d4764f"></path><path d="M0 586L18.8 585.3C37.7 584.7 75.3 583.3 112.8 582.2C150.3 581 187.7 580 225.2 580.2C262.7 580.3 300.3 581.7 337.8 582.5C375.3 583.3 412.7 583.7 450.2 583.7C487.7 583.7 525.3 583.3 562.8 583.3C600.3 583.3 637.7 583.7 675.2 580.8C712.7 578 750.3 572 787.8 571C825.3 570 862.7 574 881.3 576L900 578L900 601L881.3 601C862.7 601 825.3 601 787.8 601C750.3 601 712.7 601 675.2 601C637.7 601 600.3 601 562.8 601C525.3 601 487.7 601 450.2 601C412.7 601 375.3 601 337.8 601C300.3 601 262.7 601 225.2 601C187.7 601 150.3 601 112.8 601C75.3 601 37.7 601 18.8 601L0 601Z" fill="#c65a2e"></path></svg>